<?xml version="1.0" encoding="UTF-8" standalone="no"?>
<!DOCTYPE svg PUBLIC "-//W3C//DTD SVG 1.1//EN"
 "http://www.w3.org/Graphics/SVG/1.1/DTD/svg11.dtd">
<!-- Generated by graphviz version 2.43.0 (0)
 -->
<!-- Title: hal/constants/crypto.h Pages: 1 -->
<svg width="1413pt" height="412pt"
 viewBox="0.00 0.00 1412.50 412.00" xmlns="http://www.w3.org/2000/svg" xmlns:xlink="http://www.w3.org/1999/xlink">
<g id="graph0" class="graph" transform="scale(1 1) rotate(0) translate(4 408)">
<title>hal/constants/crypto.h</title>
<!-- Node1 -->
<g id="Node000001" class="node">
<title>Node1</title>
<g id="a_Node000001"><a xlink:title=" ">
<polygon fill="#999999" stroke="#666666" points="701,-404 576,-404 576,-385 701,-385 701,-404"/>
<text text-anchor="middle" x="638.5" y="-392" font-family="Helvetica,sans-Serif" font-size="10.00">hal/constants/crypto.h</text>
</a>
</g>
</g>
<!-- Node2 -->
<g id="Node000002" class="node">
<title>Node2</title>
<g id="a_Node000002"><a xlink:href="constants_2all_8h.html" target="_top" xlink:title=" ">
<polygon fill="white" stroke="#666666" points="630.5,-349 524.5,-349 524.5,-330 630.5,-330 630.5,-349"/>
<text text-anchor="middle" x="577.5" y="-337" font-family="Helvetica,sans-Serif" font-size="10.00">hal/constants/all.h</text>
</a>
</g>
</g>
<!-- Node1&#45;&gt;Node2 -->
<g id="edge1_Node000001_Node000002" class="edge">
<title>Node1&#45;&gt;Node2</title>
<g id="a_edge1_Node000001_Node000002"><a xlink:title=" ">
<path fill="none" stroke="#63b8ff" d="M621.03,-378.32C610.16,-368.87 596.56,-357.06 587.48,-349.17"/>
<polygon fill="#63b8ff" stroke="#63b8ff" points="618.85,-381.07 628.7,-384.98 623.45,-375.78 618.85,-381.07"/>
</a>
</g>
</g>
<!-- Node4 -->
<g id="Node000004" class="node">
<title>Node4</title>
<g id="a_Node000004"><a xlink:href="types_2crypto_8h.html" target="_top" xlink:title=" ">
<polygon fill="white" stroke="#666666" points="752.5,-349 648.5,-349 648.5,-330 752.5,-330 752.5,-349"/>
<text text-anchor="middle" x="700.5" y="-337" font-family="Helvetica,sans-Serif" font-size="10.00">hal/types/crypto.h</text>
</a>
</g>
</g>
<!-- Node1&#45;&gt;Node4 -->
<g id="edge3_Node000001_Node000004" class="edge">
<title>Node1&#45;&gt;Node4</title>
<g id="a_edge3_Node000001_Node000004"><a xlink:title=" ">
<path fill="none" stroke="#63b8ff" d="M656.25,-378.32C667.31,-368.87 681.13,-357.06 690.36,-349.17"/>
<polygon fill="#63b8ff" stroke="#63b8ff" points="653.79,-375.83 648.46,-384.98 658.34,-381.15 653.79,-375.83"/>
</a>
</g>
</g>
<!-- Node3 -->
<g id="Node000003" class="node">
<title>Node3</title>
<g id="a_Node000003"><a xlink:href="constants_8h.html" target="_top" xlink:title=" ">
<polygon fill="white" stroke="#666666" points="623,-294 532,-294 532,-275 623,-275 623,-294"/>
<text text-anchor="middle" x="577.5" y="-282" font-family="Helvetica,sans-Serif" font-size="10.00">hal/constants.h</text>
</a>
</g>
</g>
<!-- Node2&#45;&gt;Node3 -->
<g id="edge2_Node000002_Node000003" class="edge">
<title>Node2&#45;&gt;Node3</title>
<g id="a_edge2_Node000002_Node000003"><a xlink:title=" ">
<path fill="none" stroke="#63b8ff" d="M577.5,-319.66C577.5,-310.93 577.5,-300.99 577.5,-294.09"/>
<polygon fill="#63b8ff" stroke="#63b8ff" points="574,-319.75 577.5,-329.75 581,-319.75 574,-319.75"/>
</a>
</g>
</g>
<!-- Node5 -->
<g id="Node000005" class="node">
<title>Node5</title>
<g id="a_Node000005"><a xlink:href="types_2all_8h.html" target="_top" xlink:title=" ">
<polygon fill="white" stroke="#666666" points="743.5,-294 657.5,-294 657.5,-275 743.5,-275 743.5,-294"/>
<text text-anchor="middle" x="700.5" y="-282" font-family="Helvetica,sans-Serif" font-size="10.00">hal/types/all.h</text>
</a>
</g>
</g>
<!-- Node4&#45;&gt;Node5 -->
<g id="edge4_Node000004_Node000005" class="edge">
<title>Node4&#45;&gt;Node5</title>
<g id="a_edge4_Node000004_Node000005"><a xlink:title=" ">
<path fill="none" stroke="#63b8ff" d="M700.5,-319.66C700.5,-310.93 700.5,-300.99 700.5,-294.09"/>
<polygon fill="#63b8ff" stroke="#63b8ff" points="697,-319.75 700.5,-329.75 704,-319.75 697,-319.75"/>
</a>
</g>
</g>
<!-- Node6 -->
<g id="Node000006" class="node">
<title>Node6</title>
<g id="a_Node000006"><a xlink:href="types_8h.html" target="_top" xlink:title=" ">
<polygon fill="white" stroke="#666666" points="736,-239 665,-239 665,-220 736,-220 736,-239"/>
<text text-anchor="middle" x="700.5" y="-227" font-family="Helvetica,sans-Serif" font-size="10.00">hal/types.h</text>
</a>
</g>
</g>
<!-- Node5&#45;&gt;Node6 -->
<g id="edge5_Node000005_Node000006" class="edge">
<title>Node5&#45;&gt;Node6</title>
<g id="a_edge5_Node000005_Node000006"><a xlink:title=" ">
<path fill="none" stroke="#63b8ff" d="M700.5,-264.66C700.5,-255.93 700.5,-245.99 700.5,-239.09"/>
<polygon fill="#63b8ff" stroke="#63b8ff" points="697,-264.75 700.5,-274.75 704,-264.75 697,-264.75"/>
</a>
</g>
</g>
<!-- Node7 -->
<g id="Node000007" class="node">
<title>Node7</title>
<g id="a_Node000007"><a xlink:href="map_8h.html" target="_top" xlink:title="HAL for uC Peripheral Map.">
<polygon fill="white" stroke="#666666" points="740.5,-184 660.5,-184 660.5,-165 740.5,-165 740.5,-184"/>
<text text-anchor="middle" x="700.5" y="-172" font-family="Helvetica,sans-Serif" font-size="10.00">hal/uc/map.h</text>
</a>
</g>
</g>
<!-- Node6&#45;&gt;Node7 -->
<g id="edge6_Node000006_Node000007" class="edge">
<title>Node6&#45;&gt;Node7</title>
<g id="a_edge6_Node000006_Node000007"><a xlink:title=" ">
<path fill="none" stroke="#63b8ff" d="M700.5,-209.66C700.5,-200.93 700.5,-190.99 700.5,-184.09"/>
<polygon fill="#63b8ff" stroke="#63b8ff" points="697,-209.75 700.5,-219.75 704,-209.75 697,-209.75"/>
</a>
</g>
</g>
<!-- Node8 -->
<g id="Node000008" class="node">
<title>Node8</title>
<g id="a_Node000008"><a xlink:href="uc_2adc_8h.html" target="_top" xlink:title="HAL for uC Internal ADC interfaces.">
<polygon fill="white" stroke="#666666" points="75,-129 0,-129 0,-110 75,-110 75,-129"/>
<text text-anchor="middle" x="37.5" y="-117" font-family="Helvetica,sans-Serif" font-size="10.00">hal/uc/adc.h</text>
</a>
</g>
</g>
<!-- Node7&#45;&gt;Node8 -->
<g id="edge7_Node000007_Node000008" class="edge">
<title>Node7&#45;&gt;Node8</title>
<g id="a_edge7_Node000007_Node000008"><a xlink:title=" ">
<path fill="none" stroke="#63b8ff" d="M650.08,-171.35C545.36,-166.56 296.8,-153.44 89.5,-129 84.87,-128.45 80.02,-127.79 75.22,-127.07"/>
<polygon fill="#63b8ff" stroke="#63b8ff" points="650.2,-174.86 660.35,-171.82 650.52,-167.87 650.2,-174.86"/>
</a>
</g>
</g>
<!-- Node9 -->
<g id="Node000009" class="node">
<title>Node9</title>
<g id="a_Node000009"><a xlink:href="uc_2all_8h.html" target="_top" xlink:title=" ">
<polygon fill="white" stroke="#666666" points="780.5,-74 710.5,-74 710.5,-55 780.5,-55 780.5,-74"/>
<text text-anchor="middle" x="745.5" y="-62" font-family="Helvetica,sans-Serif" font-size="10.00">hal/uc/all.h</text>
</a>
</g>
</g>
<!-- Node7&#45;&gt;Node9 -->
<g id="edge10_Node000007_Node000009" class="edge">
<title>Node7&#45;&gt;Node9</title>
<g id="a_edge10_Node000007_Node000009"><a xlink:title=" ">
<path fill="none" stroke="#63b8ff" d="M650.12,-173.44C516,-172.76 157.99,-167.33 122.5,-129 116.76,-122.8 116.75,-116.18 122.5,-110 162.68,-66.85 584.29,-64.9 710.19,-65.29"/>
<polygon fill="#63b8ff" stroke="#63b8ff" points="650.12,-176.94 660.14,-173.48 650.15,-169.94 650.12,-176.94"/>
</a>
</g>
</g>
<!-- Node11 -->
<g id="Node000011" class="node">
<title>Node11</title>
<g id="a_Node000011"><a xlink:href="core_8h.html" target="_top" xlink:title="HAL for uC Core peripherals.">
<polygon fill="white" stroke="#666666" points="211,-129 132,-129 132,-110 211,-110 211,-129"/>
<text text-anchor="middle" x="171.5" y="-117" font-family="Helvetica,sans-Serif" font-size="10.00">hal/uc/core.h</text>
</a>
</g>
</g>
<!-- Node7&#45;&gt;Node11 -->
<g id="edge11_Node000007_Node000011" class="edge">
<title>Node7&#45;&gt;Node11</title>
<g id="a_edge11_Node000007_Node000011"><a xlink:title=" ">
<path fill="none" stroke="#63b8ff" d="M650.27,-170.23C562.6,-164.22 376.04,-150.06 219.5,-129 216.73,-128.63 213.88,-128.21 211.01,-127.76"/>
<polygon fill="#63b8ff" stroke="#63b8ff" points="650.25,-173.74 660.46,-170.92 650.73,-166.75 650.25,-173.74"/>
</a>
</g>
</g>
<!-- Node12 -->
<g id="Node000012" class="node">
<title>Node12</title>
<g id="a_Node000012"><a xlink:href="uc_2crypto_8h.html" target="_top" xlink:title=" ">
<polygon fill="white" stroke="#666666" points="318,-129 229,-129 229,-110 318,-110 318,-129"/>
<text text-anchor="middle" x="273.5" y="-117" font-family="Helvetica,sans-Serif" font-size="10.00">hal/uc/crypto.h</text>
</a>
</g>
</g>
<!-- Node7&#45;&gt;Node12 -->
<g id="edge13_Node000007_Node000012" class="edge">
<title>Node7&#45;&gt;Node12</title>
<g id="a_edge13_Node000007_Node000012"><a xlink:title=" ">
<path fill="none" stroke="#63b8ff" d="M650.32,-168.12C578.62,-160.29 442.8,-144.95 327.5,-129 324.49,-128.58 321.39,-128.14 318.27,-127.68"/>
<polygon fill="#63b8ff" stroke="#63b8ff" points="650.1,-171.61 660.42,-169.22 650.86,-164.65 650.1,-171.61"/>
</a>
</g>
</g>
<!-- Node13 -->
<g id="Node000013" class="node">
<title>Node13</title>
<g id="a_Node000013"><a xlink:href="uc_2dma_8h.html" target="_top" xlink:title="HAL for DMA.">
<polygon fill="white" stroke="#666666" points="416.5,-129 336.5,-129 336.5,-110 416.5,-110 416.5,-129"/>
<text text-anchor="middle" x="376.5" y="-117" font-family="Helvetica,sans-Serif" font-size="10.00">hal/uc/dma.h</text>
</a>
</g>
</g>
<!-- Node7&#45;&gt;Node13 -->
<g id="edge15_Node000007_Node000013" class="edge">
<title>Node7&#45;&gt;Node13</title>
<g id="a_edge15_Node000007_Node000013"><a xlink:title=" ">
<path fill="none" stroke="#63b8ff" d="M650.19,-165.53C595.03,-156.76 503.92,-142.15 425.5,-129 422.6,-128.51 419.61,-128.01 416.61,-127.5"/>
<polygon fill="#63b8ff" stroke="#63b8ff" points="649.97,-169.04 660.4,-167.16 651.07,-162.13 649.97,-169.04"/>
</a>
</g>
</g>
<!-- Node14 -->
<g id="Node000014" class="node">
<title>Node14</title>
<g id="a_Node000014"><a xlink:href="eeprom_8h.html" target="_top" xlink:title="HAL for uC EEPROM peripherals.">
<polygon fill="white" stroke="#666666" points="530,-129 435,-129 435,-110 530,-110 530,-129"/>
<text text-anchor="middle" x="482.5" y="-117" font-family="Helvetica,sans-Serif" font-size="10.00">hal/uc/eeprom.h</text>
</a>
</g>
</g>
<!-- Node7&#45;&gt;Node14 -->
<g id="edge16_Node000007_Node000014" class="edge">
<title>Node7&#45;&gt;Node14</title>
<g id="a_edge16_Node000007_Node000014"><a xlink:title=" ">
<path fill="none" stroke="#63b8ff" d="M655.52,-162.56C614.69,-152.64 555.3,-138.2 517.8,-129.08"/>
<polygon fill="#63b8ff" stroke="#63b8ff" points="654.93,-166.02 665.47,-164.98 656.58,-159.22 654.93,-166.02"/>
</a>
</g>
</g>
<!-- Node15 -->
<g id="Node000015" class="node">
<title>Node15</title>
<g id="a_Node000015"><a xlink:href="entropy_8h.html" target="_top" xlink:title="HAL for uC entropy source.">
<polygon fill="white" stroke="#666666" points="642.5,-129 548.5,-129 548.5,-110 642.5,-110 642.5,-129"/>
<text text-anchor="middle" x="595.5" y="-117" font-family="Helvetica,sans-Serif" font-size="10.00">hal/uc/entropy.h</text>
</a>
</g>
</g>
<!-- Node7&#45;&gt;Node15 -->
<g id="edge18_Node000007_Node000015" class="edge">
<title>Node7&#45;&gt;Node15</title>
<g id="a_edge18_Node000007_Node000015"><a xlink:title=" ">
<path fill="none" stroke="#63b8ff" d="M674.48,-160.37C655.2,-150.63 629.45,-137.64 612.68,-129.17"/>
<polygon fill="#63b8ff" stroke="#63b8ff" points="673.13,-163.6 683.63,-164.98 676.28,-157.35 673.13,-163.6"/>
</a>
</g>
</g>
<!-- Node16 -->
<g id="Node000016" class="node">
<title>Node16</title>
<g id="a_Node000016"><a xlink:href="gpio_8h.html" target="_top" xlink:title="HAL for uC GPIOs.">
<polygon fill="white" stroke="#666666" points="740,-129 661,-129 661,-110 740,-110 740,-129"/>
<text text-anchor="middle" x="700.5" y="-117" font-family="Helvetica,sans-Serif" font-size="10.00">hal/uc/gpio.h</text>
</a>
</g>
</g>
<!-- Node7&#45;&gt;Node16 -->
<g id="edge20_Node000007_Node000016" class="edge">
<title>Node7&#45;&gt;Node16</title>
<g id="a_edge20_Node000007_Node000016"><a xlink:title=" ">
<path fill="none" stroke="#63b8ff" d="M700.5,-154.66C700.5,-145.93 700.5,-135.99 700.5,-129.09"/>
<polygon fill="#63b8ff" stroke="#63b8ff" points="697,-154.75 700.5,-164.75 704,-154.75 697,-154.75"/>
</a>
</g>
</g>
<!-- Node17 -->
<g id="Node000017" class="node">
<title>Node17</title>
<g id="a_Node000017"><a xlink:href="id_8h.html" target="_top" xlink:title="HAL for uC ID.">
<polygon fill="white" stroke="#666666" points="825,-129 758,-129 758,-110 825,-110 825,-129"/>
<text text-anchor="middle" x="791.5" y="-117" font-family="Helvetica,sans-Serif" font-size="10.00">hal/uc/id.h</text>
</a>
</g>
</g>
<!-- Node7&#45;&gt;Node17 -->
<g id="edge22_Node000007_Node000017" class="edge">
<title>Node7&#45;&gt;Node17</title>
<g id="a_edge22_Node000007_Node000017"><a xlink:title=" ">
<path fill="none" stroke="#63b8ff" d="M724.2,-159.7C740.78,-150.04 762.41,-137.44 776.61,-129.17"/>
<polygon fill="#63b8ff" stroke="#63b8ff" points="722,-156.93 715.12,-164.98 725.52,-162.98 722,-156.93"/>
</a>
</g>
</g>
<!-- Node18 -->
<g id="Node000018" class="node">
<title>Node18</title>
<g id="a_Node000018"><a xlink:href="uc_2rtc_8h.html" target="_top" xlink:title="HAL for uC RTCs.">
<polygon fill="white" stroke="#666666" points="914,-129 843,-129 843,-110 914,-110 914,-129"/>
<text text-anchor="middle" x="878.5" y="-117" font-family="Helvetica,sans-Serif" font-size="10.00">hal/uc/rtc.h</text>
</a>
</g>
</g>
<!-- Node7&#45;&gt;Node18 -->
<g id="edge24_Node000007_Node000018" class="edge">
<title>Node7&#45;&gt;Node18</title>
<g id="a_edge24_Node000007_Node000018"><a xlink:title=" ">
<path fill="none" stroke="#63b8ff" d="M738.94,-162.06C772.2,-152.15 819.58,-138.04 849.68,-129.08"/>
<polygon fill="#63b8ff" stroke="#63b8ff" points="737.68,-158.78 729.1,-164.98 739.68,-165.49 737.68,-158.78"/>
</a>
</g>
</g>
<!-- Node19 -->
<g id="Node000019" class="node">
<title>Node19</title>
<g id="a_Node000019"><a xlink:href="spi_8h.html" target="_top" xlink:title="HAL for SPI interfaces.">
<polygon fill="white" stroke="#666666" points="1004.5,-129 932.5,-129 932.5,-110 1004.5,-110 1004.5,-129"/>
<text text-anchor="middle" x="968.5" y="-117" font-family="Helvetica,sans-Serif" font-size="10.00">hal/uc/spi.h</text>
</a>
</g>
</g>
<!-- Node7&#45;&gt;Node19 -->
<g id="edge26_Node000007_Node000019" class="edge">
<title>Node7&#45;&gt;Node19</title>
<g id="a_edge26_Node000007_Node000019"><a xlink:title=" ">
<path fill="none" stroke="#63b8ff" d="M750.46,-163.62C803.34,-153.16 885.49,-136.92 932.4,-127.64"/>
<polygon fill="#63b8ff" stroke="#63b8ff" points="749.75,-160.19 740.62,-165.57 751.11,-167.06 749.75,-160.19"/>
</a>
</g>
</g>
<!-- Node20 -->
<g id="Node000020" class="node">
<title>Node20</title>
<g id="a_Node000020"><a xlink:href="uc_2timer_8h.html" target="_top" xlink:title="HAL for uC Timers.">
<polygon fill="white" stroke="#666666" points="1106,-129 1023,-129 1023,-110 1106,-110 1106,-129"/>
<text text-anchor="middle" x="1064.5" y="-117" font-family="Helvetica,sans-Serif" font-size="10.00">hal/uc/timer.h</text>
</a>
</g>
</g>
<!-- Node7&#45;&gt;Node20 -->
<g id="edge28_Node000007_Node000020" class="edge">
<title>Node7&#45;&gt;Node20</title>
<g id="a_edge28_Node000007_Node000020"><a xlink:title=" ">
<path fill="none" stroke="#63b8ff" d="M750.83,-166.72C812.72,-158.3 920.94,-143.29 1013.5,-129 1016.52,-128.53 1019.63,-128.04 1022.76,-127.54"/>
<polygon fill="#63b8ff" stroke="#63b8ff" points="750,-163.3 740.57,-168.12 750.95,-170.24 750,-163.3"/>
</a>
</g>
</g>
<!-- Node21 -->
<g id="Node000021" class="node">
<title>Node21</title>
<g id="a_Node000021"><a xlink:href="uc_2uart_8h.html" target="_top" xlink:title=" ">
<polygon fill="white" stroke="#666666" points="1201,-129 1124,-129 1124,-110 1201,-110 1201,-129"/>
<text text-anchor="middle" x="1162.5" y="-117" font-family="Helvetica,sans-Serif" font-size="10.00">hal/uc/uart.h</text>
</a>
</g>
</g>
<!-- Node7&#45;&gt;Node21 -->
<g id="edge30_Node000007_Node000021" class="edge">
<title>Node7&#45;&gt;Node21</title>
<g id="a_edge30_Node000007_Node000021"><a xlink:title=" ">
<path fill="none" stroke="#63b8ff" d="M750.74,-169.29C828.93,-162.47 984.39,-147.86 1115.5,-129 1118.21,-128.61 1121,-128.18 1123.81,-127.73"/>
<polygon fill="#63b8ff" stroke="#63b8ff" points="750.34,-165.81 740.68,-170.16 750.95,-172.79 750.34,-165.81"/>
</a>
</g>
</g>
<!-- Node22 -->
<g id="Node000022" class="node">
<title>Node22</title>
<g id="a_Node000022"><a xlink:href="usb_8h.html" target="_top" xlink:title="HAL for USB interface.">
<polygon fill="white" stroke="#666666" points="1294,-129 1219,-129 1219,-110 1294,-110 1294,-129"/>
<text text-anchor="middle" x="1256.5" y="-117" font-family="Helvetica,sans-Serif" font-size="10.00">hal/uc/usb.h</text>
</a>
</g>
</g>
<!-- Node7&#45;&gt;Node22 -->
<g id="edge32_Node000007_Node000022" class="edge">
<title>Node7&#45;&gt;Node22</title>
<g id="a_edge32_Node000007_Node000022"><a xlink:title=" ">
<path fill="none" stroke="#63b8ff" d="M750.75,-170.72C842.42,-165.28 1042.8,-151.76 1210.5,-129 1213.24,-128.63 1216.06,-128.21 1218.89,-127.75"/>
<polygon fill="#63b8ff" stroke="#63b8ff" points="750.43,-167.23 740.65,-171.31 750.83,-174.22 750.43,-167.23"/>
</a>
</g>
</g>
<!-- Node23 -->
<g id="Node000023" class="node">
<title>Node23</title>
<g id="a_Node000023"><a xlink:href="usbcdc_8h.html" target="_top" xlink:title="HAL for USB CDC interface.">
<polygon fill="white" stroke="#666666" points="1404.5,-129 1312.5,-129 1312.5,-110 1404.5,-110 1404.5,-129"/>
<text text-anchor="middle" x="1358.5" y="-117" font-family="Helvetica,sans-Serif" font-size="10.00">hal/uc/usbcdc.h</text>
</a>
</g>
</g>
<!-- Node7&#45;&gt;Node23 -->
<g id="edge34_Node000007_Node000023" class="edge">
<title>Node7&#45;&gt;Node23</title>
<g id="a_edge34_Node000007_Node000023"><a xlink:title=" ">
<path fill="none" stroke="#63b8ff" d="M751.01,-171.13C854.77,-165.98 1099.31,-152.28 1303.5,-129 1306.38,-128.67 1309.34,-128.3 1312.32,-127.91"/>
<polygon fill="#63b8ff" stroke="#63b8ff" points="750.64,-167.65 740.83,-171.64 750.99,-174.64 750.64,-167.65"/>
</a>
</g>
</g>
<!-- Node8&#45;&gt;Node9 -->
<g id="edge8_Node000008_Node000009" class="edge">
<title>Node8&#45;&gt;Node9</title>
<g id="a_edge8_Node000008_Node000009"><a xlink:title=" ">
<path fill="none" stroke="#63b8ff" d="M85.54,-110.48C86.88,-110.31 88.2,-110.15 89.5,-110 325.65,-82.75 611.7,-70.39 710.19,-66.72"/>
<polygon fill="#63b8ff" stroke="#63b8ff" points="84.64,-107.07 75.22,-111.91 85.6,-114 84.64,-107.07"/>
</a>
</g>
</g>
<!-- Node10 -->
<g id="Node000010" class="node">
<title>Node10</title>
<g id="a_Node000010"><a xlink:href="uc_8h.html" target="_top" xlink:title=" ">
<polygon fill="white" stroke="#666666" points="773,-19 718,-19 718,0 773,0 773,-19"/>
<text text-anchor="middle" x="745.5" y="-7" font-family="Helvetica,sans-Serif" font-size="10.00">hal/uc.h</text>
</a>
</g>
</g>
<!-- Node9&#45;&gt;Node10 -->
<g id="edge9_Node000009_Node000010" class="edge">
<title>Node9&#45;&gt;Node10</title>
<g id="a_edge9_Node000009_Node000010"><a xlink:title=" ">
<path fill="none" stroke="#63b8ff" d="M745.5,-44.66C745.5,-35.93 745.5,-25.99 745.5,-19.09"/>
<polygon fill="#63b8ff" stroke="#63b8ff" points="742,-44.75 745.5,-54.75 749,-44.75 742,-44.75"/>
</a>
</g>
</g>
<!-- Node11&#45;&gt;Node9 -->
<g id="edge12_Node000011_Node000009" class="edge">
<title>Node11&#45;&gt;Node9</title>
<g id="a_edge12_Node000011_Node000009"><a xlink:title=" ">
<path fill="none" stroke="#63b8ff" d="M221.19,-109.89C411.28,-85.49 627.03,-72.03 710.29,-67.37"/>
<polygon fill="#63b8ff" stroke="#63b8ff" points="220.48,-106.45 211.01,-111.21 221.38,-113.39 220.48,-106.45"/>
</a>
</g>
</g>
<!-- Node12&#45;&gt;Node9 -->
<g id="edge14_Node000012_Node000009" class="edge">
<title>Node12&#45;&gt;Node9</title>
<g id="a_edge14_Node000012_Node000009"><a xlink:title=" ">
<path fill="none" stroke="#63b8ff" d="M328.46,-109.94C476.69,-90.61 640.18,-75.04 710.47,-68.63"/>
<polygon fill="#63b8ff" stroke="#63b8ff" points="327.72,-106.5 318.26,-111.28 328.63,-113.45 327.72,-106.5"/>
</a>
</g>
</g>
<!-- Node14&#45;&gt;Node9 -->
<g id="edge17_Node000014_Node000009" class="edge">
<title>Node14&#45;&gt;Node9</title>
<g id="a_edge17_Node000014_Node000009"><a xlink:title=" ">
<path fill="none" stroke="#63b8ff" d="M534.78,-107.96C586.74,-97.49 665.01,-81.72 710.09,-72.63"/>
<polygon fill="#63b8ff" stroke="#63b8ff" points="533.87,-104.58 524.76,-109.98 535.25,-111.44 533.87,-104.58"/>
</a>
</g>
</g>
<!-- Node15&#45;&gt;Node9 -->
<g id="edge19_Node000015_Node000009" class="edge">
<title>Node15&#45;&gt;Node9</title>
<g id="a_edge19_Node000015_Node000009"><a xlink:title=" ">
<path fill="none" stroke="#63b8ff" d="M629.32,-106.55C657.18,-96.71 696.01,-82.98 720.96,-74.17"/>
<polygon fill="#63b8ff" stroke="#63b8ff" points="627.86,-103.35 619.6,-109.98 630.19,-109.95 627.86,-103.35"/>
</a>
</g>
</g>
<!-- Node16&#45;&gt;Node9 -->
<g id="edge21_Node000016_Node000009" class="edge">
<title>Node16&#45;&gt;Node9</title>
<g id="a_edge21_Node000016_Node000009"><a xlink:title=" ">
<path fill="none" stroke="#63b8ff" d="M714.55,-101.96C722.39,-92.72 731.83,-81.6 738.21,-74.09"/>
<polygon fill="#63b8ff" stroke="#63b8ff" points="711.74,-99.86 707.93,-109.75 717.07,-104.39 711.74,-99.86"/>
</a>
</g>
</g>
<!-- Node17&#45;&gt;Node9 -->
<g id="edge23_Node000017_Node000009" class="edge">
<title>Node17&#45;&gt;Node9</title>
<g id="a_edge23_Node000017_Node000009"><a xlink:title=" ">
<path fill="none" stroke="#63b8ff" d="M777.14,-101.96C769.13,-92.72 759.47,-81.6 752.95,-74.09"/>
<polygon fill="#63b8ff" stroke="#63b8ff" points="774.71,-104.49 783.9,-109.75 779.99,-99.9 774.71,-104.49"/>
</a>
</g>
</g>
<!-- Node18&#45;&gt;Node9 -->
<g id="edge25_Node000018_Node000009" class="edge">
<title>Node18&#45;&gt;Node9</title>
<g id="a_edge25_Node000018_Node000009"><a xlink:title=" ">
<path fill="none" stroke="#63b8ff" d="M847.53,-106.16C822.91,-96.35 789.09,-82.87 767.26,-74.17"/>
<polygon fill="#63b8ff" stroke="#63b8ff" points="846.55,-109.53 857.13,-109.98 849.14,-103.03 846.55,-109.53"/>
</a>
</g>
</g>
<!-- Node19&#45;&gt;Node9 -->
<g id="edge27_Node000019_Node000009" class="edge">
<title>Node19&#45;&gt;Node9</title>
<g id="a_edge27_Node000019_Node000009"><a xlink:title=" ">
<path fill="none" stroke="#63b8ff" d="M922.93,-107.67C880.75,-97.64 818.93,-82.95 780.5,-73.82"/>
<polygon fill="#63b8ff" stroke="#63b8ff" points="922.13,-111.08 932.67,-109.98 923.75,-104.27 922.13,-111.08"/>
</a>
</g>
</g>
<!-- Node20&#45;&gt;Node9 -->
<g id="edge29_Node000020_Node000009" class="edge">
<title>Node20&#45;&gt;Node9</title>
<g id="a_edge29_Node000020_Node000009"><a xlink:title=" ">
<path fill="none" stroke="#63b8ff" d="M1012.68,-109.86C922.95,-94.94 829.98,-79.51 780.62,-71.32"/>
<polygon fill="#63b8ff" stroke="#63b8ff" points="1012.31,-113.35 1022.75,-111.54 1013.46,-106.45 1012.31,-113.35"/>
</a>
</g>
</g>
<!-- Node21&#45;&gt;Node9 -->
<g id="edge31_Node000021_Node000009" class="edge">
<title>Node21&#45;&gt;Node9</title>
<g id="a_edge31_Node000021_Node000009"><a xlink:title=" ">
<path fill="none" stroke="#63b8ff" d="M1113.8,-109.82C985.43,-90.75 844.67,-75.6 780.54,-69.01"/>
<polygon fill="#63b8ff" stroke="#63b8ff" points="1113.39,-113.29 1123.8,-111.31 1114.43,-106.37 1113.39,-113.29"/>
</a>
</g>
</g>
<!-- Node22&#45;&gt;Node9 -->
<g id="edge33_Node000022_Node000009" class="edge">
<title>Node22&#45;&gt;Node9</title>
<g id="a_edge33_Node000022_Node000009"><a xlink:title=" ">
<path fill="none" stroke="#63b8ff" d="M1208.51,-109.83C1042.83,-87.04 856.75,-73.04 780.62,-67.81"/>
<polygon fill="#63b8ff" stroke="#63b8ff" points="1208.5,-113.36 1218.89,-111.27 1209.47,-106.43 1208.5,-113.36"/>
</a>
</g>
</g>
<!-- Node23&#45;&gt;Node9 -->
<g id="edge35_Node000023_Node000009" class="edge">
<title>Node23&#45;&gt;Node9</title>
<g id="a_edge35_Node000023_Node000009"><a xlink:title=" ">
<path fill="none" stroke="#63b8ff" d="M1302.34,-109.95C1098.73,-86.47 867.17,-72.27 780.52,-67.39"/>
<polygon fill="#63b8ff" stroke="#63b8ff" points="1301.98,-113.43 1312.32,-111.11 1302.79,-106.48 1301.98,-113.43"/>
</a>
</g>
</g>
</g>
</svg>
