<?xml version="1.0" encoding="UTF-8" standalone="no"?>
<!DOCTYPE svg PUBLIC "-//W3C//DTD SVG 1.1//EN"
 "http://www.w3.org/Graphics/SVG/1.1/DTD/svg11.dtd">
<!-- Generated by graphviz version 2.43.0 (0)
 -->
<!-- Title: hal/constants.h Pages: 1 -->
<svg width="400pt" height="140pt"
 viewBox="0.00 0.00 399.50 140.00" xmlns="http://www.w3.org/2000/svg" xmlns:xlink="http://www.w3.org/1999/xlink">
<g id="graph0" class="graph" transform="scale(1 1) rotate(0) translate(4 136)">
<title>hal/constants.h</title>
<!-- Node1 -->
<g id="node1" class="node">
<title>Node1</title>
<g id="a_node1"><a xlink:title=" ">
<polygon fill="#bfbfbf" stroke="black" points="163.5,-112.5 163.5,-131.5 254.5,-131.5 254.5,-112.5 163.5,-112.5"/>
<text text-anchor="middle" x="209" y="-119.5" font-family="Helvetica,sans-Serif" font-size="10.00">hal/constants.h</text>
</a>
</g>
</g>
<!-- Node2 -->
<g id="node2" class="node">
<title>Node2</title>
<g id="a_node2"><a xlink:href="constants_2all_8h.html" target="_top" xlink:title=" ">
<polygon fill="none" stroke="black" points="165,-56.5 165,-75.5 253,-75.5 253,-56.5 165,-56.5"/>
<text text-anchor="middle" x="209" y="-63.5" font-family="Helvetica,sans-Serif" font-size="10.00">constants/all.h</text>
</a>
</g>
</g>
<!-- Node1&#45;&gt;Node2 -->
<g id="edge1" class="edge">
<title>Node1&#45;&gt;Node2</title>
<path fill="none" stroke="midnightblue" d="M209,-112.08C209,-105.01 209,-94.86 209,-85.99"/>
<polygon fill="midnightblue" stroke="midnightblue" points="212.5,-85.75 209,-75.75 205.5,-85.75 212.5,-85.75"/>
</g>
<!-- Node3 -->
<g id="node3" class="node">
<title>Node3</title>
<g id="a_node3"><a xlink:href="common_8h.html" target="_top" xlink:title=" ">
<polygon fill="none" stroke="black" points="0,-0.5 0,-19.5 68,-19.5 68,-0.5 0,-0.5"/>
<text text-anchor="middle" x="34" y="-7.5" font-family="Helvetica,sans-Serif" font-size="10.00">common.h</text>
</a>
</g>
</g>
<!-- Node2&#45;&gt;Node3 -->
<g id="edge2" class="edge">
<title>Node2&#45;&gt;Node3</title>
<path fill="none" stroke="midnightblue" d="M181.27,-56.44C151.57,-47.28 104.28,-32.69 71.33,-22.52"/>
<polygon fill="midnightblue" stroke="midnightblue" points="72.19,-19.12 61.6,-19.52 70.12,-25.81 72.19,-19.12"/>
</g>
<!-- Node4 -->
<g id="node4" class="node">
<title>Node4</title>
<g id="a_node4"><a xlink:href="constants_2crypto_8h.html" target="_top" xlink:title=" ">
<polygon fill="none" stroke="black" points="86,-0.5 86,-19.5 142,-19.5 142,-0.5 86,-0.5"/>
<text text-anchor="middle" x="114" y="-7.5" font-family="Helvetica,sans-Serif" font-size="10.00">crypto.h</text>
</a>
</g>
</g>
<!-- Node2&#45;&gt;Node4 -->
<g id="edge3" class="edge">
<title>Node2&#45;&gt;Node4</title>
<path fill="none" stroke="midnightblue" d="M193.74,-56.32C178.78,-47.82 155.75,-34.73 138.27,-24.8"/>
<polygon fill="midnightblue" stroke="midnightblue" points="139.65,-21.55 129.23,-19.65 136.19,-27.64 139.65,-21.55"/>
</g>
<!-- Node5 -->
<g id="node5" class="node">
<title>Node5</title>
<g id="a_node5"><a xlink:href="constants_2rtc_8h.html" target="_top" xlink:title=" ">
<polygon fill="none" stroke="black" points="160,-0.5 160,-19.5 198,-19.5 198,-0.5 160,-0.5"/>
<text text-anchor="middle" x="179" y="-7.5" font-family="Helvetica,sans-Serif" font-size="10.00">rtc.h</text>
</a>
</g>
</g>
<!-- Node2&#45;&gt;Node5 -->
<g id="edge4" class="edge">
<title>Node2&#45;&gt;Node5</title>
<path fill="none" stroke="midnightblue" d="M204.05,-56.08C199.9,-48.61 193.85,-37.72 188.73,-28.52"/>
<polygon fill="midnightblue" stroke="midnightblue" points="191.78,-26.79 183.86,-19.75 185.66,-30.19 191.78,-26.79"/>
</g>
<!-- Node6 -->
<g id="node6" class="node">
<title>Node6</title>
<g id="a_node6"><a xlink:href="constants_2uart_8h.html" target="_top" xlink:title=" ">
<polygon fill="none" stroke="black" points="216.5,-0.5 216.5,-19.5 261.5,-19.5 261.5,-0.5 216.5,-0.5"/>
<text text-anchor="middle" x="239" y="-7.5" font-family="Helvetica,sans-Serif" font-size="10.00">uart.h</text>
</a>
</g>
</g>
<!-- Node2&#45;&gt;Node6 -->
<g id="edge5" class="edge">
<title>Node2&#45;&gt;Node6</title>
<path fill="none" stroke="midnightblue" d="M213.95,-56.08C218.1,-48.61 224.15,-37.72 229.27,-28.52"/>
<polygon fill="midnightblue" stroke="midnightblue" points="232.34,-30.19 234.14,-19.75 226.22,-26.79 232.34,-30.19"/>
</g>
<!-- Node7 -->
<g id="node7" class="node">
<title>Node7</title>
<g id="a_node7"><a xlink:href="constants_2adc_8h.html" target="_top" xlink:title=" ">
<polygon fill="none" stroke="black" points="279.5,-0.5 279.5,-19.5 322.5,-19.5 322.5,-0.5 279.5,-0.5"/>
<text text-anchor="middle" x="301" y="-7.5" font-family="Helvetica,sans-Serif" font-size="10.00">adc.h</text>
</a>
</g>
</g>
<!-- Node2&#45;&gt;Node7 -->
<g id="edge6" class="edge">
<title>Node2&#45;&gt;Node7</title>
<path fill="none" stroke="midnightblue" d="M223.78,-56.32C238.27,-47.82 260.57,-34.73 277.49,-24.8"/>
<polygon fill="midnightblue" stroke="midnightblue" points="279.4,-27.74 286.26,-19.65 275.86,-21.7 279.4,-27.74"/>
</g>
<!-- Node8 -->
<g id="node8" class="node">
<title>Node8</title>
<g id="a_node8"><a xlink:href="constants_2timer_8h.html" target="_top" xlink:title=" ">
<polygon fill="none" stroke="black" points="340.5,-0.5 340.5,-19.5 391.5,-19.5 391.5,-0.5 340.5,-0.5"/>
<text text-anchor="middle" x="366" y="-7.5" font-family="Helvetica,sans-Serif" font-size="10.00">timer.h</text>
</a>
</g>
</g>
<!-- Node2&#45;&gt;Node8 -->
<g id="edge7" class="edge">
<title>Node2&#45;&gt;Node8</title>
<path fill="none" stroke="midnightblue" d="M233.88,-56.44C260.29,-47.36 302.22,-32.94 331.74,-22.78"/>
<polygon fill="midnightblue" stroke="midnightblue" points="332.92,-26.08 341.24,-19.52 330.64,-19.46 332.92,-26.08"/>
</g>
</g>
</svg>
