<?xml version="1.0" encoding="UTF-8" standalone="no"?>
<!DOCTYPE svg PUBLIC "-//W3C//DTD SVG 1.1//EN"
 "http://www.w3.org/Graphics/SVG/1.1/DTD/svg11.dtd">
<!-- Generated by graphviz version 2.43.0 (0)
 -->
<!-- Title: hal/constants.h Pages: 1 -->
<svg width="465pt" height="140pt"
 viewBox="0.00 0.00 464.50 140.00" xmlns="http://www.w3.org/2000/svg" xmlns:xlink="http://www.w3.org/1999/xlink">
<g id="graph0" class="graph" transform="scale(1 1) rotate(0) translate(4 136)">
<title>hal/constants.h</title>
<!-- Node1 -->
<g id="node1" class="node">
<title>Node1</title>
<g id="a_node1"><a xlink:title=" ">
<polygon fill="#bfbfbf" stroke="black" points="193.5,-112.5 193.5,-131.5 284.5,-131.5 284.5,-112.5 193.5,-112.5"/>
<text text-anchor="middle" x="239" y="-119.5" font-family="Helvetica,sans-Serif" font-size="10.00">hal/constants.h</text>
</a>
</g>
</g>
<!-- Node2 -->
<g id="node2" class="node">
<title>Node2</title>
<g id="a_node2"><a xlink:href="constants_2all_8h.html" target="_top" xlink:title=" ">
<polygon fill="none" stroke="black" points="195,-56.5 195,-75.5 283,-75.5 283,-56.5 195,-56.5"/>
<text text-anchor="middle" x="239" y="-63.5" font-family="Helvetica,sans-Serif" font-size="10.00">constants/all.h</text>
</a>
</g>
</g>
<!-- Node1&#45;&gt;Node2 -->
<g id="edge1" class="edge">
<title>Node1&#45;&gt;Node2</title>
<path fill="none" stroke="midnightblue" d="M239,-112.08C239,-105.01 239,-94.86 239,-85.99"/>
<polygon fill="midnightblue" stroke="midnightblue" points="242.5,-85.75 239,-75.75 235.5,-85.75 242.5,-85.75"/>
</g>
<!-- Node3 -->
<g id="node3" class="node">
<title>Node3</title>
<g id="a_node3"><a xlink:href="common_8h.html" target="_top" xlink:title=" ">
<polygon fill="none" stroke="black" points="0,-0.5 0,-19.5 68,-19.5 68,-0.5 0,-0.5"/>
<text text-anchor="middle" x="34" y="-7.5" font-family="Helvetica,sans-Serif" font-size="10.00">common.h</text>
</a>
</g>
</g>
<!-- Node2&#45;&gt;Node3 -->
<g id="edge2" class="edge">
<title>Node2&#45;&gt;Node3</title>
<path fill="none" stroke="midnightblue" d="M206.52,-56.44C171.28,-47.16 114.9,-32.31 76.24,-22.13"/>
<polygon fill="midnightblue" stroke="midnightblue" points="76.89,-18.68 66.33,-19.52 75.11,-25.45 76.89,-18.68"/>
</g>
<!-- Node4 -->
<g id="node4" class="node">
<title>Node4</title>
<g id="a_node4"><a xlink:href="constants_2crypto_8h.html" target="_top" xlink:title=" ">
<polygon fill="none" stroke="black" points="86,-0.5 86,-19.5 142,-19.5 142,-0.5 86,-0.5"/>
<text text-anchor="middle" x="114" y="-7.5" font-family="Helvetica,sans-Serif" font-size="10.00">crypto.h</text>
</a>
</g>
</g>
<!-- Node2&#45;&gt;Node4 -->
<g id="edge3" class="edge">
<title>Node2&#45;&gt;Node4</title>
<path fill="none" stroke="midnightblue" d="M219.19,-56.44C198.71,-47.6 166.52,-33.69 143.14,-23.59"/>
<polygon fill="midnightblue" stroke="midnightblue" points="144.28,-20.27 133.71,-19.52 141.51,-26.7 144.28,-20.27"/>
</g>
<!-- Node5 -->
<g id="node5" class="node">
<title>Node5</title>
<g id="a_node5"><a xlink:href="constants_2rtc_8h.html" target="_top" xlink:title=" ">
<polygon fill="none" stroke="black" points="160,-0.5 160,-19.5 198,-19.5 198,-0.5 160,-0.5"/>
<text text-anchor="middle" x="179" y="-7.5" font-family="Helvetica,sans-Serif" font-size="10.00">rtc.h</text>
</a>
</g>
</g>
<!-- Node2&#45;&gt;Node5 -->
<g id="edge4" class="edge">
<title>Node2&#45;&gt;Node5</title>
<path fill="none" stroke="midnightblue" d="M229.36,-56.32C220.49,-48.34 207.13,-36.31 196.39,-26.65"/>
<polygon fill="midnightblue" stroke="midnightblue" points="198.59,-23.92 188.82,-19.83 193.91,-29.13 198.59,-23.92"/>
</g>
<!-- Node6 -->
<g id="node6" class="node">
<title>Node6</title>
<g id="a_node6"><a xlink:href="constants_2uart_8h.html" target="_top" xlink:title=" ">
<polygon fill="none" stroke="black" points="216.5,-0.5 216.5,-19.5 261.5,-19.5 261.5,-0.5 216.5,-0.5"/>
<text text-anchor="middle" x="239" y="-7.5" font-family="Helvetica,sans-Serif" font-size="10.00">uart.h</text>
</a>
</g>
</g>
<!-- Node2&#45;&gt;Node6 -->
<g id="edge5" class="edge">
<title>Node2&#45;&gt;Node6</title>
<path fill="none" stroke="midnightblue" d="M239,-56.08C239,-49.01 239,-38.86 239,-29.99"/>
<polygon fill="midnightblue" stroke="midnightblue" points="242.5,-29.75 239,-19.75 235.5,-29.75 242.5,-29.75"/>
</g>
<!-- Node7 -->
<g id="node7" class="node">
<title>Node7</title>
<g id="a_node7"><a xlink:href="constants_2adc_8h.html" target="_top" xlink:title=" ">
<polygon fill="none" stroke="black" points="279.5,-0.5 279.5,-19.5 322.5,-19.5 322.5,-0.5 279.5,-0.5"/>
<text text-anchor="middle" x="301" y="-7.5" font-family="Helvetica,sans-Serif" font-size="10.00">adc.h</text>
</a>
</g>
</g>
<!-- Node2&#45;&gt;Node7 -->
<g id="edge6" class="edge">
<title>Node2&#45;&gt;Node7</title>
<path fill="none" stroke="midnightblue" d="M248.96,-56.32C258.13,-48.34 271.94,-36.31 283.03,-26.65"/>
<polygon fill="midnightblue" stroke="midnightblue" points="285.62,-29.04 290.86,-19.83 281.02,-23.76 285.62,-29.04"/>
</g>
<!-- Node8 -->
<g id="node8" class="node">
<title>Node8</title>
<g id="a_node8"><a xlink:href="constants_2timer_8h.html" target="_top" xlink:title=" ">
<polygon fill="none" stroke="black" points="340.5,-0.5 340.5,-19.5 391.5,-19.5 391.5,-0.5 340.5,-0.5"/>
<text text-anchor="middle" x="366" y="-7.5" font-family="Helvetica,sans-Serif" font-size="10.00">timer.h</text>
</a>
</g>
</g>
<!-- Node2&#45;&gt;Node8 -->
<g id="edge7" class="edge">
<title>Node2&#45;&gt;Node8</title>
<path fill="none" stroke="midnightblue" d="M259.12,-56.44C280.02,-47.56 312.93,-33.56 336.72,-23.45"/>
<polygon fill="midnightblue" stroke="midnightblue" points="338.14,-26.65 345.97,-19.52 335.4,-20.21 338.14,-26.65"/>
</g>
<!-- Node9 -->
<g id="node9" class="node">
<title>Node9</title>
<g id="a_node9"><a xlink:href="constants_2dma_8h.html" target="_top" xlink:title=" ">
<polygon fill="none" stroke="black" points="409.5,-0.5 409.5,-19.5 456.5,-19.5 456.5,-0.5 409.5,-0.5"/>
<text text-anchor="middle" x="433" y="-7.5" font-family="Helvetica,sans-Serif" font-size="10.00">dma.h</text>
</a>
</g>
</g>
<!-- Node2&#45;&gt;Node9 -->
<g id="edge8" class="edge">
<title>Node2&#45;&gt;Node9</title>
<path fill="none" stroke="midnightblue" d="M269.76,-56.49C300.38,-48.01 348.98,-34.53 399.46,-20.43"/>
<polygon fill="midnightblue" stroke="midnightblue" points="400.55,-23.76 409.24,-17.69 398.66,-17.01 400.55,-23.76"/>
</g>
</g>
</svg>
