<?xml version="1.0" encoding="UTF-8" standalone="no"?>
<!DOCTYPE svg PUBLIC "-//W3C//DTD SVG 1.1//EN"
 "http://www.w3.org/Graphics/SVG/1.1/DTD/svg11.dtd">
<!-- Generated by graphviz version 2.43.0 (0)
 -->
<!-- Title: hal/uc/core.h Pages: 1 -->
<!--zoomable 319 -->
<svg id="main" version="1.1" xmlns="http://www.w3.org/2000/svg" xmlns:xlink="http://www.w3.org/1999/xlink" xml:space="preserve" onload="init(evt)">
<style type="text/css"><![CDATA[
.edge:hover path { stroke: red; }
.edge:hover polygon { stroke: red; fill: red; }
]]></style>
<script type="text/javascript"><![CDATA[
var edges = document.getElementsByTagName('g');
if (edges && edges.length) {
  for (var i=0;i<edges.length;i++) {
    if (edges[i].id.substr(0,4)=='edge') {
      edges[i].setAttribute('class','edge');
    }
  }
}
]]></script>
        <defs>
                <circle id="rim" cx="0" cy="0" r="7"/>
                <circle id="rim2" cx="0" cy="0" r="3.5"/>
                <g id="zoomPlus">
                        <use xlink:href="#rim" fill="#404040">
                                <set attributeName="fill" to="#808080" begin="zoomplus.mouseover" end="zoomplus.mouseout"/>
                        </use>
                        <path d="M-4,0h8M0,-4v8" fill="none" stroke="white" stroke-width="1.5" pointer-events="none"/>
                </g>
                <g id="zoomMin">
                        <use xlink:href="#rim" fill="#404040">
                                <set attributeName="fill" to="#808080" begin="zoomminus.mouseover" end="zoomminus.mouseout"/>
                        </use>
                        <path d="M-4,0h8" fill="none" stroke="white" stroke-width="1.5" pointer-events="none"/>
                </g>
                <g id="dirArrow">
                        <path fill="none" stroke="white" stroke-width="1.5" d="M0,-3.0v7 M-2.5,-0.5L0,-3.0L2.5,-0.5"/>
                </g>
               <g id="resetDef">
                       <use xlink:href="#rim2" fill="#404040">
                               <set attributeName="fill" to="#808080" begin="reset.mouseover" end="reset.mouseout"/>
                       </use>
               </g>
        </defs>

<script type="text/javascript">
var viewWidth = 938;
var viewHeight = 319;
var sectionId = 'dynsection-0';
</script>
<script xlink:href="svgpan.js"/>
<svg id="graph" class="graph">
<g id="viewport">
<title>hal/uc/core.h</title>
<!-- Node1 -->
<g id="node1" class="node">
<title>Node1</title>
<g id="a_node1"><a xlink:title="HAL for uC Core peripherals.">
<polygon fill="#bfbfbf" stroke="black" points="597.5,-291.5 597.5,-310.5 676.5,-310.5 676.5,-291.5 597.5,-291.5"/>
<text text-anchor="middle" x="637" y="-298.5" font-family="Helvetica,sans-Serif" font-size="10.00">hal/uc/core.h</text>
</a>
</g>
</g>
<!-- Node2 -->
<g id="node2" class="node">
<title>Node2</title>
<g id="a_node2"><a xlink:href="map_8h.html" target="_top" xlink:title="HAL for uC Peripheral Map.">
<polygon fill="none" stroke="black" points="502.5,-235.5 502.5,-254.5 549.5,-254.5 549.5,-235.5 502.5,-235.5"/>
<text text-anchor="middle" x="526" y="-242.5" font-family="Helvetica,sans-Serif" font-size="10.00">map.h</text>
</a>
</g>
</g>
<!-- Node1&#45;&gt;Node2 -->
<g id="edge1" class="edge">
<title>Node1&#45;&gt;Node2</title>
<path fill="none" stroke="midnightblue" d="M619.17,-291.32C601.28,-282.62 573.52,-269.12 552.95,-259.11"/>
<polygon fill="midnightblue" stroke="midnightblue" points="554.31,-255.88 543.79,-254.65 551.25,-262.18 554.31,-255.88"/>
</g>
<!-- Node17 -->
<g id="node17" class="node">
<title>Node17</title>
<g id="a_node17"><a xlink:title=" ">
<polygon fill="none" stroke="#bfbfbf" points="567.5,-235.5 567.5,-254.5 706.5,-254.5 706.5,-235.5 567.5,-235.5"/>
<text text-anchor="middle" x="637" y="-242.5" font-family="Helvetica,sans-Serif" font-size="10.00">hal_platform/core_impl.h</text>
</a>
</g>
</g>
<!-- Node1&#45;&gt;Node17 -->
<g id="edge19" class="edge">
<title>Node1&#45;&gt;Node17</title>
<path fill="none" stroke="midnightblue" d="M637,-291.08C637,-284.01 637,-273.86 637,-264.99"/>
<polygon fill="midnightblue" stroke="midnightblue" points="640.5,-264.75 637,-254.75 633.5,-264.75 640.5,-264.75"/>
</g>
<!-- Node18 -->
<g id="node18" class="node">
<title>Node18</title>
<g id="a_node18"><a xlink:title=" ">
<polygon fill="none" stroke="#bfbfbf" points="724.5,-235.5 724.5,-254.5 883.5,-254.5 883.5,-235.5 724.5,-235.5"/>
<text text-anchor="middle" x="804" y="-242.5" font-family="Helvetica,sans-Serif" font-size="10.00">hal_platform/core_handlers.h</text>
</a>
</g>
</g>
<!-- Node1&#45;&gt;Node18 -->
<g id="edge20" class="edge">
<title>Node1&#45;&gt;Node18</title>
<path fill="none" stroke="midnightblue" d="M663.46,-291.44C691.68,-282.32 736.54,-267.81 767.97,-257.65"/>
<polygon fill="midnightblue" stroke="midnightblue" points="769.22,-260.92 777.66,-254.52 767.07,-254.26 769.22,-260.92"/>
</g>
<!-- Node3 -->
<g id="node3" class="node">
<title>Node3</title>
<g id="a_node3"><a xlink:title=" ">
<polygon fill="none" stroke="#bfbfbf" points="217.5,-0.5 217.5,-19.5 270.5,-19.5 270.5,-0.5 217.5,-0.5"/>
<text text-anchor="middle" x="244" y="-7.5" font-family="Helvetica,sans-Serif" font-size="10.00">stdint.h</text>
</a>
</g>
</g>
<!-- Node2&#45;&gt;Node3 -->
<g id="edge2" class="edge">
<title>Node2&#45;&gt;Node3</title>
<path fill="none" stroke="midnightblue" d="M502.37,-241.57C454.52,-236.22 348.4,-222.04 321,-199 268.15,-154.57 251.1,-68.17 246.01,-29.96"/>
<polygon fill="midnightblue" stroke="midnightblue" points="249.45,-29.26 244.78,-19.74 242.5,-30.09 249.45,-29.26"/>
</g>
<!-- Node4 -->
<g id="node4" class="node">
<title>Node4</title>
<g id="a_node4"><a xlink:title=" ">
<polygon fill="none" stroke="#bfbfbf" points="432,-0.5 432,-19.5 530,-19.5 530,-0.5 432,-0.5"/>
<text text-anchor="middle" x="481" y="-7.5" font-family="Helvetica,sans-Serif" font-size="10.00">platform/types.h</text>
</a>
</g>
</g>
<!-- Node2&#45;&gt;Node4 -->
<g id="edge3" class="edge">
<title>Node2&#45;&gt;Node4</title>
<path fill="none" stroke="midnightblue" d="M511.34,-235.4C499.59,-227.58 483.97,-214.86 477,-199 451.76,-141.55 466.67,-64.4 475.68,-29.51"/>
<polygon fill="midnightblue" stroke="midnightblue" points="479.08,-30.31 478.33,-19.74 472.33,-28.47 479.08,-30.31"/>
</g>
<!-- Node5 -->
<g id="node5" class="node">
<title>Node5</title>
<g id="a_node5"><a xlink:href="types_8h_source.html" target="_top" xlink:title=" ">
<polygon fill="none" stroke="black" points="330.5,-174 330.5,-193 401.5,-193 401.5,-174 330.5,-174"/>
<text text-anchor="middle" x="366" y="-181" font-family="Helvetica,sans-Serif" font-size="10.00">hal/types.h</text>
</a>
</g>
</g>
<!-- Node2&#45;&gt;Node5 -->
<g id="edge4" class="edge">
<title>Node2&#45;&gt;Node5</title>
<path fill="none" stroke="midnightblue" d="M503.08,-235.48C475.63,-225.27 429.48,-208.11 398.4,-196.55"/>
<polygon fill="midnightblue" stroke="midnightblue" points="399.47,-193.21 388.88,-193.01 397.03,-199.78 399.47,-193.21"/>
</g>
<!-- Node13 -->
<g id="node13" class="node">
<title>Node13</title>
<g id="a_node13"><a xlink:title=" ">
<polygon fill="none" stroke="#bfbfbf" points="486,-174 486,-193 566,-193 566,-174 486,-174"/>
<text text-anchor="middle" x="526" y="-181" font-family="Helvetica,sans-Serif" font-size="10.00">application.h</text>
</a>
</g>
</g>
<!-- Node2&#45;&gt;Node13 -->
<g id="edge15" class="edge">
<title>Node2&#45;&gt;Node13</title>
<path fill="none" stroke="midnightblue" d="M526,-235.48C526,-227.08 526,-213.98 526,-203.16"/>
<polygon fill="midnightblue" stroke="midnightblue" points="529.5,-203.01 526,-193.01 522.5,-203.01 529.5,-203.01"/>
</g>
<!-- Node14 -->
<g id="node14" class="node">
<title>Node14</title>
<g id="a_node14"><a xlink:title=" ">
<polygon fill="none" stroke="#bfbfbf" points="584.5,-174 584.5,-193 685.5,-193 685.5,-174 584.5,-174"/>
<text text-anchor="middle" x="635" y="-181" font-family="Helvetica,sans-Serif" font-size="10.00">platform/debug.h</text>
</a>
</g>
</g>
<!-- Node2&#45;&gt;Node14 -->
<g id="edge16" class="edge">
<title>Node2&#45;&gt;Node14</title>
<path fill="none" stroke="midnightblue" d="M541.62,-235.48C559.59,-225.67 589.32,-209.43 610.41,-197.92"/>
<polygon fill="midnightblue" stroke="midnightblue" points="612.31,-200.87 619.41,-193.01 608.96,-194.73 612.31,-200.87"/>
</g>
<!-- Node15 -->
<g id="node15" class="node">
<title>Node15</title>
<g id="a_node15"><a xlink:title=" ">
<polygon fill="none" stroke="#bfbfbf" points="704,-174 704,-193 792,-193 792,-174 704,-174"/>
<text text-anchor="middle" x="748" y="-181" font-family="Helvetica,sans-Serif" font-size="10.00">platform/cpu.h</text>
</a>
</g>
</g>
<!-- Node2&#45;&gt;Node15 -->
<g id="edge17" class="edge">
<title>Node2&#45;&gt;Node15</title>
<path fill="none" stroke="midnightblue" d="M549.79,-237.49C552.89,-236.65 556.02,-235.8 559,-235 619.38,-218.77 634.62,-215.25 695,-199 698.88,-197.96 702.92,-196.86 706.95,-195.77"/>
<polygon fill="midnightblue" stroke="midnightblue" points="708.18,-199.06 716.9,-193.05 706.34,-192.31 708.18,-199.06"/>
</g>
<!-- Node16 -->
<g id="node16" class="node">
<title>Node16</title>
<g id="a_node16"><a xlink:title=" ">
<polygon fill="none" stroke="#bfbfbf" points="810,-168.5 810,-198.5 930,-198.5 930,-168.5 810,-168.5"/>
<text text-anchor="start" x="818" y="-186.5" font-family="Helvetica,sans-Serif" font-size="10.00">hal_platform/uc_map</text>
<text text-anchor="middle" x="870" y="-175.5" font-family="Helvetica,sans-Serif" font-size="10.00">_impl.h</text>
</a>
</g>
</g>
<!-- Node2&#45;&gt;Node16 -->
<g id="edge18" class="edge">
<title>Node2&#45;&gt;Node16</title>
<path fill="none" stroke="midnightblue" d="M549.71,-237.17C552.82,-236.38 555.98,-235.63 559,-235 662.3,-213.31 692.23,-217.89 799.87,-199.13"/>
<polygon fill="midnightblue" stroke="midnightblue" points="800.59,-202.55 809.83,-197.36 799.37,-195.66 800.59,-202.55"/>
</g>
<!-- Node6 -->
<g id="node6" class="node">
<title>Node6</title>
<g id="a_node6"><a xlink:href="types_2all_8h_source.html" target="_top" xlink:title=" ">
<polygon fill="none" stroke="black" points="318,-112.5 318,-131.5 386,-131.5 386,-112.5 318,-112.5"/>
<text text-anchor="middle" x="352" y="-119.5" font-family="Helvetica,sans-Serif" font-size="10.00">types/all.h</text>
</a>
</g>
</g>
<!-- Node5&#45;&gt;Node6 -->
<g id="edge5" class="edge">
<title>Node5&#45;&gt;Node6</title>
<path fill="none" stroke="midnightblue" d="M363.99,-173.98C362,-165.49 358.87,-152.2 356.31,-141.32"/>
<polygon fill="midnightblue" stroke="midnightblue" points="359.7,-140.44 354,-131.51 352.89,-142.04 359.7,-140.44"/>
</g>
<!-- Node7 -->
<g id="node7" class="node">
<title>Node7</title>
<g id="a_node7"><a xlink:href="types_2crypto_8h_source.html" target="_top" xlink:title=" ">
<polygon fill="none" stroke="black" points="310,-56.5 310,-75.5 366,-75.5 366,-56.5 310,-56.5"/>
<text text-anchor="middle" x="338" y="-63.5" font-family="Helvetica,sans-Serif" font-size="10.00">crypto.h</text>
</a>
</g>
</g>
<!-- Node6&#45;&gt;Node7 -->
<g id="edge6" class="edge">
<title>Node6&#45;&gt;Node7</title>
<path fill="none" stroke="midnightblue" d="M349.69,-112.08C347.83,-104.93 345.16,-94.64 342.85,-85.69"/>
<polygon fill="midnightblue" stroke="midnightblue" points="346.17,-84.55 340.27,-75.75 339.39,-86.31 346.17,-84.55"/>
</g>
<!-- Node9 -->
<g id="node9" class="node">
<title>Node9</title>
<g id="a_node9"><a xlink:href="types_2rtc_8h_source.html" target="_top" xlink:title=" ">
<polygon fill="none" stroke="black" points="166,-56.5 166,-75.5 204,-75.5 204,-56.5 166,-56.5"/>
<text text-anchor="middle" x="185" y="-63.5" font-family="Helvetica,sans-Serif" font-size="10.00">rtc.h</text>
</a>
</g>
</g>
<!-- Node6&#45;&gt;Node9 -->
<g id="edge9" class="edge">
<title>Node6&#45;&gt;Node9</title>
<path fill="none" stroke="midnightblue" d="M325.54,-112.44C295.13,-102.61 245.39,-86.53 213.97,-76.37"/>
<polygon fill="midnightblue" stroke="midnightblue" points="214.66,-72.91 204.07,-73.16 212.5,-79.57 214.66,-72.91"/>
</g>
<!-- Node12 -->
<g id="node12" class="node">
<title>Node12</title>
<g id="a_node12"><a xlink:href="types_2uart_8h_source.html" target="_top" xlink:title=" ">
<polygon fill="none" stroke="black" points="384.5,-56.5 384.5,-75.5 429.5,-75.5 429.5,-56.5 384.5,-56.5"/>
<text text-anchor="middle" x="407" y="-63.5" font-family="Helvetica,sans-Serif" font-size="10.00">uart.h</text>
</a>
</g>
</g>
<!-- Node6&#45;&gt;Node12 -->
<g id="edge13" class="edge">
<title>Node6&#45;&gt;Node12</title>
<path fill="none" stroke="midnightblue" d="M361.08,-112.08C369.17,-104.14 381.2,-92.34 390.91,-82.8"/>
<polygon fill="midnightblue" stroke="midnightblue" points="393.4,-85.25 398.09,-75.75 388.5,-80.26 393.4,-85.25"/>
</g>
<!-- Node7&#45;&gt;Node3 -->
<g id="edge7" class="edge">
<title>Node7&#45;&gt;Node3</title>
<path fill="none" stroke="midnightblue" d="M322.9,-56.32C308.1,-47.82 285.31,-34.73 268.02,-24.8"/>
<polygon fill="midnightblue" stroke="midnightblue" points="269.48,-21.6 259.07,-19.65 265.99,-27.67 269.48,-21.6"/>
</g>
<!-- Node8 -->
<g id="node8" class="node">
<title>Node8</title>
<g id="a_node8"><a xlink:href="constants_2crypto_8h_source.html" target="_top" xlink:title=" ">
<polygon fill="none" stroke="black" points="288.5,-0.5 288.5,-19.5 413.5,-19.5 413.5,-0.5 288.5,-0.5"/>
<text text-anchor="middle" x="351" y="-7.5" font-family="Helvetica,sans-Serif" font-size="10.00">hal/constants/crypto.h</text>
</a>
</g>
</g>
<!-- Node7&#45;&gt;Node8 -->
<g id="edge8" class="edge">
<title>Node7&#45;&gt;Node8</title>
<path fill="none" stroke="midnightblue" d="M340.15,-56.08C341.87,-48.93 344.35,-38.64 346.5,-29.69"/>
<polygon fill="midnightblue" stroke="midnightblue" points="349.96,-30.29 348.89,-19.75 343.15,-28.65 349.96,-30.29"/>
</g>
<!-- Node9&#45;&gt;Node3 -->
<g id="edge10" class="edge">
<title>Node9&#45;&gt;Node3</title>
<path fill="none" stroke="midnightblue" d="M194.48,-56.32C203.2,-48.34 216.34,-36.31 226.9,-26.65"/>
<polygon fill="midnightblue" stroke="midnightblue" points="229.33,-29.17 234.35,-19.83 224.61,-24 229.33,-29.17"/>
</g>
<!-- Node10 -->
<g id="node10" class="node">
<title>Node10</title>
<g id="a_node10"><a xlink:href="constants_2rtc_8h_source.html" target="_top" xlink:title=" ">
<polygon fill="none" stroke="black" points="92.5,-0.5 92.5,-19.5 199.5,-19.5 199.5,-0.5 92.5,-0.5"/>
<text text-anchor="middle" x="146" y="-7.5" font-family="Helvetica,sans-Serif" font-size="10.00">hal/constants/rtc.h</text>
</a>
</g>
</g>
<!-- Node9&#45;&gt;Node10 -->
<g id="edge11" class="edge">
<title>Node9&#45;&gt;Node10</title>
<path fill="none" stroke="midnightblue" d="M178.56,-56.08C173.05,-48.46 164.97,-37.26 158.24,-27.94"/>
<polygon fill="midnightblue" stroke="midnightblue" points="161.01,-25.81 152.32,-19.75 155.34,-29.91 161.01,-25.81"/>
</g>
<!-- Node11 -->
<g id="node11" class="node">
<title>Node11</title>
<g id="a_node11"><a xlink:title=" ">
<polygon fill="none" stroke="#bfbfbf" points="0,-0.5 0,-19.5 74,-19.5 74,-0.5 0,-0.5"/>
<text text-anchor="middle" x="37" y="-7.5" font-family="Helvetica,sans-Serif" font-size="10.00">time/time.h</text>
</a>
</g>
</g>
<!-- Node9&#45;&gt;Node11 -->
<g id="edge12" class="edge">
<title>Node9&#45;&gt;Node11</title>
<path fill="none" stroke="midnightblue" d="M165.95,-58.05C141.69,-49.2 99.35,-33.75 69.83,-22.98"/>
<polygon fill="midnightblue" stroke="midnightblue" points="70.95,-19.66 60.36,-19.52 68.55,-26.24 70.95,-19.66"/>
</g>
<!-- Node12&#45;&gt;Node4 -->
<g id="edge14" class="edge">
<title>Node12&#45;&gt;Node4</title>
<path fill="none" stroke="midnightblue" d="M418.89,-56.32C430.15,-48.11 447.29,-35.6 460.71,-25.81"/>
<polygon fill="midnightblue" stroke="midnightblue" points="462.88,-28.56 468.89,-19.83 458.75,-22.9 462.88,-28.56"/>
</g>
</g>
</svg>
        <g id="navigator" transform="translate(0 0)" fill="#404254">
                <rect fill="#f2f5e9" fill-opacity="0.5" stroke="#606060" stroke-width=".5" x="0" y="0" width="60" height="60"/>
                <use id="zoomplus" xlink:href="#zoomPlus" x="17" y="9" onmousedown="handleZoom(evt,'in')"/>
                <use id="zoomminus" xlink:href="#zoomMin" x="42" y="9" onmousedown="handleZoom(evt,'out')"/>
                <use id="reset" xlink:href="#resetDef" x="30" y="36" onmousedown="handleReset()"/>
                <g id="arrowUp" xlink:href="#dirArrow" transform="translate(30 24)" onmousedown="handlePan(0,-1)">
                  <use xlink:href="#rim" fill="#404040">
                        <set attributeName="fill" to="#808080" begin="arrowUp.mouseover" end="arrowUp.mouseout"/>
                  </use>
                  <path fill="none" stroke="white" stroke-width="1.5" d="M0,-3.0v7 M-2.5,-0.5L0,-3.0L2.5,-0.5"/>
                </g>
                <g id="arrowRight" xlink:href="#dirArrow" transform="rotate(90) translate(36 -43)" onmousedown="handlePan(1,0)">
                  <use xlink:href="#rim" fill="#404040">
                        <set attributeName="fill" to="#808080" begin="arrowRight.mouseover" end="arrowRight.mouseout"/>
                  </use>
                  <path fill="none" stroke="white" stroke-width="1.5" d="M0,-3.0v7 M-2.5,-0.5L0,-3.0L2.5,-0.5"/>
                </g>
                <g id="arrowDown" xlink:href="#dirArrow" transform="rotate(180) translate(-30 -48)" onmousedown="handlePan(0,1)">
                  <use xlink:href="#rim" fill="#404040">
                        <set attributeName="fill" to="#808080" begin="arrowDown.mouseover" end="arrowDown.mouseout"/>
                  </use>
                  <path fill="none" stroke="white" stroke-width="1.5" d="M0,-3.0v7 M-2.5,-0.5L0,-3.0L2.5,-0.5"/>
                </g>
                <g id="arrowLeft" xlink:href="#dirArrow" transform="rotate(270) translate(-36 17)" onmousedown="handlePan(-1,0)">
                  <use xlink:href="#rim" fill="#404040">
                        <set attributeName="fill" to="#808080" begin="arrowLeft.mouseover" end="arrowLeft.mouseout"/>
                  </use>
                  <path fill="none" stroke="white" stroke-width="1.5" d="M0,-3.0v7 M-2.5,-0.5L0,-3.0L2.5,-0.5"/>
                </g>
        </g>
        <svg viewBox="0 0 15 15" width="100%" height="30px" preserveAspectRatio="xMaxYMin meet">
         <g id="arrow_out" transform="scale(0.3 0.3)">
          <a xlink:href="core_8h__incl_org.svg" target="_base">
           <rect id="button" ry="5" rx="5" y="6" x="6" height="38" width="38"
                fill="#f2f5e9" fill-opacity="0.5" stroke="#606060" stroke-width="1.0"/>
           <path id="arrow"
             d="M 11.500037,31.436501 C 11.940474,20.09759 22.043105,11.32322 32.158766,21.979434 L 37.068811,17.246167 C 37.068811,17.246167 37.088388,32 37.088388,32 L 22.160133,31.978069 C 22.160133,31.978069 26.997745,27.140456 26.997745,27.140456 C 18.528582,18.264221 13.291696,25.230495 11.500037,31.436501 z"
             style="fill:#404040;"/>
          </a>
         </g>
        </svg>
</svg>
