<?xml version="1.0" encoding="UTF-8" standalone="no"?>
<!DOCTYPE svg PUBLIC "-//W3C//DTD SVG 1.1//EN"
 "http://www.w3.org/Graphics/SVG/1.1/DTD/svg11.dtd">
<!-- Generated by graphviz version 2.43.0 (0)
 -->
<!-- Title: hal Pages: 1 -->
<svg width="186pt" height="220pt"
 viewBox="0.00 0.00 186.00 220.00" xmlns="http://www.w3.org/2000/svg" xmlns:xlink="http://www.w3.org/1999/xlink">
<g id="graph0" class="graph" transform="scale(1 1) rotate(0) translate(4 216)">
<title>hal</title>
<g id="clust1" class="cluster">
<title>clusterdir_52c912f73dac9c4c0e442232e1b2bd80</title>
<g id="a_clust1"><a xlink:href="dir_52c912f73dac9c4c0e442232e1b2bd80.html" target="_top">
<polygon fill="#eeeeff" stroke="black" points="8,-8 8,-204 170,-204 170,-8 8,-8"/>
</a>
</g>
</g>
<!-- dir_52c912f73dac9c4c0e442232e1b2bd80 -->
<g id="node1" class="node">
<title>dir_52c912f73dac9c4c0e442232e1b2bd80</title>
<text text-anchor="middle" x="63" y="-175.5" font-family="Helvetica,sans-Serif" font-size="10.00">hal</text>
</g>
<!-- dir_d2b7a96810b9669f8191cf27d0893188 -->
<g id="node2" class="node">
<title>dir_d2b7a96810b9669f8191cf27d0893188</title>
<g id="a_node2"><a xlink:href="dir_d2b7a96810b9669f8191cf27d0893188.html" target="_top" xlink:title="constants">
<polygon fill="white" stroke="black" points="87,-52 23,-52 23,-16 87,-16 87,-52"/>
<text text-anchor="middle" x="55" y="-31.5" font-family="Helvetica,sans-Serif" font-size="10.00">constants</text>
</a>
</g>
</g>
<!-- dir_52c912f73dac9c4c0e442232e1b2bd80&#45;&gt;dir_d2b7a96810b9669f8191cf27d0893188 -->
<g id="edge3" class="edge">
<title>dir_52c912f73dac9c4c0e442232e1b2bd80&#45;&gt;dir_d2b7a96810b9669f8191cf27d0893188</title>
<path fill="none" stroke="black" d="M47.39,-159.77C39.63,-150.03 31.05,-137.18 27,-124 22.3,-108.71 23.15,-103.53 27,-88 29.29,-78.75 33.53,-69.34 38.02,-61.07"/>
<polygon fill="black" stroke="black" points="41.13,-62.68 43.11,-52.28 35.07,-59.17 41.13,-62.68"/>
<g id="a_edge3&#45;headlabel"><a xlink:href="dir_000000_000001.html" target="_top" xlink:title="3">
<text text-anchor="middle" x="41.78" y="-64.72" font-family="Helvetica,sans-Serif" font-size="10.00">3</text>
</a>
</g>
</g>
<!-- dir_00915aefc8fe3fced465a5d8ad3261ce -->
<g id="node3" class="node">
<title>dir_00915aefc8fe3fced465a5d8ad3261ce</title>
<g id="a_node3"><a xlink:href="dir_00915aefc8fe3fced465a5d8ad3261ce.html" target="_top" xlink:title="types">
<polygon fill="white" stroke="black" points="90,-124 36,-124 36,-88 90,-88 90,-124"/>
<text text-anchor="middle" x="63" y="-103.5" font-family="Helvetica,sans-Serif" font-size="10.00">types</text>
</a>
</g>
</g>
<!-- dir_52c912f73dac9c4c0e442232e1b2bd80&#45;&gt;dir_00915aefc8fe3fced465a5d8ad3261ce -->
<g id="edge1" class="edge">
<title>dir_52c912f73dac9c4c0e442232e1b2bd80&#45;&gt;dir_00915aefc8fe3fced465a5d8ad3261ce</title>
<path fill="none" stroke="black" d="M63,-159.7C63,-151.98 63,-142.71 63,-134.11"/>
<polygon fill="black" stroke="black" points="66.5,-134.1 63,-124.1 59.5,-134.1 66.5,-134.1"/>
<g id="a_edge1&#45;headlabel"><a xlink:href="dir_000000_000003.html" target="_top" xlink:title="1">
<text text-anchor="middle" x="69.34" y="-135.2" font-family="Helvetica,sans-Serif" font-size="10.00">1</text>
</a>
</g>
</g>
<!-- dir_bd7daeaaa812801dff3000c33ca17751 -->
<g id="node4" class="node">
<title>dir_bd7daeaaa812801dff3000c33ca17751</title>
<g id="a_node4"><a xlink:href="dir_bd7daeaaa812801dff3000c33ca17751.html" target="_top" xlink:title="uc">
<polygon fill="white" stroke="black" points="162,-124 108,-124 108,-88 162,-88 162,-124"/>
<text text-anchor="middle" x="135" y="-103.5" font-family="Helvetica,sans-Serif" font-size="10.00">uc</text>
</a>
</g>
</g>
<!-- dir_52c912f73dac9c4c0e442232e1b2bd80&#45;&gt;dir_bd7daeaaa812801dff3000c33ca17751 -->
<g id="edge2" class="edge">
<title>dir_52c912f73dac9c4c0e442232e1b2bd80&#45;&gt;dir_bd7daeaaa812801dff3000c33ca17751</title>
<path fill="none" stroke="black" d="M80.8,-159.7C89.6,-151.14 100.38,-140.66 110,-131.3"/>
<polygon fill="black" stroke="black" points="112.68,-133.58 117.41,-124.1 107.8,-128.57 112.68,-133.58"/>
<g id="a_edge2&#45;headlabel"><a xlink:href="dir_000000_000002.html" target="_top" xlink:title="1">
<text text-anchor="middle" x="112.08" y="-135.63" font-family="Helvetica,sans-Serif" font-size="10.00">1</text>
</a>
</g>
</g>
<!-- dir_00915aefc8fe3fced465a5d8ad3261ce&#45;&gt;dir_d2b7a96810b9669f8191cf27d0893188 -->
<g id="edge4" class="edge">
<title>dir_00915aefc8fe3fced465a5d8ad3261ce&#45;&gt;dir_d2b7a96810b9669f8191cf27d0893188</title>
<path fill="none" stroke="black" d="M61.02,-87.7C60.14,-79.98 59.08,-70.71 58.1,-62.11"/>
<polygon fill="black" stroke="black" points="61.57,-61.64 56.95,-52.1 54.61,-62.44 61.57,-61.64"/>
<g id="a_edge4&#45;headlabel"><a xlink:href="dir_000003_000001.html" target="_top" xlink:title="2">
<text text-anchor="middle" x="64.8" y="-62.39" font-family="Helvetica,sans-Serif" font-size="10.00">2</text>
</a>
</g>
</g>
</g>
</svg>
