<?xml version="1.0" encoding="UTF-8" standalone="no"?>
<!DOCTYPE svg PUBLIC "-//W3C//DTD SVG 1.1//EN"
 "http://www.w3.org/Graphics/SVG/1.1/DTD/svg11.dtd">
<!-- Generated by graphviz version 2.43.0 (0)
 -->
<!-- Title: hal/types Pages: 1 -->
<svg width="104pt" height="167pt"
 viewBox="0.00 0.00 104.00 167.00" xmlns="http://www.w3.org/2000/svg" xmlns:xlink="http://www.w3.org/1999/xlink">
<g id="graph0" class="graph" transform="scale(1 1) rotate(0) translate(4 163)">
<title>hal/types</title>
<g id="clust1" class="cluster">
<title>clusterdir_52c912f73dac9c4c0e442232e1b2bd80</title>
<g id="a_clust1"><a xlink:href="dir_52c912f73dac9c4c0e442232e1b2bd80.html" target="_top" xlink:title="hal">
<polygon fill="#ddddee" stroke="black" points="8,-8 8,-151 88,-151 88,-8 8,-8"/>
<text text-anchor="middle" x="48" y="-139" font-family="Helvetica,sans-Serif" font-size="10.00">hal</text>
</a>
</g>
</g>
<!-- dir_d2b7a96810b9669f8191cf27d0893188 -->
<g id="node1" class="node">
<title>dir_d2b7a96810b9669f8191cf27d0893188</title>
<g id="a_node1"><a xlink:href="dir_d2b7a96810b9669f8191cf27d0893188.html" target="_top" xlink:title="constants">
<polygon fill="none" stroke="black" points="80,-52 16,-52 16,-16 80,-16 80,-52"/>
<text text-anchor="middle" x="48" y="-31.5" font-family="Helvetica,sans-Serif" font-size="10.00">constants</text>
</a>
</g>
</g>
<!-- dir_00915aefc8fe3fced465a5d8ad3261ce -->
<g id="node2" class="node">
<title>dir_00915aefc8fe3fced465a5d8ad3261ce</title>
<g id="a_node2"><a xlink:href="dir_00915aefc8fe3fced465a5d8ad3261ce.html" target="_top" xlink:title="types">
<polygon fill="#eeeeff" stroke="black" points="75,-124 21,-124 21,-88 75,-88 75,-124"/>
<text text-anchor="middle" x="48" y="-103.5" font-family="Helvetica,sans-Serif" font-size="10.00">types</text>
</a>
</g>
</g>
<!-- dir_00915aefc8fe3fced465a5d8ad3261ce&#45;&gt;dir_d2b7a96810b9669f8191cf27d0893188 -->
<g id="edge1" class="edge">
<title>dir_00915aefc8fe3fced465a5d8ad3261ce&#45;&gt;dir_d2b7a96810b9669f8191cf27d0893188</title>
<path fill="none" stroke="black" d="M48,-87.7C48,-79.98 48,-70.71 48,-62.11"/>
<polygon fill="black" stroke="black" points="51.5,-62.1 48,-52.1 44.5,-62.1 51.5,-62.1"/>
<g id="a_edge1&#45;headlabel"><a xlink:href="dir_000003_000001.html" target="_top" xlink:title="2">
<text text-anchor="middle" x="54.34" y="-63.2" font-family="Helvetica,sans-Serif" font-size="10.00">2</text>
</a>
</g>
</g>
</g>
</svg>
