<?xml version="1.0" encoding="UTF-8" standalone="no"?>
<!DOCTYPE svg PUBLIC "-//W3C//DTD SVG 1.1//EN"
 "http://www.w3.org/Graphics/SVG/1.1/DTD/svg11.dtd">
<!-- Generated by graphviz version 2.43.0 (0)
 -->
<!-- Title: hal/uc/entropy.h Pages: 1 -->
<svg width="938pt" height="319pt"
 viewBox="0.00 0.00 938.00 319.00" xmlns="http://www.w3.org/2000/svg" xmlns:xlink="http://www.w3.org/1999/xlink">
<g id="graph0" class="graph" transform="scale(1 1) rotate(0) translate(4 315)">
<title>hal/uc/entropy.h</title>
<!-- Node1 -->
<g id="node1" class="node">
<title>Node1</title>
<g id="a_node1"><a xlink:title="HAL for uC entropy source.">
<polygon fill="#bfbfbf" stroke="black" points="479,-291.5 479,-310.5 573,-310.5 573,-291.5 479,-291.5"/>
<text text-anchor="middle" x="526" y="-298.5" font-family="Helvetica,sans-Serif" font-size="10.00">hal/uc/entropy.h</text>
</a>
</g>
</g>
<!-- Node2 -->
<g id="node2" class="node">
<title>Node2</title>
<g id="a_node2"><a xlink:href="map_8h.html" target="_top" xlink:title="HAL for uC Peripheral Map.">
<polygon fill="none" stroke="black" points="502.5,-235.5 502.5,-254.5 549.5,-254.5 549.5,-235.5 502.5,-235.5"/>
<text text-anchor="middle" x="526" y="-242.5" font-family="Helvetica,sans-Serif" font-size="10.00">map.h</text>
</a>
</g>
</g>
<!-- Node1&#45;&gt;Node2 -->
<g id="edge1" class="edge">
<title>Node1&#45;&gt;Node2</title>
<path fill="none" stroke="midnightblue" d="M526,-291.08C526,-284.01 526,-273.86 526,-264.99"/>
<polygon fill="midnightblue" stroke="midnightblue" points="529.5,-264.75 526,-254.75 522.5,-264.75 529.5,-264.75"/>
</g>
<!-- Node3 -->
<g id="node3" class="node">
<title>Node3</title>
<g id="a_node3"><a xlink:title=" ">
<polygon fill="none" stroke="#bfbfbf" points="217.5,-0.5 217.5,-19.5 270.5,-19.5 270.5,-0.5 217.5,-0.5"/>
<text text-anchor="middle" x="244" y="-7.5" font-family="Helvetica,sans-Serif" font-size="10.00">stdint.h</text>
</a>
</g>
</g>
<!-- Node2&#45;&gt;Node3 -->
<g id="edge2" class="edge">
<title>Node2&#45;&gt;Node3</title>
<path fill="none" stroke="midnightblue" d="M502.37,-241.57C454.52,-236.22 348.4,-222.04 321,-199 268.15,-154.57 251.1,-68.17 246.01,-29.96"/>
<polygon fill="midnightblue" stroke="midnightblue" points="249.45,-29.26 244.78,-19.74 242.5,-30.09 249.45,-29.26"/>
</g>
<!-- Node4 -->
<g id="node4" class="node">
<title>Node4</title>
<g id="a_node4"><a xlink:title=" ">
<polygon fill="none" stroke="#bfbfbf" points="432,-0.5 432,-19.5 530,-19.5 530,-0.5 432,-0.5"/>
<text text-anchor="middle" x="481" y="-7.5" font-family="Helvetica,sans-Serif" font-size="10.00">platform/types.h</text>
</a>
</g>
</g>
<!-- Node2&#45;&gt;Node4 -->
<g id="edge3" class="edge">
<title>Node2&#45;&gt;Node4</title>
<path fill="none" stroke="midnightblue" d="M511.34,-235.4C499.59,-227.58 483.97,-214.86 477,-199 451.76,-141.55 466.67,-64.4 475.68,-29.51"/>
<polygon fill="midnightblue" stroke="midnightblue" points="479.08,-30.31 478.33,-19.74 472.33,-28.47 479.08,-30.31"/>
</g>
<!-- Node5 -->
<g id="node5" class="node">
<title>Node5</title>
<g id="a_node5"><a xlink:href="types_8h_source.html" target="_top" xlink:title=" ">
<polygon fill="none" stroke="black" points="330.5,-174 330.5,-193 401.5,-193 401.5,-174 330.5,-174"/>
<text text-anchor="middle" x="366" y="-181" font-family="Helvetica,sans-Serif" font-size="10.00">hal/types.h</text>
</a>
</g>
</g>
<!-- Node2&#45;&gt;Node5 -->
<g id="edge4" class="edge">
<title>Node2&#45;&gt;Node5</title>
<path fill="none" stroke="midnightblue" d="M503.08,-235.48C475.63,-225.27 429.48,-208.11 398.4,-196.55"/>
<polygon fill="midnightblue" stroke="midnightblue" points="399.47,-193.21 388.88,-193.01 397.03,-199.78 399.47,-193.21"/>
</g>
<!-- Node13 -->
<g id="node13" class="node">
<title>Node13</title>
<g id="a_node13"><a xlink:title=" ">
<polygon fill="none" stroke="#bfbfbf" points="486,-174 486,-193 566,-193 566,-174 486,-174"/>
<text text-anchor="middle" x="526" y="-181" font-family="Helvetica,sans-Serif" font-size="10.00">application.h</text>
</a>
</g>
</g>
<!-- Node2&#45;&gt;Node13 -->
<g id="edge15" class="edge">
<title>Node2&#45;&gt;Node13</title>
<path fill="none" stroke="midnightblue" d="M526,-235.48C526,-227.08 526,-213.98 526,-203.16"/>
<polygon fill="midnightblue" stroke="midnightblue" points="529.5,-203.01 526,-193.01 522.5,-203.01 529.5,-203.01"/>
</g>
<!-- Node14 -->
<g id="node14" class="node">
<title>Node14</title>
<g id="a_node14"><a xlink:title=" ">
<polygon fill="none" stroke="#bfbfbf" points="584.5,-174 584.5,-193 685.5,-193 685.5,-174 584.5,-174"/>
<text text-anchor="middle" x="635" y="-181" font-family="Helvetica,sans-Serif" font-size="10.00">platform/debug.h</text>
</a>
</g>
</g>
<!-- Node2&#45;&gt;Node14 -->
<g id="edge16" class="edge">
<title>Node2&#45;&gt;Node14</title>
<path fill="none" stroke="midnightblue" d="M541.62,-235.48C559.59,-225.67 589.32,-209.43 610.41,-197.92"/>
<polygon fill="midnightblue" stroke="midnightblue" points="612.31,-200.87 619.41,-193.01 608.96,-194.73 612.31,-200.87"/>
</g>
<!-- Node15 -->
<g id="node15" class="node">
<title>Node15</title>
<g id="a_node15"><a xlink:title=" ">
<polygon fill="none" stroke="#bfbfbf" points="704,-174 704,-193 792,-193 792,-174 704,-174"/>
<text text-anchor="middle" x="748" y="-181" font-family="Helvetica,sans-Serif" font-size="10.00">platform/cpu.h</text>
</a>
</g>
</g>
<!-- Node2&#45;&gt;Node15 -->
<g id="edge17" class="edge">
<title>Node2&#45;&gt;Node15</title>
<path fill="none" stroke="midnightblue" d="M549.53,-237.79C582.19,-229.16 643.12,-213.01 695,-199 698.88,-197.95 702.91,-196.86 706.95,-195.76"/>
<polygon fill="midnightblue" stroke="midnightblue" points="708.18,-199.05 716.9,-193.05 706.33,-192.3 708.18,-199.05"/>
</g>
<!-- Node16 -->
<g id="node16" class="node">
<title>Node16</title>
<g id="a_node16"><a xlink:title=" ">
<polygon fill="none" stroke="#bfbfbf" points="810,-168.5 810,-198.5 930,-198.5 930,-168.5 810,-168.5"/>
<text text-anchor="start" x="818" y="-186.5" font-family="Helvetica,sans-Serif" font-size="10.00">hal_platform/uc_map</text>
<text text-anchor="middle" x="870" y="-175.5" font-family="Helvetica,sans-Serif" font-size="10.00">_impl.h</text>
</a>
</g>
</g>
<!-- Node2&#45;&gt;Node16 -->
<g id="edge18" class="edge">
<title>Node2&#45;&gt;Node16</title>
<path fill="none" stroke="midnightblue" d="M549.61,-240.5C595.71,-233.59 701.18,-217.41 799.98,-199.14"/>
<polygon fill="midnightblue" stroke="midnightblue" points="800.63,-202.58 809.82,-197.31 799.35,-195.7 800.63,-202.58"/>
</g>
<!-- Node6 -->
<g id="node6" class="node">
<title>Node6</title>
<g id="a_node6"><a xlink:href="types_2all_8h_source.html" target="_top" xlink:title=" ">
<polygon fill="none" stroke="black" points="318,-112.5 318,-131.5 386,-131.5 386,-112.5 318,-112.5"/>
<text text-anchor="middle" x="352" y="-119.5" font-family="Helvetica,sans-Serif" font-size="10.00">types/all.h</text>
</a>
</g>
</g>
<!-- Node5&#45;&gt;Node6 -->
<g id="edge5" class="edge">
<title>Node5&#45;&gt;Node6</title>
<path fill="none" stroke="midnightblue" d="M363.99,-173.98C362,-165.49 358.87,-152.2 356.31,-141.32"/>
<polygon fill="midnightblue" stroke="midnightblue" points="359.7,-140.44 354,-131.51 352.89,-142.04 359.7,-140.44"/>
</g>
<!-- Node7 -->
<g id="node7" class="node">
<title>Node7</title>
<g id="a_node7"><a xlink:href="types_2crypto_8h_source.html" target="_top" xlink:title=" ">
<polygon fill="none" stroke="black" points="310,-56.5 310,-75.5 366,-75.5 366,-56.5 310,-56.5"/>
<text text-anchor="middle" x="338" y="-63.5" font-family="Helvetica,sans-Serif" font-size="10.00">crypto.h</text>
</a>
</g>
</g>
<!-- Node6&#45;&gt;Node7 -->
<g id="edge6" class="edge">
<title>Node6&#45;&gt;Node7</title>
<path fill="none" stroke="midnightblue" d="M349.69,-112.08C347.83,-104.93 345.16,-94.64 342.85,-85.69"/>
<polygon fill="midnightblue" stroke="midnightblue" points="346.17,-84.55 340.27,-75.75 339.39,-86.31 346.17,-84.55"/>
</g>
<!-- Node9 -->
<g id="node9" class="node">
<title>Node9</title>
<g id="a_node9"><a xlink:href="types_2rtc_8h_source.html" target="_top" xlink:title=" ">
<polygon fill="none" stroke="black" points="166,-56.5 166,-75.5 204,-75.5 204,-56.5 166,-56.5"/>
<text text-anchor="middle" x="185" y="-63.5" font-family="Helvetica,sans-Serif" font-size="10.00">rtc.h</text>
</a>
</g>
</g>
<!-- Node6&#45;&gt;Node9 -->
<g id="edge9" class="edge">
<title>Node6&#45;&gt;Node9</title>
<path fill="none" stroke="midnightblue" d="M325.54,-112.44C295.13,-102.61 245.39,-86.53 213.97,-76.37"/>
<polygon fill="midnightblue" stroke="midnightblue" points="214.66,-72.91 204.07,-73.16 212.5,-79.57 214.66,-72.91"/>
</g>
<!-- Node12 -->
<g id="node12" class="node">
<title>Node12</title>
<g id="a_node12"><a xlink:href="types_2uart_8h_source.html" target="_top" xlink:title=" ">
<polygon fill="none" stroke="black" points="384.5,-56.5 384.5,-75.5 429.5,-75.5 429.5,-56.5 384.5,-56.5"/>
<text text-anchor="middle" x="407" y="-63.5" font-family="Helvetica,sans-Serif" font-size="10.00">uart.h</text>
</a>
</g>
</g>
<!-- Node6&#45;&gt;Node12 -->
<g id="edge13" class="edge">
<title>Node6&#45;&gt;Node12</title>
<path fill="none" stroke="midnightblue" d="M361.08,-112.08C369.17,-104.14 381.2,-92.34 390.91,-82.8"/>
<polygon fill="midnightblue" stroke="midnightblue" points="393.4,-85.25 398.09,-75.75 388.5,-80.26 393.4,-85.25"/>
</g>
<!-- Node7&#45;&gt;Node3 -->
<g id="edge7" class="edge">
<title>Node7&#45;&gt;Node3</title>
<path fill="none" stroke="midnightblue" d="M322.9,-56.32C308.1,-47.82 285.31,-34.73 268.02,-24.8"/>
<polygon fill="midnightblue" stroke="midnightblue" points="269.48,-21.6 259.07,-19.65 265.99,-27.67 269.48,-21.6"/>
</g>
<!-- Node8 -->
<g id="node8" class="node">
<title>Node8</title>
<g id="a_node8"><a xlink:href="constants_2crypto_8h_source.html" target="_top" xlink:title=" ">
<polygon fill="none" stroke="black" points="288.5,-0.5 288.5,-19.5 413.5,-19.5 413.5,-0.5 288.5,-0.5"/>
<text text-anchor="middle" x="351" y="-7.5" font-family="Helvetica,sans-Serif" font-size="10.00">hal/constants/crypto.h</text>
</a>
</g>
</g>
<!-- Node7&#45;&gt;Node8 -->
<g id="edge8" class="edge">
<title>Node7&#45;&gt;Node8</title>
<path fill="none" stroke="midnightblue" d="M340.15,-56.08C341.87,-48.93 344.35,-38.64 346.5,-29.69"/>
<polygon fill="midnightblue" stroke="midnightblue" points="349.96,-30.29 348.89,-19.75 343.15,-28.65 349.96,-30.29"/>
</g>
<!-- Node9&#45;&gt;Node3 -->
<g id="edge10" class="edge">
<title>Node9&#45;&gt;Node3</title>
<path fill="none" stroke="midnightblue" d="M194.48,-56.32C203.2,-48.34 216.34,-36.31 226.9,-26.65"/>
<polygon fill="midnightblue" stroke="midnightblue" points="229.33,-29.17 234.35,-19.83 224.61,-24 229.33,-29.17"/>
</g>
<!-- Node10 -->
<g id="node10" class="node">
<title>Node10</title>
<g id="a_node10"><a xlink:href="constants_2rtc_8h_source.html" target="_top" xlink:title=" ">
<polygon fill="none" stroke="black" points="92.5,-0.5 92.5,-19.5 199.5,-19.5 199.5,-0.5 92.5,-0.5"/>
<text text-anchor="middle" x="146" y="-7.5" font-family="Helvetica,sans-Serif" font-size="10.00">hal/constants/rtc.h</text>
</a>
</g>
</g>
<!-- Node9&#45;&gt;Node10 -->
<g id="edge11" class="edge">
<title>Node9&#45;&gt;Node10</title>
<path fill="none" stroke="midnightblue" d="M178.56,-56.08C173.05,-48.46 164.97,-37.26 158.24,-27.94"/>
<polygon fill="midnightblue" stroke="midnightblue" points="161.01,-25.81 152.32,-19.75 155.34,-29.91 161.01,-25.81"/>
</g>
<!-- Node11 -->
<g id="node11" class="node">
<title>Node11</title>
<g id="a_node11"><a xlink:title=" ">
<polygon fill="none" stroke="#bfbfbf" points="0,-0.5 0,-19.5 74,-19.5 74,-0.5 0,-0.5"/>
<text text-anchor="middle" x="37" y="-7.5" font-family="Helvetica,sans-Serif" font-size="10.00">time/time.h</text>
</a>
</g>
</g>
<!-- Node9&#45;&gt;Node11 -->
<g id="edge12" class="edge">
<title>Node9&#45;&gt;Node11</title>
<path fill="none" stroke="midnightblue" d="M165.95,-58.05C141.69,-49.2 99.35,-33.75 69.83,-22.98"/>
<polygon fill="midnightblue" stroke="midnightblue" points="70.95,-19.66 60.36,-19.52 68.55,-26.24 70.95,-19.66"/>
</g>
<!-- Node12&#45;&gt;Node4 -->
<g id="edge14" class="edge">
<title>Node12&#45;&gt;Node4</title>
<path fill="none" stroke="midnightblue" d="M418.89,-56.32C430.15,-48.11 447.29,-35.6 460.71,-25.81"/>
<polygon fill="midnightblue" stroke="midnightblue" points="462.88,-28.56 468.89,-19.83 458.75,-22.9 462.88,-28.56"/>
</g>
</g>
</svg>
