<?xml version="1.0" encoding="UTF-8" standalone="no"?>
<!DOCTYPE svg PUBLIC "-//W3C//DTD SVG 1.1//EN"
 "http://www.w3.org/Graphics/SVG/1.1/DTD/svg11.dtd">
<!-- Generated by graphviz version 2.43.0 (0)
 -->
<!-- Title: hal/uc/gpio.h Pages: 1 -->
<svg width="640pt" height="151pt"
 viewBox="0.00 0.00 640.00 151.00" xmlns="http://www.w3.org/2000/svg" xmlns:xlink="http://www.w3.org/1999/xlink">
<g id="graph0" class="graph" transform="scale(1 1) rotate(0) translate(4 147)">
<title>hal/uc/gpio.h</title>
<!-- Node1 -->
<g id="node1" class="node">
<title>Node1</title>
<g id="a_node1"><a xlink:title="HAL for uC GPIOs.">
<polygon fill="#bfbfbf" stroke="black" points="188.5,-123.5 188.5,-142.5 267.5,-142.5 267.5,-123.5 188.5,-123.5"/>
<text text-anchor="middle" x="228" y="-130.5" font-family="Helvetica,sans-Serif" font-size="10.00">hal/uc/gpio.h</text>
</a>
</g>
</g>
<!-- Node2 -->
<g id="node2" class="node">
<title>Node2</title>
<g id="a_node2"><a xlink:title=" ">
<polygon fill="none" stroke="#bfbfbf" points="0,-6 0,-25 98,-25 98,-6 0,-6"/>
<text text-anchor="middle" x="49" y="-13" font-family="Helvetica,sans-Serif" font-size="10.00">platform/types.h</text>
</a>
</g>
</g>
<!-- Node1&#45;&gt;Node2 -->
<g id="edge1" class="edge">
<title>Node1&#45;&gt;Node2</title>
<path fill="none" stroke="midnightblue" d="M214.55,-123.32C183.96,-103.59 108.98,-55.2 71.33,-30.91"/>
<polygon fill="midnightblue" stroke="midnightblue" points="72.91,-27.76 62.61,-25.28 69.12,-33.64 72.91,-27.76"/>
</g>
<!-- Node3 -->
<g id="node3" class="node">
<title>Node3</title>
<g id="a_node3"><a xlink:href="map_8h.html" target="_top" xlink:title="HAL for uC Peripheral Map.">
<polygon fill="none" stroke="black" points="204.5,-67.5 204.5,-86.5 251.5,-86.5 251.5,-67.5 204.5,-67.5"/>
<text text-anchor="middle" x="228" y="-74.5" font-family="Helvetica,sans-Serif" font-size="10.00">map.h</text>
</a>
</g>
</g>
<!-- Node1&#45;&gt;Node3 -->
<g id="edge2" class="edge">
<title>Node1&#45;&gt;Node3</title>
<path fill="none" stroke="midnightblue" d="M228,-123.08C228,-116.01 228,-105.86 228,-96.99"/>
<polygon fill="midnightblue" stroke="midnightblue" points="231.5,-96.75 228,-86.75 224.5,-96.75 231.5,-96.75"/>
</g>
<!-- Node9 -->
<g id="node9" class="node">
<title>Node9</title>
<g id="a_node9"><a xlink:title=" ">
<polygon fill="none" stroke="#bfbfbf" points="269.5,-67.5 269.5,-86.5 408.5,-86.5 408.5,-67.5 269.5,-67.5"/>
<text text-anchor="middle" x="339" y="-74.5" font-family="Helvetica,sans-Serif" font-size="10.00">hal_platform/gpio_impl.h</text>
</a>
</g>
</g>
<!-- Node1&#45;&gt;Node9 -->
<g id="edge9" class="edge">
<title>Node1&#45;&gt;Node9</title>
<path fill="none" stroke="midnightblue" d="M245.83,-123.32C263.72,-114.62 291.48,-101.12 312.05,-91.11"/>
<polygon fill="midnightblue" stroke="midnightblue" points="313.75,-94.18 321.21,-86.65 310.69,-87.88 313.75,-94.18"/>
</g>
<!-- Node3&#45;&gt;Node2 -->
<g id="edge4" class="edge">
<title>Node3&#45;&gt;Node2</title>
<path fill="none" stroke="midnightblue" d="M204.23,-68.1C173.59,-57.91 120.04,-40.11 84.55,-28.32"/>
<polygon fill="midnightblue" stroke="midnightblue" points="85.2,-24.84 74.61,-25.01 82.99,-31.49 85.2,-24.84"/>
</g>
<!-- Node4 -->
<g id="node4" class="node">
<title>Node4</title>
<g id="a_node4"><a xlink:title=" ">
<polygon fill="none" stroke="#bfbfbf" points="116.5,-6 116.5,-25 169.5,-25 169.5,-6 116.5,-6"/>
<text text-anchor="middle" x="143" y="-13" font-family="Helvetica,sans-Serif" font-size="10.00">stdint.h</text>
</a>
</g>
</g>
<!-- Node3&#45;&gt;Node4 -->
<g id="edge3" class="edge">
<title>Node3&#45;&gt;Node4</title>
<path fill="none" stroke="midnightblue" d="M215.82,-67.48C202.19,-57.93 179.87,-42.31 163.53,-30.87"/>
<polygon fill="midnightblue" stroke="midnightblue" points="165.36,-27.88 155.16,-25.01 161.34,-33.61 165.36,-27.88"/>
</g>
<!-- Node5 -->
<g id="node5" class="node">
<title>Node5</title>
<g id="a_node5"><a xlink:title=" ">
<polygon fill="none" stroke="#bfbfbf" points="188,-6 188,-25 268,-25 268,-6 188,-6"/>
<text text-anchor="middle" x="228" y="-13" font-family="Helvetica,sans-Serif" font-size="10.00">application.h</text>
</a>
</g>
</g>
<!-- Node3&#45;&gt;Node5 -->
<g id="edge5" class="edge">
<title>Node3&#45;&gt;Node5</title>
<path fill="none" stroke="midnightblue" d="M228,-67.48C228,-59.08 228,-45.98 228,-35.16"/>
<polygon fill="midnightblue" stroke="midnightblue" points="231.5,-35.01 228,-25.01 224.5,-35.01 231.5,-35.01"/>
</g>
<!-- Node6 -->
<g id="node6" class="node">
<title>Node6</title>
<g id="a_node6"><a xlink:title=" ">
<polygon fill="none" stroke="#bfbfbf" points="286.5,-6 286.5,-25 387.5,-25 387.5,-6 286.5,-6"/>
<text text-anchor="middle" x="337" y="-13" font-family="Helvetica,sans-Serif" font-size="10.00">platform/debug.h</text>
</a>
</g>
</g>
<!-- Node3&#45;&gt;Node6 -->
<g id="edge6" class="edge">
<title>Node3&#45;&gt;Node6</title>
<path fill="none" stroke="midnightblue" d="M243.62,-67.48C261.59,-57.67 291.32,-41.43 312.41,-29.92"/>
<polygon fill="midnightblue" stroke="midnightblue" points="314.31,-32.87 321.41,-25.01 310.96,-26.73 314.31,-32.87"/>
</g>
<!-- Node7 -->
<g id="node7" class="node">
<title>Node7</title>
<g id="a_node7"><a xlink:title=" ">
<polygon fill="none" stroke="#bfbfbf" points="406,-6 406,-25 494,-25 494,-6 406,-6"/>
<text text-anchor="middle" x="450" y="-13" font-family="Helvetica,sans-Serif" font-size="10.00">platform/cpu.h</text>
</a>
</g>
</g>
<!-- Node3&#45;&gt;Node7 -->
<g id="edge7" class="edge">
<title>Node3&#45;&gt;Node7</title>
<path fill="none" stroke="midnightblue" d="M251.79,-69.49C254.89,-68.65 258.02,-67.8 261,-67 321.38,-50.77 336.62,-47.25 397,-31 400.88,-29.96 404.92,-28.86 408.95,-27.77"/>
<polygon fill="midnightblue" stroke="midnightblue" points="410.18,-31.06 418.9,-25.05 408.34,-24.31 410.18,-31.06"/>
</g>
<!-- Node8 -->
<g id="node8" class="node">
<title>Node8</title>
<g id="a_node8"><a xlink:title=" ">
<polygon fill="none" stroke="#bfbfbf" points="512,-0.5 512,-30.5 632,-30.5 632,-0.5 512,-0.5"/>
<text text-anchor="start" x="520" y="-18.5" font-family="Helvetica,sans-Serif" font-size="10.00">hal_platform/uc_map</text>
<text text-anchor="middle" x="572" y="-7.5" font-family="Helvetica,sans-Serif" font-size="10.00">_impl.h</text>
</a>
</g>
</g>
<!-- Node3&#45;&gt;Node8 -->
<g id="edge8" class="edge">
<title>Node3&#45;&gt;Node8</title>
<path fill="none" stroke="midnightblue" d="M251.71,-69.17C254.82,-68.38 257.98,-67.63 261,-67 364.3,-45.31 394.23,-49.89 501.87,-31.13"/>
<polygon fill="midnightblue" stroke="midnightblue" points="502.59,-34.55 511.83,-29.36 501.37,-27.66 502.59,-34.55"/>
</g>
</g>
</svg>
