<?xml version="1.0" encoding="UTF-8" standalone="no"?>
<!DOCTYPE svg PUBLIC "-//W3C//DTD SVG 1.1//EN"
 "http://www.w3.org/Graphics/SVG/1.1/DTD/svg11.dtd">
<!-- Generated by graphviz version 2.43.0 (0)
 -->
<!-- Title: hal/uc/gpio.h Pages: 1 -->
<svg width="696pt" height="319pt"
 viewBox="0.00 0.00 696.00 319.00" xmlns="http://www.w3.org/2000/svg" xmlns:xlink="http://www.w3.org/1999/xlink">
<g id="graph0" class="graph" transform="scale(1 1) rotate(0) translate(4 315)">
<title>hal/uc/gpio.h</title>
<!-- Node1 -->
<g id="node1" class="node">
<title>Node1</title>
<g id="a_node1"><a xlink:title="HAL for uC GPIOs.">
<polygon fill="#bfbfbf" stroke="black" points="197.5,-291.5 197.5,-310.5 276.5,-310.5 276.5,-291.5 197.5,-291.5"/>
<text text-anchor="middle" x="237" y="-298.5" font-family="Helvetica,sans-Serif" font-size="10.00">hal/uc/gpio.h</text>
</a>
</g>
</g>
<!-- Node2 -->
<g id="node2" class="node">
<title>Node2</title>
<g id="a_node2"><a xlink:title=" ">
<polygon fill="none" stroke="#bfbfbf" points="0,-174 0,-193 98,-193 98,-174 0,-174"/>
<text text-anchor="middle" x="49" y="-181" font-family="Helvetica,sans-Serif" font-size="10.00">platform/types.h</text>
</a>
</g>
</g>
<!-- Node1&#45;&gt;Node2 -->
<g id="edge1" class="edge">
<title>Node1&#45;&gt;Node2</title>
<path fill="none" stroke="midnightblue" d="M222.87,-291.32C190.54,-271.45 110.93,-222.55 71.66,-198.42"/>
<polygon fill="midnightblue" stroke="midnightblue" points="73.39,-195.38 63.04,-193.12 69.73,-201.34 73.39,-195.38"/>
</g>
<!-- Node3 -->
<g id="node3" class="node">
<title>Node3</title>
<g id="a_node3"><a xlink:href="map_8h.html" target="_top" xlink:title="HAL for uC Peripheral Map.">
<polygon fill="none" stroke="black" points="213.5,-235.5 213.5,-254.5 260.5,-254.5 260.5,-235.5 213.5,-235.5"/>
<text text-anchor="middle" x="237" y="-242.5" font-family="Helvetica,sans-Serif" font-size="10.00">map.h</text>
</a>
</g>
</g>
<!-- Node1&#45;&gt;Node3 -->
<g id="edge2" class="edge">
<title>Node1&#45;&gt;Node3</title>
<path fill="none" stroke="midnightblue" d="M237,-291.08C237,-284.01 237,-273.86 237,-264.99"/>
<polygon fill="midnightblue" stroke="midnightblue" points="240.5,-264.75 237,-254.75 233.5,-264.75 240.5,-264.75"/>
</g>
<!-- Node12 -->
<g id="node12" class="node">
<title>Node12</title>
<g id="a_node12"><a xlink:title=" ">
<polygon fill="none" stroke="#bfbfbf" points="278.5,-235.5 278.5,-254.5 417.5,-254.5 417.5,-235.5 278.5,-235.5"/>
<text text-anchor="middle" x="348" y="-242.5" font-family="Helvetica,sans-Serif" font-size="10.00">hal_platform/gpio_impl.h</text>
</a>
</g>
</g>
<!-- Node1&#45;&gt;Node12 -->
<g id="edge13" class="edge">
<title>Node1&#45;&gt;Node12</title>
<path fill="none" stroke="midnightblue" d="M254.83,-291.32C272.72,-282.62 300.48,-269.12 321.05,-259.11"/>
<polygon fill="midnightblue" stroke="midnightblue" points="322.75,-262.18 330.21,-254.65 319.69,-255.88 322.75,-262.18"/>
</g>
<!-- Node3&#45;&gt;Node2 -->
<g id="edge4" class="edge">
<title>Node3&#45;&gt;Node2</title>
<path fill="none" stroke="midnightblue" d="M213.19,-236.46C180.99,-226.27 123.27,-208 85.55,-196.07"/>
<polygon fill="midnightblue" stroke="midnightblue" points="86.54,-192.71 75.95,-193.03 84.43,-199.38 86.54,-192.71"/>
</g>
<!-- Node4 -->
<g id="node4" class="node">
<title>Node4</title>
<g id="a_node4"><a xlink:title=" ">
<polygon fill="none" stroke="#bfbfbf" points="127.5,-0.5 127.5,-19.5 180.5,-19.5 180.5,-0.5 127.5,-0.5"/>
<text text-anchor="middle" x="154" y="-7.5" font-family="Helvetica,sans-Serif" font-size="10.00">stdint.h</text>
</a>
</g>
</g>
<!-- Node3&#45;&gt;Node4 -->
<g id="edge3" class="edge">
<title>Node3&#45;&gt;Node4</title>
<path fill="none" stroke="midnightblue" d="M213.41,-239.74C191.43,-234.39 159.87,-222.83 145,-199 111.45,-145.24 133.9,-65.04 146.75,-29.31"/>
<polygon fill="midnightblue" stroke="midnightblue" points="150.11,-30.32 150.36,-19.73 143.56,-27.85 150.11,-30.32"/>
</g>
<!-- Node5 -->
<g id="node5" class="node">
<title>Node5</title>
<g id="a_node5"><a xlink:href="types_8h_source.html" target="_top" xlink:title=" ">
<polygon fill="none" stroke="black" points="154.5,-174 154.5,-193 225.5,-193 225.5,-174 154.5,-174"/>
<text text-anchor="middle" x="190" y="-181" font-family="Helvetica,sans-Serif" font-size="10.00">hal/types.h</text>
</a>
</g>
</g>
<!-- Node3&#45;&gt;Node5 -->
<g id="edge5" class="edge">
<title>Node3&#45;&gt;Node5</title>
<path fill="none" stroke="midnightblue" d="M230.27,-235.48C223.22,-226.55 211.97,-212.31 203.15,-201.14"/>
<polygon fill="midnightblue" stroke="midnightblue" points="205.67,-198.69 196.72,-193.01 200.17,-203.03 205.67,-198.69"/>
</g>
<!-- Node8 -->
<g id="node8" class="node">
<title>Node8</title>
<g id="a_node8"><a xlink:title=" ">
<polygon fill="none" stroke="#bfbfbf" points="244,-174 244,-193 324,-193 324,-174 244,-174"/>
<text text-anchor="middle" x="284" y="-181" font-family="Helvetica,sans-Serif" font-size="10.00">application.h</text>
</a>
</g>
</g>
<!-- Node3&#45;&gt;Node8 -->
<g id="edge9" class="edge">
<title>Node3&#45;&gt;Node8</title>
<path fill="none" stroke="midnightblue" d="M243.73,-235.48C250.78,-226.55 262.03,-212.31 270.85,-201.14"/>
<polygon fill="midnightblue" stroke="midnightblue" points="273.83,-203.03 277.28,-193.01 268.33,-198.69 273.83,-203.03"/>
</g>
<!-- Node9 -->
<g id="node9" class="node">
<title>Node9</title>
<g id="a_node9"><a xlink:title=" ">
<polygon fill="none" stroke="#bfbfbf" points="342.5,-174 342.5,-193 443.5,-193 443.5,-174 342.5,-174"/>
<text text-anchor="middle" x="393" y="-181" font-family="Helvetica,sans-Serif" font-size="10.00">platform/debug.h</text>
</a>
</g>
</g>
<!-- Node3&#45;&gt;Node9 -->
<g id="edge10" class="edge">
<title>Node3&#45;&gt;Node9</title>
<path fill="none" stroke="midnightblue" d="M259.35,-235.48C285.99,-225.31 330.71,-208.26 361.01,-196.7"/>
<polygon fill="midnightblue" stroke="midnightblue" points="362.59,-199.84 370.69,-193.01 360.1,-193.3 362.59,-199.84"/>
</g>
<!-- Node10 -->
<g id="node10" class="node">
<title>Node10</title>
<g id="a_node10"><a xlink:title=" ">
<polygon fill="none" stroke="#bfbfbf" points="462,-174 462,-193 550,-193 550,-174 462,-174"/>
<text text-anchor="middle" x="506" y="-181" font-family="Helvetica,sans-Serif" font-size="10.00">platform/cpu.h</text>
</a>
</g>
</g>
<!-- Node3&#45;&gt;Node10 -->
<g id="edge11" class="edge">
<title>Node3&#45;&gt;Node10</title>
<path fill="none" stroke="midnightblue" d="M260.74,-237.31C263.85,-236.49 266.99,-235.7 270,-235 350.7,-216.08 372.3,-217.95 453,-199 457.4,-197.97 461.99,-196.82 466.55,-195.63"/>
<polygon fill="midnightblue" stroke="midnightblue" points="467.62,-198.97 476.38,-193.01 465.82,-192.21 467.62,-198.97"/>
</g>
<!-- Node11 -->
<g id="node11" class="node">
<title>Node11</title>
<g id="a_node11"><a xlink:title=" ">
<polygon fill="none" stroke="#bfbfbf" points="568,-168.5 568,-198.5 688,-198.5 688,-168.5 568,-168.5"/>
<text text-anchor="start" x="576" y="-186.5" font-family="Helvetica,sans-Serif" font-size="10.00">hal_platform/uc_map</text>
<text text-anchor="middle" x="628" y="-175.5" font-family="Helvetica,sans-Serif" font-size="10.00">_impl.h</text>
</a>
</g>
</g>
<!-- Node3&#45;&gt;Node11 -->
<g id="edge12" class="edge">
<title>Node3&#45;&gt;Node11</title>
<path fill="none" stroke="midnightblue" d="M260.7,-237.1C263.81,-236.33 266.97,-235.6 270,-235 393.76,-210.55 429.53,-219.82 557.64,-199.13"/>
<polygon fill="midnightblue" stroke="midnightblue" points="558.55,-202.53 567.85,-197.45 557.41,-195.62 558.55,-202.53"/>
</g>
<!-- Node6 -->
<g id="node6" class="node">
<title>Node6</title>
<g id="a_node6"><a xlink:href="types_2all_8h_source.html" target="_top" xlink:title=" ">
<polygon fill="none" stroke="black" points="155,-112.5 155,-131.5 223,-131.5 223,-112.5 155,-112.5"/>
<text text-anchor="middle" x="189" y="-119.5" font-family="Helvetica,sans-Serif" font-size="10.00">types/all.h</text>
</a>
</g>
</g>
<!-- Node5&#45;&gt;Node6 -->
<g id="edge6" class="edge">
<title>Node5&#45;&gt;Node6</title>
<path fill="none" stroke="midnightblue" d="M189.86,-173.98C189.72,-165.58 189.5,-152.48 189.31,-141.66"/>
<polygon fill="midnightblue" stroke="midnightblue" points="192.81,-141.45 189.14,-131.51 185.81,-141.57 192.81,-141.45"/>
</g>
<!-- Node7 -->
<g id="node7" class="node">
<title>Node7</title>
<g id="a_node7"><a xlink:href="types_2crypto_8h_source.html" target="_top" xlink:title=" ">
<polygon fill="none" stroke="black" points="157,-56.5 157,-75.5 213,-75.5 213,-56.5 157,-56.5"/>
<text text-anchor="middle" x="185" y="-63.5" font-family="Helvetica,sans-Serif" font-size="10.00">crypto.h</text>
</a>
</g>
</g>
<!-- Node6&#45;&gt;Node7 -->
<g id="edge7" class="edge">
<title>Node6&#45;&gt;Node7</title>
<path fill="none" stroke="midnightblue" d="M188.34,-112.08C187.82,-105.01 187.06,-94.86 186.41,-85.99"/>
<polygon fill="midnightblue" stroke="midnightblue" points="189.88,-85.47 185.65,-75.75 182.9,-85.98 189.88,-85.47"/>
</g>
<!-- Node7&#45;&gt;Node4 -->
<g id="edge8" class="edge">
<title>Node7&#45;&gt;Node4</title>
<path fill="none" stroke="midnightblue" d="M179.88,-56.08C175.59,-48.61 169.34,-37.72 164.06,-28.52"/>
<polygon fill="midnightblue" stroke="midnightblue" points="167.04,-26.68 159.02,-19.75 160.97,-30.17 167.04,-26.68"/>
</g>
</g>
</svg>
