<?xml version="1.0" encoding="UTF-8" standalone="no"?>
<!DOCTYPE svg PUBLIC "-//W3C//DTD SVG 1.1//EN"
 "http://www.w3.org/Graphics/SVG/1.1/DTD/svg11.dtd">
<!-- Generated by graphviz version 2.43.0 (0)
 -->
<!-- Title: hal/uc/gpio.h Pages: 1 -->
<svg width="743pt" height="313pt"
 viewBox="0.00 0.00 743.00 313.00" xmlns="http://www.w3.org/2000/svg" xmlns:xlink="http://www.w3.org/1999/xlink">
<g id="graph0" class="graph" transform="scale(1 1) rotate(0) translate(4 309)">
<title>hal/uc/gpio.h</title>
<!-- Node1 -->
<g id="Node000001" class="node">
<title>Node1</title>
<g id="a_Node000001"><a xlink:title="HAL for uC GPIOs.">
<polygon fill="#999999" stroke="#666666" points="196.5,-305 117.5,-305 117.5,-286 196.5,-286 196.5,-305"/>
<text text-anchor="middle" x="157" y="-293" font-family="Helvetica,sans-Serif" font-size="10.00">hal/uc/gpio.h</text>
</a>
</g>
</g>
<!-- Node2 -->
<g id="Node000002" class="node">
<title>Node2</title>
<g id="a_Node000002"><a xlink:title=" ">
<polygon fill="#e0e0e0" stroke="#999999" points="340,-19 242,-19 242,0 340,0 340,-19"/>
<text text-anchor="middle" x="291" y="-7" font-family="Helvetica,sans-Serif" font-size="10.00">platform/types.h</text>
</a>
</g>
</g>
<!-- Node1&#45;&gt;Node2 -->
<g id="edge1_Node000001_Node000002" class="edge">
<title>Node1&#45;&gt;Node2</title>
<g id="a_edge1_Node000001_Node000002"><a xlink:title=" ">
<path fill="none" stroke="#63b8ff" d="M122.16,-285.98C75.9,-272.35 0,-240.87 0,-181 0,-181 0,-181 0,-118.5 0,-69.5 146.85,-35.62 231.91,-20.1"/>
<polygon fill="#63b8ff" stroke="#63b8ff" points="232.74,-23.51 241.96,-18.3 231.5,-16.62 232.74,-23.51"/>
</a>
</g>
</g>
<!-- Node3 -->
<g id="Node000003" class="node">
<title>Node3</title>
<g id="a_Node000003"><a xlink:href="map_8h.html" target="_top" xlink:title="HAL for uC Peripheral Map.">
<polygon fill="white" stroke="#666666" points="381.5,-250 334.5,-250 334.5,-231 381.5,-231 381.5,-250"/>
<text text-anchor="middle" x="358" y="-238" font-family="Helvetica,sans-Serif" font-size="10.00">map.h</text>
</a>
</g>
</g>
<!-- Node1&#45;&gt;Node3 -->
<g id="edge2_Node000001_Node000003" class="edge">
<title>Node1&#45;&gt;Node3</title>
<g id="a_edge2_Node000001_Node000003"><a xlink:title=" ">
<path fill="none" stroke="#63b8ff" d="M189.29,-285.98C226.32,-276.22 286.73,-260.29 324.32,-250.38"/>
<polygon fill="#63b8ff" stroke="#63b8ff" points="325.5,-253.69 334.28,-247.75 323.72,-246.92 325.5,-253.69"/>
</a>
</g>
</g>
<!-- Node3&#45;&gt;Node2 -->
<g id="edge4_Node000003_Node000002" class="edge">
<title>Node3&#45;&gt;Node2</title>
<g id="a_edge4_Node000003_Node000002"><a xlink:title=" ">
<path fill="none" stroke="#63b8ff" d="M364.63,-230.88C370.76,-222.32 379.46,-208.54 383,-195 386.38,-182.1 386.54,-177.86 383,-165 367.74,-109.56 326.82,-53.92 305.06,-27.07"/>
<polygon fill="#63b8ff" stroke="#63b8ff" points="307.55,-24.58 298.48,-19.11 302.15,-29.04 307.55,-24.58"/>
</a>
</g>
</g>
<!-- Node4 -->
<g id="Node000004" class="node">
<title>Node4</title>
<g id="a_Node000004"><a xlink:title=" ">
<polygon fill="#e0e0e0" stroke="#999999" points="679.5,-19 626.5,-19 626.5,0 679.5,0 679.5,-19"/>
<text text-anchor="middle" x="653" y="-7" font-family="Helvetica,sans-Serif" font-size="10.00">stdint.h</text>
</a>
</g>
</g>
<!-- Node3&#45;&gt;Node4 -->
<g id="edge3_Node000003_Node000004" class="edge">
<title>Node3&#45;&gt;Node4</title>
<g id="a_edge3_Node000003_Node000004"><a xlink:title=" ">
<path fill="none" stroke="#63b8ff" d="M381.78,-239.22C418.81,-237.66 490.99,-229.94 539,-195 598.85,-151.44 634.01,-65.98 647.1,-28.66"/>
<polygon fill="#63b8ff" stroke="#63b8ff" points="650.44,-29.69 650.34,-19.1 643.81,-27.45 650.44,-29.69"/>
</a>
</g>
</g>
<!-- Node5 -->
<g id="Node000005" class="node">
<title>Node5</title>
<g id="a_Node000005"><a xlink:href="types_8h.html" target="_top" xlink:title=" ">
<polygon fill="white" stroke="#666666" points="529.5,-189.5 458.5,-189.5 458.5,-170.5 529.5,-170.5 529.5,-189.5"/>
<text text-anchor="middle" x="494" y="-177.5" font-family="Helvetica,sans-Serif" font-size="10.00">hal/types.h</text>
</a>
</g>
</g>
<!-- Node3&#45;&gt;Node5 -->
<g id="edge5_Node000003_Node000005" class="edge">
<title>Node3&#45;&gt;Node5</title>
<g id="a_edge5_Node000003_Node000005"><a xlink:title=" ">
<path fill="none" stroke="#63b8ff" d="M377.78,-230.99C400.64,-221.16 438.49,-204.88 464.76,-193.58"/>
<polygon fill="#63b8ff" stroke="#63b8ff" points="466.4,-196.68 474.2,-189.52 463.63,-190.25 466.4,-196.68"/>
</a>
</g>
</g>
<!-- Node12 -->
<g id="Node000012" class="node">
<title>Node12</title>
<g id="a_Node000012"><a xlink:title=" ">
<polygon fill="#e0e0e0" stroke="#999999" points="735,-189.5 655,-189.5 655,-170.5 735,-170.5 735,-189.5"/>
<text text-anchor="middle" x="695" y="-177.5" font-family="Helvetica,sans-Serif" font-size="10.00">application.h</text>
</a>
</g>
</g>
<!-- Node3&#45;&gt;Node12 -->
<g id="edge15_Node000003_Node000012" class="edge">
<title>Node3&#45;&gt;Node12</title>
<g id="a_edge15_Node000003_Node000012"><a xlink:title=" ">
<path fill="none" stroke="#63b8ff" d="M381.62,-236.58C430.37,-230.38 545.56,-214.83 641,-195 645.39,-194.09 649.95,-193.05 654.48,-191.96"/>
<polygon fill="#63b8ff" stroke="#63b8ff" points="655.42,-195.33 664.28,-189.52 653.73,-188.54 655.42,-195.33"/>
</a>
</g>
</g>
<!-- Node13 -->
<g id="Node000013" class="node">
<title>Node13</title>
<g id="a_Node000013"><a xlink:title=" ">
<polygon fill="#e0e0e0" stroke="#999999" points="129.5,-189.5 28.5,-189.5 28.5,-170.5 129.5,-170.5 129.5,-189.5"/>
<text text-anchor="middle" x="79" y="-177.5" font-family="Helvetica,sans-Serif" font-size="10.00">platform/debug.h</text>
</a>
</g>
</g>
<!-- Node3&#45;&gt;Node13 -->
<g id="edge16_Node000003_Node000013" class="edge">
<title>Node3&#45;&gt;Node13</title>
<g id="a_edge16_Node000003_Node000013"><a xlink:title=" ">
<path fill="none" stroke="#63b8ff" d="M334.3,-234.92C294.07,-227.08 209.88,-210.47 139,-195 134.35,-193.98 129.5,-192.9 124.66,-191.8"/>
<polygon fill="#63b8ff" stroke="#63b8ff" points="125.34,-188.36 114.81,-189.53 123.78,-195.19 125.34,-188.36"/>
</a>
</g>
</g>
<!-- Node14 -->
<g id="Node000014" class="node">
<title>Node14</title>
<g id="a_Node000014"><a xlink:title=" ">
<polygon fill="#e0e0e0" stroke="#999999" points="236,-189.5 148,-189.5 148,-170.5 236,-170.5 236,-189.5"/>
<text text-anchor="middle" x="192" y="-177.5" font-family="Helvetica,sans-Serif" font-size="10.00">platform/cpu.h</text>
</a>
</g>
</g>
<!-- Node3&#45;&gt;Node14 -->
<g id="edge17_Node000003_Node000014" class="edge">
<title>Node3&#45;&gt;Node14</title>
<g id="a_edge17_Node000003_Node000014"><a xlink:title=" ">
<path fill="none" stroke="#63b8ff" d="M334.22,-231.12C305.78,-221.1 258,-204.26 225.75,-192.89"/>
<polygon fill="#63b8ff" stroke="#63b8ff" points="226.87,-189.58 216.28,-189.56 224.55,-196.18 226.87,-189.58"/>
</a>
</g>
</g>
<!-- Node15 -->
<g id="Node000015" class="node">
<title>Node15</title>
<g id="a_Node000015"><a xlink:title=" ">
<polygon fill="#e0e0e0" stroke="#999999" points="374,-195 254,-195 254,-165 374,-165 374,-195"/>
<text text-anchor="start" x="262" y="-183" font-family="Helvetica,sans-Serif" font-size="10.00">hal_platform/uc_map</text>
<text text-anchor="middle" x="314" y="-172" font-family="Helvetica,sans-Serif" font-size="10.00">_impl.h</text>
</a>
</g>
</g>
<!-- Node3&#45;&gt;Node15 -->
<g id="edge18_Node000003_Node000015" class="edge">
<title>Node3&#45;&gt;Node15</title>
<g id="a_edge18_Node000003_Node000015"><a xlink:title=" ">
<path fill="none" stroke="#63b8ff" d="M351.51,-230.87C346.03,-223.59 337.96,-212.85 330.7,-203.2"/>
<polygon fill="#63b8ff" stroke="#63b8ff" points="333.42,-201 324.62,-195.11 327.83,-205.21 333.42,-201"/>
</a>
</g>
</g>
<!-- Node6 -->
<g id="Node000006" class="node">
<title>Node6</title>
<g id="a_Node000006"><a xlink:href="types_2all_8h.html" target="_top" xlink:title=" ">
<polygon fill="white" stroke="#666666" points="535,-129 467,-129 467,-110 535,-110 535,-129"/>
<text text-anchor="middle" x="501" y="-117" font-family="Helvetica,sans-Serif" font-size="10.00">types/all.h</text>
</a>
</g>
</g>
<!-- Node5&#45;&gt;Node6 -->
<g id="edge6_Node000005_Node000006" class="edge">
<title>Node5&#45;&gt;Node6</title>
<g id="a_edge6_Node000005_Node000006"><a xlink:title=" ">
<path fill="none" stroke="#63b8ff" d="M495.03,-170.37C496,-162.25 497.49,-149.81 498.74,-139.39"/>
<polygon fill="#63b8ff" stroke="#63b8ff" points="502.25,-139.51 499.96,-129.17 495.3,-138.68 502.25,-139.51"/>
</a>
</g>
</g>
<!-- Node7 -->
<g id="Node000007" class="node">
<title>Node7</title>
<g id="a_Node000007"><a xlink:href="types_2crypto_8h.html" target="_top" xlink:title=" ">
<polygon fill="white" stroke="#666666" points="543,-74 487,-74 487,-55 543,-55 543,-74"/>
<text text-anchor="middle" x="515" y="-62" font-family="Helvetica,sans-Serif" font-size="10.00">crypto.h</text>
</a>
</g>
</g>
<!-- Node6&#45;&gt;Node7 -->
<g id="edge7_Node000006_Node000007" class="edge">
<title>Node6&#45;&gt;Node7</title>
<g id="a_edge7_Node000006_Node000007"><a xlink:title=" ">
<path fill="none" stroke="#63b8ff" d="M503.31,-109.75C505.17,-102.72 507.84,-92.62 510.15,-83.84"/>
<polygon fill="#63b8ff" stroke="#63b8ff" points="513.56,-84.65 512.73,-74.09 506.79,-82.86 513.56,-84.65"/>
</a>
</g>
</g>
<!-- Node9 -->
<g id="Node000009" class="node">
<title>Node9</title>
<g id="a_Node000009"><a xlink:href="types_2rtc_8h.html" target="_top" xlink:title=" ">
<polygon fill="white" stroke="#666666" points="599,-74 561,-74 561,-55 599,-55 599,-74"/>
<text text-anchor="middle" x="580" y="-62" font-family="Helvetica,sans-Serif" font-size="10.00">rtc.h</text>
</a>
</g>
</g>
<!-- Node6&#45;&gt;Node9 -->
<g id="edge10_Node000006_Node000009" class="edge">
<title>Node6&#45;&gt;Node9</title>
<g id="a_edge10_Node000006_Node000009"><a xlink:title=" ">
<path fill="none" stroke="#63b8ff" d="M513.69,-109.98C525.83,-101.84 544.36,-89.41 558.75,-79.76"/>
<polygon fill="#63b8ff" stroke="#63b8ff" points="560.72,-82.65 567.08,-74.17 556.82,-76.84 560.72,-82.65"/>
</a>
</g>
</g>
<!-- Node11 -->
<g id="Node000011" class="node">
<title>Node11</title>
<g id="a_Node000011"><a xlink:href="types_2uart_8h.html" target="_top" xlink:title=" ">
<polygon fill="white" stroke="#666666" points="468.5,-74 423.5,-74 423.5,-55 468.5,-55 468.5,-74"/>
<text text-anchor="middle" x="446" y="-62" font-family="Helvetica,sans-Serif" font-size="10.00">uart.h</text>
</a>
</g>
</g>
<!-- Node6&#45;&gt;Node11 -->
<g id="edge13_Node000006_Node000011" class="edge">
<title>Node6&#45;&gt;Node11</title>
<g id="a_edge13_Node000006_Node000011"><a xlink:title=" ">
<path fill="none" stroke="#63b8ff" d="M491.92,-109.75C483.91,-102.03 472.04,-90.6 462.38,-81.28"/>
<polygon fill="#63b8ff" stroke="#63b8ff" points="464.54,-78.51 454.91,-74.09 459.69,-83.55 464.54,-78.51"/>
</a>
</g>
</g>
<!-- Node7&#45;&gt;Node4 -->
<g id="edge8_Node000007_Node000004" class="edge">
<title>Node7&#45;&gt;Node4</title>
<g id="a_edge8_Node000007_Node000004"><a xlink:title=" ">
<path fill="none" stroke="#63b8ff" d="M537.17,-54.98C559.77,-46.3 595.06,-32.75 620.75,-22.88"/>
<polygon fill="#63b8ff" stroke="#63b8ff" points="622.34,-26.02 630.42,-19.17 619.83,-19.49 622.34,-26.02"/>
</a>
</g>
</g>
<!-- Node8 -->
<g id="Node000008" class="node">
<title>Node8</title>
<g id="a_Node000008"><a xlink:href="constants_2crypto_8h.html" target="_top" xlink:title=" ">
<polygon fill="white" stroke="#666666" points="483.5,-19 358.5,-19 358.5,0 483.5,0 483.5,-19"/>
<text text-anchor="middle" x="421" y="-7" font-family="Helvetica,sans-Serif" font-size="10.00">hal/constants/crypto.h</text>
</a>
</g>
</g>
<!-- Node7&#45;&gt;Node8 -->
<g id="edge9_Node000007_Node000008" class="edge">
<title>Node7&#45;&gt;Node8</title>
<g id="a_edge9_Node000007_Node000008"><a xlink:title=" ">
<path fill="none" stroke="#63b8ff" d="M499.9,-54.98C485.18,-46.69 462.58,-33.94 445.33,-24.22"/>
<polygon fill="#63b8ff" stroke="#63b8ff" points="446.81,-21.03 436.38,-19.17 443.37,-27.13 446.81,-21.03"/>
</a>
</g>
</g>
<!-- Node9&#45;&gt;Node4 -->
<g id="edge11_Node000009_Node000004" class="edge">
<title>Node9&#45;&gt;Node4</title>
<g id="a_edge11_Node000009_Node000004"><a xlink:title=" ">
<path fill="none" stroke="#63b8ff" d="M591.73,-54.98C602.73,-47 619.42,-34.88 632.6,-25.31"/>
<polygon fill="#63b8ff" stroke="#63b8ff" points="635.02,-27.88 641.06,-19.17 630.91,-22.21 635.02,-27.88"/>
</a>
</g>
</g>
<!-- Node10 -->
<g id="Node000010" class="node">
<title>Node10</title>
<g id="a_Node000010"><a xlink:href="constants_2rtc_8h.html" target="_top" xlink:title=" ">
<polygon fill="white" stroke="#666666" points="608.5,-19 501.5,-19 501.5,0 608.5,0 608.5,-19"/>
<text text-anchor="middle" x="555" y="-7" font-family="Helvetica,sans-Serif" font-size="10.00">hal/constants/rtc.h</text>
</a>
</g>
</g>
<!-- Node9&#45;&gt;Node10 -->
<g id="edge12_Node000009_Node000010" class="edge">
<title>Node9&#45;&gt;Node10</title>
<g id="a_edge12_Node000009_Node000010"><a xlink:title=" ">
<path fill="none" stroke="#63b8ff" d="M575.87,-54.75C572.49,-47.57 567.58,-37.18 563.38,-28.27"/>
<polygon fill="#63b8ff" stroke="#63b8ff" points="566.48,-26.64 559.05,-19.09 560.15,-29.63 566.48,-26.64"/>
</a>
</g>
</g>
<!-- Node11&#45;&gt;Node2 -->
<g id="edge14_Node000011_Node000002" class="edge">
<title>Node11&#45;&gt;Node2</title>
<g id="a_edge14_Node000011_Node000002"><a xlink:title=" ">
<path fill="none" stroke="#63b8ff" d="M423.46,-55.79C397.74,-47 355.37,-32.51 325.49,-22.29"/>
<polygon fill="#63b8ff" stroke="#63b8ff" points="326.47,-18.93 315.88,-19.01 324.21,-25.55 326.47,-18.93"/>
</a>
</g>
</g>
</g>
</svg>
