<?xml version="1.0" encoding="UTF-8" standalone="no"?>
<!DOCTYPE svg PUBLIC "-//W3C//DTD SVG 1.1//EN"
 "http://www.w3.org/Graphics/SVG/1.1/DTD/svg11.dtd">
<!-- Generated by graphviz version 2.43.0 (0)
 -->
<!-- Title: hal/uc/map.h Pages: 1 -->
<svg width="1118pt" height="196pt"
 viewBox="0.00 0.00 1117.50 196.00" xmlns="http://www.w3.org/2000/svg" xmlns:xlink="http://www.w3.org/1999/xlink">
<g id="graph0" class="graph" transform="scale(1 1) rotate(0) translate(4 192)">
<title>hal/uc/map.h</title>
<!-- Node1 -->
<g id="node1" class="node">
<title>Node1</title>
<g id="a_node1"><a xlink:title="HAL for uC Peripheral Map.">
<polygon fill="#bfbfbf" stroke="black" points="499.5,-168.5 499.5,-187.5 579.5,-187.5 579.5,-168.5 499.5,-168.5"/>
<text text-anchor="middle" x="539.5" y="-175.5" font-family="Helvetica,sans-Serif" font-size="10.00">hal/uc/map.h</text>
</a>
</g>
</g>
<!-- Node2 -->
<g id="node2" class="node">
<title>Node2</title>
<g id="a_node2"><a xlink:href="adc_8h.html" target="_top" xlink:title="HAL for uC Internal ADC interfaces.">
<polygon fill="none" stroke="black" points="0,-112.5 0,-131.5 75,-131.5 75,-112.5 0,-112.5"/>
<text text-anchor="middle" x="37.5" y="-119.5" font-family="Helvetica,sans-Serif" font-size="10.00">hal/uc/adc.h</text>
</a>
</g>
</g>
<!-- Node1&#45;&gt;Node2 -->
<g id="edge1" class="edge">
<title>Node1&#45;&gt;Node2</title>
<path fill="none" stroke="midnightblue" d="M489.16,-173.15C405.82,-166.51 234.05,-151.71 89.5,-132 84.87,-131.37 80.02,-130.63 75.22,-129.86"/>
<polygon fill="midnightblue" stroke="midnightblue" points="489.11,-176.66 499.35,-173.96 489.66,-169.68 489.11,-176.66"/>
</g>
<!-- Node3 -->
<g id="node3" class="node">
<title>Node3</title>
<g id="a_node3"><a xlink:href="all_8h_source.html" target="_top" xlink:title=" ">
<polygon fill="none" stroke="black" points="504.5,-56.5 504.5,-75.5 574.5,-75.5 574.5,-56.5 504.5,-56.5"/>
<text text-anchor="middle" x="539.5" y="-63.5" font-family="Helvetica,sans-Serif" font-size="10.00">hal/uc/all.h</text>
</a>
</g>
</g>
<!-- Node1&#45;&gt;Node3 -->
<g id="edge4" class="edge">
<title>Node1&#45;&gt;Node3</title>
<path fill="none" stroke="midnightblue" d="M489.22,-176.93C367.87,-175.89 72.5,-167.69 122.5,-112 147.86,-83.76 408.52,-71.67 504.38,-68.16"/>
<polygon fill="midnightblue" stroke="midnightblue" points="489.35,-180.43 499.38,-177.01 489.4,-173.43 489.35,-180.43"/>
</g>
<!-- Node5 -->
<g id="node5" class="node">
<title>Node5</title>
<g id="a_node5"><a xlink:href="core_8h.html" target="_top" xlink:title="HAL for uC Core peripherals.">
<polygon fill="none" stroke="black" points="132,-112.5 132,-131.5 211,-131.5 211,-112.5 132,-112.5"/>
<text text-anchor="middle" x="171.5" y="-119.5" font-family="Helvetica,sans-Serif" font-size="10.00">hal/uc/core.h</text>
</a>
</g>
</g>
<!-- Node1&#45;&gt;Node5 -->
<g id="edge5" class="edge">
<title>Node1&#45;&gt;Node5</title>
<path fill="none" stroke="midnightblue" d="M489.17,-170.64C426.04,-162.51 314.55,-147.59 219.5,-132 216.74,-131.55 213.89,-131.06 211.03,-130.56"/>
<polygon fill="midnightblue" stroke="midnightblue" points="488.89,-174.14 499.25,-171.94 489.78,-167.19 488.89,-174.14"/>
</g>
<!-- Node6 -->
<g id="node6" class="node">
<title>Node6</title>
<g id="a_node6"><a xlink:href="eeprom_8h.html" target="_top" xlink:title="HAL for uC EEPROM peripherals.">
<polygon fill="none" stroke="black" points="229,-112.5 229,-131.5 324,-131.5 324,-112.5 229,-112.5"/>
<text text-anchor="middle" x="276.5" y="-119.5" font-family="Helvetica,sans-Serif" font-size="10.00">hal/uc/eeprom.h</text>
</a>
</g>
</g>
<!-- Node1&#45;&gt;Node6 -->
<g id="edge7" class="edge">
<title>Node1&#45;&gt;Node6</title>
<path fill="none" stroke="midnightblue" d="M489.38,-166.71C439.7,-156.51 364.48,-141.06 318.03,-131.53"/>
<polygon fill="midnightblue" stroke="midnightblue" points="488.77,-170.16 499.27,-168.74 490.18,-163.3 488.77,-170.16"/>
</g>
<!-- Node7 -->
<g id="node7" class="node">
<title>Node7</title>
<g id="a_node7"><a xlink:href="entropy_8h.html" target="_top" xlink:title="HAL for uC entropy source.">
<polygon fill="none" stroke="black" points="342.5,-112.5 342.5,-131.5 436.5,-131.5 436.5,-112.5 342.5,-112.5"/>
<text text-anchor="middle" x="389.5" y="-119.5" font-family="Helvetica,sans-Serif" font-size="10.00">hal/uc/entropy.h</text>
</a>
</g>
</g>
<!-- Node1&#45;&gt;Node7 -->
<g id="edge9" class="edge">
<title>Node1&#45;&gt;Node7</title>
<path fill="none" stroke="midnightblue" d="M506.28,-165.04C478.05,-154.88 438.24,-140.55 413.16,-131.52"/>
<polygon fill="midnightblue" stroke="midnightblue" points="505.14,-168.35 515.73,-168.44 507.51,-161.76 505.14,-168.35"/>
</g>
<!-- Node8 -->
<g id="node8" class="node">
<title>Node8</title>
<g id="a_node8"><a xlink:href="gpio_8h.html" target="_top" xlink:title="HAL for uC GPIOs.">
<polygon fill="none" stroke="black" points="455,-112.5 455,-131.5 534,-131.5 534,-112.5 455,-112.5"/>
<text text-anchor="middle" x="494.5" y="-119.5" font-family="Helvetica,sans-Serif" font-size="10.00">hal/uc/gpio.h</text>
</a>
</g>
</g>
<!-- Node1&#45;&gt;Node8 -->
<g id="edge11" class="edge">
<title>Node1&#45;&gt;Node8</title>
<path fill="none" stroke="midnightblue" d="M525.45,-160.14C517.61,-150.74 508.17,-139.4 501.79,-131.75"/>
<polygon fill="midnightblue" stroke="midnightblue" points="522.98,-162.64 532.07,-168.08 528.36,-158.16 522.98,-162.64"/>
</g>
<!-- Node9 -->
<g id="node9" class="node">
<title>Node9</title>
<g id="a_node9"><a xlink:href="id_8h.html" target="_top" xlink:title="HAL for uC ID.">
<polygon fill="none" stroke="black" points="552,-112.5 552,-131.5 619,-131.5 619,-112.5 552,-112.5"/>
<text text-anchor="middle" x="585.5" y="-119.5" font-family="Helvetica,sans-Serif" font-size="10.00">hal/uc/id.h</text>
</a>
</g>
</g>
<!-- Node1&#45;&gt;Node9 -->
<g id="edge13" class="edge">
<title>Node1&#45;&gt;Node9</title>
<path fill="none" stroke="midnightblue" d="M553.61,-160.43C561.68,-150.97 571.46,-139.48 578.05,-131.75"/>
<polygon fill="midnightblue" stroke="midnightblue" points="550.92,-158.2 547.1,-168.08 556.25,-162.74 550.92,-158.2"/>
</g>
<!-- Node10 -->
<g id="node10" class="node">
<title>Node10</title>
<g id="a_node10"><a xlink:href="spi_8h.html" target="_top" xlink:title="HAL for SPI interfaces.">
<polygon fill="none" stroke="black" points="637.5,-112.5 637.5,-131.5 709.5,-131.5 709.5,-112.5 637.5,-112.5"/>
<text text-anchor="middle" x="673.5" y="-119.5" font-family="Helvetica,sans-Serif" font-size="10.00">hal/uc/spi.h</text>
</a>
</g>
</g>
<!-- Node1&#45;&gt;Node10 -->
<g id="edge15" class="edge">
<title>Node1&#45;&gt;Node10</title>
<path fill="none" stroke="midnightblue" d="M570.18,-164.64C595.32,-154.5 630.25,-140.43 652.37,-131.52"/>
<polygon fill="midnightblue" stroke="midnightblue" points="568.7,-161.46 560.73,-168.44 571.32,-167.95 568.7,-161.46"/>
</g>
<!-- Node11 -->
<g id="node11" class="node">
<title>Node11</title>
<g id="a_node11"><a xlink:href="timer_8h.html" target="_top" xlink:title="HAL for uC Timers.">
<polygon fill="none" stroke="black" points="728,-112.5 728,-131.5 811,-131.5 811,-112.5 728,-112.5"/>
<text text-anchor="middle" x="769.5" y="-119.5" font-family="Helvetica,sans-Serif" font-size="10.00">hal/uc/timer.h</text>
</a>
</g>
</g>
<!-- Node1&#45;&gt;Node11 -->
<g id="edge17" class="edge">
<title>Node1&#45;&gt;Node11</title>
<path fill="none" stroke="midnightblue" d="M585.7,-166.15C629.16,-155.95 693.34,-140.88 733.23,-131.52"/>
<polygon fill="midnightblue" stroke="midnightblue" points="584.88,-162.75 575.94,-168.44 586.48,-169.57 584.88,-162.75"/>
</g>
<!-- Node12 -->
<g id="node12" class="node">
<title>Node12</title>
<g id="a_node12"><a xlink:href="uart_8h_source.html" target="_top" xlink:title=" ">
<polygon fill="none" stroke="black" points="829,-112.5 829,-131.5 906,-131.5 906,-112.5 829,-112.5"/>
<text text-anchor="middle" x="867.5" y="-119.5" font-family="Helvetica,sans-Serif" font-size="10.00">hal/uc/uart.h</text>
</a>
</g>
</g>
<!-- Node1&#45;&gt;Node12 -->
<g id="edge19" class="edge">
<title>Node1&#45;&gt;Node12</title>
<path fill="none" stroke="midnightblue" d="M589.64,-169.44C645.91,-160.85 739.88,-146.17 820.5,-132 823.2,-131.53 825.99,-131.02 828.79,-130.51"/>
<polygon fill="midnightblue" stroke="midnightblue" points="588.94,-166.01 579.58,-170.97 590,-172.93 588.94,-166.01"/>
</g>
<!-- Node13 -->
<g id="node13" class="node">
<title>Node13</title>
<g id="a_node13"><a xlink:href="usb_8h.html" target="_top" xlink:title="HAL for USB interface.">
<polygon fill="none" stroke="black" points="924,-112.5 924,-131.5 999,-131.5 999,-112.5 924,-112.5"/>
<text text-anchor="middle" x="961.5" y="-119.5" font-family="Helvetica,sans-Serif" font-size="10.00">hal/uc/usb.h</text>
</a>
</g>
</g>
<!-- Node1&#45;&gt;Node13 -->
<g id="edge21" class="edge">
<title>Node1&#45;&gt;Node13</title>
<path fill="none" stroke="midnightblue" d="M589.89,-172.17C662.18,-164.96 799.44,-150.27 915.5,-132 918.23,-131.57 921.05,-131.09 923.88,-130.6"/>
<polygon fill="midnightblue" stroke="midnightblue" points="589.31,-168.71 579.7,-173.18 590,-175.67 589.31,-168.71"/>
</g>
<!-- Node14 -->
<g id="node14" class="node">
<title>Node14</title>
<g id="a_node14"><a xlink:href="usbcdc_8h.html" target="_top" xlink:title="HAL for USB CDC interface.">
<polygon fill="none" stroke="black" points="1017.5,-112.5 1017.5,-131.5 1109.5,-131.5 1109.5,-112.5 1017.5,-112.5"/>
<text text-anchor="middle" x="1063.5" y="-119.5" font-family="Helvetica,sans-Serif" font-size="10.00">hal/uc/usbcdc.h</text>
</a>
</g>
</g>
<!-- Node1&#45;&gt;Node14 -->
<g id="edge23" class="edge">
<title>Node1&#45;&gt;Node14</title>
<path fill="none" stroke="midnightblue" d="M589.76,-173.28C675.74,-166.67 856.5,-151.71 1008.5,-132 1011.38,-131.63 1014.34,-131.22 1017.32,-130.79"/>
<polygon fill="midnightblue" stroke="midnightblue" points="589.46,-169.79 579.75,-174.05 589.99,-176.77 589.46,-169.79"/>
</g>
<!-- Node2&#45;&gt;Node3 -->
<g id="edge2" class="edge">
<title>Node2&#45;&gt;Node3</title>
<path fill="none" stroke="midnightblue" d="M85.55,-112.56C86.88,-112.36 88.2,-112.18 89.5,-112 243.53,-91 428.49,-75.56 504.39,-69.65"/>
<polygon fill="midnightblue" stroke="midnightblue" points="84.58,-109.16 75.22,-114.14 85.64,-116.08 84.58,-109.16"/>
</g>
<!-- Node4 -->
<g id="node4" class="node">
<title>Node4</title>
<g id="a_node4"><a xlink:href="uc_8h_source.html" target="_top" xlink:title=" ">
<polygon fill="none" stroke="black" points="512,-0.5 512,-19.5 567,-19.5 567,-0.5 512,-0.5"/>
<text text-anchor="middle" x="539.5" y="-7.5" font-family="Helvetica,sans-Serif" font-size="10.00">hal/uc.h</text>
</a>
</g>
</g>
<!-- Node3&#45;&gt;Node4 -->
<g id="edge3" class="edge">
<title>Node3&#45;&gt;Node4</title>
<path fill="none" stroke="midnightblue" d="M539.5,-45.8C539.5,-36.91 539.5,-26.78 539.5,-19.75"/>
<polygon fill="midnightblue" stroke="midnightblue" points="536,-46.08 539.5,-56.08 543,-46.08 536,-46.08"/>
</g>
<!-- Node5&#45;&gt;Node3 -->
<g id="edge6" class="edge">
<title>Node5&#45;&gt;Node3</title>
<path fill="none" stroke="midnightblue" d="M221.2,-111.78C330.12,-94.1 447.18,-78.7 504.38,-71.41"/>
<polygon fill="midnightblue" stroke="midnightblue" points="220.33,-108.37 211.03,-113.44 221.46,-115.28 220.33,-108.37"/>
</g>
<!-- Node6&#45;&gt;Node3 -->
<g id="edge8" class="edge">
<title>Node6&#45;&gt;Node3</title>
<path fill="none" stroke="midnightblue" d="M328.21,-110.38C380.26,-99.7 459.12,-83.5 504.33,-74.22"/>
<polygon fill="midnightblue" stroke="midnightblue" points="327.26,-107 318.17,-112.44 328.67,-113.86 327.26,-107"/>
</g>
<!-- Node7&#45;&gt;Node3 -->
<g id="edge10" class="edge">
<title>Node7&#45;&gt;Node3</title>
<path fill="none" stroke="midnightblue" d="M422.72,-109.04C450.95,-98.88 490.76,-84.55 515.84,-75.52"/>
<polygon fill="midnightblue" stroke="midnightblue" points="421.49,-105.76 413.27,-112.44 423.86,-112.35 421.49,-105.76"/>
</g>
<!-- Node8&#45;&gt;Node3 -->
<g id="edge12" class="edge">
<title>Node8&#45;&gt;Node3</title>
<path fill="none" stroke="midnightblue" d="M508.55,-104.14C516.39,-94.74 525.83,-83.4 532.21,-75.75"/>
<polygon fill="midnightblue" stroke="midnightblue" points="505.64,-102.16 501.93,-112.08 511.02,-106.64 505.64,-102.16"/>
</g>
<!-- Node9&#45;&gt;Node3 -->
<g id="edge14" class="edge">
<title>Node9&#45;&gt;Node3</title>
<path fill="none" stroke="midnightblue" d="M571.39,-104.43C563.32,-94.97 553.54,-83.48 546.95,-75.75"/>
<polygon fill="midnightblue" stroke="midnightblue" points="568.75,-106.74 577.9,-112.08 574.08,-102.2 568.75,-106.74"/>
</g>
<!-- Node10&#45;&gt;Node3 -->
<g id="edge16" class="edge">
<title>Node10&#45;&gt;Node3</title>
<path fill="none" stroke="midnightblue" d="M642.82,-108.64C617.68,-98.5 582.75,-84.43 560.63,-75.52"/>
<polygon fill="midnightblue" stroke="midnightblue" points="641.68,-111.95 652.27,-112.44 644.3,-105.46 641.68,-111.95"/>
</g>
<!-- Node11&#45;&gt;Node3 -->
<g id="edge18" class="edge">
<title>Node11&#45;&gt;Node3</title>
<path fill="none" stroke="midnightblue" d="M723.21,-110.13C679.34,-99.83 614.41,-84.59 574.64,-75.25"/>
<polygon fill="midnightblue" stroke="midnightblue" points="722.52,-113.57 733.06,-112.44 724.12,-106.75 722.52,-113.57"/>
</g>
<!-- Node12&#45;&gt;Node3 -->
<g id="edge20" class="edge">
<title>Node12&#45;&gt;Node3</title>
<path fill="none" stroke="midnightblue" d="M818.86,-111.75C725.11,-95.38 626.03,-80.07 574.6,-72.27"/>
<polygon fill="midnightblue" stroke="midnightblue" points="818.33,-115.21 828.79,-113.49 819.54,-108.32 818.33,-115.21"/>
</g>
<!-- Node13&#45;&gt;Node3 -->
<g id="edge22" class="edge">
<title>Node13&#45;&gt;Node3</title>
<path fill="none" stroke="midnightblue" d="M913.71,-111.81C783.11,-91.56 639.57,-76.67 574.61,-70.32"/>
<polygon fill="midnightblue" stroke="midnightblue" points="913.46,-115.32 923.88,-113.4 914.55,-108.4 913.46,-115.32"/>
</g>
<!-- Node14&#45;&gt;Node3 -->
<g id="edge24" class="edge">
<title>Node14&#45;&gt;Node3</title>
<path fill="none" stroke="midnightblue" d="M1007.31,-111.92C839.33,-90.44 651.2,-75.33 574.6,-69.56"/>
<polygon fill="midnightblue" stroke="midnightblue" points="1006.95,-115.41 1017.32,-113.21 1007.85,-108.46 1006.95,-115.41"/>
</g>
</g>
</svg>
