<?xml version="1.0" encoding="UTF-8" standalone="no"?>
<!DOCTYPE svg PUBLIC "-//W3C//DTD SVG 1.1//EN"
 "http://www.w3.org/Graphics/SVG/1.1/DTD/svg11.dtd">
<!-- Generated by graphviz version 2.43.0 (0)
 -->
<!-- Title: hal/uc/map.h Pages: 1 -->
<svg width="1225pt" height="196pt"
 viewBox="0.00 0.00 1224.50 196.00" xmlns="http://www.w3.org/2000/svg" xmlns:xlink="http://www.w3.org/1999/xlink">
<g id="graph0" class="graph" transform="scale(1 1) rotate(0) translate(4 192)">
<title>hal/uc/map.h</title>
<!-- Node1 -->
<g id="node1" class="node">
<title>Node1</title>
<g id="a_node1"><a xlink:title="HAL for uC Peripheral Map.">
<polygon fill="#bfbfbf" stroke="black" points="561.5,-168.5 561.5,-187.5 641.5,-187.5 641.5,-168.5 561.5,-168.5"/>
<text text-anchor="middle" x="601.5" y="-175.5" font-family="Helvetica,sans-Serif" font-size="10.00">hal/uc/map.h</text>
</a>
</g>
</g>
<!-- Node2 -->
<g id="node2" class="node">
<title>Node2</title>
<g id="a_node2"><a xlink:href="adc_8h.html" target="_top" xlink:title="HAL for uC Internal ADC interfaces.">
<polygon fill="none" stroke="black" points="0,-112.5 0,-131.5 75,-131.5 75,-112.5 0,-112.5"/>
<text text-anchor="middle" x="37.5" y="-119.5" font-family="Helvetica,sans-Serif" font-size="10.00">hal/uc/adc.h</text>
</a>
</g>
</g>
<!-- Node1&#45;&gt;Node2 -->
<g id="edge1" class="edge">
<title>Node1&#45;&gt;Node2</title>
<path fill="none" stroke="midnightblue" d="M551.08,-173.97C459.09,-168.14 257.98,-153.95 89.5,-132 84.87,-131.4 80.02,-130.68 75.22,-129.91"/>
<polygon fill="midnightblue" stroke="midnightblue" points="551.02,-177.48 561.22,-174.61 551.46,-170.49 551.02,-177.48"/>
</g>
<!-- Node3 -->
<g id="node3" class="node">
<title>Node3</title>
<g id="a_node3"><a xlink:href="uc_2all_8h_source.html" target="_top" xlink:title=" ">
<polygon fill="none" stroke="black" points="566.5,-56.5 566.5,-75.5 636.5,-75.5 636.5,-56.5 566.5,-56.5"/>
<text text-anchor="middle" x="601.5" y="-63.5" font-family="Helvetica,sans-Serif" font-size="10.00">hal/uc/all.h</text>
</a>
</g>
</g>
<!-- Node1&#45;&gt;Node3 -->
<g id="edge4" class="edge">
<title>Node1&#45;&gt;Node3</title>
<path fill="none" stroke="midnightblue" d="M551.03,-176.02C433.81,-173.21 150.95,-163.25 122.5,-132 116.52,-125.43 116.52,-118.57 122.5,-112 152.27,-79.3 460.51,-69.91 566.18,-67.64"/>
<polygon fill="midnightblue" stroke="midnightblue" points="551.1,-179.52 561.17,-176.25 551.26,-172.52 551.1,-179.52"/>
</g>
<!-- Node5 -->
<g id="node5" class="node">
<title>Node5</title>
<g id="a_node5"><a xlink:href="core_8h.html" target="_top" xlink:title="HAL for uC Core peripherals.">
<polygon fill="none" stroke="black" points="132,-112.5 132,-131.5 211,-131.5 211,-112.5 132,-112.5"/>
<text text-anchor="middle" x="171.5" y="-119.5" font-family="Helvetica,sans-Serif" font-size="10.00">hal/uc/core.h</text>
</a>
</g>
</g>
<!-- Node1&#45;&gt;Node5 -->
<g id="edge5" class="edge">
<title>Node1&#45;&gt;Node5</title>
<path fill="none" stroke="midnightblue" d="M550.91,-172.15C477.64,-164.87 337.79,-150.04 219.5,-132 216.73,-131.58 213.88,-131.12 211.02,-130.63"/>
<polygon fill="midnightblue" stroke="midnightblue" points="550.94,-175.67 561.23,-173.17 551.62,-168.7 550.94,-175.67"/>
</g>
<!-- Node6 -->
<g id="node6" class="node">
<title>Node6</title>
<g id="a_node6"><a xlink:href="uc_2crypto_8h_source.html" target="_top" xlink:title=" ">
<polygon fill="none" stroke="black" points="229,-112.5 229,-131.5 318,-131.5 318,-112.5 229,-112.5"/>
<text text-anchor="middle" x="273.5" y="-119.5" font-family="Helvetica,sans-Serif" font-size="10.00">hal/uc/crypto.h</text>
</a>
</g>
</g>
<!-- Node1&#45;&gt;Node6 -->
<g id="edge7" class="edge">
<title>Node1&#45;&gt;Node6</title>
<path fill="none" stroke="midnightblue" d="M551.21,-168.86C496.06,-159.92 404.95,-145.08 326.5,-132 323.74,-131.54 320.9,-131.06 318.03,-130.58"/>
<polygon fill="midnightblue" stroke="midnightblue" points="550.98,-172.37 561.41,-170.52 552.1,-165.46 550.98,-172.37"/>
</g>
<!-- Node7 -->
<g id="node7" class="node">
<title>Node7</title>
<g id="a_node7"><a xlink:href="eeprom_8h.html" target="_top" xlink:title="HAL for uC EEPROM peripherals.">
<polygon fill="none" stroke="black" points="336,-112.5 336,-131.5 431,-131.5 431,-112.5 336,-112.5"/>
<text text-anchor="middle" x="383.5" y="-119.5" font-family="Helvetica,sans-Serif" font-size="10.00">hal/uc/eeprom.h</text>
</a>
</g>
</g>
<!-- Node1&#45;&gt;Node7 -->
<g id="edge9" class="edge">
<title>Node1&#45;&gt;Node7</title>
<path fill="none" stroke="midnightblue" d="M557.19,-166.02C516.01,-155.82 455.53,-140.84 417.88,-131.52"/>
<polygon fill="midnightblue" stroke="midnightblue" points="556.41,-169.44 566.96,-168.44 558.09,-162.64 556.41,-169.44"/>
</g>
<!-- Node8 -->
<g id="node8" class="node">
<title>Node8</title>
<g id="a_node8"><a xlink:href="entropy_8h.html" target="_top" xlink:title="HAL for uC entropy source.">
<polygon fill="none" stroke="black" points="449.5,-112.5 449.5,-131.5 543.5,-131.5 543.5,-112.5 449.5,-112.5"/>
<text text-anchor="middle" x="496.5" y="-119.5" font-family="Helvetica,sans-Serif" font-size="10.00">hal/uc/entropy.h</text>
</a>
</g>
</g>
<!-- Node1&#45;&gt;Node8 -->
<g id="edge11" class="edge">
<title>Node1&#45;&gt;Node8</title>
<path fill="none" stroke="midnightblue" d="M575.69,-163.73C556.25,-153.73 530.15,-140.31 513.33,-131.65"/>
<polygon fill="midnightblue" stroke="midnightblue" points="574.14,-166.86 584.63,-168.32 577.34,-160.64 574.14,-166.86"/>
</g>
<!-- Node9 -->
<g id="node9" class="node">
<title>Node9</title>
<g id="a_node9"><a xlink:href="gpio_8h.html" target="_top" xlink:title="HAL for uC GPIOs.">
<polygon fill="none" stroke="black" points="562,-112.5 562,-131.5 641,-131.5 641,-112.5 562,-112.5"/>
<text text-anchor="middle" x="601.5" y="-119.5" font-family="Helvetica,sans-Serif" font-size="10.00">hal/uc/gpio.h</text>
</a>
</g>
</g>
<!-- Node1&#45;&gt;Node9 -->
<g id="edge13" class="edge">
<title>Node1&#45;&gt;Node9</title>
<path fill="none" stroke="midnightblue" d="M601.5,-157.8C601.5,-148.91 601.5,-138.78 601.5,-131.75"/>
<polygon fill="midnightblue" stroke="midnightblue" points="598,-158.08 601.5,-168.08 605,-158.08 598,-158.08"/>
</g>
<!-- Node10 -->
<g id="node10" class="node">
<title>Node10</title>
<g id="a_node10"><a xlink:href="id_8h.html" target="_top" xlink:title="HAL for uC ID.">
<polygon fill="none" stroke="black" points="659,-112.5 659,-131.5 726,-131.5 726,-112.5 659,-112.5"/>
<text text-anchor="middle" x="692.5" y="-119.5" font-family="Helvetica,sans-Serif" font-size="10.00">hal/uc/id.h</text>
</a>
</g>
</g>
<!-- Node1&#45;&gt;Node10 -->
<g id="edge15" class="edge">
<title>Node1&#45;&gt;Node10</title>
<path fill="none" stroke="midnightblue" d="M624.79,-163.18C641.54,-153.24 663.6,-140.15 677.92,-131.65"/>
<polygon fill="midnightblue" stroke="midnightblue" points="622.93,-160.21 616.12,-168.32 626.51,-166.23 622.93,-160.21"/>
</g>
<!-- Node11 -->
<g id="node11" class="node">
<title>Node11</title>
<g id="a_node11"><a xlink:href="spi_8h.html" target="_top" xlink:title="HAL for SPI interfaces.">
<polygon fill="none" stroke="black" points="744.5,-112.5 744.5,-131.5 816.5,-131.5 816.5,-112.5 744.5,-112.5"/>
<text text-anchor="middle" x="780.5" y="-119.5" font-family="Helvetica,sans-Serif" font-size="10.00">hal/uc/spi.h</text>
</a>
</g>
</g>
<!-- Node1&#45;&gt;Node11 -->
<g id="edge17" class="edge">
<title>Node1&#45;&gt;Node11</title>
<path fill="none" stroke="midnightblue" d="M639.83,-165.44C673.58,-155.26 721.95,-140.66 752.27,-131.52"/>
<polygon fill="midnightblue" stroke="midnightblue" points="638.43,-162.2 629.86,-168.44 640.45,-168.91 638.43,-162.2"/>
</g>
<!-- Node12 -->
<g id="node12" class="node">
<title>Node12</title>
<g id="a_node12"><a xlink:href="timer_8h.html" target="_top" xlink:title="HAL for uC Timers.">
<polygon fill="none" stroke="black" points="835,-112.5 835,-131.5 918,-131.5 918,-112.5 835,-112.5"/>
<text text-anchor="middle" x="876.5" y="-119.5" font-family="Helvetica,sans-Serif" font-size="10.00">hal/uc/timer.h</text>
</a>
</g>
</g>
<!-- Node1&#45;&gt;Node12 -->
<g id="edge19" class="edge">
<title>Node1&#45;&gt;Node12</title>
<path fill="none" stroke="midnightblue" d="M651.88,-167.11C704.39,-156.8 785.71,-140.83 834.76,-131.2"/>
<polygon fill="midnightblue" stroke="midnightblue" points="650.92,-163.73 641.78,-169.09 652.27,-170.6 650.92,-163.73"/>
</g>
<!-- Node13 -->
<g id="node13" class="node">
<title>Node13</title>
<g id="a_node13"><a xlink:href="uart_8h_source.html" target="_top" xlink:title=" ">
<polygon fill="none" stroke="black" points="936,-112.5 936,-131.5 1013,-131.5 1013,-112.5 936,-112.5"/>
<text text-anchor="middle" x="974.5" y="-119.5" font-family="Helvetica,sans-Serif" font-size="10.00">hal/uc/uart.h</text>
</a>
</g>
</g>
<!-- Node1&#45;&gt;Node13 -->
<g id="edge21" class="edge">
<title>Node1&#45;&gt;Node13</title>
<path fill="none" stroke="midnightblue" d="M651.99,-170.86C716.17,-162.86 830.31,-148 927.5,-132 930.21,-131.55 932.99,-131.07 935.8,-130.58"/>
<polygon fill="midnightblue" stroke="midnightblue" points="651.24,-167.42 641.75,-172.13 652.11,-174.37 651.24,-167.42"/>
</g>
<!-- Node14 -->
<g id="node14" class="node">
<title>Node14</title>
<g id="a_node14"><a xlink:href="usb_8h.html" target="_top" xlink:title="HAL for USB interface.">
<polygon fill="none" stroke="black" points="1031,-112.5 1031,-131.5 1106,-131.5 1106,-112.5 1031,-112.5"/>
<text text-anchor="middle" x="1068.5" y="-119.5" font-family="Helvetica,sans-Serif" font-size="10.00">hal/uc/usb.h</text>
</a>
</g>
</g>
<!-- Node1&#45;&gt;Node14 -->
<g id="edge23" class="edge">
<title>Node1&#45;&gt;Node14</title>
<path fill="none" stroke="midnightblue" d="M651.88,-173.04C731.04,-166.49 889.29,-152.11 1022.5,-132 1025.24,-131.59 1028.06,-131.12 1030.89,-130.63"/>
<polygon fill="midnightblue" stroke="midnightblue" points="651.38,-169.57 641.7,-173.87 651.95,-176.54 651.38,-169.57"/>
</g>
<!-- Node15 -->
<g id="node15" class="node">
<title>Node15</title>
<g id="a_node15"><a xlink:href="usbcdc_8h.html" target="_top" xlink:title="HAL for USB CDC interface.">
<polygon fill="none" stroke="black" points="1124.5,-112.5 1124.5,-131.5 1216.5,-131.5 1216.5,-112.5 1124.5,-112.5"/>
<text text-anchor="middle" x="1170.5" y="-119.5" font-family="Helvetica,sans-Serif" font-size="10.00">hal/uc/usbcdc.h</text>
</a>
</g>
</g>
<!-- Node1&#45;&gt;Node15 -->
<g id="edge25" class="edge">
<title>Node1&#45;&gt;Node15</title>
<path fill="none" stroke="midnightblue" d="M651.75,-173.85C743.91,-167.81 946.05,-153.25 1115.5,-132 1118.38,-131.64 1121.34,-131.24 1124.32,-130.81"/>
<polygon fill="midnightblue" stroke="midnightblue" points="651.35,-170.37 641.6,-174.52 651.8,-177.36 651.35,-170.37"/>
</g>
<!-- Node2&#45;&gt;Node3 -->
<g id="edge2" class="edge">
<title>Node2&#45;&gt;Node3</title>
<path fill="none" stroke="midnightblue" d="M85.54,-112.54C86.88,-112.35 88.2,-112.17 89.5,-112 268.02,-88.75 483.15,-74.2 566.32,-69.07"/>
<polygon fill="midnightblue" stroke="midnightblue" points="84.58,-109.14 75.22,-114.09 85.63,-116.06 84.58,-109.14"/>
</g>
<!-- Node4 -->
<g id="node4" class="node">
<title>Node4</title>
<g id="a_node4"><a xlink:href="uc_8h_source.html" target="_top" xlink:title=" ">
<polygon fill="none" stroke="black" points="574,-0.5 574,-19.5 629,-19.5 629,-0.5 574,-0.5"/>
<text text-anchor="middle" x="601.5" y="-7.5" font-family="Helvetica,sans-Serif" font-size="10.00">hal/uc.h</text>
</a>
</g>
</g>
<!-- Node3&#45;&gt;Node4 -->
<g id="edge3" class="edge">
<title>Node3&#45;&gt;Node4</title>
<path fill="none" stroke="midnightblue" d="M601.5,-45.8C601.5,-36.91 601.5,-26.78 601.5,-19.75"/>
<polygon fill="midnightblue" stroke="midnightblue" points="598,-46.08 601.5,-56.08 605,-46.08 598,-46.08"/>
</g>
<!-- Node5&#45;&gt;Node3 -->
<g id="edge6" class="edge">
<title>Node5&#45;&gt;Node3</title>
<path fill="none" stroke="midnightblue" d="M220.99,-111.86C354.12,-91.84 500.58,-76.74 566.37,-70.33"/>
<polygon fill="midnightblue" stroke="midnightblue" points="220.38,-108.41 211.02,-113.37 221.43,-115.33 220.38,-108.41"/>
</g>
<!-- Node6&#45;&gt;Node3 -->
<g id="edge8" class="edge">
<title>Node6&#45;&gt;Node3</title>
<path fill="none" stroke="midnightblue" d="M328.03,-111.75C419.7,-96.49 515.86,-80.86 566.33,-72.69"/>
<polygon fill="midnightblue" stroke="midnightblue" points="327.32,-108.32 318.03,-113.42 328.47,-115.23 327.32,-108.32"/>
</g>
<!-- Node7&#45;&gt;Node3 -->
<g id="edge10" class="edge">
<title>Node7&#45;&gt;Node3</title>
<path fill="none" stroke="midnightblue" d="M427.81,-110.02C468.99,-99.82 529.47,-84.84 567.12,-75.52"/>
<polygon fill="midnightblue" stroke="midnightblue" points="426.91,-106.64 418.04,-112.44 428.59,-113.44 426.91,-106.64"/>
</g>
<!-- Node8&#45;&gt;Node3 -->
<g id="edge12" class="edge">
<title>Node8&#45;&gt;Node3</title>
<path fill="none" stroke="midnightblue" d="M522.31,-107.73C541.75,-97.73 567.85,-84.31 584.67,-75.65"/>
<polygon fill="midnightblue" stroke="midnightblue" points="520.66,-104.64 513.37,-112.32 523.86,-110.86 520.66,-104.64"/>
</g>
<!-- Node9&#45;&gt;Node3 -->
<g id="edge14" class="edge">
<title>Node9&#45;&gt;Node3</title>
<path fill="none" stroke="midnightblue" d="M601.5,-101.8C601.5,-92.91 601.5,-82.78 601.5,-75.75"/>
<polygon fill="midnightblue" stroke="midnightblue" points="598,-102.08 601.5,-112.08 605,-102.08 598,-102.08"/>
</g>
<!-- Node10&#45;&gt;Node3 -->
<g id="edge16" class="edge">
<title>Node10&#45;&gt;Node3</title>
<path fill="none" stroke="midnightblue" d="M669.21,-107.18C652.46,-97.24 630.4,-84.15 616.08,-75.65"/>
<polygon fill="midnightblue" stroke="midnightblue" points="667.49,-110.23 677.88,-112.32 671.07,-104.21 667.49,-110.23"/>
</g>
<!-- Node11&#45;&gt;Node3 -->
<g id="edge18" class="edge">
<title>Node11&#45;&gt;Node3</title>
<path fill="none" stroke="midnightblue" d="M742.17,-109.44C708.42,-99.26 660.05,-84.66 629.73,-75.52"/>
<polygon fill="midnightblue" stroke="midnightblue" points="741.55,-112.91 752.14,-112.44 743.57,-106.2 741.55,-112.91"/>
</g>
<!-- Node12&#45;&gt;Node3 -->
<g id="edge20" class="edge">
<title>Node12&#45;&gt;Node3</title>
<path fill="none" stroke="midnightblue" d="M824.84,-110.86C769.85,-100.06 684.34,-83.27 636.66,-73.9"/>
<polygon fill="midnightblue" stroke="midnightblue" points="824.25,-114.31 834.73,-112.8 825.6,-107.44 824.25,-114.31"/>
</g>
<!-- Node13&#45;&gt;Node3 -->
<g id="edge22" class="edge">
<title>Node13&#45;&gt;Node3</title>
<path fill="none" stroke="midnightblue" d="M925.78,-111.78C814.79,-93.71 694.97,-78.42 636.81,-71.26"/>
<polygon fill="midnightblue" stroke="midnightblue" points="925.37,-115.26 935.8,-113.42 926.5,-108.35 925.37,-115.26"/>
</g>
<!-- Node14&#45;&gt;Node3 -->
<g id="edge24" class="edge">
<title>Node14&#45;&gt;Node3</title>
<path fill="none" stroke="midnightblue" d="M1020.7,-111.84C872.41,-89.82 707.31,-75.41 636.56,-69.71"/>
<polygon fill="midnightblue" stroke="midnightblue" points="1020.48,-115.34 1030.89,-113.37 1021.52,-108.42 1020.48,-115.34"/>
</g>
<!-- Node15&#45;&gt;Node3 -->
<g id="edge26" class="edge">
<title>Node15&#45;&gt;Node3</title>
<path fill="none" stroke="midnightblue" d="M1114.38,-111.95C928.63,-88.99 718.8,-74.43 636.81,-69.18"/>
<polygon fill="midnightblue" stroke="midnightblue" points="1113.97,-115.42 1124.32,-113.19 1114.83,-108.48 1113.97,-115.42"/>
</g>
</g>
</svg>
