<?xml version="1.0" encoding="UTF-8" standalone="no"?>
<!DOCTYPE svg PUBLIC "-//W3C//DTD SVG 1.1//EN"
 "http://www.w3.org/Graphics/SVG/1.1/DTD/svg11.dtd">
<!-- Generated by graphviz version 2.43.0 (0)
 -->
<!-- Title: hal/uc/map.h Pages: 1 -->
<svg width="1413pt" height="196pt"
 viewBox="0.00 0.00 1412.50 196.00" xmlns="http://www.w3.org/2000/svg" xmlns:xlink="http://www.w3.org/1999/xlink">
<g id="graph0" class="graph" transform="scale(1 1) rotate(0) translate(4 192)">
<title>hal/uc/map.h</title>
<!-- Node1 -->
<g id="node1" class="node">
<title>Node1</title>
<g id="a_node1"><a xlink:title="HAL for uC Peripheral Map.">
<polygon fill="#bfbfbf" stroke="black" points="660.5,-168.5 660.5,-187.5 740.5,-187.5 740.5,-168.5 660.5,-168.5"/>
<text text-anchor="middle" x="700.5" y="-175.5" font-family="Helvetica,sans-Serif" font-size="10.00">hal/uc/map.h</text>
</a>
</g>
</g>
<!-- Node2 -->
<g id="node2" class="node">
<title>Node2</title>
<g id="a_node2"><a xlink:href="uc_2adc_8h.html" target="_top" xlink:title="HAL for uC Internal ADC interfaces.">
<polygon fill="none" stroke="black" points="0,-112.5 0,-131.5 75,-131.5 75,-112.5 0,-112.5"/>
<text text-anchor="middle" x="37.5" y="-119.5" font-family="Helvetica,sans-Serif" font-size="10.00">hal/uc/adc.h</text>
</a>
</g>
</g>
<!-- Node1&#45;&gt;Node2 -->
<g id="edge1" class="edge">
<title>Node1&#45;&gt;Node2</title>
<path fill="none" stroke="midnightblue" d="M650.06,-174.96C545.31,-170.35 296.69,-157.5 89.5,-132 84.86,-131.43 80.01,-130.73 75.21,-129.97"/>
<polygon fill="midnightblue" stroke="midnightblue" points="650.19,-178.47 660.33,-175.4 650.5,-171.47 650.19,-178.47"/>
</g>
<!-- Node3 -->
<g id="node3" class="node">
<title>Node3</title>
<g id="a_node3"><a xlink:href="uc_2all_8h.html" target="_top" xlink:title=" ">
<polygon fill="none" stroke="black" points="710.5,-56.5 710.5,-75.5 780.5,-75.5 780.5,-56.5 710.5,-56.5"/>
<text text-anchor="middle" x="745.5" y="-63.5" font-family="Helvetica,sans-Serif" font-size="10.00">hal/uc/all.h</text>
</a>
</g>
</g>
<!-- Node1&#45;&gt;Node3 -->
<g id="edge4" class="edge">
<title>Node1&#45;&gt;Node3</title>
<path fill="none" stroke="midnightblue" d="M650.12,-176.89C515.99,-176.09 157.97,-170.34 122.5,-132 116.46,-125.48 116.45,-118.51 122.5,-112 162.66,-68.83 584.28,-66.53 710.19,-66.82"/>
<polygon fill="midnightblue" stroke="midnightblue" points="650.12,-180.39 660.14,-176.95 650.16,-173.39 650.12,-180.39"/>
</g>
<!-- Node5 -->
<g id="node5" class="node">
<title>Node5</title>
<g id="a_node5"><a xlink:href="core_8h.html" target="_top" xlink:title="HAL for uC Core peripherals.">
<polygon fill="none" stroke="black" points="132,-112.5 132,-131.5 211,-131.5 211,-112.5 132,-112.5"/>
<text text-anchor="middle" x="171.5" y="-119.5" font-family="Helvetica,sans-Serif" font-size="10.00">hal/uc/core.h</text>
</a>
</g>
</g>
<!-- Node1&#45;&gt;Node5 -->
<g id="edge5" class="edge">
<title>Node1&#45;&gt;Node5</title>
<path fill="none" stroke="midnightblue" d="M650.25,-173.83C562.54,-167.95 375.94,-153.94 219.5,-132 216.73,-131.61 213.88,-131.17 211.01,-130.71"/>
<polygon fill="midnightblue" stroke="midnightblue" points="650.24,-177.34 660.45,-174.5 650.7,-170.35 650.24,-177.34"/>
</g>
<!-- Node6 -->
<g id="node6" class="node">
<title>Node6</title>
<g id="a_node6"><a xlink:href="uc_2crypto_8h.html" target="_top" xlink:title=" ">
<polygon fill="none" stroke="black" points="229,-112.5 229,-131.5 318,-131.5 318,-112.5 229,-112.5"/>
<text text-anchor="middle" x="273.5" y="-119.5" font-family="Helvetica,sans-Serif" font-size="10.00">hal/uc/crypto.h</text>
</a>
</g>
</g>
<!-- Node1&#45;&gt;Node6 -->
<g id="edge7" class="edge">
<title>Node1&#45;&gt;Node6</title>
<path fill="none" stroke="midnightblue" d="M650.3,-171.67C578.58,-163.89 442.73,-148.54 327.5,-132 324.49,-131.57 321.39,-131.1 318.26,-130.62"/>
<polygon fill="midnightblue" stroke="midnightblue" points="650.08,-175.17 660.4,-172.76 650.84,-168.21 650.08,-175.17"/>
</g>
<!-- Node7 -->
<g id="node7" class="node">
<title>Node7</title>
<g id="a_node7"><a xlink:href="uc_2dma_8h.html" target="_top" xlink:title="HAL for DMA.">
<polygon fill="none" stroke="black" points="336.5,-112.5 336.5,-131.5 416.5,-131.5 416.5,-112.5 336.5,-112.5"/>
<text text-anchor="middle" x="376.5" y="-119.5" font-family="Helvetica,sans-Serif" font-size="10.00">hal/uc/dma.h</text>
</a>
</g>
</g>
<!-- Node1&#45;&gt;Node7 -->
<g id="edge9" class="edge">
<title>Node1&#45;&gt;Node7</title>
<path fill="none" stroke="midnightblue" d="M650.17,-169.07C594.99,-160.3 503.86,-145.61 425.5,-132 422.6,-131.5 419.61,-130.97 416.6,-130.43"/>
<polygon fill="midnightblue" stroke="midnightblue" points="649.96,-172.57 660.38,-170.69 651.05,-165.66 649.96,-172.57"/>
</g>
<!-- Node8 -->
<g id="node8" class="node">
<title>Node8</title>
<g id="a_node8"><a xlink:href="eeprom_8h.html" target="_top" xlink:title="HAL for uC EEPROM peripherals.">
<polygon fill="none" stroke="black" points="435,-112.5 435,-131.5 530,-131.5 530,-112.5 435,-112.5"/>
<text text-anchor="middle" x="482.5" y="-119.5" font-family="Helvetica,sans-Serif" font-size="10.00">hal/uc/eeprom.h</text>
</a>
</g>
</g>
<!-- Node1&#45;&gt;Node8 -->
<g id="edge10" class="edge">
<title>Node1&#45;&gt;Node8</title>
<path fill="none" stroke="midnightblue" d="M656.19,-166.02C615.01,-155.82 554.53,-140.84 516.88,-131.52"/>
<polygon fill="midnightblue" stroke="midnightblue" points="655.41,-169.44 665.96,-168.44 657.09,-162.64 655.41,-169.44"/>
</g>
<!-- Node9 -->
<g id="node9" class="node">
<title>Node9</title>
<g id="a_node9"><a xlink:href="entropy_8h.html" target="_top" xlink:title="HAL for uC entropy source.">
<polygon fill="none" stroke="black" points="548.5,-112.5 548.5,-131.5 642.5,-131.5 642.5,-112.5 548.5,-112.5"/>
<text text-anchor="middle" x="595.5" y="-119.5" font-family="Helvetica,sans-Serif" font-size="10.00">hal/uc/entropy.h</text>
</a>
</g>
</g>
<!-- Node1&#45;&gt;Node9 -->
<g id="edge12" class="edge">
<title>Node1&#45;&gt;Node9</title>
<path fill="none" stroke="midnightblue" d="M674.69,-163.73C655.25,-153.73 629.15,-140.31 612.33,-131.65"/>
<polygon fill="midnightblue" stroke="midnightblue" points="673.14,-166.86 683.63,-168.32 676.34,-160.64 673.14,-166.86"/>
</g>
<!-- Node10 -->
<g id="node10" class="node">
<title>Node10</title>
<g id="a_node10"><a xlink:href="gpio_8h.html" target="_top" xlink:title="HAL for uC GPIOs.">
<polygon fill="none" stroke="black" points="661,-112.5 661,-131.5 740,-131.5 740,-112.5 661,-112.5"/>
<text text-anchor="middle" x="700.5" y="-119.5" font-family="Helvetica,sans-Serif" font-size="10.00">hal/uc/gpio.h</text>
</a>
</g>
</g>
<!-- Node1&#45;&gt;Node10 -->
<g id="edge14" class="edge">
<title>Node1&#45;&gt;Node10</title>
<path fill="none" stroke="midnightblue" d="M700.5,-157.8C700.5,-148.91 700.5,-138.78 700.5,-131.75"/>
<polygon fill="midnightblue" stroke="midnightblue" points="697,-158.08 700.5,-168.08 704,-158.08 697,-158.08"/>
</g>
<!-- Node11 -->
<g id="node11" class="node">
<title>Node11</title>
<g id="a_node11"><a xlink:href="id_8h.html" target="_top" xlink:title="HAL for uC ID.">
<polygon fill="none" stroke="black" points="758,-112.5 758,-131.5 825,-131.5 825,-112.5 758,-112.5"/>
<text text-anchor="middle" x="791.5" y="-119.5" font-family="Helvetica,sans-Serif" font-size="10.00">hal/uc/id.h</text>
</a>
</g>
</g>
<!-- Node1&#45;&gt;Node11 -->
<g id="edge16" class="edge">
<title>Node1&#45;&gt;Node11</title>
<path fill="none" stroke="midnightblue" d="M723.79,-163.18C740.54,-153.24 762.6,-140.15 776.92,-131.65"/>
<polygon fill="midnightblue" stroke="midnightblue" points="721.93,-160.21 715.12,-168.32 725.51,-166.23 721.93,-160.21"/>
</g>
<!-- Node12 -->
<g id="node12" class="node">
<title>Node12</title>
<g id="a_node12"><a xlink:href="uc_2rtc_8h.html" target="_top" xlink:title="HAL for uC RTCs.">
<polygon fill="none" stroke="black" points="843,-112.5 843,-131.5 914,-131.5 914,-112.5 843,-112.5"/>
<text text-anchor="middle" x="878.5" y="-119.5" font-family="Helvetica,sans-Serif" font-size="10.00">hal/uc/rtc.h</text>
</a>
</g>
</g>
<!-- Node1&#45;&gt;Node12 -->
<g id="edge18" class="edge">
<title>Node1&#45;&gt;Node12</title>
<path fill="none" stroke="midnightblue" d="M738.62,-165.44C772.18,-155.26 820.27,-140.66 850.43,-131.52"/>
<polygon fill="midnightblue" stroke="midnightblue" points="737.26,-162.19 728.7,-168.44 739.29,-168.89 737.26,-162.19"/>
</g>
<!-- Node13 -->
<g id="node13" class="node">
<title>Node13</title>
<g id="a_node13"><a xlink:href="spi_8h.html" target="_top" xlink:title="HAL for SPI interfaces.">
<polygon fill="none" stroke="black" points="932.5,-112.5 932.5,-131.5 1004.5,-131.5 1004.5,-112.5 932.5,-112.5"/>
<text text-anchor="middle" x="968.5" y="-119.5" font-family="Helvetica,sans-Serif" font-size="10.00">hal/uc/spi.h</text>
</a>
</g>
</g>
<!-- Node1&#45;&gt;Node13 -->
<g id="edge20" class="edge">
<title>Node1&#45;&gt;Node13</title>
<path fill="none" stroke="midnightblue" d="M750.46,-166.93C803.34,-156.28 885.49,-139.73 932.4,-130.27"/>
<polygon fill="midnightblue" stroke="midnightblue" points="749.73,-163.51 740.62,-168.92 751.12,-170.37 749.73,-163.51"/>
</g>
<!-- Node14 -->
<g id="node14" class="node">
<title>Node14</title>
<g id="a_node14"><a xlink:href="uc_2timer_8h.html" target="_top" xlink:title="HAL for uC Timers.">
<polygon fill="none" stroke="black" points="1023,-112.5 1023,-131.5 1106,-131.5 1106,-112.5 1023,-112.5"/>
<text text-anchor="middle" x="1064.5" y="-119.5" font-family="Helvetica,sans-Serif" font-size="10.00">hal/uc/timer.h</text>
</a>
</g>
</g>
<!-- Node1&#45;&gt;Node14 -->
<g id="edge22" class="edge">
<title>Node1&#45;&gt;Node14</title>
<path fill="none" stroke="midnightblue" d="M750.85,-170.26C812.76,-161.87 921,-146.81 1013.5,-132 1016.52,-131.52 1019.63,-131 1022.77,-130.48"/>
<polygon fill="midnightblue" stroke="midnightblue" points="750.02,-166.84 740.58,-171.65 750.96,-173.78 750.02,-166.84"/>
</g>
<!-- Node15 -->
<g id="node15" class="node">
<title>Node15</title>
<g id="a_node15"><a xlink:href="uc_2uart_8h.html" target="_top" xlink:title=" ">
<polygon fill="none" stroke="black" points="1124,-112.5 1124,-131.5 1201,-131.5 1201,-112.5 1124,-112.5"/>
<text text-anchor="middle" x="1162.5" y="-119.5" font-family="Helvetica,sans-Serif" font-size="10.00">hal/uc/uart.h</text>
</a>
</g>
</g>
<!-- Node1&#45;&gt;Node15 -->
<g id="edge24" class="edge">
<title>Node1&#45;&gt;Node15</title>
<path fill="none" stroke="midnightblue" d="M750.76,-172.88C828.98,-166.16 984.49,-151.61 1115.5,-132 1118.21,-131.59 1121,-131.14 1123.81,-130.67"/>
<polygon fill="midnightblue" stroke="midnightblue" points="750.37,-169.4 740.7,-173.73 750.96,-176.37 750.37,-169.4"/>
</g>
<!-- Node16 -->
<g id="node16" class="node">
<title>Node16</title>
<g id="a_node16"><a xlink:href="usb_8h.html" target="_top" xlink:title="HAL for USB interface.">
<polygon fill="none" stroke="black" points="1219,-112.5 1219,-131.5 1294,-131.5 1294,-112.5 1219,-112.5"/>
<text text-anchor="middle" x="1256.5" y="-119.5" font-family="Helvetica,sans-Serif" font-size="10.00">hal/uc/usb.h</text>
</a>
</g>
</g>
<!-- Node1&#45;&gt;Node16 -->
<g id="edge26" class="edge">
<title>Node1&#45;&gt;Node16</title>
<path fill="none" stroke="midnightblue" d="M750.78,-174.32C842.48,-169.05 1042.92,-155.72 1210.5,-132 1213.24,-131.61 1216.06,-131.17 1218.9,-130.69"/>
<polygon fill="midnightblue" stroke="midnightblue" points="750.45,-170.84 740.67,-174.9 750.85,-177.82 750.45,-170.84"/>
</g>
<!-- Node17 -->
<g id="node17" class="node">
<title>Node17</title>
<g id="a_node17"><a xlink:href="usbcdc_8h.html" target="_top" xlink:title="HAL for USB CDC interface.">
<polygon fill="none" stroke="black" points="1312.5,-112.5 1312.5,-131.5 1404.5,-131.5 1404.5,-112.5 1312.5,-112.5"/>
<text text-anchor="middle" x="1358.5" y="-119.5" font-family="Helvetica,sans-Serif" font-size="10.00">hal/uc/usbcdc.h</text>
</a>
</g>
</g>
<!-- Node1&#45;&gt;Node17 -->
<g id="edge28" class="edge">
<title>Node1&#45;&gt;Node17</title>
<path fill="none" stroke="midnightblue" d="M751.03,-174.73C854.82,-169.73 1099.41,-156.27 1303.5,-132 1306.38,-131.66 1309.34,-131.27 1312.33,-130.86"/>
<polygon fill="midnightblue" stroke="midnightblue" points="750.66,-171.24 740.84,-175.21 751,-178.23 750.66,-171.24"/>
</g>
<!-- Node2&#45;&gt;Node3 -->
<g id="edge2" class="edge">
<title>Node2&#45;&gt;Node3</title>
<path fill="none" stroke="midnightblue" d="M85.54,-112.5C86.87,-112.33 88.2,-112.16 89.5,-112 325.52,-83.56 611.65,-71.61 710.18,-68.14"/>
<polygon fill="midnightblue" stroke="midnightblue" points="84.6,-109.1 75.21,-114 85.61,-116.03 84.6,-109.1"/>
</g>
<!-- Node4 -->
<g id="node4" class="node">
<title>Node4</title>
<g id="a_node4"><a xlink:href="uc_8h.html" target="_top" xlink:title=" ">
<polygon fill="none" stroke="black" points="718,-0.5 718,-19.5 773,-19.5 773,-0.5 718,-0.5"/>
<text text-anchor="middle" x="745.5" y="-7.5" font-family="Helvetica,sans-Serif" font-size="10.00">hal/uc.h</text>
</a>
</g>
</g>
<!-- Node3&#45;&gt;Node4 -->
<g id="edge3" class="edge">
<title>Node3&#45;&gt;Node4</title>
<path fill="none" stroke="midnightblue" d="M745.5,-45.8C745.5,-36.91 745.5,-26.78 745.5,-19.75"/>
<polygon fill="midnightblue" stroke="midnightblue" points="742,-46.08 745.5,-56.08 749,-46.08 742,-46.08"/>
</g>
<!-- Node5&#45;&gt;Node3 -->
<g id="edge6" class="edge">
<title>Node5&#45;&gt;Node3</title>
<path fill="none" stroke="midnightblue" d="M221.17,-111.89C411.17,-86.48 626.98,-73.3 710.28,-68.79"/>
<polygon fill="midnightblue" stroke="midnightblue" points="220.44,-108.46 211,-113.27 221.38,-115.4 220.44,-108.46"/>
</g>
<!-- Node6&#45;&gt;Node3 -->
<g id="edge8" class="edge">
<title>Node6&#45;&gt;Node3</title>
<path fill="none" stroke="midnightblue" d="M328.45,-111.95C476.62,-91.89 640.14,-76.41 710.46,-70.08"/>
<polygon fill="midnightblue" stroke="midnightblue" points="327.69,-108.52 318.26,-113.34 328.64,-115.45 327.69,-108.52"/>
</g>
<!-- Node8&#45;&gt;Node3 -->
<g id="edge11" class="edge">
<title>Node8&#45;&gt;Node3</title>
<path fill="none" stroke="midnightblue" d="M534.21,-110.38C586.26,-99.7 665.12,-83.5 710.33,-74.22"/>
<polygon fill="midnightblue" stroke="midnightblue" points="533.26,-107 524.17,-112.44 534.67,-113.86 533.26,-107"/>
</g>
<!-- Node9&#45;&gt;Node3 -->
<g id="edge13" class="edge">
<title>Node9&#45;&gt;Node3</title>
<path fill="none" stroke="midnightblue" d="M628.72,-109.04C656.95,-98.88 696.76,-84.55 721.84,-75.52"/>
<polygon fill="midnightblue" stroke="midnightblue" points="627.49,-105.76 619.27,-112.44 629.86,-112.35 627.49,-105.76"/>
</g>
<!-- Node10&#45;&gt;Node3 -->
<g id="edge15" class="edge">
<title>Node10&#45;&gt;Node3</title>
<path fill="none" stroke="midnightblue" d="M714.55,-104.14C722.39,-94.74 731.83,-83.4 738.21,-75.75"/>
<polygon fill="midnightblue" stroke="midnightblue" points="711.64,-102.16 707.93,-112.08 717.02,-106.64 711.64,-102.16"/>
</g>
<!-- Node11&#45;&gt;Node3 -->
<g id="edge17" class="edge">
<title>Node11&#45;&gt;Node3</title>
<path fill="none" stroke="midnightblue" d="M777.39,-104.43C769.32,-94.97 759.54,-83.48 752.95,-75.75"/>
<polygon fill="midnightblue" stroke="midnightblue" points="774.75,-106.74 783.9,-112.08 780.08,-102.2 774.75,-106.74"/>
</g>
<!-- Node12&#45;&gt;Node3 -->
<g id="edge19" class="edge">
<title>Node12&#45;&gt;Node3</title>
<path fill="none" stroke="midnightblue" d="M848.05,-108.64C823.09,-98.5 788.42,-84.43 766.48,-75.52"/>
<polygon fill="midnightblue" stroke="midnightblue" points="846.84,-111.92 857.43,-112.44 849.48,-105.44 846.84,-111.92"/>
</g>
<!-- Node13&#45;&gt;Node3 -->
<g id="edge21" class="edge">
<title>Node13&#45;&gt;Node3</title>
<path fill="none" stroke="midnightblue" d="M923.44,-110.09C881.31,-99.89 819.26,-84.86 780.67,-75.52"/>
<polygon fill="midnightblue" stroke="midnightblue" points="922.62,-113.49 933.16,-112.44 924.27,-106.69 922.62,-113.49"/>
</g>
<!-- Node14&#45;&gt;Node3 -->
<g id="edge23" class="edge">
<title>Node14&#45;&gt;Node3</title>
<path fill="none" stroke="midnightblue" d="M1012.69,-111.87C923.01,-96.46 830.01,-80.98 780.63,-72.8"/>
<polygon fill="midnightblue" stroke="midnightblue" points="1012.31,-115.36 1022.76,-113.6 1013.49,-108.46 1012.31,-115.36"/>
</g>
<!-- Node15&#45;&gt;Node3 -->
<g id="edge25" class="edge">
<title>Node15&#45;&gt;Node3</title>
<path fill="none" stroke="midnightblue" d="M1113.81,-111.82C985.52,-92.04 844.71,-76.96 780.55,-70.46"/>
<polygon fill="midnightblue" stroke="midnightblue" points="1113.39,-115.3 1123.81,-113.37 1114.46,-108.38 1113.39,-115.3"/>
</g>
<!-- Node16&#45;&gt;Node3 -->
<g id="edge27" class="edge">
<title>Node16&#45;&gt;Node3</title>
<path fill="none" stroke="midnightblue" d="M1208.52,-111.83C1042.95,-88.12 856.8,-74.33 780.64,-69.23"/>
<polygon fill="midnightblue" stroke="midnightblue" points="1208.5,-115.37 1218.9,-113.34 1209.5,-108.44 1208.5,-115.37"/>
</g>
<!-- Node17&#45;&gt;Node3 -->
<g id="edge29" class="edge">
<title>Node17&#45;&gt;Node3</title>
<path fill="none" stroke="midnightblue" d="M1302.35,-111.95C1098.82,-87.51 867.21,-73.56 780.53,-68.83"/>
<polygon fill="midnightblue" stroke="midnightblue" points="1301.98,-115.43 1312.33,-113.16 1302.82,-108.49 1301.98,-115.43"/>
</g>
</g>
</svg>
