<?xml version="1.0" encoding="UTF-8" standalone="no"?>
<!DOCTYPE svg PUBLIC "-//W3C//DTD SVG 1.1//EN"
 "http://www.w3.org/Graphics/SVG/1.1/DTD/svg11.dtd">
<!-- Generated by graphviz version 2.43.0 (0)
 -->
<!-- Title: hal/uc/map.h Pages: 1 -->
<svg width="1314pt" height="196pt"
 viewBox="0.00 0.00 1313.50 196.00" xmlns="http://www.w3.org/2000/svg" xmlns:xlink="http://www.w3.org/1999/xlink">
<g id="graph0" class="graph" transform="scale(1 1) rotate(0) translate(4 192)">
<title>hal/uc/map.h</title>
<!-- Node1 -->
<g id="node1" class="node">
<title>Node1</title>
<g id="a_node1"><a xlink:title="HAL for uC Peripheral Map.">
<polygon fill="#bfbfbf" stroke="black" points="606.5,-168.5 606.5,-187.5 686.5,-187.5 686.5,-168.5 606.5,-168.5"/>
<text text-anchor="middle" x="646.5" y="-175.5" font-family="Helvetica,sans-Serif" font-size="10.00">hal/uc/map.h</text>
</a>
</g>
</g>
<!-- Node2 -->
<g id="node2" class="node">
<title>Node2</title>
<g id="a_node2"><a xlink:href="uc_2adc_8h.html" target="_top" xlink:title="HAL for uC Internal ADC interfaces.">
<polygon fill="none" stroke="black" points="0,-112.5 0,-131.5 75,-131.5 75,-112.5 0,-112.5"/>
<text text-anchor="middle" x="37.5" y="-119.5" font-family="Helvetica,sans-Serif" font-size="10.00">hal/uc/adc.h</text>
</a>
</g>
</g>
<!-- Node1&#45;&gt;Node2 -->
<g id="edge1" class="edge">
<title>Node1&#45;&gt;Node2</title>
<path fill="none" stroke="midnightblue" d="M595.97,-174.46C498,-169.19 275.46,-155.56 89.5,-132 84.86,-131.41 80.01,-130.7 75.21,-129.94"/>
<polygon fill="midnightblue" stroke="midnightblue" points="596.01,-177.96 606.18,-175 596.38,-170.97 596.01,-177.96"/>
</g>
<!-- Node3 -->
<g id="node3" class="node">
<title>Node3</title>
<g id="a_node3"><a xlink:href="uc_2all_8h_source.html" target="_top" xlink:title=" ">
<polygon fill="none" stroke="black" points="611.5,-56.5 611.5,-75.5 681.5,-75.5 681.5,-56.5 611.5,-56.5"/>
<text text-anchor="middle" x="646.5" y="-63.5" font-family="Helvetica,sans-Serif" font-size="10.00">hal/uc/all.h</text>
</a>
</g>
</g>
<!-- Node1&#45;&gt;Node3 -->
<g id="edge4" class="edge">
<title>Node1&#45;&gt;Node3</title>
<path fill="none" stroke="midnightblue" d="M596.14,-176.46C471.08,-174.59 154.14,-166.47 122.5,-132 116.49,-125.45 116.49,-118.55 122.5,-112 155.53,-76.01 499.51,-68.75 611.48,-67.33"/>
<polygon fill="midnightblue" stroke="midnightblue" points="596.17,-179.96 606.22,-176.6 596.27,-172.96 596.17,-179.96"/>
</g>
<!-- Node5 -->
<g id="node5" class="node">
<title>Node5</title>
<g id="a_node5"><a xlink:href="core_8h.html" target="_top" xlink:title="HAL for uC Core peripherals.">
<polygon fill="none" stroke="black" points="132,-112.5 132,-131.5 211,-131.5 211,-112.5 132,-112.5"/>
<text text-anchor="middle" x="171.5" y="-119.5" font-family="Helvetica,sans-Serif" font-size="10.00">hal/uc/core.h</text>
</a>
</g>
</g>
<!-- Node1&#45;&gt;Node5 -->
<g id="edge5" class="edge">
<title>Node1&#45;&gt;Node5</title>
<path fill="none" stroke="midnightblue" d="M596.05,-173.01C515.99,-166.37 355.03,-151.81 219.5,-132 216.73,-131.6 213.88,-131.15 211.01,-130.67"/>
<polygon fill="midnightblue" stroke="midnightblue" points="596.08,-176.52 606.33,-173.85 596.65,-169.54 596.08,-176.52"/>
</g>
<!-- Node6 -->
<g id="node6" class="node">
<title>Node6</title>
<g id="a_node6"><a xlink:href="uc_2crypto_8h_source.html" target="_top" xlink:title=" ">
<polygon fill="none" stroke="black" points="229,-112.5 229,-131.5 318,-131.5 318,-112.5 229,-112.5"/>
<text text-anchor="middle" x="273.5" y="-119.5" font-family="Helvetica,sans-Serif" font-size="10.00">hal/uc/crypto.h</text>
</a>
</g>
</g>
<!-- Node1&#45;&gt;Node6 -->
<g id="edge7" class="edge">
<title>Node1&#45;&gt;Node6</title>
<path fill="none" stroke="midnightblue" d="M596.21,-170.38C533.13,-161.97 421.68,-146.77 326.5,-132 323.73,-131.57 320.89,-131.12 318.02,-130.65"/>
<polygon fill="midnightblue" stroke="midnightblue" points="595.91,-173.87 606.29,-171.72 596.83,-166.93 595.91,-173.87"/>
</g>
<!-- Node7 -->
<g id="node7" class="node">
<title>Node7</title>
<g id="a_node7"><a xlink:href="eeprom_8h.html" target="_top" xlink:title="HAL for uC EEPROM peripherals.">
<polygon fill="none" stroke="black" points="336,-112.5 336,-131.5 431,-131.5 431,-112.5 336,-112.5"/>
<text text-anchor="middle" x="383.5" y="-119.5" font-family="Helvetica,sans-Serif" font-size="10.00">hal/uc/eeprom.h</text>
</a>
</g>
</g>
<!-- Node1&#45;&gt;Node7 -->
<g id="edge9" class="edge">
<title>Node1&#45;&gt;Node7</title>
<path fill="none" stroke="midnightblue" d="M596.38,-166.71C546.7,-156.51 471.48,-141.06 425.03,-131.53"/>
<polygon fill="midnightblue" stroke="midnightblue" points="595.77,-170.16 606.27,-168.74 597.18,-163.3 595.77,-170.16"/>
</g>
<!-- Node8 -->
<g id="node8" class="node">
<title>Node8</title>
<g id="a_node8"><a xlink:href="entropy_8h.html" target="_top" xlink:title="HAL for uC entropy source.">
<polygon fill="none" stroke="black" points="449.5,-112.5 449.5,-131.5 543.5,-131.5 543.5,-112.5 449.5,-112.5"/>
<text text-anchor="middle" x="496.5" y="-119.5" font-family="Helvetica,sans-Serif" font-size="10.00">hal/uc/entropy.h</text>
</a>
</g>
</g>
<!-- Node1&#45;&gt;Node8 -->
<g id="edge11" class="edge">
<title>Node1&#45;&gt;Node8</title>
<path fill="none" stroke="midnightblue" d="M613.28,-165.04C585.05,-154.88 545.24,-140.55 520.16,-131.52"/>
<polygon fill="midnightblue" stroke="midnightblue" points="612.14,-168.35 622.73,-168.44 614.51,-161.76 612.14,-168.35"/>
</g>
<!-- Node9 -->
<g id="node9" class="node">
<title>Node9</title>
<g id="a_node9"><a xlink:href="gpio_8h.html" target="_top" xlink:title="HAL for uC GPIOs.">
<polygon fill="none" stroke="black" points="562,-112.5 562,-131.5 641,-131.5 641,-112.5 562,-112.5"/>
<text text-anchor="middle" x="601.5" y="-119.5" font-family="Helvetica,sans-Serif" font-size="10.00">hal/uc/gpio.h</text>
</a>
</g>
</g>
<!-- Node1&#45;&gt;Node9 -->
<g id="edge13" class="edge">
<title>Node1&#45;&gt;Node9</title>
<path fill="none" stroke="midnightblue" d="M632.45,-160.14C624.61,-150.74 615.17,-139.4 608.79,-131.75"/>
<polygon fill="midnightblue" stroke="midnightblue" points="629.98,-162.64 639.07,-168.08 635.36,-158.16 629.98,-162.64"/>
</g>
<!-- Node10 -->
<g id="node10" class="node">
<title>Node10</title>
<g id="a_node10"><a xlink:href="id_8h.html" target="_top" xlink:title="HAL for uC ID.">
<polygon fill="none" stroke="black" points="659,-112.5 659,-131.5 726,-131.5 726,-112.5 659,-112.5"/>
<text text-anchor="middle" x="692.5" y="-119.5" font-family="Helvetica,sans-Serif" font-size="10.00">hal/uc/id.h</text>
</a>
</g>
</g>
<!-- Node1&#45;&gt;Node10 -->
<g id="edge15" class="edge">
<title>Node1&#45;&gt;Node10</title>
<path fill="none" stroke="midnightblue" d="M660.61,-160.43C668.68,-150.97 678.46,-139.48 685.05,-131.75"/>
<polygon fill="midnightblue" stroke="midnightblue" points="657.92,-158.2 654.1,-168.08 663.25,-162.74 657.92,-158.2"/>
</g>
<!-- Node11 -->
<g id="node11" class="node">
<title>Node11</title>
<g id="a_node11"><a xlink:href="uc_2rtc_8h.html" target="_top" xlink:title="HAL for uC RTCs.">
<polygon fill="none" stroke="black" points="744,-112.5 744,-131.5 815,-131.5 815,-112.5 744,-112.5"/>
<text text-anchor="middle" x="779.5" y="-119.5" font-family="Helvetica,sans-Serif" font-size="10.00">hal/uc/rtc.h</text>
</a>
</g>
</g>
<!-- Node1&#45;&gt;Node11 -->
<g id="edge17" class="edge">
<title>Node1&#45;&gt;Node11</title>
<path fill="none" stroke="midnightblue" d="M676.95,-164.64C701.91,-154.5 736.58,-140.43 758.52,-131.52"/>
<polygon fill="midnightblue" stroke="midnightblue" points="675.52,-161.44 667.57,-168.44 678.16,-167.92 675.52,-161.44"/>
</g>
<!-- Node12 -->
<g id="node12" class="node">
<title>Node12</title>
<g id="a_node12"><a xlink:href="spi_8h.html" target="_top" xlink:title="HAL for SPI interfaces.">
<polygon fill="none" stroke="black" points="833.5,-112.5 833.5,-131.5 905.5,-131.5 905.5,-112.5 833.5,-112.5"/>
<text text-anchor="middle" x="869.5" y="-119.5" font-family="Helvetica,sans-Serif" font-size="10.00">hal/uc/spi.h</text>
</a>
</g>
</g>
<!-- Node1&#45;&gt;Node12 -->
<g id="edge19" class="edge">
<title>Node1&#45;&gt;Node12</title>
<path fill="none" stroke="midnightblue" d="M691.56,-166.09C733.69,-155.89 795.74,-140.86 834.33,-131.52"/>
<polygon fill="midnightblue" stroke="midnightblue" points="690.73,-162.69 681.84,-168.44 692.38,-169.49 690.73,-162.69"/>
</g>
<!-- Node13 -->
<g id="node13" class="node">
<title>Node13</title>
<g id="a_node13"><a xlink:href="timer_8h.html" target="_top" xlink:title="HAL for uC Timers.">
<polygon fill="none" stroke="black" points="924,-112.5 924,-131.5 1007,-131.5 1007,-112.5 924,-112.5"/>
<text text-anchor="middle" x="965.5" y="-119.5" font-family="Helvetica,sans-Serif" font-size="10.00">hal/uc/timer.h</text>
</a>
</g>
</g>
<!-- Node1&#45;&gt;Node13 -->
<g id="edge21" class="edge">
<title>Node1&#45;&gt;Node13</title>
<path fill="none" stroke="midnightblue" d="M696.91,-168.66C750.79,-159.72 838.72,-145.05 914.5,-132 917.51,-131.48 920.62,-130.94 923.76,-130.4"/>
<polygon fill="midnightblue" stroke="midnightblue" points="696.22,-165.23 686.93,-170.32 697.36,-172.14 696.22,-165.23"/>
</g>
<!-- Node14 -->
<g id="node14" class="node">
<title>Node14</title>
<g id="a_node14"><a xlink:href="uc_2uart_8h_source.html" target="_top" xlink:title=" ">
<polygon fill="none" stroke="black" points="1025,-112.5 1025,-131.5 1102,-131.5 1102,-112.5 1025,-112.5"/>
<text text-anchor="middle" x="1063.5" y="-119.5" font-family="Helvetica,sans-Serif" font-size="10.00">hal/uc/uart.h</text>
</a>
</g>
</g>
<!-- Node1&#45;&gt;Node14 -->
<g id="edge23" class="edge">
<title>Node1&#45;&gt;Node14</title>
<path fill="none" stroke="midnightblue" d="M696.64,-172C767.92,-164.64 902.55,-149.82 1016.5,-132 1019.21,-131.58 1022,-131.11 1024.81,-130.63"/>
<polygon fill="midnightblue" stroke="midnightblue" points="696.18,-168.53 686.59,-173.03 696.9,-175.49 696.18,-168.53"/>
</g>
<!-- Node15 -->
<g id="node15" class="node">
<title>Node15</title>
<g id="a_node15"><a xlink:href="usb_8h.html" target="_top" xlink:title="HAL for USB interface.">
<polygon fill="none" stroke="black" points="1120,-112.5 1120,-131.5 1195,-131.5 1195,-112.5 1120,-112.5"/>
<text text-anchor="middle" x="1157.5" y="-119.5" font-family="Helvetica,sans-Serif" font-size="10.00">hal/uc/usb.h</text>
</a>
</g>
</g>
<!-- Node1&#45;&gt;Node15 -->
<g id="edge25" class="edge">
<title>Node1&#45;&gt;Node15</title>
<path fill="none" stroke="midnightblue" d="M696.99,-173.72C782.57,-167.81 961.46,-153.89 1111.5,-132 1114.24,-131.6 1117.06,-131.15 1119.9,-130.66"/>
<polygon fill="midnightblue" stroke="midnightblue" points="696.51,-170.25 686.78,-174.42 696.99,-177.23 696.51,-170.25"/>
</g>
<!-- Node16 -->
<g id="node16" class="node">
<title>Node16</title>
<g id="a_node16"><a xlink:href="usbcdc_8h.html" target="_top" xlink:title="HAL for USB CDC interface.">
<polygon fill="none" stroke="black" points="1213.5,-112.5 1213.5,-131.5 1305.5,-131.5 1305.5,-112.5 1213.5,-112.5"/>
<text text-anchor="middle" x="1259.5" y="-119.5" font-family="Helvetica,sans-Serif" font-size="10.00">hal/uc/usbcdc.h</text>
</a>
</g>
</g>
<!-- Node1&#45;&gt;Node16 -->
<g id="edge27" class="edge">
<title>Node1&#45;&gt;Node16</title>
<path fill="none" stroke="midnightblue" d="M696.73,-174.33C794.66,-168.82 1017.87,-154.76 1204.5,-132 1207.38,-131.65 1210.34,-131.26 1213.33,-130.84"/>
<polygon fill="midnightblue" stroke="midnightblue" points="696.32,-170.85 686.53,-174.9 696.71,-177.84 696.32,-170.85"/>
</g>
<!-- Node2&#45;&gt;Node3 -->
<g id="edge2" class="edge">
<title>Node2&#45;&gt;Node3</title>
<path fill="none" stroke="midnightblue" d="M85.54,-112.52C86.88,-112.34 88.2,-112.17 89.5,-112 285.84,-87.13 522.97,-73.32 611.19,-68.74"/>
<polygon fill="midnightblue" stroke="midnightblue" points="84.59,-109.13 75.21,-114.06 85.62,-116.05 84.59,-109.13"/>
</g>
<!-- Node4 -->
<g id="node4" class="node">
<title>Node4</title>
<g id="a_node4"><a xlink:href="uc_8h_source.html" target="_top" xlink:title=" ">
<polygon fill="none" stroke="black" points="619,-0.5 619,-19.5 674,-19.5 674,-0.5 619,-0.5"/>
<text text-anchor="middle" x="646.5" y="-7.5" font-family="Helvetica,sans-Serif" font-size="10.00">hal/uc.h</text>
</a>
</g>
</g>
<!-- Node3&#45;&gt;Node4 -->
<g id="edge3" class="edge">
<title>Node3&#45;&gt;Node4</title>
<path fill="none" stroke="midnightblue" d="M646.5,-45.8C646.5,-36.91 646.5,-26.78 646.5,-19.75"/>
<polygon fill="midnightblue" stroke="midnightblue" points="643,-46.08 646.5,-56.08 650,-46.08 643,-46.08"/>
</g>
<!-- Node5&#45;&gt;Node3 -->
<g id="edge6" class="edge">
<title>Node5&#45;&gt;Node3</title>
<path fill="none" stroke="midnightblue" d="M220.91,-111.89C371.67,-90.19 539.58,-75.55 611.23,-69.75"/>
<polygon fill="midnightblue" stroke="midnightblue" points="220.4,-108.43 211.01,-113.33 221.41,-115.36 220.4,-108.43"/>
</g>
<!-- Node6&#45;&gt;Node3 -->
<g id="edge8" class="edge">
<title>Node6&#45;&gt;Node3</title>
<path fill="none" stroke="midnightblue" d="M328.21,-111.77C437.26,-94.96 554.26,-79.17 611.41,-71.6"/>
<polygon fill="midnightblue" stroke="midnightblue" points="327.36,-108.36 318.02,-113.35 328.44,-115.27 327.36,-108.36"/>
</g>
<!-- Node7&#45;&gt;Node3 -->
<g id="edge10" class="edge">
<title>Node7&#45;&gt;Node3</title>
<path fill="none" stroke="midnightblue" d="M435.21,-110.38C487.26,-99.7 566.12,-83.5 611.33,-74.22"/>
<polygon fill="midnightblue" stroke="midnightblue" points="434.26,-107 425.17,-112.44 435.67,-113.86 434.26,-107"/>
</g>
<!-- Node8&#45;&gt;Node3 -->
<g id="edge12" class="edge">
<title>Node8&#45;&gt;Node3</title>
<path fill="none" stroke="midnightblue" d="M529.72,-109.04C557.95,-98.88 597.76,-84.55 622.84,-75.52"/>
<polygon fill="midnightblue" stroke="midnightblue" points="528.49,-105.76 520.27,-112.44 530.86,-112.35 528.49,-105.76"/>
</g>
<!-- Node9&#45;&gt;Node3 -->
<g id="edge14" class="edge">
<title>Node9&#45;&gt;Node3</title>
<path fill="none" stroke="midnightblue" d="M615.55,-104.14C623.39,-94.74 632.83,-83.4 639.21,-75.75"/>
<polygon fill="midnightblue" stroke="midnightblue" points="612.64,-102.16 608.93,-112.08 618.02,-106.64 612.64,-102.16"/>
</g>
<!-- Node10&#45;&gt;Node3 -->
<g id="edge16" class="edge">
<title>Node10&#45;&gt;Node3</title>
<path fill="none" stroke="midnightblue" d="M678.39,-104.43C670.32,-94.97 660.54,-83.48 653.95,-75.75"/>
<polygon fill="midnightblue" stroke="midnightblue" points="675.75,-106.74 684.9,-112.08 681.08,-102.2 675.75,-106.74"/>
</g>
<!-- Node11&#45;&gt;Node3 -->
<g id="edge18" class="edge">
<title>Node11&#45;&gt;Node3</title>
<path fill="none" stroke="midnightblue" d="M749.05,-108.64C724.09,-98.5 689.42,-84.43 667.48,-75.52"/>
<polygon fill="midnightblue" stroke="midnightblue" points="747.84,-111.92 758.43,-112.44 750.48,-105.44 747.84,-111.92"/>
</g>
<!-- Node12&#45;&gt;Node3 -->
<g id="edge20" class="edge">
<title>Node12&#45;&gt;Node3</title>
<path fill="none" stroke="midnightblue" d="M824.44,-110.09C782.31,-99.89 720.26,-84.86 681.67,-75.52"/>
<polygon fill="midnightblue" stroke="midnightblue" points="823.62,-113.49 834.16,-112.44 825.27,-106.69 823.62,-113.49"/>
</g>
<!-- Node13&#45;&gt;Node3 -->
<g id="edge22" class="edge">
<title>Node13&#45;&gt;Node3</title>
<path fill="none" stroke="midnightblue" d="M913.69,-111.87C824.01,-96.46 731.01,-80.98 681.63,-72.8"/>
<polygon fill="midnightblue" stroke="midnightblue" points="913.31,-115.36 923.76,-113.6 914.49,-108.46 913.31,-115.36"/>
</g>
<!-- Node14&#45;&gt;Node3 -->
<g id="edge24" class="edge">
<title>Node14&#45;&gt;Node3</title>
<path fill="none" stroke="midnightblue" d="M1014.81,-111.82C886.52,-92.04 745.71,-76.96 681.55,-70.46"/>
<polygon fill="midnightblue" stroke="midnightblue" points="1014.39,-115.3 1024.81,-113.37 1015.46,-108.38 1014.39,-115.3"/>
</g>
<!-- Node15&#45;&gt;Node3 -->
<g id="edge26" class="edge">
<title>Node15&#45;&gt;Node3</title>
<path fill="none" stroke="midnightblue" d="M1109.52,-111.83C943.95,-88.12 757.8,-74.33 681.64,-69.23"/>
<polygon fill="midnightblue" stroke="midnightblue" points="1109.5,-115.37 1119.9,-113.34 1110.5,-108.44 1109.5,-115.37"/>
</g>
<!-- Node16&#45;&gt;Node3 -->
<g id="edge28" class="edge">
<title>Node16&#45;&gt;Node3</title>
<path fill="none" stroke="midnightblue" d="M1203.35,-111.95C999.82,-87.51 768.21,-73.56 681.53,-68.83"/>
<polygon fill="midnightblue" stroke="midnightblue" points="1202.98,-115.43 1213.33,-113.16 1203.82,-108.49 1202.98,-115.43"/>
</g>
</g>
</svg>
