<?xml version="1.0" encoding="UTF-8" standalone="no"?>
<!DOCTYPE svg PUBLIC "-//W3C//DTD SVG 1.1//EN"
 "http://www.w3.org/Graphics/SVG/1.1/DTD/svg11.dtd">
<!-- Generated by graphviz version 2.43.0 (0)
 -->
<!-- Title: hal/uc/spi.h Pages: 1 -->
<svg width="640pt" height="151pt"
 viewBox="0.00 0.00 639.50 151.00" xmlns="http://www.w3.org/2000/svg" xmlns:xlink="http://www.w3.org/1999/xlink">
<g id="graph0" class="graph" transform="scale(1 1) rotate(0) translate(4 147)">
<title>hal/uc/spi.h</title>
<!-- Node1 -->
<g id="node1" class="node">
<title>Node1</title>
<g id="a_node1"><a xlink:title="HAL for SPI interfaces.">
<polygon fill="#bfbfbf" stroke="black" points="245.5,-123.5 245.5,-142.5 317.5,-142.5 317.5,-123.5 245.5,-123.5"/>
<text text-anchor="middle" x="281.5" y="-130.5" font-family="Helvetica,sans-Serif" font-size="10.00">hal/uc/spi.h</text>
</a>
</g>
</g>
<!-- Node2 -->
<g id="node2" class="node">
<title>Node2</title>
<g id="a_node2"><a xlink:href="map_8h.html" target="_top" xlink:title="HAL for uC Peripheral Map.">
<polygon fill="none" stroke="black" points="258,-67.5 258,-86.5 305,-86.5 305,-67.5 258,-67.5"/>
<text text-anchor="middle" x="281.5" y="-74.5" font-family="Helvetica,sans-Serif" font-size="10.00">map.h</text>
</a>
</g>
</g>
<!-- Node1&#45;&gt;Node2 -->
<g id="edge1" class="edge">
<title>Node1&#45;&gt;Node2</title>
<path fill="none" stroke="midnightblue" d="M281.5,-123.08C281.5,-116.01 281.5,-105.86 281.5,-96.99"/>
<polygon fill="midnightblue" stroke="midnightblue" points="285,-96.75 281.5,-86.75 278,-96.75 285,-96.75"/>
</g>
<!-- Node3 -->
<g id="node3" class="node">
<title>Node3</title>
<g id="a_node3"><a xlink:title=" ">
<polygon fill="none" stroke="#bfbfbf" points="0,-6 0,-25 53,-25 53,-6 0,-6"/>
<text text-anchor="middle" x="26.5" y="-13" font-family="Helvetica,sans-Serif" font-size="10.00">stdint.h</text>
</a>
</g>
</g>
<!-- Node2&#45;&gt;Node3 -->
<g id="edge2" class="edge">
<title>Node2&#45;&gt;Node3</title>
<path fill="none" stroke="midnightblue" d="M257.82,-72.57C217.27,-66.38 132.18,-52 62.5,-31 60.21,-30.31 57.87,-29.53 55.53,-28.71"/>
<polygon fill="midnightblue" stroke="midnightblue" points="56.67,-25.4 46.08,-25.13 54.19,-31.94 56.67,-25.4"/>
</g>
<!-- Node4 -->
<g id="node4" class="node">
<title>Node4</title>
<g id="a_node4"><a xlink:title=" ">
<polygon fill="none" stroke="#bfbfbf" points="71.5,-6 71.5,-25 169.5,-25 169.5,-6 71.5,-6"/>
<text text-anchor="middle" x="120.5" y="-13" font-family="Helvetica,sans-Serif" font-size="10.00">platform/types.h</text>
</a>
</g>
</g>
<!-- Node2&#45;&gt;Node4 -->
<g id="edge3" class="edge">
<title>Node2&#45;&gt;Node4</title>
<path fill="none" stroke="midnightblue" d="M258.43,-67.48C230.82,-57.27 184.38,-40.11 153.1,-28.55"/>
<polygon fill="midnightblue" stroke="midnightblue" points="154.12,-25.19 143.52,-25.01 151.69,-31.76 154.12,-25.19"/>
</g>
<!-- Node5 -->
<g id="node5" class="node">
<title>Node5</title>
<g id="a_node5"><a xlink:title=" ">
<polygon fill="none" stroke="#bfbfbf" points="187.5,-6 187.5,-25 267.5,-25 267.5,-6 187.5,-6"/>
<text text-anchor="middle" x="227.5" y="-13" font-family="Helvetica,sans-Serif" font-size="10.00">application.h</text>
</a>
</g>
</g>
<!-- Node2&#45;&gt;Node5 -->
<g id="edge4" class="edge">
<title>Node2&#45;&gt;Node5</title>
<path fill="none" stroke="midnightblue" d="M273.76,-67.48C265.5,-58.37 252.22,-43.74 242.01,-32.48"/>
<polygon fill="midnightblue" stroke="midnightblue" points="244.53,-30.06 235.22,-25.01 239.35,-34.77 244.53,-30.06"/>
</g>
<!-- Node6 -->
<g id="node6" class="node">
<title>Node6</title>
<g id="a_node6"><a xlink:title=" ">
<polygon fill="none" stroke="#bfbfbf" points="286,-6 286,-25 387,-25 387,-6 286,-6"/>
<text text-anchor="middle" x="336.5" y="-13" font-family="Helvetica,sans-Serif" font-size="10.00">platform/debug.h</text>
</a>
</g>
</g>
<!-- Node2&#45;&gt;Node6 -->
<g id="edge5" class="edge">
<title>Node2&#45;&gt;Node6</title>
<path fill="none" stroke="midnightblue" d="M289.38,-67.48C297.79,-58.37 311.32,-43.74 321.73,-32.48"/>
<polygon fill="midnightblue" stroke="midnightblue" points="324.42,-34.73 328.63,-25.01 319.28,-29.98 324.42,-34.73"/>
</g>
<!-- Node7 -->
<g id="node7" class="node">
<title>Node7</title>
<g id="a_node7"><a xlink:title=" ">
<polygon fill="none" stroke="#bfbfbf" points="405.5,-6 405.5,-25 493.5,-25 493.5,-6 405.5,-6"/>
<text text-anchor="middle" x="449.5" y="-13" font-family="Helvetica,sans-Serif" font-size="10.00">platform/cpu.h</text>
</a>
</g>
</g>
<!-- Node2&#45;&gt;Node7 -->
<g id="edge6" class="edge">
<title>Node2&#45;&gt;Node7</title>
<path fill="none" stroke="midnightblue" d="M305.21,-67.6C334.07,-57.38 382.98,-40.06 415.75,-28.45"/>
<polygon fill="midnightblue" stroke="midnightblue" points="417.1,-31.69 425.36,-25.05 414.77,-25.09 417.1,-31.69"/>
</g>
<!-- Node8 -->
<g id="node8" class="node">
<title>Node8</title>
<g id="a_node8"><a xlink:title=" ">
<polygon fill="none" stroke="#bfbfbf" points="511.5,-0.5 511.5,-30.5 631.5,-30.5 631.5,-0.5 511.5,-0.5"/>
<text text-anchor="start" x="519.5" y="-18.5" font-family="Helvetica,sans-Serif" font-size="10.00">hal_platform/uc_map</text>
<text text-anchor="middle" x="571.5" y="-7.5" font-family="Helvetica,sans-Serif" font-size="10.00">_impl.h</text>
</a>
</g>
</g>
<!-- Node2&#45;&gt;Node8 -->
<g id="edge7" class="edge">
<title>Node2&#45;&gt;Node8</title>
<path fill="none" stroke="midnightblue" d="M305.06,-71.25C343.81,-63.43 423.7,-47.27 501.35,-31.23"/>
<polygon fill="midnightblue" stroke="midnightblue" points="502.21,-34.63 511.29,-29.18 500.79,-27.77 502.21,-34.63"/>
</g>
</g>
</svg>
