<?xml version="1.0" encoding="UTF-8" standalone="no"?>
<!DOCTYPE svg PUBLIC "-//W3C//DTD SVG 1.1//EN"
 "http://www.w3.org/Graphics/SVG/1.1/DTD/svg11.dtd">
<!-- Generated by graphviz version 2.43.0 (0)
 -->
<!-- Title: hal/uc/spi.h Pages: 1 -->
<svg width="689pt" height="319pt"
 viewBox="0.00 0.00 688.89 319.00" xmlns="http://www.w3.org/2000/svg" xmlns:xlink="http://www.w3.org/1999/xlink">
<g id="graph0" class="graph" transform="scale(1 1) rotate(0) translate(4 315)">
<title>hal/uc/spi.h</title>
<!-- Node1 -->
<g id="node1" class="node">
<title>Node1</title>
<g id="a_node1"><a xlink:title="HAL for SPI interfaces.">
<polygon fill="#bfbfbf" stroke="black" points="240.89,-291.5 240.89,-310.5 312.89,-310.5 312.89,-291.5 240.89,-291.5"/>
<text text-anchor="middle" x="276.89" y="-298.5" font-family="Helvetica,sans-Serif" font-size="10.00">hal/uc/spi.h</text>
</a>
</g>
</g>
<!-- Node2 -->
<g id="node2" class="node">
<title>Node2</title>
<g id="a_node2"><a xlink:href="map_8h.html" target="_top" xlink:title="HAL for uC Peripheral Map.">
<polygon fill="none" stroke="black" points="253.39,-235.5 253.39,-254.5 300.39,-254.5 300.39,-235.5 253.39,-235.5"/>
<text text-anchor="middle" x="276.89" y="-242.5" font-family="Helvetica,sans-Serif" font-size="10.00">map.h</text>
</a>
</g>
</g>
<!-- Node1&#45;&gt;Node2 -->
<g id="edge1" class="edge">
<title>Node1&#45;&gt;Node2</title>
<path fill="none" stroke="midnightblue" d="M276.89,-291.08C276.89,-284.01 276.89,-273.86 276.89,-264.99"/>
<polygon fill="midnightblue" stroke="midnightblue" points="280.39,-264.75 276.89,-254.75 273.39,-264.75 280.39,-264.75"/>
</g>
<!-- Node3 -->
<g id="node3" class="node">
<title>Node3</title>
<g id="a_node3"><a xlink:title=" ">
<polygon fill="none" stroke="#bfbfbf" points="4.39,-0.5 4.39,-19.5 57.39,-19.5 57.39,-0.5 4.39,-0.5"/>
<text text-anchor="middle" x="30.89" y="-7.5" font-family="Helvetica,sans-Serif" font-size="10.00">stdint.h</text>
</a>
</g>
</g>
<!-- Node2&#45;&gt;Node3 -->
<g id="edge2" class="edge">
<title>Node2&#45;&gt;Node3</title>
<path fill="none" stroke="midnightblue" d="M253.25,-243.53C195.8,-241.85 51.37,-234.13 21.89,-199 -19.2,-150.01 7.79,-66.07 22.79,-29.23"/>
<polygon fill="midnightblue" stroke="midnightblue" points="26.11,-30.35 26.8,-19.78 19.67,-27.62 26.11,-30.35"/>
</g>
<!-- Node4 -->
<g id="node4" class="node">
<title>Node4</title>
<g id="a_node4"><a xlink:title=" ">
<polygon fill="none" stroke="#bfbfbf" points="30.89,-174 30.89,-193 128.89,-193 128.89,-174 30.89,-174"/>
<text text-anchor="middle" x="79.89" y="-181" font-family="Helvetica,sans-Serif" font-size="10.00">platform/types.h</text>
</a>
</g>
</g>
<!-- Node2&#45;&gt;Node4 -->
<g id="edge3" class="edge">
<title>Node2&#45;&gt;Node4</title>
<path fill="none" stroke="midnightblue" d="M253.13,-236.82C219.55,-226.68 157.84,-208.04 117.86,-195.97"/>
<polygon fill="midnightblue" stroke="midnightblue" points="118.78,-192.59 108.2,-193.05 116.76,-199.29 118.78,-192.59"/>
</g>
<!-- Node5 -->
<g id="node5" class="node">
<title>Node5</title>
<g id="a_node5"><a xlink:href="types_8h_source.html" target="_top" xlink:title=" ">
<polygon fill="none" stroke="black" points="147.39,-174 147.39,-193 218.39,-193 218.39,-174 147.39,-174"/>
<text text-anchor="middle" x="182.89" y="-181" font-family="Helvetica,sans-Serif" font-size="10.00">hal/types.h</text>
</a>
</g>
</g>
<!-- Node2&#45;&gt;Node5 -->
<g id="edge4" class="edge">
<title>Node2&#45;&gt;Node5</title>
<path fill="none" stroke="midnightblue" d="M263.43,-235.48C248.21,-225.84 223.21,-210.02 205.09,-198.55"/>
<polygon fill="midnightblue" stroke="midnightblue" points="206.66,-195.4 196.34,-193.01 202.92,-201.31 206.66,-195.4"/>
</g>
<!-- Node8 -->
<g id="node8" class="node">
<title>Node8</title>
<g id="a_node8"><a xlink:title=" ">
<polygon fill="none" stroke="#bfbfbf" points="236.89,-174 236.89,-193 316.89,-193 316.89,-174 236.89,-174"/>
<text text-anchor="middle" x="276.89" y="-181" font-family="Helvetica,sans-Serif" font-size="10.00">application.h</text>
</a>
</g>
</g>
<!-- Node2&#45;&gt;Node8 -->
<g id="edge8" class="edge">
<title>Node2&#45;&gt;Node8</title>
<path fill="none" stroke="midnightblue" d="M276.89,-235.48C276.89,-227.08 276.89,-213.98 276.89,-203.16"/>
<polygon fill="midnightblue" stroke="midnightblue" points="280.39,-203.01 276.89,-193.01 273.39,-203.01 280.39,-203.01"/>
</g>
<!-- Node9 -->
<g id="node9" class="node">
<title>Node9</title>
<g id="a_node9"><a xlink:title=" ">
<polygon fill="none" stroke="#bfbfbf" points="335.39,-174 335.39,-193 436.39,-193 436.39,-174 335.39,-174"/>
<text text-anchor="middle" x="385.89" y="-181" font-family="Helvetica,sans-Serif" font-size="10.00">platform/debug.h</text>
</a>
</g>
</g>
<!-- Node2&#45;&gt;Node9 -->
<g id="edge9" class="edge">
<title>Node2&#45;&gt;Node9</title>
<path fill="none" stroke="midnightblue" d="M292.51,-235.48C310.48,-225.67 340.22,-209.43 361.3,-197.92"/>
<polygon fill="midnightblue" stroke="midnightblue" points="363.21,-200.87 370.31,-193.01 359.85,-194.73 363.21,-200.87"/>
</g>
<!-- Node10 -->
<g id="node10" class="node">
<title>Node10</title>
<g id="a_node10"><a xlink:title=" ">
<polygon fill="none" stroke="#bfbfbf" points="454.89,-174 454.89,-193 542.89,-193 542.89,-174 454.89,-174"/>
<text text-anchor="middle" x="498.89" y="-181" font-family="Helvetica,sans-Serif" font-size="10.00">platform/cpu.h</text>
</a>
</g>
</g>
<!-- Node2&#45;&gt;Node10 -->
<g id="edge10" class="edge">
<title>Node2&#45;&gt;Node10</title>
<path fill="none" stroke="midnightblue" d="M300.42,-237.79C333.08,-229.16 394.01,-213.01 445.89,-199 449.77,-197.95 453.81,-196.86 457.85,-195.76"/>
<polygon fill="midnightblue" stroke="midnightblue" points="459.07,-199.05 467.8,-193.05 457.23,-192.3 459.07,-199.05"/>
</g>
<!-- Node11 -->
<g id="node11" class="node">
<title>Node11</title>
<g id="a_node11"><a xlink:title=" ">
<polygon fill="none" stroke="#bfbfbf" points="560.89,-168.5 560.89,-198.5 680.89,-198.5 680.89,-168.5 560.89,-168.5"/>
<text text-anchor="start" x="568.89" y="-186.5" font-family="Helvetica,sans-Serif" font-size="10.00">hal_platform/uc_map</text>
<text text-anchor="middle" x="620.89" y="-175.5" font-family="Helvetica,sans-Serif" font-size="10.00">_impl.h</text>
</a>
</g>
</g>
<!-- Node2&#45;&gt;Node11 -->
<g id="edge11" class="edge">
<title>Node2&#45;&gt;Node11</title>
<path fill="none" stroke="midnightblue" d="M300.5,-240.5C346.61,-233.59 452.07,-217.41 550.87,-199.14"/>
<polygon fill="midnightblue" stroke="midnightblue" points="551.52,-202.58 560.72,-197.31 550.24,-195.7 551.52,-202.58"/>
</g>
<!-- Node6 -->
<g id="node6" class="node">
<title>Node6</title>
<g id="a_node6"><a xlink:href="types_2all_8h_source.html" target="_top" xlink:title=" ">
<polygon fill="none" stroke="black" points="89.89,-112.5 89.89,-131.5 157.89,-131.5 157.89,-112.5 89.89,-112.5"/>
<text text-anchor="middle" x="123.89" y="-119.5" font-family="Helvetica,sans-Serif" font-size="10.00">types/all.h</text>
</a>
</g>
</g>
<!-- Node5&#45;&gt;Node6 -->
<g id="edge5" class="edge">
<title>Node5&#45;&gt;Node6</title>
<path fill="none" stroke="midnightblue" d="M174.44,-173.98C165.33,-164.78 150.62,-149.96 139.42,-138.66"/>
<polygon fill="midnightblue" stroke="midnightblue" points="141.86,-136.15 132.33,-131.51 136.89,-141.07 141.86,-136.15"/>
</g>
<!-- Node7 -->
<g id="node7" class="node">
<title>Node7</title>
<g id="a_node7"><a xlink:href="types_2crypto_8h_source.html" target="_top" xlink:title=" ">
<polygon fill="none" stroke="black" points="62.89,-56.5 62.89,-75.5 118.89,-75.5 118.89,-56.5 62.89,-56.5"/>
<text text-anchor="middle" x="90.89" y="-63.5" font-family="Helvetica,sans-Serif" font-size="10.00">crypto.h</text>
</a>
</g>
</g>
<!-- Node6&#45;&gt;Node7 -->
<g id="edge6" class="edge">
<title>Node6&#45;&gt;Node7</title>
<path fill="none" stroke="midnightblue" d="M118.45,-112.08C113.88,-104.61 107.23,-93.72 101.6,-84.52"/>
<polygon fill="midnightblue" stroke="midnightblue" points="104.44,-82.46 96.24,-75.75 98.47,-86.11 104.44,-82.46"/>
</g>
<!-- Node7&#45;&gt;Node3 -->
<g id="edge7" class="edge">
<title>Node7&#45;&gt;Node3</title>
<path fill="none" stroke="midnightblue" d="M81.25,-56.32C72.39,-48.34 59.02,-36.31 48.29,-26.65"/>
<polygon fill="midnightblue" stroke="midnightblue" points="50.48,-23.92 40.71,-19.83 45.8,-29.13 50.48,-23.92"/>
</g>
</g>
</svg>
