<?xml version="1.0" encoding="UTF-8" standalone="no"?>
<!DOCTYPE svg PUBLIC "-//W3C//DTD SVG 1.1//EN"
 "http://www.w3.org/Graphics/SVG/1.1/DTD/svg11.dtd">
<!-- Generated by graphviz version 2.43.0 (0)
 -->
<!-- Title: CRYPTO_STATE_t Pages: 1 -->
<svg width="224pt" height="229pt"
 viewBox="0.00 0.00 224.00 229.00" xmlns="http://www.w3.org/2000/svg" xmlns:xlink="http://www.w3.org/1999/xlink">
<g id="graph0" class="graph" transform="scale(1 1) rotate(0) translate(4 225)">
<title>CRYPTO_STATE_t</title>
<!-- Node1 -->
<g id="node1" class="node">
<title>Node1</title>
<g id="a_node1"><a xlink:title=" ">
<polygon fill="#bfbfbf" stroke="black" points="6,-0.5 6,-19.5 104,-19.5 104,-0.5 6,-0.5"/>
<text text-anchor="middle" x="55" y="-7.5" font-family="Helvetica,sans-Serif" font-size="10.00">CRYPTO_STATE_t</text>
</a>
</g>
</g>
<!-- Node2 -->
<g id="node2" class="node">
<title>Node2</title>
<g id="a_node2"><a xlink:href="struct_c_r_y_p_t_o___t_r_a_n_s_a_c_t_i_o_n__t.html" target="_top" xlink:title=" ">
<polygon fill="none" stroke="black" points="76,-67.5 76,-86.5 216,-86.5 216,-67.5 76,-67.5"/>
<text text-anchor="middle" x="146" y="-74.5" font-family="Helvetica,sans-Serif" font-size="10.00">CRYPTO_TRANSACTION_t</text>
</a>
</g>
</g>
<!-- Node2&#45;&gt;Node1 -->
<g id="edge1" class="edge">
<title>Node2&#45;&gt;Node1</title>
<path fill="none" stroke="#9a32cd" stroke-dasharray="5,2" d="M125.59,-61.42C107.6,-48.57 81.99,-30.28 67.08,-19.63"/>
<polygon fill="#9a32cd" stroke="#9a32cd" points="123.56,-64.27 133.73,-67.23 127.62,-58.57 123.56,-64.27"/>
<text text-anchor="middle" x="134" y="-41" font-family="Helvetica,sans-Serif" font-size="10.00"> transaction</text>
</g>
<!-- Node3 -->
<g id="node3" class="node">
<title>Node3</title>
<g id="a_node3"><a xlink:href="struct_c_r_y_p_t_o___c_t_x__t.html" target="_top" xlink:title=" ">
<polygon fill="none" stroke="black" points="10.5,-134.5 10.5,-153.5 99.5,-153.5 99.5,-134.5 10.5,-134.5"/>
<text text-anchor="middle" x="55" y="-141.5" font-family="Helvetica,sans-Serif" font-size="10.00">CRYPTO_CTX_t</text>
</a>
</g>
</g>
<!-- Node3&#45;&gt;Node1 -->
<g id="edge4" class="edge">
<title>Node3&#45;&gt;Node1</title>
<path fill="none" stroke="#9a32cd" stroke-dasharray="5,2" d="M51.6,-123.85C49.26,-108.5 46.79,-86.39 48,-67 49.05,-50.18 51.85,-30.68 53.57,-19.7"/>
<polygon fill="#9a32cd" stroke="#9a32cd" points="48.21,-124.82 53.29,-134.12 55.12,-123.68 48.21,-124.82"/>
<text text-anchor="middle" x="57.5" y="-74.5" font-family="Helvetica,sans-Serif" font-size="10.00"> ctx</text>
</g>
<!-- Node3&#45;&gt;Node2 -->
<g id="edge2" class="edge">
<title>Node3&#45;&gt;Node2</title>
<path fill="none" stroke="#9a32cd" stroke-dasharray="5,2" d="M75.41,-128.42C93.4,-115.57 119.01,-97.28 133.92,-86.63"/>
<polygon fill="#9a32cd" stroke="#9a32cd" points="73.38,-125.57 67.27,-134.23 77.44,-131.27 73.38,-125.57"/>
<text text-anchor="middle" x="114.5" y="-108" font-family="Helvetica,sans-Serif" font-size="10.00"> ctx</text>
</g>
<!-- Node4 -->
<g id="node4" class="node">
<title>Node4</title>
<g id="a_node4"><a xlink:href="types_2crypto_8h.html#struct_c_r_y_p_t_o___p_r_o_f_i_l_e__t" target="_top" xlink:title=" ">
<polygon fill="none" stroke="black" points="0,-201.5 0,-220.5 110,-220.5 110,-201.5 0,-201.5"/>
<text text-anchor="middle" x="55" y="-208.5" font-family="Helvetica,sans-Serif" font-size="10.00">CRYPTO_PROFILE_t</text>
</a>
</g>
</g>
<!-- Node4&#45;&gt;Node3 -->
<g id="edge3" class="edge">
<title>Node4&#45;&gt;Node3</title>
<path fill="none" stroke="#9a32cd" stroke-dasharray="5,2" d="M55,-191.04C55,-178.67 55,-163.12 55,-153.63"/>
<polygon fill="#9a32cd" stroke="#9a32cd" points="51.5,-191.23 55,-201.23 58.5,-191.23 51.5,-191.23"/>
<text text-anchor="middle" x="72" y="-175" font-family="Helvetica,sans-Serif" font-size="10.00"> profile</text>
</g>
</g>
</svg>
