<?xml version="1.0" encoding="UTF-8" standalone="no"?>
<!DOCTYPE svg PUBLIC "-//W3C//DTD SVG 1.1//EN"
 "http://www.w3.org/Graphics/SVG/1.1/DTD/svg11.dtd">
<!-- Generated by graphviz version 2.43.0 (0)
 -->
<!-- Title: CRYPTO_STATE_t Pages: 1 -->
<svg width="224pt" height="225pt"
 viewBox="0.00 0.00 224.00 225.00" xmlns="http://www.w3.org/2000/svg" xmlns:xlink="http://www.w3.org/1999/xlink">
<g id="graph0" class="graph" transform="scale(1 1) rotate(0) translate(4 221)">
<title>CRYPTO_STATE_t</title>
<!-- Node1 -->
<g id="Node000001" class="node">
<title>Node1</title>
<g id="a_Node000001"><a xlink:title=" ">
<polygon fill="#999999" stroke="#666666" points="104,-19 6,-19 6,0 104,0 104,-19"/>
<text text-anchor="middle" x="55" y="-7" font-family="Helvetica,sans-Serif" font-size="10.00">CRYPTO_STATE_t</text>
</a>
</g>
</g>
<!-- Node2 -->
<g id="Node000002" class="node">
<title>Node2</title>
<g id="a_Node000002"><a xlink:href="struct_c_r_y_p_t_o___c_t_x__t.html" target="_top" xlink:title=" ">
<polygon fill="white" stroke="#666666" points="99.5,-151 10.5,-151 10.5,-132 99.5,-132 99.5,-151"/>
<text text-anchor="middle" x="55" y="-139" font-family="Helvetica,sans-Serif" font-size="10.00">CRYPTO_CTX_t</text>
</a>
</g>
</g>
<!-- Node2&#45;&gt;Node1 -->
<g id="edge1_Node000001_Node000002" class="edge">
<title>Node2&#45;&gt;Node1</title>
<g id="a_edge1_Node000001_Node000002"><a xlink:title=" ">
<path fill="none" stroke="#9a32cd" stroke-dasharray="5,2" d="M51.6,-121.73C49.28,-106.68 46.81,-85.01 48,-66 49.05,-49.33 51.85,-30.01 53.57,-19.12"/>
<polygon fill="#9a32cd" stroke="#9a32cd" points="48.19,-122.51 53.29,-131.8 55.09,-121.36 48.19,-122.51"/>
</a>
</g>
<text text-anchor="middle" x="57.5" y="-73" font-family="Helvetica,sans-Serif" font-size="10.00" fill="grey"> ctx</text>
</g>
<!-- Node4 -->
<g id="Node000004" class="node">
<title>Node4</title>
<g id="a_Node000004"><a xlink:href="struct_c_r_y_p_t_o___t_r_a_n_s_a_c_t_i_o_n__t.html" target="_top" xlink:title=" ">
<polygon fill="white" stroke="#666666" points="216,-85 76,-85 76,-66 216,-66 216,-85"/>
<text text-anchor="middle" x="146" y="-73" font-family="Helvetica,sans-Serif" font-size="10.00">CRYPTO_TRANSACTION_t</text>
</a>
</g>
</g>
<!-- Node2&#45;&gt;Node4 -->
<g id="edge4_Node000004_Node000002" class="edge">
<title>Node2&#45;&gt;Node4</title>
<g id="a_edge4_Node000004_Node000002"><a xlink:title=" ">
<path fill="none" stroke="#9a32cd" stroke-dasharray="5,2" d="M75.85,-125.83C93.7,-113.28 118.8,-95.63 133.63,-85.2"/>
<polygon fill="#9a32cd" stroke="#9a32cd" points="73.44,-123.25 67.27,-131.87 77.47,-128.98 73.44,-123.25"/>
</a>
</g>
<text text-anchor="middle" x="114.5" y="-106" font-family="Helvetica,sans-Serif" font-size="10.00" fill="grey"> ctx</text>
</g>
<!-- Node3 -->
<g id="Node000003" class="node">
<title>Node3</title>
<g id="a_Node000003"><a xlink:href="types_2crypto_8h.html#struct_c_r_y_p_t_o___p_r_o_f_i_l_e__t" target="_top" xlink:title=" ">
<polygon fill="white" stroke="#666666" points="110,-217 0,-217 0,-198 110,-198 110,-217"/>
<text text-anchor="middle" x="55" y="-205" font-family="Helvetica,sans-Serif" font-size="10.00">CRYPTO_PROFILE_t</text>
</a>
</g>
</g>
<!-- Node3&#45;&gt;Node2 -->
<g id="edge2_Node000002_Node000003" class="edge">
<title>Node3&#45;&gt;Node2</title>
<g id="a_edge2_Node000002_Node000003"><a xlink:title=" ">
<path fill="none" stroke="#9a32cd" stroke-dasharray="5,2" d="M55,-187.58C55,-175.63 55,-160.72 55,-151.41"/>
<polygon fill="#9a32cd" stroke="#9a32cd" points="51.5,-187.87 55,-197.87 58.5,-187.87 51.5,-187.87"/>
</a>
</g>
<text text-anchor="middle" x="72" y="-172" font-family="Helvetica,sans-Serif" font-size="10.00" fill="grey"> profile</text>
</g>
<!-- Node4&#45;&gt;Node1 -->
<g id="edge3_Node000001_Node000004" class="edge">
<title>Node4&#45;&gt;Node1</title>
<g id="a_edge3_Node000001_Node000004"><a xlink:title=" ">
<path fill="none" stroke="#9a32cd" stroke-dasharray="5,2" d="M125.15,-59.83C107.3,-47.28 82.2,-29.63 67.37,-19.2"/>
<polygon fill="#9a32cd" stroke="#9a32cd" points="123.53,-62.98 133.73,-65.87 127.56,-57.25 123.53,-62.98"/>
</a>
</g>
<text text-anchor="middle" x="134" y="-40" font-family="Helvetica,sans-Serif" font-size="10.00" fill="grey"> transaction</text>
</g>
</g>
</svg>
