<?xml version="1.0" encoding="UTF-8" standalone="no"?>
<!DOCTYPE svg PUBLIC "-//W3C//DTD SVG 1.1//EN"
 "http://www.w3.org/Graphics/SVG/1.1/DTD/svg11.dtd">
<!-- Generated by graphviz version 2.43.0 (0)
 -->
<!-- Title: CRYPTO_TRANSACTION_t Pages: 1 -->
<svg width="148pt" height="162pt"
 viewBox="0.00 0.00 148.00 162.00" xmlns="http://www.w3.org/2000/svg" xmlns:xlink="http://www.w3.org/1999/xlink">
<g id="graph0" class="graph" transform="scale(1 1) rotate(0) translate(4 158)">
<title>CRYPTO_TRANSACTION_t</title>
<!-- Node1 -->
<g id="node1" class="node">
<title>Node1</title>
<g id="a_node1"><a xlink:title=" ">
<polygon fill="#bfbfbf" stroke="black" points="0,-0.5 0,-19.5 140,-19.5 140,-0.5 0,-0.5"/>
<text text-anchor="middle" x="70" y="-7.5" font-family="Helvetica,sans-Serif" font-size="10.00">CRYPTO_TRANSACTION_t</text>
</a>
</g>
</g>
<!-- Node2 -->
<g id="node2" class="node">
<title>Node2</title>
<g id="a_node2"><a xlink:href="struct_c_r_y_p_t_o___c_t_x__t.html" target="_top" xlink:title=" ">
<polygon fill="none" stroke="black" points="25.5,-67.5 25.5,-86.5 114.5,-86.5 114.5,-67.5 25.5,-67.5"/>
<text text-anchor="middle" x="70" y="-74.5" font-family="Helvetica,sans-Serif" font-size="10.00">CRYPTO_CTX_t</text>
</a>
</g>
</g>
<!-- Node2&#45;&gt;Node1 -->
<g id="edge1" class="edge">
<title>Node2&#45;&gt;Node1</title>
<path fill="none" stroke="#9a32cd" stroke-dasharray="5,2" d="M70,-57.04C70,-44.67 70,-29.12 70,-19.63"/>
<polygon fill="#9a32cd" stroke="#9a32cd" points="66.5,-57.23 70,-67.23 73.5,-57.23 66.5,-57.23"/>
<text text-anchor="middle" x="79.5" y="-41" font-family="Helvetica,sans-Serif" font-size="10.00"> ctx</text>
</g>
<!-- Node3 -->
<g id="node3" class="node">
<title>Node3</title>
<g id="a_node3"><a xlink:href="types_2crypto_8h.html#struct_c_r_y_p_t_o___p_r_o_f_i_l_e__t" target="_top" xlink:title=" ">
<polygon fill="none" stroke="black" points="15,-134.5 15,-153.5 125,-153.5 125,-134.5 15,-134.5"/>
<text text-anchor="middle" x="70" y="-141.5" font-family="Helvetica,sans-Serif" font-size="10.00">CRYPTO_PROFILE_t</text>
</a>
</g>
</g>
<!-- Node3&#45;&gt;Node2 -->
<g id="edge2" class="edge">
<title>Node3&#45;&gt;Node2</title>
<path fill="none" stroke="#9a32cd" stroke-dasharray="5,2" d="M70,-124.04C70,-111.67 70,-96.12 70,-86.63"/>
<polygon fill="#9a32cd" stroke="#9a32cd" points="66.5,-124.23 70,-134.23 73.5,-124.23 66.5,-124.23"/>
<text text-anchor="middle" x="87" y="-108" font-family="Helvetica,sans-Serif" font-size="10.00"> profile</text>
</g>
</g>
</svg>
