<?xml version="1.0" encoding="UTF-8" standalone="no"?>
<!DOCTYPE svg PUBLIC "-//W3C//DTD SVG 1.1//EN"
 "http://www.w3.org/Graphics/SVG/1.1/DTD/svg11.dtd">
<!-- Generated by graphviz version 2.43.0 (0)
 -->
<!-- Title: hal/types.h Pages: 1 -->
<svg width="446pt" height="196pt"
 viewBox="0.00 0.00 445.50 196.00" xmlns="http://www.w3.org/2000/svg" xmlns:xlink="http://www.w3.org/1999/xlink">
<g id="graph0" class="graph" transform="scale(1 1) rotate(0) translate(4 192)">
<title>hal/types.h</title>
<!-- Node1 -->
<g id="node1" class="node">
<title>Node1</title>
<g id="a_node1"><a xlink:title=" ">
<polygon fill="#bfbfbf" stroke="black" points="215,-168.5 215,-187.5 286,-187.5 286,-168.5 215,-168.5"/>
<text text-anchor="middle" x="250.5" y="-175.5" font-family="Helvetica,sans-Serif" font-size="10.00">hal/types.h</text>
</a>
</g>
</g>
<!-- Node2 -->
<g id="node2" class="node">
<title>Node2</title>
<g id="a_node2"><a xlink:href="types_2all_8h.html" target="_top" xlink:title=" ">
<polygon fill="none" stroke="black" points="216.5,-112.5 216.5,-131.5 284.5,-131.5 284.5,-112.5 216.5,-112.5"/>
<text text-anchor="middle" x="250.5" y="-119.5" font-family="Helvetica,sans-Serif" font-size="10.00">types/all.h</text>
</a>
</g>
</g>
<!-- Node1&#45;&gt;Node2 -->
<g id="edge1" class="edge">
<title>Node1&#45;&gt;Node2</title>
<path fill="none" stroke="midnightblue" d="M250.5,-168.08C250.5,-161.01 250.5,-150.86 250.5,-141.99"/>
<polygon fill="midnightblue" stroke="midnightblue" points="254,-141.75 250.5,-131.75 247,-141.75 254,-141.75"/>
</g>
<!-- Node3 -->
<g id="node3" class="node">
<title>Node3</title>
<g id="a_node3"><a xlink:href="types_2crypto_8h.html" target="_top" xlink:title=" ">
<polygon fill="none" stroke="black" points="141.5,-56.5 141.5,-75.5 197.5,-75.5 197.5,-56.5 141.5,-56.5"/>
<text text-anchor="middle" x="169.5" y="-63.5" font-family="Helvetica,sans-Serif" font-size="10.00">crypto.h</text>
</a>
</g>
</g>
<!-- Node2&#45;&gt;Node3 -->
<g id="edge2" class="edge">
<title>Node2&#45;&gt;Node3</title>
<path fill="none" stroke="midnightblue" d="M237.49,-112.32C224.97,-103.98 205.82,-91.21 191.03,-81.35"/>
<polygon fill="midnightblue" stroke="midnightblue" points="192.74,-78.29 182.48,-75.65 188.86,-84.11 192.74,-78.29"/>
</g>
<!-- Node6 -->
<g id="node6" class="node">
<title>Node6</title>
<g id="a_node6"><a xlink:href="types_2rtc_8h.html" target="_top" xlink:title=" ">
<polygon fill="none" stroke="black" points="231.5,-56.5 231.5,-75.5 269.5,-75.5 269.5,-56.5 231.5,-56.5"/>
<text text-anchor="middle" x="250.5" y="-63.5" font-family="Helvetica,sans-Serif" font-size="10.00">rtc.h</text>
</a>
</g>
</g>
<!-- Node2&#45;&gt;Node6 -->
<g id="edge5" class="edge">
<title>Node2&#45;&gt;Node6</title>
<path fill="none" stroke="midnightblue" d="M250.5,-112.08C250.5,-105.01 250.5,-94.86 250.5,-85.99"/>
<polygon fill="midnightblue" stroke="midnightblue" points="254,-85.75 250.5,-75.75 247,-85.75 254,-85.75"/>
</g>
<!-- Node8 -->
<g id="node8" class="node">
<title>Node8</title>
<g id="a_node8"><a xlink:href="types_2uart_8h.html" target="_top" xlink:title=" ">
<polygon fill="none" stroke="black" points="327,-56.5 327,-75.5 372,-75.5 372,-56.5 327,-56.5"/>
<text text-anchor="middle" x="349.5" y="-63.5" font-family="Helvetica,sans-Serif" font-size="10.00">uart.h</text>
</a>
</g>
</g>
<!-- Node2&#45;&gt;Node8 -->
<g id="edge8" class="edge">
<title>Node2&#45;&gt;Node8</title>
<path fill="none" stroke="midnightblue" d="M266.41,-112.32C282.14,-103.74 306.44,-90.49 324.71,-80.52"/>
<polygon fill="midnightblue" stroke="midnightblue" points="326.53,-83.52 333.63,-75.65 323.18,-77.37 326.53,-83.52"/>
</g>
<!-- Node4 -->
<g id="node4" class="node">
<title>Node4</title>
<g id="a_node4"><a xlink:title=" ">
<polygon fill="none" stroke="#bfbfbf" points="143,-0.5 143,-19.5 196,-19.5 196,-0.5 143,-0.5"/>
<text text-anchor="middle" x="169.5" y="-7.5" font-family="Helvetica,sans-Serif" font-size="10.00">stdint.h</text>
</a>
</g>
</g>
<!-- Node3&#45;&gt;Node4 -->
<g id="edge3" class="edge">
<title>Node3&#45;&gt;Node4</title>
<path fill="none" stroke="midnightblue" d="M169.5,-56.08C169.5,-49.01 169.5,-38.86 169.5,-29.99"/>
<polygon fill="midnightblue" stroke="midnightblue" points="173,-29.75 169.5,-19.75 166,-29.75 173,-29.75"/>
</g>
<!-- Node5 -->
<g id="node5" class="node">
<title>Node5</title>
<g id="a_node5"><a xlink:href="constants_2crypto_8h.html" target="_top" xlink:title=" ">
<polygon fill="none" stroke="black" points="0,-0.5 0,-19.5 125,-19.5 125,-0.5 0,-0.5"/>
<text text-anchor="middle" x="62.5" y="-7.5" font-family="Helvetica,sans-Serif" font-size="10.00">hal/constants/crypto.h</text>
</a>
</g>
</g>
<!-- Node3&#45;&gt;Node5 -->
<g id="edge4" class="edge">
<title>Node3&#45;&gt;Node5</title>
<path fill="none" stroke="midnightblue" d="M152.31,-56.32C135.15,-47.66 108.55,-34.24 88.75,-24.25"/>
<polygon fill="midnightblue" stroke="midnightblue" points="90.15,-21.04 79.65,-19.65 87,-27.28 90.15,-21.04"/>
</g>
<!-- Node6&#45;&gt;Node4 -->
<g id="edge6" class="edge">
<title>Node6&#45;&gt;Node4</title>
<path fill="none" stroke="midnightblue" d="M237.49,-56.32C224.97,-47.98 205.82,-35.21 191.03,-25.35"/>
<polygon fill="midnightblue" stroke="midnightblue" points="192.74,-22.29 182.48,-19.65 188.86,-28.11 192.74,-22.29"/>
</g>
<!-- Node7 -->
<g id="node7" class="node">
<title>Node7</title>
<g id="a_node7"><a xlink:href="constants_2rtc_8h.html" target="_top" xlink:title=" ">
<polygon fill="none" stroke="black" points="214,-0.5 214,-19.5 321,-19.5 321,-0.5 214,-0.5"/>
<text text-anchor="middle" x="267.5" y="-7.5" font-family="Helvetica,sans-Serif" font-size="10.00">hal/constants/rtc.h</text>
</a>
</g>
</g>
<!-- Node6&#45;&gt;Node7 -->
<g id="edge7" class="edge">
<title>Node6&#45;&gt;Node7</title>
<path fill="none" stroke="midnightblue" d="M253.31,-56.08C255.58,-48.85 258.87,-38.41 261.71,-29.4"/>
<polygon fill="midnightblue" stroke="midnightblue" points="265.08,-30.34 264.75,-19.75 258.4,-28.24 265.08,-30.34"/>
</g>
<!-- Node9 -->
<g id="node9" class="node">
<title>Node9</title>
<g id="a_node9"><a xlink:title=" ">
<polygon fill="none" stroke="#bfbfbf" points="339.5,-0.5 339.5,-19.5 437.5,-19.5 437.5,-0.5 339.5,-0.5"/>
<text text-anchor="middle" x="388.5" y="-7.5" font-family="Helvetica,sans-Serif" font-size="10.00">platform/types.h</text>
</a>
</g>
</g>
<!-- Node8&#45;&gt;Node9 -->
<g id="edge9" class="edge">
<title>Node8&#45;&gt;Node9</title>
<path fill="none" stroke="midnightblue" d="M355.94,-56.08C361.45,-48.46 369.53,-37.26 376.26,-27.94"/>
<polygon fill="midnightblue" stroke="midnightblue" points="379.16,-29.91 382.18,-19.75 373.49,-25.81 379.16,-29.91"/>
</g>
</g>
</svg>
