<?xml version="1.0" encoding="UTF-8" standalone="no"?>
<!DOCTYPE svg PUBLIC "-//W3C//DTD SVG 1.1//EN"
 "http://www.w3.org/Graphics/SVG/1.1/DTD/svg11.dtd">
<!-- Generated by graphviz version 2.43.0 (0)
 -->
<!-- Title: hal/types/rtc.h Pages: 1 -->
<svg width="186pt" height="82pt"
 viewBox="0.00 0.00 186.00 82.00" xmlns="http://www.w3.org/2000/svg" xmlns:xlink="http://www.w3.org/1999/xlink">
<g id="graph0" class="graph" transform="scale(1 1) rotate(0) translate(4 78)">
<title>hal/types/rtc.h</title>
<!-- Node1 -->
<g id="Node000001" class="node">
<title>Node1</title>
<g id="a_Node000001"><a xlink:title=" ">
<polygon fill="#999999" stroke="#666666" points="118.5,-74 32.5,-74 32.5,-55 118.5,-55 118.5,-74"/>
<text text-anchor="middle" x="75.5" y="-62" font-family="Helvetica,sans-Serif" font-size="10.00">hal/types/rtc.h</text>
</a>
</g>
</g>
<!-- Node2 -->
<g id="Node000002" class="node">
<title>Node2</title>
<g id="a_Node000002"><a xlink:title=" ">
<polygon fill="#e0e0e0" stroke="#999999" points="53,-19 0,-19 0,0 53,0 53,-19"/>
<text text-anchor="middle" x="26.5" y="-7" font-family="Helvetica,sans-Serif" font-size="10.00">stdint.h</text>
</a>
</g>
</g>
<!-- Node1&#45;&gt;Node2 -->
<g id="edge1_Node000001_Node000002" class="edge">
<title>Node1&#45;&gt;Node2</title>
<g id="a_edge1_Node000001_Node000002"><a xlink:title=" ">
<path fill="none" stroke="#63b8ff" d="M67.41,-54.75C60.34,-47.11 49.91,-35.82 41.35,-26.56"/>
<polygon fill="#63b8ff" stroke="#63b8ff" points="43.8,-24.06 34.44,-19.09 38.66,-28.81 43.8,-24.06"/>
</a>
</g>
</g>
<!-- Node3 -->
<g id="Node000003" class="node">
<title>Node3</title>
<g id="a_Node000003"><a xlink:href="constants_2rtc_8h.html" target="_top" xlink:title=" ">
<polygon fill="white" stroke="#666666" points="178,-19 71,-19 71,0 178,0 178,-19"/>
<text text-anchor="middle" x="124.5" y="-7" font-family="Helvetica,sans-Serif" font-size="10.00">hal/constants/rtc.h</text>
</a>
</g>
</g>
<!-- Node1&#45;&gt;Node3 -->
<g id="edge2_Node000001_Node000003" class="edge">
<title>Node1&#45;&gt;Node3</title>
<g id="a_edge2_Node000001_Node000003"><a xlink:title=" ">
<path fill="none" stroke="#63b8ff" d="M83.59,-54.75C90.66,-47.11 101.09,-35.82 109.65,-26.56"/>
<polygon fill="#63b8ff" stroke="#63b8ff" points="112.34,-28.81 116.56,-19.09 107.2,-24.06 112.34,-28.81"/>
</a>
</g>
</g>
</g>
</svg>
