<?xml version="1.0" encoding="UTF-8" standalone="no"?>
<!DOCTYPE svg PUBLIC "-//W3C//DTD SVG 1.1//EN"
 "http://www.w3.org/Graphics/SVG/1.1/DTD/svg11.dtd">
<!-- Generated by graphviz version 2.43.0 (0)
 -->
<!-- Title: hal/uc/all.h Pages: 1 -->
<!--zoomable 375 -->
<svg id="main" version="1.1" xmlns="http://www.w3.org/2000/svg" xmlns:xlink="http://www.w3.org/1999/xlink" xml:space="preserve" onload="init(evt)">
<style type="text/css"><![CDATA[
.edge:hover path { stroke: red; }
.edge:hover polygon { stroke: red; fill: red; }
]]></style>
<script type="text/javascript"><![CDATA[
var edges = document.getElementsByTagName('g');
if (edges && edges.length) {
  for (var i=0;i<edges.length;i++) {
    if (edges[i].id.substr(0,4)=='edge') {
      edges[i].setAttribute('class','edge');
    }
  }
}
]]></script>
        <defs>
                <circle id="rim" cx="0" cy="0" r="7"/>
                <circle id="rim2" cx="0" cy="0" r="3.5"/>
                <g id="zoomPlus">
                        <use xlink:href="#rim" fill="#404040">
                                <set attributeName="fill" to="#808080" begin="zoomplus.mouseover" end="zoomplus.mouseout"/>
                        </use>
                        <path d="M-4,0h8M0,-4v8" fill="none" stroke="white" stroke-width="1.5" pointer-events="none"/>
                </g>
                <g id="zoomMin">
                        <use xlink:href="#rim" fill="#404040">
                                <set attributeName="fill" to="#808080" begin="zoomminus.mouseover" end="zoomminus.mouseout"/>
                        </use>
                        <path d="M-4,0h8" fill="none" stroke="white" stroke-width="1.5" pointer-events="none"/>
                </g>
                <g id="dirArrow">
                        <path fill="none" stroke="white" stroke-width="1.5" d="M0,-3.0v7 M-2.5,-0.5L0,-3.0L2.5,-0.5"/>
                </g>
               <g id="resetDef">
                       <use xlink:href="#rim2" fill="#404040">
                               <set attributeName="fill" to="#808080" begin="reset.mouseover" end="reset.mouseout"/>
                       </use>
               </g>
        </defs>

<script type="text/javascript">
var viewWidth = 1179;
var viewHeight = 375;
var sectionId = 'dynsection-0';
</script>
<script xlink:href="svgpan.js"/>
<svg id="graph" class="graph">
<g id="viewport">
<title>hal/uc/all.h</title>
<!-- Node1 -->
<g id="node1" class="node">
<title>Node1</title>
<g id="a_node1"><a xlink:title=" ">
<polygon fill="#bfbfbf" stroke="black" points="668.5,-347.5 668.5,-366.5 738.5,-366.5 738.5,-347.5 668.5,-347.5"/>
<text text-anchor="middle" x="703.5" y="-354.5" font-family="Helvetica,sans-Serif" font-size="10.00">hal/uc/all.h</text>
</a>
</g>
</g>
<!-- Node2 -->
<g id="node2" class="node">
<title>Node2</title>
<g id="a_node2"><a xlink:href="map_8h.html" target="_top" xlink:title="HAL for uC Peripheral Map.">
<polygon fill="none" stroke="black" points="712,-235.5 712,-254.5 759,-254.5 759,-235.5 712,-235.5"/>
<text text-anchor="middle" x="735.5" y="-242.5" font-family="Helvetica,sans-Serif" font-size="10.00">map.h</text>
</a>
</g>
</g>
<!-- Node1&#45;&gt;Node2 -->
<g id="edge1" class="edge">
<title>Node1&#45;&gt;Node2</title>
<path fill="none" stroke="midnightblue" d="M738.74,-352.23C785.72,-346.39 865.01,-333.43 882.5,-311 914.44,-270.03 822.18,-254.27 769.47,-248.73"/>
<polygon fill="midnightblue" stroke="midnightblue" points="769.49,-245.21 759.2,-247.72 768.81,-252.18 769.49,-245.21"/>
</g>
<!-- Node16 -->
<g id="node16" class="node">
<title>Node16</title>
<g id="a_node16"><a xlink:href="core_8h.html" target="_top" xlink:title="HAL for uC Core peripherals.">
<polygon fill="none" stroke="black" points="231,-291.5 231,-310.5 278,-310.5 278,-291.5 231,-291.5"/>
<text text-anchor="middle" x="254.5" y="-298.5" font-family="Helvetica,sans-Serif" font-size="10.00">core.h</text>
</a>
</g>
</g>
<!-- Node1&#45;&gt;Node16 -->
<g id="edge18" class="edge">
<title>Node1&#45;&gt;Node16</title>
<path fill="none" stroke="midnightblue" d="M668.4,-353.39C597.57,-347.85 432.62,-333.55 295.5,-311 293.13,-310.61 290.7,-310.17 288.25,-309.71"/>
<polygon fill="midnightblue" stroke="midnightblue" points="288.76,-306.24 278.27,-307.66 287.36,-313.1 288.76,-306.24"/>
</g>
<!-- Node19 -->
<g id="node19" class="node">
<title>Node19</title>
<g id="a_node19"><a xlink:href="uc_2crypto_8h.html" target="_top" xlink:title=" ">
<polygon fill="none" stroke="black" points="929.5,-291.5 929.5,-310.5 985.5,-310.5 985.5,-291.5 929.5,-291.5"/>
<text text-anchor="middle" x="957.5" y="-298.5" font-family="Helvetica,sans-Serif" font-size="10.00">crypto.h</text>
</a>
</g>
</g>
<!-- Node1&#45;&gt;Node19 -->
<g id="edge22" class="edge">
<title>Node1&#45;&gt;Node19</title>
<path fill="none" stroke="midnightblue" d="M738.76,-348.54C780.84,-339.63 853.31,-324.26 915.5,-311 916.77,-310.73 918.07,-310.45 919.37,-310.17"/>
<polygon fill="midnightblue" stroke="midnightblue" points="920.44,-313.52 929.49,-308.01 918.98,-306.68 920.44,-313.52"/>
</g>
<!-- Node20 -->
<g id="node20" class="node">
<title>Node20</title>
<g id="a_node20"><a xlink:href="gpio_8h.html" target="_top" xlink:title="HAL for uC GPIOs.">
<polygon fill="none" stroke="black" points="305,-291.5 305,-310.5 352,-310.5 352,-291.5 305,-291.5"/>
<text text-anchor="middle" x="328.5" y="-298.5" font-family="Helvetica,sans-Serif" font-size="10.00">gpio.h</text>
</a>
</g>
</g>
<!-- Node1&#45;&gt;Node20 -->
<g id="edge24" class="edge">
<title>Node1&#45;&gt;Node20</title>
<path fill="none" stroke="midnightblue" d="M668.16,-353.05C607.37,-347.62 478.97,-334.55 362.01,-311.07"/>
<polygon fill="midnightblue" stroke="midnightblue" points="362.67,-307.63 352.17,-309.07 361.27,-314.49 362.67,-307.63"/>
</g>
<!-- Node21 -->
<g id="node21" class="node">
<title>Node21</title>
<g id="a_node21"><a xlink:href="id_8h.html" target="_top" xlink:title="HAL for uC ID.">
<polygon fill="none" stroke="black" points="370,-291.5 370,-310.5 405,-310.5 405,-291.5 370,-291.5"/>
<text text-anchor="middle" x="387.5" y="-298.5" font-family="Helvetica,sans-Serif" font-size="10.00">id.h</text>
</a>
</g>
</g>
<!-- Node1&#45;&gt;Node21 -->
<g id="edge27" class="edge">
<title>Node1&#45;&gt;Node21</title>
<path fill="none" stroke="midnightblue" d="M668.28,-352.6C615.12,-347.01 511.18,-334.37 415.14,-311.06"/>
<polygon fill="midnightblue" stroke="midnightblue" points="415.82,-307.63 405.28,-308.62 414.14,-314.42 415.82,-307.63"/>
</g>
<!-- Node22 -->
<g id="node22" class="node">
<title>Node22</title>
<g id="a_node22"><a xlink:href="eeprom_8h.html" target="_top" xlink:title="HAL for uC EEPROM peripherals.">
<polygon fill="none" stroke="black" points="423,-291.5 423,-310.5 486,-310.5 486,-291.5 423,-291.5"/>
<text text-anchor="middle" x="454.5" y="-298.5" font-family="Helvetica,sans-Serif" font-size="10.00">eeprom.h</text>
</a>
</g>
</g>
<!-- Node1&#45;&gt;Node22 -->
<g id="edge29" class="edge">
<title>Node1&#45;&gt;Node22</title>
<path fill="none" stroke="midnightblue" d="M668.16,-348.39C628.71,-339.88 562.7,-325.63 496.11,-311.13"/>
<polygon fill="midnightblue" stroke="midnightblue" points="496.8,-307.7 486.28,-308.99 495.31,-314.54 496.8,-307.7"/>
</g>
<!-- Node23 -->
<g id="node23" class="node">
<title>Node23</title>
<g id="a_node23"><a xlink:href="entropy_8h.html" target="_top" xlink:title="HAL for uC entropy source.">
<polygon fill="none" stroke="black" points="504.5,-291.5 504.5,-310.5 566.5,-310.5 566.5,-291.5 504.5,-291.5"/>
<text text-anchor="middle" x="535.5" y="-298.5" font-family="Helvetica,sans-Serif" font-size="10.00">entropy.h</text>
</a>
</g>
</g>
<!-- Node1&#45;&gt;Node23 -->
<g id="edge31" class="edge">
<title>Node1&#45;&gt;Node23</title>
<path fill="none" stroke="midnightblue" d="M676.88,-347.44C648.49,-338.32 603.36,-323.81 571.75,-313.65"/>
<polygon fill="midnightblue" stroke="midnightblue" points="572.59,-310.24 562,-310.52 570.44,-316.91 572.59,-310.24"/>
</g>
<!-- Node24 -->
<g id="node24" class="node">
<title>Node24</title>
<g id="a_node24"><a xlink:href="uc_2adc_8h.html" target="_top" xlink:title="HAL for uC Internal ADC interfaces.">
<polygon fill="none" stroke="black" points="585,-291.5 585,-310.5 628,-310.5 628,-291.5 585,-291.5"/>
<text text-anchor="middle" x="606.5" y="-298.5" font-family="Helvetica,sans-Serif" font-size="10.00">adc.h</text>
</a>
</g>
</g>
<!-- Node1&#45;&gt;Node24 -->
<g id="edge33" class="edge">
<title>Node1&#45;&gt;Node24</title>
<path fill="none" stroke="midnightblue" d="M687.92,-347.32C672.5,-338.74 648.69,-325.49 630.79,-315.52"/>
<polygon fill="midnightblue" stroke="midnightblue" points="632.49,-312.46 622.05,-310.65 629.08,-318.58 632.49,-312.46"/>
</g>
<!-- Node25 -->
<g id="node25" class="node">
<title>Node25</title>
<g id="a_node25"><a xlink:href="uc_2timer_8h.html" target="_top" xlink:title="HAL for uC Timers.">
<polygon fill="none" stroke="black" points="646,-291.5 646,-310.5 697,-310.5 697,-291.5 646,-291.5"/>
<text text-anchor="middle" x="671.5" y="-298.5" font-family="Helvetica,sans-Serif" font-size="10.00">timer.h</text>
</a>
</g>
</g>
<!-- Node1&#45;&gt;Node25 -->
<g id="edge35" class="edge">
<title>Node1&#45;&gt;Node25</title>
<path fill="none" stroke="midnightblue" d="M698.22,-347.08C693.79,-339.61 687.34,-328.72 681.88,-319.52"/>
<polygon fill="midnightblue" stroke="midnightblue" points="684.79,-317.57 676.69,-310.75 678.77,-321.14 684.79,-317.57"/>
</g>
<!-- Node26 -->
<g id="node26" class="node">
<title>Node26</title>
<g id="a_node26"><a xlink:href="uc_2uart_8h.html" target="_top" xlink:title=" ">
<polygon fill="none" stroke="black" points="1004,-291.5 1004,-310.5 1049,-310.5 1049,-291.5 1004,-291.5"/>
<text text-anchor="middle" x="1026.5" y="-298.5" font-family="Helvetica,sans-Serif" font-size="10.00">uart.h</text>
</a>
</g>
</g>
<!-- Node1&#45;&gt;Node26 -->
<g id="edge37" class="edge">
<title>Node1&#45;&gt;Node26</title>
<path fill="none" stroke="midnightblue" d="M738.69,-351.95C791.83,-345.54 895.87,-331.8 993.79,-310.91"/>
<polygon fill="midnightblue" stroke="midnightblue" points="994.83,-314.27 1003.86,-308.73 993.35,-307.43 994.83,-314.27"/>
</g>
<!-- Node29 -->
<g id="node29" class="node">
<title>Node29</title>
<g id="a_node29"><a xlink:href="spi_8h.html" target="_top" xlink:title="HAL for SPI interfaces.">
<polygon fill="none" stroke="black" points="715.5,-291.5 715.5,-310.5 755.5,-310.5 755.5,-291.5 715.5,-291.5"/>
<text text-anchor="middle" x="735.5" y="-298.5" font-family="Helvetica,sans-Serif" font-size="10.00">spi.h</text>
</a>
</g>
</g>
<!-- Node1&#45;&gt;Node29 -->
<g id="edge41" class="edge">
<title>Node1&#45;&gt;Node29</title>
<path fill="none" stroke="midnightblue" d="M708.78,-347.08C713.21,-339.61 719.66,-328.72 725.12,-319.52"/>
<polygon fill="midnightblue" stroke="midnightblue" points="728.23,-321.14 730.31,-310.75 722.21,-317.57 728.23,-321.14"/>
</g>
<!-- Node30 -->
<g id="node30" class="node">
<title>Node30</title>
<g id="a_node30"><a xlink:href="usb_8h.html" target="_top" xlink:title="HAL for USB interface.">
<polygon fill="none" stroke="black" points="774,-291.5 774,-310.5 817,-310.5 817,-291.5 774,-291.5"/>
<text text-anchor="middle" x="795.5" y="-298.5" font-family="Helvetica,sans-Serif" font-size="10.00">usb.h</text>
</a>
</g>
</g>
<!-- Node1&#45;&gt;Node30 -->
<g id="edge43" class="edge">
<title>Node1&#45;&gt;Node30</title>
<path fill="none" stroke="midnightblue" d="M718.28,-347.32C732.77,-338.82 755.07,-325.73 771.99,-315.8"/>
<polygon fill="midnightblue" stroke="midnightblue" points="773.9,-318.74 780.76,-310.65 770.36,-312.7 773.9,-318.74"/>
</g>
<!-- Node31 -->
<g id="node31" class="node">
<title>Node31</title>
<g id="a_node31"><a xlink:href="usbcdc_8h.html" target="_top" xlink:title="HAL for USB CDC interface.">
<polygon fill="none" stroke="black" points="1067,-291.5 1067,-310.5 1126,-310.5 1126,-291.5 1067,-291.5"/>
<text text-anchor="middle" x="1096.5" y="-298.5" font-family="Helvetica,sans-Serif" font-size="10.00">usbcdc.h</text>
</a>
</g>
</g>
<!-- Node1&#45;&gt;Node31 -->
<g id="edge45" class="edge">
<title>Node1&#45;&gt;Node31</title>
<path fill="none" stroke="midnightblue" d="M738.71,-352.79C801.01,-346.84 934.9,-332.85 1056.82,-311.16"/>
<polygon fill="midnightblue" stroke="midnightblue" points="1057.47,-314.59 1066.69,-309.38 1056.23,-307.7 1057.47,-314.59"/>
</g>
<!-- Node32 -->
<g id="node32" class="node">
<title>Node32</title>
<g id="a_node32"><a xlink:href="uc_2rtc_8h.html" target="_top" xlink:title="HAL for uC RTCs.">
<polygon fill="none" stroke="black" points="835.5,-291.5 835.5,-310.5 873.5,-310.5 873.5,-291.5 835.5,-291.5"/>
<text text-anchor="middle" x="854.5" y="-298.5" font-family="Helvetica,sans-Serif" font-size="10.00">rtc.h</text>
</a>
</g>
</g>
<!-- Node1&#45;&gt;Node32 -->
<g id="edge49" class="edge">
<title>Node1&#45;&gt;Node32</title>
<path fill="none" stroke="midnightblue" d="M727.43,-347.44C754.09,-337.91 797.19,-322.49 825.69,-312.3"/>
<polygon fill="midnightblue" stroke="midnightblue" points="827.23,-315.47 835.47,-308.81 824.87,-308.88 827.23,-315.47"/>
</g>
<!-- Node3 -->
<g id="node3" class="node">
<title>Node3</title>
<g id="a_node3"><a xlink:title=" ">
<polygon fill="none" stroke="#bfbfbf" points="968,-0.5 968,-19.5 1021,-19.5 1021,-0.5 968,-0.5"/>
<text text-anchor="middle" x="994.5" y="-7.5" font-family="Helvetica,sans-Serif" font-size="10.00">stdint.h</text>
</a>
</g>
</g>
<!-- Node2&#45;&gt;Node3 -->
<g id="edge2" class="edge">
<title>Node2&#45;&gt;Node3</title>
<path fill="none" stroke="midnightblue" d="M759.41,-240.48C787.45,-235.37 834.2,-223.66 866.5,-199 928.2,-151.9 970.62,-66.27 986.99,-29.06"/>
<polygon fill="midnightblue" stroke="midnightblue" points="990.35,-30.12 991.07,-19.55 983.91,-27.36 990.35,-30.12"/>
</g>
<!-- Node4 -->
<g id="node4" class="node">
<title>Node4</title>
<g id="a_node4"><a xlink:title=" ">
<polygon fill="none" stroke="#bfbfbf" points="583.5,-0.5 583.5,-19.5 681.5,-19.5 681.5,-0.5 583.5,-0.5"/>
<text text-anchor="middle" x="632.5" y="-7.5" font-family="Helvetica,sans-Serif" font-size="10.00">platform/types.h</text>
</a>
</g>
</g>
<!-- Node2&#45;&gt;Node4 -->
<g id="edge3" class="edge">
<title>Node2&#45;&gt;Node4</title>
<path fill="none" stroke="midnightblue" d="M735.64,-235.31C735.61,-220.91 734.48,-191.39 726.5,-168 707.52,-112.35 666.85,-55.11 645.78,-27.66"/>
<polygon fill="midnightblue" stroke="midnightblue" points="648.35,-25.27 639.44,-19.54 642.83,-29.58 648.35,-25.27"/>
</g>
<!-- Node5 -->
<g id="node5" class="node">
<title>Node5</title>
<g id="a_node5"><a xlink:href="types_8h.html" target="_top" xlink:title=" ">
<polygon fill="none" stroke="black" points="786,-174 786,-193 857,-193 857,-174 786,-174"/>
<text text-anchor="middle" x="821.5" y="-181" font-family="Helvetica,sans-Serif" font-size="10.00">hal/types.h</text>
</a>
</g>
</g>
<!-- Node2&#45;&gt;Node5 -->
<g id="edge4" class="edge">
<title>Node2&#45;&gt;Node5</title>
<path fill="none" stroke="midnightblue" d="M747.82,-235.48C761.62,-225.93 784.2,-210.31 800.73,-198.87"/>
<polygon fill="midnightblue" stroke="midnightblue" points="802.97,-201.58 809.2,-193.01 798.99,-195.82 802.97,-201.58"/>
</g>
<!-- Node12 -->
<g id="node12" class="node">
<title>Node12</title>
<g id="a_node12"><a xlink:title=" ">
<polygon fill="none" stroke="#bfbfbf" points="996.5,-174 996.5,-193 1076.5,-193 1076.5,-174 996.5,-174"/>
<text text-anchor="middle" x="1036.5" y="-181" font-family="Helvetica,sans-Serif" font-size="10.00">application.h</text>
</a>
</g>
</g>
<!-- Node2&#45;&gt;Node12 -->
<g id="edge14" class="edge">
<title>Node2&#45;&gt;Node12</title>
<path fill="none" stroke="midnightblue" d="M759.13,-240.36C803.25,-233.41 901.06,-217.32 982.5,-199 986.99,-197.99 991.67,-196.86 996.31,-195.68"/>
<polygon fill="midnightblue" stroke="midnightblue" points="997.54,-198.98 1006.33,-193.07 995.78,-192.2 997.54,-198.98"/>
</g>
<!-- Node13 -->
<g id="node13" class="node">
<title>Node13</title>
<g id="a_node13"><a xlink:title=" ">
<polygon fill="none" stroke="#bfbfbf" points="372,-174 372,-193 473,-193 473,-174 372,-174"/>
<text text-anchor="middle" x="422.5" y="-181" font-family="Helvetica,sans-Serif" font-size="10.00">platform/debug.h</text>
</a>
</g>
</g>
<!-- Node2&#45;&gt;Node13 -->
<g id="edge15" class="edge">
<title>Node2&#45;&gt;Node13</title>
<path fill="none" stroke="midnightblue" d="M711.69,-240.26C666.73,-233.1 566.34,-216.57 482.5,-199 477.19,-197.89 471.63,-196.65 466.14,-195.37"/>
<polygon fill="midnightblue" stroke="midnightblue" points="466.91,-191.96 456.37,-193.07 465.3,-198.77 466.91,-191.96"/>
</g>
<!-- Node14 -->
<g id="node14" class="node">
<title>Node14</title>
<g id="a_node14"><a xlink:title=" ">
<polygon fill="none" stroke="#bfbfbf" points="491.5,-174 491.5,-193 579.5,-193 579.5,-174 491.5,-174"/>
<text text-anchor="middle" x="535.5" y="-181" font-family="Helvetica,sans-Serif" font-size="10.00">platform/cpu.h</text>
</a>
</g>
</g>
<!-- Node2&#45;&gt;Node14 -->
<g id="edge16" class="edge">
<title>Node2&#45;&gt;Node14</title>
<path fill="none" stroke="midnightblue" d="M711.77,-236.94C677.74,-226.82 614.7,-208.06 573.96,-195.94"/>
<polygon fill="midnightblue" stroke="midnightblue" points="574.94,-192.58 564.36,-193.09 572.95,-199.29 574.94,-192.58"/>
</g>
<!-- Node15 -->
<g id="node15" class="node">
<title>Node15</title>
<g id="a_node15"><a xlink:title=" ">
<polygon fill="none" stroke="#bfbfbf" points="597.5,-168.5 597.5,-198.5 717.5,-198.5 717.5,-168.5 597.5,-168.5"/>
<text text-anchor="start" x="605.5" y="-186.5" font-family="Helvetica,sans-Serif" font-size="10.00">hal_platform/uc_map</text>
<text text-anchor="middle" x="657.5" y="-175.5" font-family="Helvetica,sans-Serif" font-size="10.00">_impl.h</text>
</a>
</g>
</g>
<!-- Node2&#45;&gt;Node15 -->
<g id="edge17" class="edge">
<title>Node2&#45;&gt;Node15</title>
<path fill="none" stroke="midnightblue" d="M724.32,-235.48C713.86,-227.49 697.82,-215.25 684.07,-204.77"/>
<polygon fill="midnightblue" stroke="midnightblue" points="685.96,-201.81 675.88,-198.52 681.71,-207.37 685.96,-201.81"/>
</g>
<!-- Node6 -->
<g id="node6" class="node">
<title>Node6</title>
<g id="a_node6"><a xlink:href="types_2all_8h.html" target="_top" xlink:title=" ">
<polygon fill="none" stroke="black" points="790.5,-112.5 790.5,-131.5 858.5,-131.5 858.5,-112.5 790.5,-112.5"/>
<text text-anchor="middle" x="824.5" y="-119.5" font-family="Helvetica,sans-Serif" font-size="10.00">types/all.h</text>
</a>
</g>
</g>
<!-- Node5&#45;&gt;Node6 -->
<g id="edge5" class="edge">
<title>Node5&#45;&gt;Node6</title>
<path fill="none" stroke="midnightblue" d="M821.93,-173.98C822.35,-165.58 823.01,-152.48 823.56,-141.66"/>
<polygon fill="midnightblue" stroke="midnightblue" points="827.06,-141.67 824.07,-131.51 820.07,-141.32 827.06,-141.67"/>
</g>
<!-- Node7 -->
<g id="node7" class="node">
<title>Node7</title>
<g id="a_node7"><a xlink:href="types_2crypto_8h.html" target="_top" xlink:title=" ">
<polygon fill="none" stroke="black" points="884.5,-56.5 884.5,-75.5 940.5,-75.5 940.5,-56.5 884.5,-56.5"/>
<text text-anchor="middle" x="912.5" y="-63.5" font-family="Helvetica,sans-Serif" font-size="10.00">crypto.h</text>
</a>
</g>
</g>
<!-- Node6&#45;&gt;Node7 -->
<g id="edge6" class="edge">
<title>Node6&#45;&gt;Node7</title>
<path fill="none" stroke="midnightblue" d="M838.64,-112.32C852.37,-103.9 873.44,-90.97 889.56,-81.07"/>
<polygon fill="midnightblue" stroke="midnightblue" points="891.7,-83.87 898.4,-75.65 888.04,-77.9 891.7,-83.87"/>
</g>
<!-- Node9 -->
<g id="node9" class="node">
<title>Node9</title>
<g id="a_node9"><a xlink:href="types_2rtc_8h.html" target="_top" xlink:title=" ">
<polygon fill="none" stroke="black" points="828.5,-56.5 828.5,-75.5 866.5,-75.5 866.5,-56.5 828.5,-56.5"/>
<text text-anchor="middle" x="847.5" y="-63.5" font-family="Helvetica,sans-Serif" font-size="10.00">rtc.h</text>
</a>
</g>
</g>
<!-- Node6&#45;&gt;Node9 -->
<g id="edge9" class="edge">
<title>Node6&#45;&gt;Node9</title>
<path fill="none" stroke="midnightblue" d="M828.3,-112.08C831.41,-104.77 835.92,-94.18 839.79,-85.1"/>
<polygon fill="midnightblue" stroke="midnightblue" points="843.07,-86.32 843.77,-75.75 836.63,-83.58 843.07,-86.32"/>
</g>
<!-- Node11 -->
<g id="node11" class="node">
<title>Node11</title>
<g id="a_node11"><a xlink:href="types_2uart_8h.html" target="_top" xlink:title=" ">
<polygon fill="none" stroke="black" points="765,-56.5 765,-75.5 810,-75.5 810,-56.5 765,-56.5"/>
<text text-anchor="middle" x="787.5" y="-63.5" font-family="Helvetica,sans-Serif" font-size="10.00">uart.h</text>
</a>
</g>
</g>
<!-- Node6&#45;&gt;Node11 -->
<g id="edge12" class="edge">
<title>Node6&#45;&gt;Node11</title>
<path fill="none" stroke="midnightblue" d="M818.39,-112.08C813.22,-104.53 805.65,-93.49 799.31,-84.23"/>
<polygon fill="midnightblue" stroke="midnightblue" points="802.04,-82.02 793.5,-75.75 796.26,-85.98 802.04,-82.02"/>
</g>
<!-- Node7&#45;&gt;Node3 -->
<g id="edge7" class="edge">
<title>Node7&#45;&gt;Node3</title>
<path fill="none" stroke="midnightblue" d="M925.67,-56.32C938.35,-47.98 957.73,-35.21 972.71,-25.35"/>
<polygon fill="midnightblue" stroke="midnightblue" points="974.93,-28.08 981.36,-19.65 971.08,-22.23 974.93,-28.08"/>
</g>
<!-- Node8 -->
<g id="node8" class="node">
<title>Node8</title>
<g id="a_node8"><a xlink:href="constants_2crypto_8h.html" target="_top" xlink:title=" ">
<polygon fill="none" stroke="black" points="825,-0.5 825,-19.5 950,-19.5 950,-0.5 825,-0.5"/>
<text text-anchor="middle" x="887.5" y="-7.5" font-family="Helvetica,sans-Serif" font-size="10.00">hal/constants/crypto.h</text>
</a>
</g>
</g>
<!-- Node7&#45;&gt;Node8 -->
<g id="edge8" class="edge">
<title>Node7&#45;&gt;Node8</title>
<path fill="none" stroke="midnightblue" d="M908.37,-56.08C904.99,-48.77 900.08,-38.18 895.88,-29.1"/>
<polygon fill="midnightblue" stroke="midnightblue" points="898.93,-27.36 891.55,-19.75 892.58,-30.3 898.93,-27.36"/>
</g>
<!-- Node9&#45;&gt;Node3 -->
<g id="edge10" class="edge">
<title>Node9&#45;&gt;Node3</title>
<path fill="none" stroke="midnightblue" d="M866.72,-57.94C890.67,-49.14 931.98,-33.96 961.14,-23.25"/>
<polygon fill="midnightblue" stroke="midnightblue" points="962.72,-26.4 970.9,-19.67 960.31,-19.83 962.72,-26.4"/>
</g>
<!-- Node10 -->
<g id="node10" class="node">
<title>Node10</title>
<g id="a_node10"><a xlink:href="constants_2rtc_8h.html" target="_top" xlink:title=" ">
<polygon fill="none" stroke="black" points="700,-0.5 700,-19.5 807,-19.5 807,-0.5 700,-0.5"/>
<text text-anchor="middle" x="753.5" y="-7.5" font-family="Helvetica,sans-Serif" font-size="10.00">hal/constants/rtc.h</text>
</a>
</g>
</g>
<!-- Node9&#45;&gt;Node10 -->
<g id="edge11" class="edge">
<title>Node9&#45;&gt;Node10</title>
<path fill="none" stroke="midnightblue" d="M832.4,-56.32C817.6,-47.82 794.81,-34.73 777.52,-24.8"/>
<polygon fill="midnightblue" stroke="midnightblue" points="778.98,-21.6 768.57,-19.65 775.49,-27.67 778.98,-21.6"/>
</g>
<!-- Node11&#45;&gt;Node4 -->
<g id="edge13" class="edge">
<title>Node11&#45;&gt;Node4</title>
<path fill="none" stroke="midnightblue" d="M764.96,-57.15C739.16,-48.16 696.62,-33.34 666.73,-22.92"/>
<polygon fill="midnightblue" stroke="midnightblue" points="667.71,-19.56 657.12,-19.58 665.41,-26.17 667.71,-19.56"/>
</g>
<!-- Node16&#45;&gt;Node2 -->
<g id="edge19" class="edge">
<title>Node16&#45;&gt;Node2</title>
<path fill="none" stroke="midnightblue" d="M278.26,-294.3C283.89,-293.09 289.89,-291.9 295.5,-291 445.81,-266.9 627.19,-253.14 701.38,-248.16"/>
<polygon fill="midnightblue" stroke="midnightblue" points="701.78,-251.64 711.53,-247.49 701.32,-244.65 701.78,-251.64"/>
</g>
<!-- Node17 -->
<g id="node17" class="node">
<title>Node17</title>
<g id="a_node17"><a xlink:title=" ">
<polygon fill="none" stroke="#bfbfbf" points="0,-235.5 0,-254.5 139,-254.5 139,-235.5 0,-235.5"/>
<text text-anchor="middle" x="69.5" y="-242.5" font-family="Helvetica,sans-Serif" font-size="10.00">hal_platform/core_impl.h</text>
</a>
</g>
</g>
<!-- Node16&#45;&gt;Node17 -->
<g id="edge20" class="edge">
<title>Node16&#45;&gt;Node17</title>
<path fill="none" stroke="midnightblue" d="M230.69,-293.05C199.83,-284.04 145.59,-268.21 108.63,-257.42"/>
<polygon fill="midnightblue" stroke="midnightblue" points="109.28,-253.96 98.7,-254.52 107.32,-260.68 109.28,-253.96"/>
</g>
<!-- Node18 -->
<g id="node18" class="node">
<title>Node18</title>
<g id="a_node18"><a xlink:title=" ">
<polygon fill="none" stroke="#bfbfbf" points="157,-235.5 157,-254.5 316,-254.5 316,-235.5 157,-235.5"/>
<text text-anchor="middle" x="236.5" y="-242.5" font-family="Helvetica,sans-Serif" font-size="10.00">hal_platform/core_handlers.h</text>
</a>
</g>
</g>
<!-- Node16&#45;&gt;Node18 -->
<g id="edge21" class="edge">
<title>Node16&#45;&gt;Node18</title>
<path fill="none" stroke="midnightblue" d="M251.53,-291.08C249.12,-283.85 245.64,-273.41 242.63,-264.4"/>
<polygon fill="midnightblue" stroke="midnightblue" points="245.9,-263.13 239.42,-254.75 239.26,-265.34 245.9,-263.13"/>
</g>
<!-- Node19&#45;&gt;Node2 -->
<g id="edge23" class="edge">
<title>Node19&#45;&gt;Node2</title>
<path fill="none" stroke="midnightblue" d="M929.38,-293.16C888.45,-283.2 812.56,-264.75 768.86,-254.11"/>
<polygon fill="midnightblue" stroke="midnightblue" points="769.54,-250.68 759,-251.72 767.89,-257.48 769.54,-250.68"/>
</g>
<!-- Node20&#45;&gt;Node2 -->
<g id="edge26" class="edge">
<title>Node20&#45;&gt;Node2</title>
<path fill="none" stroke="midnightblue" d="M352.17,-292.9C354.96,-292.2 357.78,-291.54 360.5,-291 484.77,-266.22 635.1,-253.21 701.34,-248.32"/>
<polygon fill="midnightblue" stroke="midnightblue" points="701.88,-251.79 711.61,-247.58 701.38,-244.81 701.88,-251.79"/>
</g>
<!-- Node20&#45;&gt;Node4 -->
<g id="edge25" class="edge">
<title>Node20&#45;&gt;Node4</title>
<path fill="none" stroke="midnightblue" d="M330.4,-291.36C334.44,-272.21 343.5,-224.74 343.5,-184.5 343.5,-184.5 343.5,-184.5 343.5,-121 343.5,-72.25 488.96,-37.31 573.48,-21.12"/>
<polygon fill="midnightblue" stroke="midnightblue" points="574.3,-24.52 583.48,-19.23 573,-17.65 574.3,-24.52"/>
</g>
<!-- Node21&#45;&gt;Node2 -->
<g id="edge28" class="edge">
<title>Node21&#45;&gt;Node2</title>
<path fill="none" stroke="midnightblue" d="M405.27,-293.34C408,-292.46 410.81,-291.65 413.5,-291 516.83,-266.15 642.34,-253.51 701.52,-248.56"/>
<polygon fill="midnightblue" stroke="midnightblue" points="702.09,-252.03 711.77,-247.73 701.52,-245.05 702.09,-252.03"/>
</g>
<!-- Node22&#45;&gt;Node2 -->
<g id="edge30" class="edge">
<title>Node22&#45;&gt;Node2</title>
<path fill="none" stroke="midnightblue" d="M486.26,-292.93C489.38,-292.26 492.5,-291.61 495.5,-291 568.92,-276.06 655.35,-260.3 701.84,-251.97"/>
<polygon fill="midnightblue" stroke="midnightblue" points="702.72,-255.37 711.95,-250.17 701.49,-248.48 702.72,-255.37"/>
</g>
<!-- Node23&#45;&gt;Node2 -->
<g id="edge32" class="edge">
<title>Node23&#45;&gt;Node2</title>
<path fill="none" stroke="midnightblue" d="M566.75,-291.56C603.5,-281.64 664.27,-265.23 701.98,-255.05"/>
<polygon fill="midnightblue" stroke="midnightblue" points="703.23,-258.34 711.97,-252.35 701.4,-251.58 703.23,-258.34"/>
</g>
<!-- Node24&#45;&gt;Node2 -->
<g id="edge34" class="edge">
<title>Node24&#45;&gt;Node2</title>
<path fill="none" stroke="midnightblue" d="M626.94,-291.44C648.17,-282.56 681.6,-268.56 705.75,-258.45"/>
<polygon fill="midnightblue" stroke="midnightblue" points="707.28,-261.61 715.16,-254.52 704.58,-255.15 707.28,-261.61"/>
</g>
<!-- Node25&#45;&gt;Node2 -->
<g id="edge36" class="edge">
<title>Node25&#45;&gt;Node2</title>
<path fill="none" stroke="midnightblue" d="M681.78,-291.32C691.34,-283.26 705.78,-271.08 717.28,-261.37"/>
<polygon fill="midnightblue" stroke="midnightblue" points="719.64,-263.96 725.03,-254.83 715.13,-258.61 719.64,-263.96"/>
</g>
<!-- Node26&#45;&gt;Node2 -->
<g id="edge38" class="edge">
<title>Node26&#45;&gt;Node2</title>
<path fill="none" stroke="midnightblue" d="M1003.85,-293.32C1000.72,-292.49 997.54,-291.69 994.5,-291 914.47,-272.84 819.09,-257.99 769.4,-250.76"/>
<polygon fill="midnightblue" stroke="midnightblue" points="769.63,-247.26 759.23,-249.29 768.63,-254.19 769.63,-247.26"/>
</g>
<!-- Node27 -->
<g id="node27" class="node">
<title>Node27</title>
<g id="a_node27"><a xlink:title=" ">
<polygon fill="none" stroke="#bfbfbf" points="981.5,-235.5 981.5,-254.5 1037.5,-254.5 1037.5,-235.5 981.5,-235.5"/>
<text text-anchor="middle" x="1009.5" y="-242.5" font-family="Helvetica,sans-Serif" font-size="10.00">stdarg.h</text>
</a>
</g>
</g>
<!-- Node26&#45;&gt;Node27 -->
<g id="edge39" class="edge">
<title>Node26&#45;&gt;Node27</title>
<path fill="none" stroke="midnightblue" d="M1023.69,-291.08C1021.42,-283.85 1018.13,-273.41 1015.29,-264.4"/>
<polygon fill="midnightblue" stroke="midnightblue" points="1018.6,-263.24 1012.25,-254.75 1011.92,-265.34 1018.6,-263.24"/>
</g>
<!-- Node28 -->
<g id="node28" class="node">
<title>Node28</title>
<g id="a_node28"><a xlink:title=" ">
<polygon fill="none" stroke="#bfbfbf" points="1056,-235.5 1056,-254.5 1171,-254.5 1171,-235.5 1056,-235.5"/>
<text text-anchor="middle" x="1113.5" y="-242.5" font-family="Helvetica,sans-Serif" font-size="10.00">platform/transport.h</text>
</a>
</g>
</g>
<!-- Node26&#45;&gt;Node28 -->
<g id="edge40" class="edge">
<title>Node26&#45;&gt;Node28</title>
<path fill="none" stroke="midnightblue" d="M1040.48,-291.32C1054.05,-282.9 1074.88,-269.97 1090.82,-260.07"/>
<polygon fill="midnightblue" stroke="midnightblue" points="1092.91,-262.9 1099.56,-254.65 1089.21,-256.95 1092.91,-262.9"/>
</g>
<!-- Node29&#45;&gt;Node2 -->
<g id="edge42" class="edge">
<title>Node29&#45;&gt;Node2</title>
<path fill="none" stroke="midnightblue" d="M735.5,-291.08C735.5,-284.01 735.5,-273.86 735.5,-264.99"/>
<polygon fill="midnightblue" stroke="midnightblue" points="739,-264.75 735.5,-254.75 732,-264.75 739,-264.75"/>
</g>
<!-- Node30&#45;&gt;Node2 -->
<g id="edge44" class="edge">
<title>Node30&#45;&gt;Node2</title>
<path fill="none" stroke="midnightblue" d="M785.86,-291.32C776.99,-283.34 763.63,-271.31 752.89,-261.65"/>
<polygon fill="midnightblue" stroke="midnightblue" points="755.09,-258.92 745.32,-254.83 750.41,-264.13 755.09,-258.92"/>
</g>
<!-- Node31&#45;&gt;Node2 -->
<g id="edge47" class="edge">
<title>Node31&#45;&gt;Node2</title>
<path fill="none" stroke="midnightblue" d="M1066.69,-292.66C1063.93,-292.06 1061.17,-291.5 1058.5,-291 953.73,-271.34 828.35,-256.26 769.35,-249.65"/>
<polygon fill="midnightblue" stroke="midnightblue" points="769.45,-246.14 759.13,-248.52 768.68,-253.1 769.45,-246.14"/>
</g>
<!-- Node31&#45;&gt;Node27 -->
<g id="edge46" class="edge">
<title>Node31&#45;&gt;Node27</title>
<path fill="none" stroke="midnightblue" d="M1082.52,-291.32C1068.95,-282.9 1048.12,-269.97 1032.18,-260.07"/>
<polygon fill="midnightblue" stroke="midnightblue" points="1033.79,-256.95 1023.44,-254.65 1030.09,-262.9 1033.79,-256.95"/>
</g>
<!-- Node31&#45;&gt;Node28 -->
<g id="edge48" class="edge">
<title>Node31&#45;&gt;Node28</title>
<path fill="none" stroke="midnightblue" d="M1099.31,-291.08C1101.58,-283.85 1104.87,-273.41 1107.71,-264.4"/>
<polygon fill="midnightblue" stroke="midnightblue" points="1111.08,-265.34 1110.75,-254.75 1104.4,-263.24 1111.08,-265.34"/>
</g>
<!-- Node32&#45;&gt;Node2 -->
<g id="edge50" class="edge">
<title>Node32&#45;&gt;Node2</title>
<path fill="none" stroke="midnightblue" d="M835.64,-291.44C816.23,-282.64 785.77,-268.81 763.54,-258.72"/>
<polygon fill="midnightblue" stroke="midnightblue" points="764.82,-255.46 754.27,-254.52 761.93,-261.84 764.82,-255.46"/>
</g>
</g>
</svg>
        <g id="navigator" transform="translate(0 0)" fill="#404254">
                <rect fill="#f2f5e9" fill-opacity="0.5" stroke="#606060" stroke-width=".5" x="0" y="0" width="60" height="60"/>
                <use id="zoomplus" xlink:href="#zoomPlus" x="17" y="9" onmousedown="handleZoom(evt,'in')"/>
                <use id="zoomminus" xlink:href="#zoomMin" x="42" y="9" onmousedown="handleZoom(evt,'out')"/>
                <use id="reset" xlink:href="#resetDef" x="30" y="36" onmousedown="handleReset()"/>
                <g id="arrowUp" xlink:href="#dirArrow" transform="translate(30 24)" onmousedown="handlePan(0,-1)">
                  <use xlink:href="#rim" fill="#404040">
                        <set attributeName="fill" to="#808080" begin="arrowUp.mouseover" end="arrowUp.mouseout"/>
                  </use>
                  <path fill="none" stroke="white" stroke-width="1.5" d="M0,-3.0v7 M-2.5,-0.5L0,-3.0L2.5,-0.5"/>
                </g>
                <g id="arrowRight" xlink:href="#dirArrow" transform="rotate(90) translate(36 -43)" onmousedown="handlePan(1,0)">
                  <use xlink:href="#rim" fill="#404040">
                        <set attributeName="fill" to="#808080" begin="arrowRight.mouseover" end="arrowRight.mouseout"/>
                  </use>
                  <path fill="none" stroke="white" stroke-width="1.5" d="M0,-3.0v7 M-2.5,-0.5L0,-3.0L2.5,-0.5"/>
                </g>
                <g id="arrowDown" xlink:href="#dirArrow" transform="rotate(180) translate(-30 -48)" onmousedown="handlePan(0,1)">
                  <use xlink:href="#rim" fill="#404040">
                        <set attributeName="fill" to="#808080" begin="arrowDown.mouseover" end="arrowDown.mouseout"/>
                  </use>
                  <path fill="none" stroke="white" stroke-width="1.5" d="M0,-3.0v7 M-2.5,-0.5L0,-3.0L2.5,-0.5"/>
                </g>
                <g id="arrowLeft" xlink:href="#dirArrow" transform="rotate(270) translate(-36 17)" onmousedown="handlePan(-1,0)">
                  <use xlink:href="#rim" fill="#404040">
                        <set attributeName="fill" to="#808080" begin="arrowLeft.mouseover" end="arrowLeft.mouseout"/>
                  </use>
                  <path fill="none" stroke="white" stroke-width="1.5" d="M0,-3.0v7 M-2.5,-0.5L0,-3.0L2.5,-0.5"/>
                </g>
        </g>
        <svg viewBox="0 0 15 15" width="100%" height="30px" preserveAspectRatio="xMaxYMin meet">
         <g id="arrow_out" transform="scale(0.3 0.3)">
          <a xlink:href="uc_2all_8h__incl_org.svg" target="_base">
           <rect id="button" ry="5" rx="5" y="6" x="6" height="38" width="38"
                fill="#f2f5e9" fill-opacity="0.5" stroke="#606060" stroke-width="1.0"/>
           <path id="arrow"
             d="M 11.500037,31.436501 C 11.940474,20.09759 22.043105,11.32322 32.158766,21.979434 L 37.068811,17.246167 C 37.068811,17.246167 37.088388,32 37.088388,32 L 22.160133,31.978069 C 22.160133,31.978069 26.997745,27.140456 26.997745,27.140456 C 18.528582,18.264221 13.291696,25.230495 11.500037,31.436501 z"
             style="fill:#404040;"/>
          </a>
         </g>
        </svg>
</svg>
