<?xml version="1.0" encoding="UTF-8" standalone="no"?>
<!DOCTYPE svg PUBLIC "-//W3C//DTD SVG 1.1//EN"
 "http://www.w3.org/Graphics/SVG/1.1/DTD/svg11.dtd">
<!-- Generated by graphviz version 2.43.0 (0)
 -->
<!-- Title: hal/uc/adc.h Pages: 1 -->
<svg width="824pt" height="319pt"
 viewBox="0.00 0.00 823.50 319.00" xmlns="http://www.w3.org/2000/svg" xmlns:xlink="http://www.w3.org/1999/xlink">
<g id="graph0" class="graph" transform="scale(1 1) rotate(0) translate(4 315)">
<title>hal/uc/adc.h</title>
<!-- Node1 -->
<g id="node1" class="node">
<title>Node1</title>
<g id="a_node1"><a xlink:title="HAL for uC Internal ADC interfaces.">
<polygon fill="#bfbfbf" stroke="black" points="374,-291.5 374,-310.5 449,-310.5 449,-291.5 374,-291.5"/>
<text text-anchor="middle" x="411.5" y="-298.5" font-family="Helvetica,sans-Serif" font-size="10.00">hal/uc/adc.h</text>
</a>
</g>
</g>
<!-- Node2 -->
<g id="node2" class="node">
<title>Node2</title>
<g id="a_node2"><a xlink:href="map_8h.html" target="_top" xlink:title="HAL for uC Peripheral Map.">
<polygon fill="none" stroke="black" points="388,-235.5 388,-254.5 435,-254.5 435,-235.5 388,-235.5"/>
<text text-anchor="middle" x="411.5" y="-242.5" font-family="Helvetica,sans-Serif" font-size="10.00">map.h</text>
</a>
</g>
</g>
<!-- Node1&#45;&gt;Node2 -->
<g id="edge1" class="edge">
<title>Node1&#45;&gt;Node2</title>
<path fill="none" stroke="midnightblue" d="M411.5,-291.08C411.5,-284.01 411.5,-273.86 411.5,-264.99"/>
<polygon fill="midnightblue" stroke="midnightblue" points="415,-264.75 411.5,-254.75 408,-264.75 415,-264.75"/>
</g>
<!-- Node3 -->
<g id="node3" class="node">
<title>Node3</title>
<g id="a_node3"><a xlink:title=" ">
<polygon fill="none" stroke="#bfbfbf" points="0,-0.5 0,-19.5 53,-19.5 53,-0.5 0,-0.5"/>
<text text-anchor="middle" x="26.5" y="-7.5" font-family="Helvetica,sans-Serif" font-size="10.00">stdint.h</text>
</a>
</g>
</g>
<!-- Node2&#45;&gt;Node3 -->
<g id="edge2" class="edge">
<title>Node2&#45;&gt;Node3</title>
<path fill="none" stroke="midnightblue" d="M387.99,-242.37C350.79,-238.96 276.99,-228.71 222.5,-199 140.07,-154.06 67.29,-65.29 39.02,-28.06"/>
<polygon fill="midnightblue" stroke="midnightblue" points="41.6,-25.67 32.81,-19.76 36,-29.87 41.6,-25.67"/>
</g>
<!-- Node4 -->
<g id="node4" class="node">
<title>Node4</title>
<g id="a_node4"><a xlink:title=" ">
<polygon fill="none" stroke="#bfbfbf" points="339.5,-0.5 339.5,-19.5 437.5,-19.5 437.5,-0.5 339.5,-0.5"/>
<text text-anchor="middle" x="388.5" y="-7.5" font-family="Helvetica,sans-Serif" font-size="10.00">platform/types.h</text>
</a>
</g>
</g>
<!-- Node2&#45;&gt;Node4 -->
<g id="edge3" class="edge">
<title>Node2&#45;&gt;Node4</title>
<path fill="none" stroke="midnightblue" d="M396.84,-235.4C385.09,-227.58 369.47,-214.86 362.5,-199 336.92,-140.77 364.7,-63.46 379.91,-28.96"/>
<polygon fill="midnightblue" stroke="midnightblue" points="383.17,-30.24 384.16,-19.69 376.81,-27.33 383.17,-30.24"/>
</g>
<!-- Node5 -->
<g id="node5" class="node">
<title>Node5</title>
<g id="a_node5"><a xlink:href="types_8h_source.html" target="_top" xlink:title=" ">
<polygon fill="none" stroke="black" points="232,-174 232,-193 303,-193 303,-174 232,-174"/>
<text text-anchor="middle" x="267.5" y="-181" font-family="Helvetica,sans-Serif" font-size="10.00">hal/types.h</text>
</a>
</g>
</g>
<!-- Node2&#45;&gt;Node5 -->
<g id="edge4" class="edge">
<title>Node2&#45;&gt;Node5</title>
<path fill="none" stroke="midnightblue" d="M390.87,-235.48C366.38,-225.36 325.35,-208.4 297.39,-196.85"/>
<polygon fill="midnightblue" stroke="midnightblue" points="298.67,-193.59 288.09,-193.01 296,-200.06 298.67,-193.59"/>
</g>
<!-- Node12 -->
<g id="node12" class="node">
<title>Node12</title>
<g id="a_node12"><a xlink:title=" ">
<polygon fill="none" stroke="#bfbfbf" points="371.5,-174 371.5,-193 451.5,-193 451.5,-174 371.5,-174"/>
<text text-anchor="middle" x="411.5" y="-181" font-family="Helvetica,sans-Serif" font-size="10.00">application.h</text>
</a>
</g>
</g>
<!-- Node2&#45;&gt;Node12 -->
<g id="edge14" class="edge">
<title>Node2&#45;&gt;Node12</title>
<path fill="none" stroke="midnightblue" d="M411.5,-235.48C411.5,-227.08 411.5,-213.98 411.5,-203.16"/>
<polygon fill="midnightblue" stroke="midnightblue" points="415,-203.01 411.5,-193.01 408,-203.01 415,-203.01"/>
</g>
<!-- Node13 -->
<g id="node13" class="node">
<title>Node13</title>
<g id="a_node13"><a xlink:title=" ">
<polygon fill="none" stroke="#bfbfbf" points="470,-174 470,-193 571,-193 571,-174 470,-174"/>
<text text-anchor="middle" x="520.5" y="-181" font-family="Helvetica,sans-Serif" font-size="10.00">platform/debug.h</text>
</a>
</g>
</g>
<!-- Node2&#45;&gt;Node13 -->
<g id="edge15" class="edge">
<title>Node2&#45;&gt;Node13</title>
<path fill="none" stroke="midnightblue" d="M427.12,-235.48C445.09,-225.67 474.82,-209.43 495.91,-197.92"/>
<polygon fill="midnightblue" stroke="midnightblue" points="497.81,-200.87 504.91,-193.01 494.46,-194.73 497.81,-200.87"/>
</g>
<!-- Node14 -->
<g id="node14" class="node">
<title>Node14</title>
<g id="a_node14"><a xlink:title=" ">
<polygon fill="none" stroke="#bfbfbf" points="589.5,-174 589.5,-193 677.5,-193 677.5,-174 589.5,-174"/>
<text text-anchor="middle" x="633.5" y="-181" font-family="Helvetica,sans-Serif" font-size="10.00">platform/cpu.h</text>
</a>
</g>
</g>
<!-- Node2&#45;&gt;Node14 -->
<g id="edge16" class="edge">
<title>Node2&#45;&gt;Node14</title>
<path fill="none" stroke="midnightblue" d="M435.03,-237.79C467.69,-229.16 528.62,-213.01 580.5,-199 584.38,-197.95 588.41,-196.86 592.45,-195.76"/>
<polygon fill="midnightblue" stroke="midnightblue" points="593.68,-199.05 602.4,-193.05 591.83,-192.3 593.68,-199.05"/>
</g>
<!-- Node15 -->
<g id="node15" class="node">
<title>Node15</title>
<g id="a_node15"><a xlink:title=" ">
<polygon fill="none" stroke="#bfbfbf" points="695.5,-168.5 695.5,-198.5 815.5,-198.5 815.5,-168.5 695.5,-168.5"/>
<text text-anchor="start" x="703.5" y="-186.5" font-family="Helvetica,sans-Serif" font-size="10.00">hal_platform/uc_map</text>
<text text-anchor="middle" x="755.5" y="-175.5" font-family="Helvetica,sans-Serif" font-size="10.00">_impl.h</text>
</a>
</g>
</g>
<!-- Node2&#45;&gt;Node15 -->
<g id="edge17" class="edge">
<title>Node2&#45;&gt;Node15</title>
<path fill="none" stroke="midnightblue" d="M435.11,-240.5C481.21,-233.59 586.68,-217.41 685.48,-199.14"/>
<polygon fill="midnightblue" stroke="midnightblue" points="686.13,-202.58 695.32,-197.31 684.85,-195.7 686.13,-202.58"/>
</g>
<!-- Node6 -->
<g id="node6" class="node">
<title>Node6</title>
<g id="a_node6"><a xlink:href="types_2all_8h_source.html" target="_top" xlink:title=" ">
<polygon fill="none" stroke="black" points="210.5,-112.5 210.5,-131.5 278.5,-131.5 278.5,-112.5 210.5,-112.5"/>
<text text-anchor="middle" x="244.5" y="-119.5" font-family="Helvetica,sans-Serif" font-size="10.00">types/all.h</text>
</a>
</g>
</g>
<!-- Node5&#45;&gt;Node6 -->
<g id="edge5" class="edge">
<title>Node5&#45;&gt;Node6</title>
<path fill="none" stroke="midnightblue" d="M264.2,-173.98C260.89,-165.4 255.68,-151.93 251.45,-140.98"/>
<polygon fill="midnightblue" stroke="midnightblue" points="254.66,-139.57 247.79,-131.51 248.13,-142.1 254.66,-139.57"/>
</g>
<!-- Node7 -->
<g id="node7" class="node">
<title>Node7</title>
<g id="a_node7"><a xlink:href="types_2crypto_8h_source.html" target="_top" xlink:title=" ">
<polygon fill="none" stroke="black" points="105.5,-56.5 105.5,-75.5 161.5,-75.5 161.5,-56.5 105.5,-56.5"/>
<text text-anchor="middle" x="133.5" y="-63.5" font-family="Helvetica,sans-Serif" font-size="10.00">crypto.h</text>
</a>
</g>
</g>
<!-- Node6&#45;&gt;Node7 -->
<g id="edge6" class="edge">
<title>Node6&#45;&gt;Node7</title>
<path fill="none" stroke="midnightblue" d="M226.67,-112.32C208.78,-103.62 181.02,-90.12 160.45,-80.11"/>
<polygon fill="midnightblue" stroke="midnightblue" points="161.81,-76.88 151.29,-75.65 158.75,-83.18 161.81,-76.88"/>
</g>
<!-- Node9 -->
<g id="node9" class="node">
<title>Node9</title>
<g id="a_node9"><a xlink:href="types_2rtc_8h_source.html" target="_top" xlink:title=" ">
<polygon fill="none" stroke="black" points="213.5,-56.5 213.5,-75.5 251.5,-75.5 251.5,-56.5 213.5,-56.5"/>
<text text-anchor="middle" x="232.5" y="-63.5" font-family="Helvetica,sans-Serif" font-size="10.00">rtc.h</text>
</a>
</g>
</g>
<!-- Node6&#45;&gt;Node9 -->
<g id="edge9" class="edge">
<title>Node6&#45;&gt;Node9</title>
<path fill="none" stroke="midnightblue" d="M242.52,-112.08C240.93,-104.93 238.64,-94.64 236.65,-85.69"/>
<polygon fill="midnightblue" stroke="midnightblue" points="240.03,-84.75 234.44,-75.75 233.2,-86.27 240.03,-84.75"/>
</g>
<!-- Node11 -->
<g id="node11" class="node">
<title>Node11</title>
<g id="a_node11"><a xlink:href="types_2uart_8h_source.html" target="_top" xlink:title=" ">
<polygon fill="none" stroke="black" points="270,-56.5 270,-75.5 315,-75.5 315,-56.5 270,-56.5"/>
<text text-anchor="middle" x="292.5" y="-63.5" font-family="Helvetica,sans-Serif" font-size="10.00">uart.h</text>
</a>
</g>
</g>
<!-- Node6&#45;&gt;Node11 -->
<g id="edge12" class="edge">
<title>Node6&#45;&gt;Node11</title>
<path fill="none" stroke="midnightblue" d="M252.43,-112.08C259.35,-104.3 269.57,-92.8 277.95,-83.37"/>
<polygon fill="midnightblue" stroke="midnightblue" points="280.69,-85.55 284.72,-75.75 275.46,-80.9 280.69,-85.55"/>
</g>
<!-- Node7&#45;&gt;Node3 -->
<g id="edge7" class="edge">
<title>Node7&#45;&gt;Node3</title>
<path fill="none" stroke="midnightblue" d="M116.31,-56.32C99.15,-47.66 72.55,-34.24 52.75,-24.25"/>
<polygon fill="midnightblue" stroke="midnightblue" points="54.15,-21.04 43.65,-19.65 51,-27.28 54.15,-21.04"/>
</g>
<!-- Node8 -->
<g id="node8" class="node">
<title>Node8</title>
<g id="a_node8"><a xlink:href="constants_2crypto_8h_source.html" target="_top" xlink:title=" ">
<polygon fill="none" stroke="black" points="71,-0.5 71,-19.5 196,-19.5 196,-0.5 71,-0.5"/>
<text text-anchor="middle" x="133.5" y="-7.5" font-family="Helvetica,sans-Serif" font-size="10.00">hal/constants/crypto.h</text>
</a>
</g>
</g>
<!-- Node7&#45;&gt;Node8 -->
<g id="edge8" class="edge">
<title>Node7&#45;&gt;Node8</title>
<path fill="none" stroke="midnightblue" d="M133.5,-56.08C133.5,-49.01 133.5,-38.86 133.5,-29.99"/>
<polygon fill="midnightblue" stroke="midnightblue" points="137,-29.75 133.5,-19.75 130,-29.75 137,-29.75"/>
</g>
<!-- Node9&#45;&gt;Node3 -->
<g id="edge10" class="edge">
<title>Node9&#45;&gt;Node3</title>
<path fill="none" stroke="midnightblue" d="M213.49,-60.02C179.3,-51.05 106.91,-32.08 62.9,-20.54"/>
<polygon fill="midnightblue" stroke="midnightblue" points="63.73,-17.14 53.17,-17.99 61.95,-23.91 63.73,-17.14"/>
</g>
<!-- Node10 -->
<g id="node10" class="node">
<title>Node10</title>
<g id="a_node10"><a xlink:href="constants_2rtc_8h_source.html" target="_top" xlink:title=" ">
<polygon fill="none" stroke="black" points="214,-0.5 214,-19.5 321,-19.5 321,-0.5 214,-0.5"/>
<text text-anchor="middle" x="267.5" y="-7.5" font-family="Helvetica,sans-Serif" font-size="10.00">hal/constants/rtc.h</text>
</a>
</g>
</g>
<!-- Node9&#45;&gt;Node10 -->
<g id="edge11" class="edge">
<title>Node9&#45;&gt;Node10</title>
<path fill="none" stroke="midnightblue" d="M238.28,-56.08C243.17,-48.53 250.33,-37.49 256.33,-28.23"/>
<polygon fill="midnightblue" stroke="midnightblue" points="259.33,-30.05 261.83,-19.75 253.45,-26.24 259.33,-30.05"/>
</g>
<!-- Node11&#45;&gt;Node4 -->
<g id="edge13" class="edge">
<title>Node11&#45;&gt;Node4</title>
<path fill="none" stroke="midnightblue" d="M307.92,-56.32C323.04,-47.82 346.32,-34.73 363.97,-24.8"/>
<polygon fill="midnightblue" stroke="midnightblue" points="366.11,-27.61 373.11,-19.65 362.68,-21.51 366.11,-27.61"/>
</g>
</g>
</svg>
