<?xml version="1.0" encoding="UTF-8" standalone="no"?>
<!DOCTYPE svg PUBLIC "-//W3C//DTD SVG 1.1//EN"
 "http://www.w3.org/Graphics/SVG/1.1/DTD/svg11.dtd">
<!-- Generated by graphviz version 2.43.0 (0)
 -->
<!-- Title: hal/uc/rtc.h Pages: 1 -->
<svg width="824pt" height="313pt"
 viewBox="0.00 0.00 823.50 313.00" xmlns="http://www.w3.org/2000/svg" xmlns:xlink="http://www.w3.org/1999/xlink">
<g id="graph0" class="graph" transform="scale(1 1) rotate(0) translate(4 309)">
<title>hal/uc/rtc.h</title>
<!-- Node1 -->
<g id="Node000001" class="node">
<title>Node1</title>
<g id="a_Node000001"><a xlink:title="HAL for uC RTCs.">
<polygon fill="#999999" stroke="#666666" points="447,-305 376,-305 376,-286 447,-286 447,-305"/>
<text text-anchor="middle" x="411.5" y="-293" font-family="Helvetica,sans-Serif" font-size="10.00">hal/uc/rtc.h</text>
</a>
</g>
</g>
<!-- Node2 -->
<g id="Node000002" class="node">
<title>Node2</title>
<g id="a_Node000002"><a xlink:href="map_8h.html" target="_top" xlink:title="HAL for uC Peripheral Map.">
<polygon fill="white" stroke="#666666" points="435,-250 388,-250 388,-231 435,-231 435,-250"/>
<text text-anchor="middle" x="411.5" y="-238" font-family="Helvetica,sans-Serif" font-size="10.00">map.h</text>
</a>
</g>
</g>
<!-- Node1&#45;&gt;Node2 -->
<g id="edge1_Node000001_Node000002" class="edge">
<title>Node1&#45;&gt;Node2</title>
<g id="a_edge1_Node000001_Node000002"><a xlink:title=" ">
<path fill="none" stroke="#63b8ff" d="M411.5,-285.75C411.5,-278.8 411.5,-268.85 411.5,-260.13"/>
<polygon fill="#63b8ff" stroke="#63b8ff" points="415,-260.09 411.5,-250.09 408,-260.09 415,-260.09"/>
</a>
</g>
</g>
<!-- Node3 -->
<g id="Node000003" class="node">
<title>Node3</title>
<g id="a_Node000003"><a xlink:title=" ">
<polygon fill="#e0e0e0" stroke="#999999" points="53,-19 0,-19 0,0 53,0 53,-19"/>
<text text-anchor="middle" x="26.5" y="-7" font-family="Helvetica,sans-Serif" font-size="10.00">stdint.h</text>
</a>
</g>
</g>
<!-- Node2&#45;&gt;Node3 -->
<g id="edge2_Node000002_Node000003" class="edge">
<title>Node2&#45;&gt;Node3</title>
<g id="a_edge2_Node000002_Node000003"><a xlink:title=" ">
<path fill="none" stroke="#63b8ff" d="M387.72,-237.86C350.47,-234.45 276.99,-224.29 222.5,-195 140.54,-150.94 67.5,-63.8 39.09,-27.25"/>
<polygon fill="#63b8ff" stroke="#63b8ff" points="41.71,-24.92 32.85,-19.11 36.15,-29.17 41.71,-24.92"/>
</a>
</g>
</g>
<!-- Node4 -->
<g id="Node000004" class="node">
<title>Node4</title>
<g id="a_Node000004"><a xlink:title=" ">
<polygon fill="#e0e0e0" stroke="#999999" points="437.5,-19 339.5,-19 339.5,0 437.5,0 437.5,-19"/>
<text text-anchor="middle" x="388.5" y="-7" font-family="Helvetica,sans-Serif" font-size="10.00">platform/types.h</text>
</a>
</g>
</g>
<!-- Node2&#45;&gt;Node4 -->
<g id="edge3_Node000002_Node000004" class="edge">
<title>Node2&#45;&gt;Node4</title>
<g id="a_edge3_Node000002_Node000004"><a xlink:title=" ">
<path fill="none" stroke="#63b8ff" d="M396.37,-230.73C384.69,-222.99 369.38,-210.55 362.5,-195 337.22,-137.9 364.85,-62.01 379.97,-28.13"/>
<polygon fill="#63b8ff" stroke="#63b8ff" points="383.15,-29.58 384.19,-19.03 376.8,-26.64 383.15,-29.58"/>
</a>
</g>
</g>
<!-- Node5 -->
<g id="Node000005" class="node">
<title>Node5</title>
<g id="a_Node000005"><a xlink:href="types_8h.html" target="_top" xlink:title=" ">
<polygon fill="white" stroke="#666666" points="303,-189.5 232,-189.5 232,-170.5 303,-170.5 303,-189.5"/>
<text text-anchor="middle" x="267.5" y="-177.5" font-family="Helvetica,sans-Serif" font-size="10.00">hal/types.h</text>
</a>
</g>
</g>
<!-- Node2&#45;&gt;Node5 -->
<g id="edge4_Node000002_Node000005" class="edge">
<title>Node2&#45;&gt;Node5</title>
<g id="a_edge4_Node000002_Node000005"><a xlink:title=" ">
<path fill="none" stroke="#63b8ff" d="M390.56,-230.99C366.14,-221.07 325.57,-204.59 297.73,-193.28"/>
<polygon fill="#63b8ff" stroke="#63b8ff" points="299.05,-190.04 288.46,-189.52 296.41,-196.52 299.05,-190.04"/>
</a>
</g>
</g>
<!-- Node12 -->
<g id="Node000012" class="node">
<title>Node12</title>
<g id="a_Node000012"><a xlink:title=" ">
<polygon fill="#e0e0e0" stroke="#999999" points="451.5,-189.5 371.5,-189.5 371.5,-170.5 451.5,-170.5 451.5,-189.5"/>
<text text-anchor="middle" x="411.5" y="-177.5" font-family="Helvetica,sans-Serif" font-size="10.00">application.h</text>
</a>
</g>
</g>
<!-- Node2&#45;&gt;Node12 -->
<g id="edge14_Node000002_Node000012" class="edge">
<title>Node2&#45;&gt;Node12</title>
<g id="a_edge14_Node000002_Node000012"><a xlink:title=" ">
<path fill="none" stroke="#63b8ff" d="M411.5,-230.87C411.5,-222.75 411.5,-210.31 411.5,-199.89"/>
<polygon fill="#63b8ff" stroke="#63b8ff" points="415,-199.67 411.5,-189.67 408,-199.67 415,-199.67"/>
</a>
</g>
</g>
<!-- Node13 -->
<g id="Node000013" class="node">
<title>Node13</title>
<g id="a_Node000013"><a xlink:title=" ">
<polygon fill="#e0e0e0" stroke="#999999" points="571,-189.5 470,-189.5 470,-170.5 571,-170.5 571,-189.5"/>
<text text-anchor="middle" x="520.5" y="-177.5" font-family="Helvetica,sans-Serif" font-size="10.00">platform/debug.h</text>
</a>
</g>
</g>
<!-- Node2&#45;&gt;Node13 -->
<g id="edge15_Node000002_Node000013" class="edge">
<title>Node2&#45;&gt;Node13</title>
<g id="a_edge15_Node000002_Node000013"><a xlink:title=" ">
<path fill="none" stroke="#63b8ff" d="M427.58,-230.87C445.45,-221.28 474.54,-205.67 495.41,-194.47"/>
<polygon fill="#63b8ff" stroke="#63b8ff" points="497.19,-197.48 504.35,-189.67 493.88,-191.31 497.19,-197.48"/>
</a>
</g>
</g>
<!-- Node14 -->
<g id="Node000014" class="node">
<title>Node14</title>
<g id="a_Node000014"><a xlink:title=" ">
<polygon fill="#e0e0e0" stroke="#999999" points="677.5,-189.5 589.5,-189.5 589.5,-170.5 677.5,-170.5 677.5,-189.5"/>
<text text-anchor="middle" x="633.5" y="-177.5" font-family="Helvetica,sans-Serif" font-size="10.00">platform/cpu.h</text>
</a>
</g>
</g>
<!-- Node2&#45;&gt;Node14 -->
<g id="edge16_Node000002_Node000014" class="edge">
<title>Node2&#45;&gt;Node14</title>
<g id="a_edge16_Node000002_Node000014"><a xlink:title=" ">
<path fill="none" stroke="#63b8ff" d="M435.01,-233.31C467.66,-224.73 528.57,-208.69 580.5,-195 584.07,-194.06 587.77,-193.08 591.49,-192.1"/>
<polygon fill="#63b8ff" stroke="#63b8ff" points="592.49,-195.46 601.27,-189.52 590.71,-188.69 592.49,-195.46"/>
</a>
</g>
</g>
<!-- Node15 -->
<g id="Node000015" class="node">
<title>Node15</title>
<g id="a_Node000015"><a xlink:title=" ">
<polygon fill="#e0e0e0" stroke="#999999" points="815.5,-195 695.5,-195 695.5,-165 815.5,-165 815.5,-195"/>
<text text-anchor="start" x="703.5" y="-183" font-family="Helvetica,sans-Serif" font-size="10.00">hal_platform/uc_map</text>
<text text-anchor="middle" x="755.5" y="-172" font-family="Helvetica,sans-Serif" font-size="10.00">_impl.h</text>
</a>
</g>
</g>
<!-- Node2&#45;&gt;Node15 -->
<g id="edge17_Node000002_Node000015" class="edge">
<title>Node2&#45;&gt;Node15</title>
<g id="a_edge17_Node000002_Node000015"><a xlink:title=" ">
<path fill="none" stroke="#63b8ff" d="M435.1,-236.01C481.19,-229.11 586.63,-213 685.47,-195.15"/>
<polygon fill="#63b8ff" stroke="#63b8ff" points="686.1,-198.59 695.32,-193.36 684.85,-191.7 686.1,-198.59"/>
</a>
</g>
</g>
<!-- Node6 -->
<g id="Node000006" class="node">
<title>Node6</title>
<g id="a_Node000006"><a xlink:href="types_2all_8h.html" target="_top" xlink:title=" ">
<polygon fill="white" stroke="#666666" points="278.5,-129 210.5,-129 210.5,-110 278.5,-110 278.5,-129"/>
<text text-anchor="middle" x="244.5" y="-117" font-family="Helvetica,sans-Serif" font-size="10.00">types/all.h</text>
</a>
</g>
</g>
<!-- Node5&#45;&gt;Node6 -->
<g id="edge5_Node000005_Node000006" class="edge">
<title>Node5&#45;&gt;Node6</title>
<g id="a_edge5_Node000005_Node000006"><a xlink:title=" ">
<path fill="none" stroke="#63b8ff" d="M264.11,-170.37C260.84,-162.07 255.81,-149.28 251.66,-138.72"/>
<polygon fill="#63b8ff" stroke="#63b8ff" points="254.82,-137.19 247.91,-129.17 248.31,-139.75 254.82,-137.19"/>
</a>
</g>
</g>
<!-- Node7 -->
<g id="Node000007" class="node">
<title>Node7</title>
<g id="a_Node000007"><a xlink:href="types_2crypto_8h.html" target="_top" xlink:title=" ">
<polygon fill="white" stroke="#666666" points="161.5,-74 105.5,-74 105.5,-55 161.5,-55 161.5,-74"/>
<text text-anchor="middle" x="133.5" y="-62" font-family="Helvetica,sans-Serif" font-size="10.00">crypto.h</text>
</a>
</g>
</g>
<!-- Node6&#45;&gt;Node7 -->
<g id="edge6_Node000006_Node000007" class="edge">
<title>Node6&#45;&gt;Node7</title>
<g id="a_edge6_Node000006_Node000007"><a xlink:title=" ">
<path fill="none" stroke="#63b8ff" d="M226.67,-109.98C208.89,-101.5 181.35,-88.35 160.82,-78.54"/>
<polygon fill="#63b8ff" stroke="#63b8ff" points="162.19,-75.32 151.66,-74.17 159.17,-81.64 162.19,-75.32"/>
</a>
</g>
</g>
<!-- Node9 -->
<g id="Node000009" class="node">
<title>Node9</title>
<g id="a_Node000009"><a xlink:href="types_2rtc_8h.html" target="_top" xlink:title=" ">
<polygon fill="white" stroke="#666666" points="251.5,-74 213.5,-74 213.5,-55 251.5,-55 251.5,-74"/>
<text text-anchor="middle" x="232.5" y="-62" font-family="Helvetica,sans-Serif" font-size="10.00">rtc.h</text>
</a>
</g>
</g>
<!-- Node6&#45;&gt;Node9 -->
<g id="edge9_Node000006_Node000009" class="edge">
<title>Node6&#45;&gt;Node9</title>
<g id="a_edge9_Node000006_Node000009"><a xlink:title=" ">
<path fill="none" stroke="#63b8ff" d="M242.52,-109.75C240.93,-102.72 238.64,-92.62 236.65,-83.84"/>
<polygon fill="#63b8ff" stroke="#63b8ff" points="240.07,-83.07 234.44,-74.09 233.24,-84.62 240.07,-83.07"/>
</a>
</g>
</g>
<!-- Node11 -->
<g id="Node000011" class="node">
<title>Node11</title>
<g id="a_Node000011"><a xlink:href="types_2uart_8h.html" target="_top" xlink:title=" ">
<polygon fill="white" stroke="#666666" points="315,-74 270,-74 270,-55 315,-55 315,-74"/>
<text text-anchor="middle" x="292.5" y="-62" font-family="Helvetica,sans-Serif" font-size="10.00">uart.h</text>
</a>
</g>
</g>
<!-- Node6&#45;&gt;Node11 -->
<g id="edge12_Node000006_Node000011" class="edge">
<title>Node6&#45;&gt;Node11</title>
<g id="a_edge12_Node000006_Node000011"><a xlink:title=" ">
<path fill="none" stroke="#63b8ff" d="M252.43,-109.75C259.35,-102.11 269.57,-90.82 277.95,-81.56"/>
<polygon fill="#63b8ff" stroke="#63b8ff" points="280.6,-83.85 284.72,-74.09 275.41,-79.15 280.6,-83.85"/>
</a>
</g>
</g>
<!-- Node7&#45;&gt;Node3 -->
<g id="edge7_Node000007_Node000003" class="edge">
<title>Node7&#45;&gt;Node3</title>
<g id="a_edge7_Node000007_Node000003"><a xlink:title=" ">
<path fill="none" stroke="#63b8ff" d="M116.31,-54.98C99.25,-46.54 72.87,-33.47 53.1,-23.68"/>
<polygon fill="#63b8ff" stroke="#63b8ff" points="54.52,-20.47 44,-19.17 51.41,-26.75 54.52,-20.47"/>
</a>
</g>
</g>
<!-- Node8 -->
<g id="Node000008" class="node">
<title>Node8</title>
<g id="a_Node000008"><a xlink:href="constants_2crypto_8h.html" target="_top" xlink:title=" ">
<polygon fill="white" stroke="#666666" points="196,-19 71,-19 71,0 196,0 196,-19"/>
<text text-anchor="middle" x="133.5" y="-7" font-family="Helvetica,sans-Serif" font-size="10.00">hal/constants/crypto.h</text>
</a>
</g>
</g>
<!-- Node7&#45;&gt;Node8 -->
<g id="edge8_Node000007_Node000008" class="edge">
<title>Node7&#45;&gt;Node8</title>
<g id="a_edge8_Node000007_Node000008"><a xlink:title=" ">
<path fill="none" stroke="#63b8ff" d="M133.5,-54.75C133.5,-47.8 133.5,-37.85 133.5,-29.13"/>
<polygon fill="#63b8ff" stroke="#63b8ff" points="137,-29.09 133.5,-19.09 130,-29.09 137,-29.09"/>
</a>
</g>
</g>
<!-- Node9&#45;&gt;Node3 -->
<g id="edge10_Node000009_Node000003" class="edge">
<title>Node9&#45;&gt;Node3</title>
<g id="a_edge10_Node000009_Node000003"><a xlink:title=" ">
<path fill="none" stroke="#63b8ff" d="M213.49,-58.61C179.3,-49.81 106.91,-31.19 62.9,-19.87"/>
<polygon fill="#63b8ff" stroke="#63b8ff" points="63.72,-16.46 53.17,-17.36 61.98,-23.24 63.72,-16.46"/>
</a>
</g>
</g>
<!-- Node10 -->
<g id="Node000010" class="node">
<title>Node10</title>
<g id="a_Node000010"><a xlink:href="constants_2rtc_8h.html" target="_top" xlink:title=" ">
<polygon fill="white" stroke="#666666" points="321,-19 214,-19 214,0 321,0 321,-19"/>
<text text-anchor="middle" x="267.5" y="-7" font-family="Helvetica,sans-Serif" font-size="10.00">hal/constants/rtc.h</text>
</a>
</g>
</g>
<!-- Node9&#45;&gt;Node10 -->
<g id="edge11_Node000009_Node000010" class="edge">
<title>Node9&#45;&gt;Node10</title>
<g id="a_edge11_Node000009_Node000010"><a xlink:title=" ">
<path fill="none" stroke="#63b8ff" d="M238.28,-54.75C243.12,-47.42 250.18,-36.73 256.14,-27.7"/>
<polygon fill="#63b8ff" stroke="#63b8ff" points="259.24,-29.36 261.83,-19.09 253.4,-25.5 259.24,-29.36"/>
</a>
</g>
</g>
<!-- Node11&#45;&gt;Node4 -->
<g id="edge13_Node000011_Node000004" class="edge">
<title>Node11&#45;&gt;Node4</title>
<g id="a_edge13_Node000011_Node000004"><a xlink:title=" ">
<path fill="none" stroke="#63b8ff" d="M307.92,-54.98C322.95,-46.69 346.04,-33.94 363.66,-24.22"/>
<polygon fill="#63b8ff" stroke="#63b8ff" points="365.73,-27.07 372.8,-19.17 362.35,-20.94 365.73,-27.07"/>
</a>
</g>
</g>
</g>
</svg>
