<?xml version="1.0" encoding="UTF-8" standalone="no"?>
<!DOCTYPE svg PUBLIC "-//W3C//DTD SVG 1.1//EN"
 "http://www.w3.org/Graphics/SVG/1.1/DTD/svg11.dtd">
<!-- Generated by graphviz version 2.43.0 (0)
 -->
<!-- Title: hal/uc.h Pages: 1 -->
<!--zoomable 423 -->

<svg id="main" version="1.1" xmlns="http://www.w3.org/2000/svg" xmlns:xlink="http://www.w3.org/1999/xlink" xml:space="preserve" onload="init(evt)">
<style type="text/css"><![CDATA[
.node, .edge {opacity: 0.7;}
.node.selected, .edge.selected {opacity: 1;}
.edge:hover path { stroke: red; }
.edge:hover polygon { stroke: red; fill: red; }
]]></style>

<defs>
  <circle id="rim" cx="0" cy="0" r="7"/>
  <circle id="rim2" cx="0" cy="0" r="3.5"/>
  <g id="zoomPlus">
    <use xlink:href="#rim" fill="#404040"><set attributeName="fill" to="#808080" begin="zoomplus.mouseover" end="zoomplus.mouseout"/></use>
    <path d="M-4,0h8M0,-4v8" fill="none" stroke="white" stroke-width="1.5" pointer-events="none"/>
  </g>
  <g id="zoomMin">
    <use xlink:href="#rim" fill="#404040"><set attributeName="fill" to="#808080" begin="zoomminus.mouseover" end="zoomminus.mouseout"/></use>
    <path d="M-4,0h8" fill="none" stroke="white" stroke-width="1.5" pointer-events="none"/>
  </g>
  <g id="arrowUp" transform="translate(30 24)">
    <use xlink:href="#rim"/>
    <path pointer-events="none" fill="none" stroke="white" stroke-width="1.5" d="M0,-3.0v7 M-2.5,-0.5L0,-3.0L2.5,-0.5"/>
  </g>
  <g id="arrowRight" transform="rotate(90) translate(36 -43)">
    <use xlink:href="#rim"/>
    <path pointer-events="none" fill="none" stroke="white" stroke-width="1.5" d="M0,-3.0v7 M-2.5,-0.5L0,-3.0L2.5,-0.5"/>
  </g>
  <g id="arrowDown" transform="rotate(180) translate(-30 -48)">
    <use xlink:href="#rim"/>
    <path pointer-events="none" fill="none" stroke="white" stroke-width="1.5" d="M0,-3.0v7 M-2.5,-0.5L0,-3.0L2.5,-0.5"/>
  </g>
  <g id="arrowLeft" transform="rotate(270) translate(-36 17)">
    <use xlink:href="#rim"/>
    <path pointer-events="none" fill="none" stroke="white" stroke-width="1.5" d="M0,-3.0v7 M-2.5,-0.5L0,-3.0L2.5,-0.5"/>
  </g>
  <g id="resetDef">
    <use xlink:href="#rim2" fill="#404040"><set attributeName="fill" to="#808080" begin="reset.mouseover" end="reset.mouseout"/></use>
  </g>
</defs>
<script type="application/ecmascript">
var viewWidth = 1179;
var viewHeight = 423;
var sectionId = 'dynsection-0';
</script>
<script type="application/ecmascript" xlink:href="svg.min.js"/>
<svg id="graph" class="graph">
<g id="viewport">
<title>hal/uc.h</title>
<!-- Node1 -->
<g id="Node000001" class="node">
<title>Node1</title>
<g id="a_Node000001"><a xlink:title=" ">
<polygon fill="#999999" stroke="#666666" points="731,-415 676,-415 676,-396 731,-396 731,-415"/>
<text text-anchor="middle" x="703.5" y="-403" font-family="Helvetica,sans-Serif" font-size="10.00">hal/uc.h</text>
</a>
</g>
</g>
<!-- Node2 -->
<g id="Node000002" class="node">
<title>Node2</title>
<g id="a_Node000002"><a xlink:href="uc_2all_8h.html" target="_top" xlink:title=" ">
<polygon fill="white" stroke="#666666" points="729.5,-360 677.5,-360 677.5,-341 729.5,-341 729.5,-360"/>
<text text-anchor="middle" x="703.5" y="-348" font-family="Helvetica,sans-Serif" font-size="10.00">uc/all.h</text>
</a>
</g>
</g>
<!-- Node1&#45;&gt;Node2 -->
<g id="edge1_Node000001_Node000002" class="edge">
<title>Node1&#45;&gt;Node2</title>
<g id="a_edge1_Node000001_Node000002"><a xlink:title=" ">
<path fill="none" stroke="#63b8ff" d="M703.5,-395.75C703.5,-388.8 703.5,-378.85 703.5,-370.13"/>
<polygon fill="#63b8ff" stroke="#63b8ff" points="707,-370.09 703.5,-360.09 700,-370.09 707,-370.09"/>
</a>
</g>
</g>
<!-- Node3 -->
<g id="Node000003" class="node">
<title>Node3</title>
<g id="a_Node000003"><a xlink:href="map_8h.html" target="_top" xlink:title="HAL for uC Peripheral Map.">
<polygon fill="white" stroke="#666666" points="759,-250 712,-250 712,-231 759,-231 759,-250"/>
<text text-anchor="middle" x="735.5" y="-238" font-family="Helvetica,sans-Serif" font-size="10.00">map.h</text>
</a>
</g>
</g>
<!-- Node2&#45;&gt;Node3 -->
<g id="edge2_Node000002_Node000003" class="edge">
<title>Node2&#45;&gt;Node3</title>
<g id="a_edge2_Node000002_Node000003"><a xlink:title=" ">
<path fill="none" stroke="#63b8ff" d="M729.68,-346.89C774.71,-341.8 863.81,-328.9 882.5,-305 914.38,-264.23 822.14,-249.17 769.46,-244"/>
<polygon fill="#63b8ff" stroke="#63b8ff" points="769.46,-240.48 759.19,-243.06 768.83,-247.45 769.46,-240.48"/>
</a>
</g>
</g>
<!-- Node17 -->
<g id="Node000017" class="node">
<title>Node17</title>
<g id="a_Node000017"><a xlink:href="core_8h.html" target="_top" xlink:title="HAL for uC Core peripherals.">
<polygon fill="white" stroke="#666666" points="278,-305 231,-305 231,-286 278,-286 278,-305"/>
<text text-anchor="middle" x="254.5" y="-293" font-family="Helvetica,sans-Serif" font-size="10.00">core.h</text>
</a>
</g>
</g>
<!-- Node2&#45;&gt;Node17 -->
<g id="edge19_Node000002_Node000017" class="edge">
<title>Node2&#45;&gt;Node17</title>
<g id="a_edge19_Node000002_Node000017"><a xlink:title=" ">
<path fill="none" stroke="#63b8ff" d="M677.13,-347.51C612.06,-342.39 438.73,-327.6 295.5,-305 293.14,-304.63 290.7,-304.21 288.26,-303.77"/>
<polygon fill="#63b8ff" stroke="#63b8ff" points="288.76,-300.3 278.28,-301.83 287.43,-307.17 288.76,-300.3"/>
</a>
</g>
</g>
<!-- Node20 -->
<g id="Node000020" class="node">
<title>Node20</title>
<g id="a_Node000020"><a xlink:href="uc_2crypto_8h.html" target="_top" xlink:title=" ">
<polygon fill="white" stroke="#666666" points="985.5,-305 929.5,-305 929.5,-286 985.5,-286 985.5,-305"/>
<text text-anchor="middle" x="957.5" y="-293" font-family="Helvetica,sans-Serif" font-size="10.00">crypto.h</text>
</a>
</g>
</g>
<!-- Node2&#45;&gt;Node20 -->
<g id="edge23_Node000002_Node000020" class="edge">
<title>Node2&#45;&gt;Node20</title>
<g id="a_edge23_Node000002_Node000020"><a xlink:title=" ">
<path fill="none" stroke="#63b8ff" d="M729.73,-344.03C774.88,-334.61 867.47,-315.29 919.63,-304.4"/>
<polygon fill="#63b8ff" stroke="#63b8ff" points="920.42,-307.81 929.49,-302.34 918.99,-300.96 920.42,-307.81"/>
</a>
</g>
</g>
<!-- Node21 -->
<g id="Node000021" class="node">
<title>Node21</title>
<g id="a_Node000021"><a xlink:href="gpio_8h.html" target="_top" xlink:title="HAL for uC GPIOs.">
<polygon fill="white" stroke="#666666" points="352,-305 305,-305 305,-286 352,-286 352,-305"/>
<text text-anchor="middle" x="328.5" y="-293" font-family="Helvetica,sans-Serif" font-size="10.00">gpio.h</text>
</a>
</g>
</g>
<!-- Node2&#45;&gt;Node21 -->
<g id="edge25_Node000002_Node000021" class="edge">
<title>Node2&#45;&gt;Node21</title>
<g id="a_edge25_Node000002_Node000021"><a xlink:title=" ">
<path fill="none" stroke="#63b8ff" d="M677.5,-347.3C621.49,-342.3 485.19,-328.81 362.15,-305.11"/>
<polygon fill="#63b8ff" stroke="#63b8ff" points="362.67,-301.64 352.19,-303.16 361.33,-308.51 362.67,-301.64"/>
</a>
</g>
</g>
<!-- Node22 -->
<g id="Node000022" class="node">
<title>Node22</title>
<g id="a_Node000022"><a xlink:href="id_8h.html" target="_top" xlink:title="HAL for uC ID.">
<polygon fill="white" stroke="#666666" points="405,-305 370,-305 370,-286 405,-286 405,-305"/>
<text text-anchor="middle" x="387.5" y="-293" font-family="Helvetica,sans-Serif" font-size="10.00">id.h</text>
</a>
</g>
</g>
<!-- Node2&#45;&gt;Node22 -->
<g id="edge28_Node000002_Node000022" class="edge">
<title>Node2&#45;&gt;Node22</title>
<g id="a_edge28_Node000002_Node000022"><a xlink:title=" ">
<path fill="none" stroke="#63b8ff" d="M677.23,-346.93C627.6,-341.76 516.6,-328.71 414.83,-304.99"/>
<polygon fill="#63b8ff" stroke="#63b8ff" points="415.55,-301.56 405.01,-302.66 413.93,-308.37 415.55,-301.56"/>
</a>
</g>
</g>
<!-- Node23 -->
<g id="Node000023" class="node">
<title>Node23</title>
<g id="a_Node000023"><a xlink:href="eeprom_8h.html" target="_top" xlink:title="HAL for uC EEPROM peripherals.">
<polygon fill="white" stroke="#666666" points="486,-305 423,-305 423,-286 486,-286 486,-305"/>
<text text-anchor="middle" x="454.5" y="-293" font-family="Helvetica,sans-Serif" font-size="10.00">eeprom.h</text>
</a>
</g>
</g>
<!-- Node2&#45;&gt;Node23 -->
<g id="edge30_Node000002_Node000023" class="edge">
<title>Node2&#45;&gt;Node23</title>
<g id="a_edge30_Node000002_Node000023"><a xlink:title=" ">
<path fill="none" stroke="#63b8ff" d="M677.32,-343.93C634.13,-334.73 547.58,-316.31 495.98,-305.33"/>
<polygon fill="#63b8ff" stroke="#63b8ff" points="496.66,-301.9 486.15,-303.24 495.21,-308.74 496.66,-301.9"/>
</a>
</g>
</g>
<!-- Node24 -->
<g id="Node000024" class="node">
<title>Node24</title>
<g id="a_Node000024"><a xlink:href="entropy_8h.html" target="_top" xlink:title="HAL for uC entropy source.">
<polygon fill="white" stroke="#666666" points="566.5,-305 504.5,-305 504.5,-286 566.5,-286 566.5,-305"/>
<text text-anchor="middle" x="535.5" y="-293" font-family="Helvetica,sans-Serif" font-size="10.00">entropy.h</text>
</a>
</g>
</g>
<!-- Node2&#45;&gt;Node24 -->
<g id="edge32_Node000002_Node000024" class="edge">
<title>Node2&#45;&gt;Node24</title>
<g id="a_edge32_Node000002_Node000024"><a xlink:title=" ">
<path fill="none" stroke="#63b8ff" d="M677.25,-341.22C649.1,-332.34 604.19,-318.17 572.47,-308.16"/>
<polygon fill="#63b8ff" stroke="#63b8ff" points="573.27,-304.75 562.68,-305.07 571.16,-311.42 573.27,-304.75"/>
</a>
</g>
</g>
<!-- Node25 -->
<g id="Node000025" class="node">
<title>Node25</title>
<g id="a_Node000025"><a xlink:href="uc_2adc_8h.html" target="_top" xlink:title="HAL for uC Internal ADC interfaces.">
<polygon fill="white" stroke="#666666" points="628,-305 585,-305 585,-286 628,-286 628,-305"/>
<text text-anchor="middle" x="606.5" y="-293" font-family="Helvetica,sans-Serif" font-size="10.00">adc.h</text>
</a>
</g>
</g>
<!-- Node2&#45;&gt;Node25 -->
<g id="edge34_Node000002_Node000025" class="edge">
<title>Node2&#45;&gt;Node25</title>
<g id="a_edge34_Node000002_Node000025"><a xlink:title=" ">
<path fill="none" stroke="#63b8ff" d="M687.92,-340.98C672.73,-332.69 649.4,-319.94 631.6,-310.22"/>
<polygon fill="#63b8ff" stroke="#63b8ff" points="632.82,-306.89 622.37,-305.17 629.47,-313.04 632.82,-306.89"/>
</a>
</g>
</g>
<!-- Node26 -->
<g id="Node000026" class="node">
<title>Node26</title>
<g id="a_Node000026"><a xlink:href="uc_2timer_8h.html" target="_top" xlink:title="HAL for uC Timers.">
<polygon fill="white" stroke="#666666" points="697,-305 646,-305 646,-286 697,-286 697,-305"/>
<text text-anchor="middle" x="671.5" y="-293" font-family="Helvetica,sans-Serif" font-size="10.00">timer.h</text>
</a>
</g>
</g>
<!-- Node2&#45;&gt;Node26 -->
<g id="edge36_Node000002_Node000026" class="edge">
<title>Node2&#45;&gt;Node26</title>
<g id="a_edge36_Node000002_Node000026"><a xlink:title=" ">
<path fill="none" stroke="#63b8ff" d="M698.22,-340.75C693.79,-333.42 687.34,-322.73 681.88,-313.7"/>
<polygon fill="#63b8ff" stroke="#63b8ff" points="684.85,-311.84 676.69,-305.09 678.86,-315.46 684.85,-311.84"/>
</a>
</g>
</g>
<!-- Node27 -->
<g id="Node000027" class="node">
<title>Node27</title>
<g id="a_Node000027"><a xlink:href="uc_2uart_8h.html" target="_top" xlink:title=" ">
<polygon fill="white" stroke="#666666" points="1049,-305 1004,-305 1004,-286 1049,-286 1049,-305"/>
<text text-anchor="middle" x="1026.5" y="-293" font-family="Helvetica,sans-Serif" font-size="10.00">uart.h</text>
</a>
</g>
</g>
<!-- Node2&#45;&gt;Node27 -->
<g id="edge38_Node000002_Node000027" class="edge">
<title>Node2&#45;&gt;Node27</title>
<g id="a_edge38_Node000002_Node000027"><a xlink:title=" ">
<path fill="none" stroke="#63b8ff" d="M729.75,-346.45C779.37,-340.48 890.46,-326.13 993.87,-304.92"/>
<polygon fill="#63b8ff" stroke="#63b8ff" points="994.77,-308.3 1003.85,-302.84 993.34,-301.45 994.77,-308.3"/>
</a>
</g>
</g>
<!-- Node30 -->
<g id="Node000030" class="node">
<title>Node30</title>
<g id="a_Node000030"><a xlink:href="spi_8h.html" target="_top" xlink:title="HAL for SPI interfaces.">
<polygon fill="white" stroke="#666666" points="755.5,-305 715.5,-305 715.5,-286 755.5,-286 755.5,-305"/>
<text text-anchor="middle" x="735.5" y="-293" font-family="Helvetica,sans-Serif" font-size="10.00">spi.h</text>
</a>
</g>
</g>
<!-- Node2&#45;&gt;Node30 -->
<g id="edge42_Node000002_Node000030" class="edge">
<title>Node2&#45;&gt;Node30</title>
<g id="a_edge42_Node000002_Node000030"><a xlink:title=" ">
<path fill="none" stroke="#63b8ff" d="M708.78,-340.75C713.21,-333.42 719.66,-322.73 725.12,-313.7"/>
<polygon fill="#63b8ff" stroke="#63b8ff" points="728.14,-315.46 730.31,-305.09 722.15,-311.84 728.14,-315.46"/>
</a>
</g>
</g>
<!-- Node31 -->
<g id="Node000031" class="node">
<title>Node31</title>
<g id="a_Node000031"><a xlink:href="usb_8h.html" target="_top" xlink:title="HAL for USB interface.">
<polygon fill="white" stroke="#666666" points="817,-305 774,-305 774,-286 817,-286 817,-305"/>
<text text-anchor="middle" x="795.5" y="-293" font-family="Helvetica,sans-Serif" font-size="10.00">usb.h</text>
</a>
</g>
</g>
<!-- Node2&#45;&gt;Node31 -->
<g id="edge44_Node000002_Node000031" class="edge">
<title>Node2&#45;&gt;Node31</title>
<g id="a_edge44_Node000002_Node000031"><a xlink:title=" ">
<path fill="none" stroke="#63b8ff" d="M718.28,-340.98C732.68,-332.69 754.81,-319.94 771.69,-310.22"/>
<polygon fill="#63b8ff" stroke="#63b8ff" points="773.53,-313.19 780.45,-305.17 770.04,-307.13 773.53,-313.19"/>
</a>
</g>
</g>
<!-- Node32 -->
<g id="Node000032" class="node">
<title>Node32</title>
<g id="a_Node000032"><a xlink:href="usbcdc_8h.html" target="_top" xlink:title="HAL for USB CDC interface.">
<polygon fill="white" stroke="#666666" points="1126,-305 1067,-305 1067,-286 1126,-286 1126,-305"/>
<text text-anchor="middle" x="1096.5" y="-293" font-family="Helvetica,sans-Serif" font-size="10.00">usbcdc.h</text>
</a>
</g>
</g>
<!-- Node2&#45;&gt;Node32 -->
<g id="edge46_Node000002_Node000032" class="edge">
<title>Node2&#45;&gt;Node32</title>
<g id="a_edge46_Node000002_Node000032"><a xlink:title=" ">
<path fill="none" stroke="#63b8ff" d="M729.9,-347.06C787.52,-341.55 928.99,-327.02 1056.73,-305.17"/>
<polygon fill="#63b8ff" stroke="#63b8ff" points="1057.43,-308.61 1066.68,-303.45 1056.23,-301.71 1057.43,-308.61"/>
</a>
</g>
</g>
<!-- Node33 -->
<g id="Node000033" class="node">
<title>Node33</title>
<g id="a_Node000033"><a xlink:href="uc_2rtc_8h.html" target="_top" xlink:title="HAL for uC RTCs.">
<polygon fill="white" stroke="#666666" points="873.5,-305 835.5,-305 835.5,-286 873.5,-286 873.5,-305"/>
<text text-anchor="middle" x="854.5" y="-293" font-family="Helvetica,sans-Serif" font-size="10.00">rtc.h</text>
</a>
</g>
</g>
<!-- Node2&#45;&gt;Node33 -->
<g id="edge50_Node000002_Node000033" class="edge">
<title>Node2&#45;&gt;Node33</title>
<g id="a_edge50_Node000002_Node000033"><a xlink:title=" ">
<path fill="none" stroke="#63b8ff" d="M727.76,-340.98C754.34,-331.65 796.97,-316.69 825.35,-306.73"/>
<polygon fill="#63b8ff" stroke="#63b8ff" points="826.82,-309.92 835.1,-303.31 824.5,-303.32 826.82,-309.92"/>
</a>
</g>
</g>
<!-- Node4 -->
<g id="Node000004" class="node">
<title>Node4</title>
<g id="a_Node000004"><a xlink:title=" ">
<polygon fill="#e0e0e0" stroke="#999999" points="1021,-19 968,-19 968,0 1021,0 1021,-19"/>
<text text-anchor="middle" x="994.5" y="-7" font-family="Helvetica,sans-Serif" font-size="10.00">stdint.h</text>
</a>
</g>
</g>
<!-- Node3&#45;&gt;Node4 -->
<g id="edge3_Node000003_Node000004" class="edge">
<title>Node3&#45;&gt;Node4</title>
<g id="a_edge3_Node000003_Node000004"><a xlink:title=" ">
<path fill="none" stroke="#63b8ff" d="M759.37,-236.04C787.38,-231 834.08,-219.43 866.5,-195 927.42,-149.08 970,-65.56 986.68,-28.75"/>
<polygon fill="#63b8ff" stroke="#63b8ff" points="990.01,-29.86 990.85,-19.3 983.61,-27.03 990.01,-29.86"/>
</a>
</g>
</g>
<!-- Node5 -->
<g id="Node000005" class="node">
<title>Node5</title>
<g id="a_Node000005"><a xlink:title=" ">
<polygon fill="#e0e0e0" stroke="#999999" points="681.5,-19 583.5,-19 583.5,0 681.5,0 681.5,-19"/>
<text text-anchor="middle" x="632.5" y="-7" font-family="Helvetica,sans-Serif" font-size="10.00">platform/types.h</text>
</a>
</g>
</g>
<!-- Node3&#45;&gt;Node5 -->
<g id="edge4_Node000003_Node000005" class="edge">
<title>Node3&#45;&gt;Node5</title>
<g id="a_edge4_Node000003_Node000005"><a xlink:title=" ">
<path fill="none" stroke="#63b8ff" d="M735.63,-230.97C735.59,-216.85 734.43,-187.9 726.5,-165 707.58,-110.36 667.23,-54.37 646.08,-27.26"/>
<polygon fill="#63b8ff" stroke="#63b8ff" points="648.65,-24.87 639.7,-19.21 643.17,-29.22 648.65,-24.87"/>
</a>
</g>
</g>
<!-- Node6 -->
<g id="Node000006" class="node">
<title>Node6</title>
<g id="a_Node000006"><a xlink:href="types_8h.html" target="_top" xlink:title=" ">
<polygon fill="white" stroke="#666666" points="857,-189.5 786,-189.5 786,-170.5 857,-170.5 857,-189.5"/>
<text text-anchor="middle" x="821.5" y="-177.5" font-family="Helvetica,sans-Serif" font-size="10.00">hal/types.h</text>
</a>
</g>
</g>
<!-- Node3&#45;&gt;Node6 -->
<g id="edge5_Node000003_Node000006" class="edge">
<title>Node3&#45;&gt;Node6</title>
<g id="a_edge5_Node000003_Node000006"><a xlink:title=" ">
<path fill="none" stroke="#63b8ff" d="M748.19,-230.87C761.91,-221.54 784,-206.51 800.35,-195.38"/>
<polygon fill="#63b8ff" stroke="#63b8ff" points="802.46,-198.19 808.76,-189.67 798.52,-192.4 802.46,-198.19"/>
</a>
</g>
</g>
<!-- Node13 -->
<g id="Node000013" class="node">
<title>Node13</title>
<g id="a_Node000013"><a xlink:title=" ">
<polygon fill="#e0e0e0" stroke="#999999" points="1076.5,-189.5 996.5,-189.5 996.5,-170.5 1076.5,-170.5 1076.5,-189.5"/>
<text text-anchor="middle" x="1036.5" y="-177.5" font-family="Helvetica,sans-Serif" font-size="10.00">application.h</text>
</a>
</g>
</g>
<!-- Node3&#45;&gt;Node13 -->
<g id="edge15_Node000003_Node000013" class="edge">
<title>Node3&#45;&gt;Node13</title>
<g id="a_edge15_Node000003_Node000013"><a xlink:title=" ">
<path fill="none" stroke="#63b8ff" d="M759.12,-235.85C803.22,-228.91 901,-212.88 982.5,-195 986.65,-194.09 990.96,-193.08 995.26,-192.03"/>
<polygon fill="#63b8ff" stroke="#63b8ff" points="996.34,-195.37 1005.19,-189.55 994.64,-188.58 996.34,-195.37"/>
</a>
</g>
</g>
<!-- Node14 -->
<g id="Node000014" class="node">
<title>Node14</title>
<g id="a_Node000014"><a xlink:title=" ">
<polygon fill="#e0e0e0" stroke="#999999" points="473,-189.5 372,-189.5 372,-170.5 473,-170.5 473,-189.5"/>
<text text-anchor="middle" x="422.5" y="-177.5" font-family="Helvetica,sans-Serif" font-size="10.00">platform/debug.h</text>
</a>
</g>
</g>
<!-- Node3&#45;&gt;Node14 -->
<g id="edge16_Node000003_Node000014" class="edge">
<title>Node3&#45;&gt;Node14</title>
<g id="a_edge16_Node000003_Node000014"><a xlink:title=" ">
<path fill="none" stroke="#63b8ff" d="M711.7,-235.76C666.76,-228.61 566.39,-212.15 482.5,-195 477.71,-194.02 472.72,-192.94 467.74,-191.84"/>
<polygon fill="#63b8ff" stroke="#63b8ff" points="468.17,-188.35 457.65,-189.54 466.62,-195.17 468.17,-188.35"/>
</a>
</g>
</g>
<!-- Node15 -->
<g id="Node000015" class="node">
<title>Node15</title>
<g id="a_Node000015"><a xlink:title=" ">
<polygon fill="#e0e0e0" stroke="#999999" points="579.5,-189.5 491.5,-189.5 491.5,-170.5 579.5,-170.5 579.5,-189.5"/>
<text text-anchor="middle" x="535.5" y="-177.5" font-family="Helvetica,sans-Serif" font-size="10.00">platform/cpu.h</text>
</a>
</g>
</g>
<!-- Node3&#45;&gt;Node15 -->
<g id="edge17_Node000003_Node000015" class="edge">
<title>Node3&#45;&gt;Node15</title>
<g id="a_edge17_Node000003_Node000015"><a xlink:title=" ">
<path fill="none" stroke="#63b8ff" d="M711.77,-232.56C677.84,-222.63 615.05,-204.27 574.3,-192.35"/>
<polygon fill="#63b8ff" stroke="#63b8ff" points="575.28,-188.99 564.7,-189.54 573.31,-195.71 575.28,-188.99"/>
</a>
</g>
</g>
<!-- Node16 -->
<g id="Node000016" class="node">
<title>Node16</title>
<g id="a_Node000016"><a xlink:title=" ">
<polygon fill="#e0e0e0" stroke="#999999" points="717.5,-195 597.5,-195 597.5,-165 717.5,-165 717.5,-195"/>
<text text-anchor="start" x="605.5" y="-183" font-family="Helvetica,sans-Serif" font-size="10.00">hal_platform/uc_map</text>
<text text-anchor="middle" x="657.5" y="-172" font-family="Helvetica,sans-Serif" font-size="10.00">_impl.h</text>
</a>
</g>
</g>
<!-- Node3&#45;&gt;Node16 -->
<g id="edge18_Node000003_Node000016" class="edge">
<title>Node3&#45;&gt;Node16</title>
<g id="a_edge18_Node000003_Node000016"><a xlink:title=" ">
<path fill="none" stroke="#63b8ff" d="M723.99,-230.87C713.6,-223.08 697.92,-211.32 684.4,-201.17"/>
<polygon fill="#63b8ff" stroke="#63b8ff" points="686.42,-198.31 676.32,-195.11 682.22,-203.91 686.42,-198.31"/>
</a>
</g>
</g>
<!-- Node7 -->
<g id="Node000007" class="node">
<title>Node7</title>
<g id="a_Node000007"><a xlink:href="types_2all_8h.html" target="_top" xlink:title=" ">
<polygon fill="white" stroke="#666666" points="858.5,-129 790.5,-129 790.5,-110 858.5,-110 858.5,-129"/>
<text text-anchor="middle" x="824.5" y="-117" font-family="Helvetica,sans-Serif" font-size="10.00">types/all.h</text>
</a>
</g>
</g>
<!-- Node6&#45;&gt;Node7 -->
<g id="edge6_Node000006_Node000007" class="edge">
<title>Node6&#45;&gt;Node7</title>
<g id="a_edge6_Node000006_Node000007"><a xlink:title=" ">
<path fill="none" stroke="#63b8ff" d="M821.94,-170.37C822.36,-162.25 823,-149.81 823.53,-139.39"/>
<polygon fill="#63b8ff" stroke="#63b8ff" points="827.04,-139.33 824.06,-129.17 820.05,-138.97 827.04,-139.33"/>
</a>
</g>
</g>
<!-- Node8 -->
<g id="Node000008" class="node">
<title>Node8</title>
<g id="a_Node000008"><a xlink:href="types_2crypto_8h.html" target="_top" xlink:title=" ">
<polygon fill="white" stroke="#666666" points="940.5,-74 884.5,-74 884.5,-55 940.5,-55 940.5,-74"/>
<text text-anchor="middle" x="912.5" y="-62" font-family="Helvetica,sans-Serif" font-size="10.00">crypto.h</text>
</a>
</g>
</g>
<!-- Node7&#45;&gt;Node8 -->
<g id="edge7_Node000007_Node000008" class="edge">
<title>Node7&#45;&gt;Node8</title>
<g id="a_edge7_Node000007_Node000008"><a xlink:title=" ">
<path fill="none" stroke="#63b8ff" d="M838.64,-109.98C852.29,-101.77 873.19,-89.18 889.28,-79.49"/>
<polygon fill="#63b8ff" stroke="#63b8ff" points="891.34,-82.33 898.1,-74.17 887.73,-76.33 891.34,-82.33"/>
</a>
</g>
</g>
<!-- Node10 -->
<g id="Node000010" class="node">
<title>Node10</title>
<g id="a_Node000010"><a xlink:href="types_2rtc_8h.html" target="_top" xlink:title=" ">
<polygon fill="white" stroke="#666666" points="866.5,-74 828.5,-74 828.5,-55 866.5,-55 866.5,-74"/>
<text text-anchor="middle" x="847.5" y="-62" font-family="Helvetica,sans-Serif" font-size="10.00">rtc.h</text>
</a>
</g>
</g>
<!-- Node7&#45;&gt;Node10 -->
<g id="edge10_Node000007_Node000010" class="edge">
<title>Node7&#45;&gt;Node10</title>
<g id="a_edge10_Node000007_Node000010"><a xlink:title=" ">
<path fill="none" stroke="#63b8ff" d="M828.3,-109.75C831.41,-102.57 835.92,-92.18 839.79,-83.27"/>
<polygon fill="#63b8ff" stroke="#63b8ff" points="843,-84.66 843.77,-74.09 836.58,-81.87 843,-84.66"/>
</a>
</g>
</g>
<!-- Node12 -->
<g id="Node000012" class="node">
<title>Node12</title>
<g id="a_Node000012"><a xlink:href="types_2uart_8h.html" target="_top" xlink:title=" ">
<polygon fill="white" stroke="#666666" points="810,-74 765,-74 765,-55 810,-55 810,-74"/>
<text text-anchor="middle" x="787.5" y="-62" font-family="Helvetica,sans-Serif" font-size="10.00">uart.h</text>
</a>
</g>
</g>
<!-- Node7&#45;&gt;Node12 -->
<g id="edge13_Node000007_Node000012" class="edge">
<title>Node7&#45;&gt;Node12</title>
<g id="a_edge13_Node000007_Node000012"><a xlink:title=" ">
<path fill="none" stroke="#63b8ff" d="M818.39,-109.75C813.22,-102.34 805.65,-91.5 799.31,-82.41"/>
<polygon fill="#63b8ff" stroke="#63b8ff" points="802.09,-80.29 793.5,-74.09 796.35,-84.29 802.09,-80.29"/>
</a>
</g>
</g>
<!-- Node8&#45;&gt;Node4 -->
<g id="edge8_Node000008_Node000004" class="edge">
<title>Node8&#45;&gt;Node4</title>
<g id="a_edge8_Node000008_Node000004"><a xlink:title=" ">
<path fill="none" stroke="#63b8ff" d="M925.67,-54.98C938.27,-46.84 957.5,-34.41 972.44,-24.76"/>
<polygon fill="#63b8ff" stroke="#63b8ff" points="974.59,-27.54 981.09,-19.17 970.79,-21.66 974.59,-27.54"/>
</a>
</g>
</g>
<!-- Node9 -->
<g id="Node000009" class="node">
<title>Node9</title>
<g id="a_Node000009"><a xlink:href="constants_2crypto_8h.html" target="_top" xlink:title=" ">
<polygon fill="white" stroke="#666666" points="950,-19 825,-19 825,0 950,0 950,-19"/>
<text text-anchor="middle" x="887.5" y="-7" font-family="Helvetica,sans-Serif" font-size="10.00">hal/constants/crypto.h</text>
</a>
</g>
</g>
<!-- Node8&#45;&gt;Node9 -->
<g id="edge9_Node000008_Node000009" class="edge">
<title>Node8&#45;&gt;Node9</title>
<g id="a_edge9_Node000008_Node000009"><a xlink:title=" ">
<path fill="none" stroke="#63b8ff" d="M908.37,-54.75C904.99,-47.57 900.08,-37.18 895.88,-28.27"/>
<polygon fill="#63b8ff" stroke="#63b8ff" points="898.98,-26.64 891.55,-19.09 892.65,-29.63 898.98,-26.64"/>
</a>
</g>
</g>
<!-- Node10&#45;&gt;Node4 -->
<g id="edge11_Node000010_Node000004" class="edge">
<title>Node10&#45;&gt;Node4</title>
<g id="a_edge11_Node000010_Node000004"><a xlink:title=" ">
<path fill="none" stroke="#63b8ff" d="M866.72,-56.57C890.67,-47.94 931.98,-33.04 961.14,-22.53"/>
<polygon fill="#63b8ff" stroke="#63b8ff" points="962.68,-25.69 970.9,-19.01 960.31,-19.11 962.68,-25.69"/>
</a>
</g>
</g>
<!-- Node11 -->
<g id="Node000011" class="node">
<title>Node11</title>
<g id="a_Node000011"><a xlink:href="constants_2rtc_8h.html" target="_top" xlink:title=" ">
<polygon fill="white" stroke="#666666" points="807,-19 700,-19 700,0 807,0 807,-19"/>
<text text-anchor="middle" x="753.5" y="-7" font-family="Helvetica,sans-Serif" font-size="10.00">hal/constants/rtc.h</text>
</a>
</g>
</g>
<!-- Node10&#45;&gt;Node11 -->
<g id="edge12_Node000010_Node000011" class="edge">
<title>Node10&#45;&gt;Node11</title>
<g id="a_edge12_Node000010_Node000011"><a xlink:title=" ">
<path fill="none" stroke="#63b8ff" d="M832.4,-54.98C817.68,-46.69 795.08,-33.94 777.83,-24.22"/>
<polygon fill="#63b8ff" stroke="#63b8ff" points="779.31,-21.03 768.88,-19.17 775.87,-27.13 779.31,-21.03"/>
</a>
</g>
</g>
<!-- Node12&#45;&gt;Node5 -->
<g id="edge14_Node000012_Node000005" class="edge">
<title>Node12&#45;&gt;Node5</title>
<g id="a_edge14_Node000012_Node000005"><a xlink:title=" ">
<path fill="none" stroke="#63b8ff" d="M764.96,-55.79C739.24,-47 696.87,-32.51 666.99,-22.29"/>
<polygon fill="#63b8ff" stroke="#63b8ff" points="667.97,-18.93 657.38,-19.01 665.71,-25.55 667.97,-18.93"/>
</a>
</g>
</g>
<!-- Node17&#45;&gt;Node3 -->
<g id="edge20_Node000017_Node000003" class="edge">
<title>Node17&#45;&gt;Node3</title>
<g id="a_edge20_Node000017_Node000003"><a xlink:title=" ">
<path fill="none" stroke="#63b8ff" d="M278.27,-289.14C283.9,-287.99 289.9,-286.86 295.5,-286 445.94,-262.86 627.25,-248.87 701.4,-243.74"/>
<polygon fill="#63b8ff" stroke="#63b8ff" points="701.8,-247.22 711.54,-243.05 701.33,-240.24 701.8,-247.22"/>
</a>
</g>
</g>
<!-- Node18 -->
<g id="Node000018" class="node">
<title>Node18</title>
<g id="a_Node000018"><a xlink:title=" ">
<polygon fill="#e0e0e0" stroke="#999999" points="139,-250 0,-250 0,-231 139,-231 139,-250"/>
<text text-anchor="middle" x="69.5" y="-238" font-family="Helvetica,sans-Serif" font-size="10.00">hal_platform/core_impl.h</text>
</a>
</g>
</g>
<!-- Node17&#45;&gt;Node18 -->
<g id="edge21_Node000017_Node000018" class="edge">
<title>Node17&#45;&gt;Node18</title>
<g id="a_edge21_Node000017_Node000018"><a xlink:title=" ">
<path fill="none" stroke="#63b8ff" d="M230.69,-287.68C200.01,-278.89 146.22,-263.48 109.27,-252.89"/>
<polygon fill="#63b8ff" stroke="#63b8ff" points="109.91,-249.44 99.33,-250.05 107.98,-256.17 109.91,-249.44"/>
</a>
</g>
</g>
<!-- Node19 -->
<g id="Node000019" class="node">
<title>Node19</title>
<g id="a_Node000019"><a xlink:title=" ">
<polygon fill="#e0e0e0" stroke="#999999" points="316,-250 157,-250 157,-231 316,-231 316,-250"/>
<text text-anchor="middle" x="236.5" y="-238" font-family="Helvetica,sans-Serif" font-size="10.00">hal_platform/core_handlers.h</text>
</a>
</g>
</g>
<!-- Node17&#45;&gt;Node19 -->
<g id="edge22_Node000017_Node000019" class="edge">
<title>Node17&#45;&gt;Node19</title>
<g id="a_edge22_Node000017_Node000019"><a xlink:title=" ">
<path fill="none" stroke="#63b8ff" d="M251.53,-285.75C249.14,-278.72 245.71,-268.62 242.73,-259.84"/>
<polygon fill="#63b8ff" stroke="#63b8ff" points="245.95,-258.43 239.42,-250.09 239.32,-260.68 245.95,-258.43"/>
</a>
</g>
</g>
<!-- Node20&#45;&gt;Node3 -->
<g id="edge24_Node000020_Node000003" class="edge">
<title>Node20&#45;&gt;Node3</title>
<g id="a_edge24_Node000020_Node000003"><a xlink:title=" ">
<path fill="none" stroke="#63b8ff" d="M929.38,-287.79C888.45,-278.01 812.56,-259.9 768.86,-249.46"/>
<polygon fill="#63b8ff" stroke="#63b8ff" points="769.54,-246.03 759,-247.11 767.91,-252.84 769.54,-246.03"/>
</a>
</g>
</g>
<!-- Node21&#45;&gt;Node3 -->
<g id="edge27_Node000021_Node000003" class="edge">
<title>Node21&#45;&gt;Node3</title>
<g id="a_edge27_Node000021_Node000003"><a xlink:title=" ">
<path fill="none" stroke="#63b8ff" d="M352.18,-287.81C354.97,-287.14 357.79,-286.52 360.5,-286 484.94,-262.21 635.19,-248.98 701.38,-243.92"/>
<polygon fill="#63b8ff" stroke="#63b8ff" points="701.92,-247.39 711.63,-243.15 701.39,-240.41 701.92,-247.39"/>
</a>
</g>
</g>
<!-- Node21&#45;&gt;Node5 -->
<g id="edge26_Node000021_Node000005" class="edge">
<title>Node21&#45;&gt;Node5</title>
<g id="a_edge26_Node000021_Node000005"><a xlink:title=" ">
<path fill="none" stroke="#63b8ff" d="M330.46,-285.72C334.53,-266.73 343.5,-220.35 343.5,-181 343.5,-181 343.5,-181 343.5,-118.5 343.5,-69.86 488.96,-35.88 573.48,-20.24"/>
<polygon fill="#63b8ff" stroke="#63b8ff" points="574.26,-23.65 583.48,-18.42 573.01,-16.76 574.26,-23.65"/>
</a>
</g>
</g>
<!-- Node22&#45;&gt;Node3 -->
<g id="edge29_Node000022_Node000003" class="edge">
<title>Node22&#45;&gt;Node3</title>
<g id="a_edge29_Node000022_Node000003"><a xlink:title=" ">
<path fill="none" stroke="#63b8ff" d="M405,-288.31C407.82,-287.45 410.72,-286.64 413.5,-286 517.04,-262.12 642.45,-249.3 701.56,-244.18"/>
<polygon fill="#63b8ff" stroke="#63b8ff" points="702.14,-247.65 711.8,-243.32 701.55,-240.67 702.14,-247.65"/>
</a>
</g>
</g>
<!-- Node23&#45;&gt;Node3 -->
<g id="edge31_Node000023_Node000003" class="edge">
<title>Node23&#45;&gt;Node3</title>
<g id="a_edge31_Node000023_Node000003"><a xlink:title=" ">
<path fill="none" stroke="#63b8ff" d="M486.27,-287.84C489.39,-287.21 492.5,-286.59 495.5,-286 568.99,-271.57 655.4,-255.86 701.86,-247.51"/>
<polygon fill="#63b8ff" stroke="#63b8ff" points="702.74,-250.9 711.96,-245.69 701.5,-244.01 702.74,-250.9"/>
</a>
</g>
</g>
<!-- Node24&#45;&gt;Node3 -->
<g id="edge33_Node000024_Node000003" class="edge">
<title>Node24&#45;&gt;Node3</title>
<g id="a_edge33_Node000024_Node000003"><a xlink:title=" ">
<path fill="none" stroke="#63b8ff" d="M566.75,-286.22C603.5,-276.48 664.27,-260.37 701.98,-250.38"/>
<polygon fill="#63b8ff" stroke="#63b8ff" points="703.2,-253.68 711.97,-247.74 701.41,-246.91 703.2,-253.68"/>
</a>
</g>
</g>
<!-- Node25&#45;&gt;Node3 -->
<g id="edge35_Node000025_Node000003" class="edge">
<title>Node25&#45;&gt;Node3</title>
<g id="a_edge35_Node000025_Node000003"><a xlink:title=" ">
<path fill="none" stroke="#63b8ff" d="M627.23,-285.98C648.26,-277.34 681.05,-263.87 705.04,-254.02"/>
<polygon fill="#63b8ff" stroke="#63b8ff" points="706.48,-257.21 714.4,-250.17 703.82,-250.73 706.48,-257.21"/>
</a>
</g>
</g>
<!-- Node26&#45;&gt;Node3 -->
<g id="edge37_Node000026_Node000003" class="edge">
<title>Node26&#45;&gt;Node3</title>
<g id="a_edge37_Node000026_Node000003"><a xlink:title=" ">
<path fill="none" stroke="#63b8ff" d="M681.78,-285.98C691.34,-278.07 705.78,-266.11 717.28,-256.58"/>
<polygon fill="#63b8ff" stroke="#63b8ff" points="719.56,-259.24 725.03,-250.17 715.1,-253.85 719.56,-259.24"/>
</a>
</g>
</g>
<!-- Node27&#45;&gt;Node3 -->
<g id="edge39_Node000027_Node000003" class="edge">
<title>Node27&#45;&gt;Node3</title>
<g id="a_edge39_Node000027_Node000003"><a xlink:title=" ">
<path fill="none" stroke="#63b8ff" d="M1003.84,-288.21C1000.71,-287.42 997.53,-286.66 994.5,-286 914.35,-268.51 819.02,-253.63 769.37,-246.33"/>
<polygon fill="#63b8ff" stroke="#63b8ff" points="769.61,-242.83 759.21,-244.85 768.6,-249.75 769.61,-242.83"/>
</a>
</g>
</g>
<!-- Node28 -->
<g id="Node000028" class="node">
<title>Node28</title>
<g id="a_Node000028"><a xlink:title=" ">
<polygon fill="#e0e0e0" stroke="#999999" points="1037.5,-250 981.5,-250 981.5,-231 1037.5,-231 1037.5,-250"/>
<text text-anchor="middle" x="1009.5" y="-238" font-family="Helvetica,sans-Serif" font-size="10.00">stdarg.h</text>
</a>
</g>
</g>
<!-- Node27&#45;&gt;Node28 -->
<g id="edge40_Node000027_Node000028" class="edge">
<title>Node27&#45;&gt;Node28</title>
<g id="a_edge40_Node000027_Node000028"><a xlink:title=" ">
<path fill="none" stroke="#63b8ff" d="M1023.69,-285.75C1021.44,-278.72 1018.2,-268.62 1015.38,-259.84"/>
<polygon fill="#63b8ff" stroke="#63b8ff" points="1018.64,-258.54 1012.25,-250.09 1011.98,-260.68 1018.64,-258.54"/>
</a>
</g>
</g>
<!-- Node29 -->
<g id="Node000029" class="node">
<title>Node29</title>
<g id="a_Node000029"><a xlink:title=" ">
<polygon fill="#e0e0e0" stroke="#999999" points="1171,-250 1056,-250 1056,-231 1171,-231 1171,-250"/>
<text text-anchor="middle" x="1113.5" y="-238" font-family="Helvetica,sans-Serif" font-size="10.00">platform/transport.h</text>
</a>
</g>
</g>
<!-- Node27&#45;&gt;Node29 -->
<g id="edge41_Node000027_Node000029" class="edge">
<title>Node27&#45;&gt;Node29</title>
<g id="a_edge41_Node000027_Node000029"><a xlink:title=" ">
<path fill="none" stroke="#63b8ff" d="M1040.48,-285.98C1053.97,-277.77 1074.63,-265.18 1090.54,-255.49"/>
<polygon fill="#63b8ff" stroke="#63b8ff" points="1092.55,-258.36 1099.27,-250.17 1088.91,-252.38 1092.55,-258.36"/>
</a>
</g>
</g>
<!-- Node30&#45;&gt;Node3 -->
<g id="edge43_Node000030_Node000003" class="edge">
<title>Node30&#45;&gt;Node3</title>
<g id="a_edge43_Node000030_Node000003"><a xlink:title=" ">
<path fill="none" stroke="#63b8ff" d="M735.5,-285.75C735.5,-278.8 735.5,-268.85 735.5,-260.13"/>
<polygon fill="#63b8ff" stroke="#63b8ff" points="739,-260.09 735.5,-250.09 732,-260.09 739,-260.09"/>
</a>
</g>
</g>
<!-- Node31&#45;&gt;Node3 -->
<g id="edge45_Node000031_Node000003" class="edge">
<title>Node31&#45;&gt;Node3</title>
<g id="a_edge45_Node000031_Node000003"><a xlink:title=" ">
<path fill="none" stroke="#63b8ff" d="M785.86,-285.98C776.99,-278.15 763.63,-266.34 752.89,-256.86"/>
<polygon fill="#63b8ff" stroke="#63b8ff" points="755.13,-254.17 745.32,-250.17 750.49,-259.41 755.13,-254.17"/>
</a>
</g>
</g>
<!-- Node32&#45;&gt;Node3 -->
<g id="edge48_Node000032_Node000003" class="edge">
<title>Node32&#45;&gt;Node3</title>
<g id="a_edge48_Node000032_Node000003"><a xlink:title=" ">
<path fill="none" stroke="#63b8ff" d="M1066.68,-287.58C1063.92,-287.02 1061.16,-286.48 1058.5,-286 953.61,-267.08 828.29,-251.92 769.33,-245.22"/>
<polygon fill="#63b8ff" stroke="#63b8ff" points="769.44,-241.71 759.11,-244.07 768.66,-248.67 769.44,-241.71"/>
</a>
</g>
</g>
<!-- Node32&#45;&gt;Node28 -->
<g id="edge47_Node000032_Node000028" class="edge">
<title>Node32&#45;&gt;Node28</title>
<g id="a_edge47_Node000032_Node000028"><a xlink:title=" ">
<path fill="none" stroke="#63b8ff" d="M1082.52,-285.98C1069.03,-277.77 1048.37,-265.18 1032.46,-255.49"/>
<polygon fill="#63b8ff" stroke="#63b8ff" points="1034.09,-252.38 1023.73,-250.17 1030.45,-258.36 1034.09,-252.38"/>
</a>
</g>
</g>
<!-- Node32&#45;&gt;Node29 -->
<g id="edge49_Node000032_Node000029" class="edge">
<title>Node32&#45;&gt;Node29</title>
<g id="a_edge49_Node000032_Node000029"><a xlink:title=" ">
<path fill="none" stroke="#63b8ff" d="M1099.31,-285.75C1101.56,-278.72 1104.8,-268.62 1107.62,-259.84"/>
<polygon fill="#63b8ff" stroke="#63b8ff" points="1111.02,-260.68 1110.75,-250.09 1104.36,-258.54 1111.02,-260.68"/>
</a>
</g>
</g>
<!-- Node33&#45;&gt;Node3 -->
<g id="edge51_Node000033_Node000003" class="edge">
<title>Node33&#45;&gt;Node3</title>
<g id="a_edge51_Node000033_Node000003"><a xlink:title=" ">
<path fill="none" stroke="#63b8ff" d="M835.38,-285.98C816.15,-277.42 786.27,-264.11 764.19,-254.28"/>
<polygon fill="#63b8ff" stroke="#63b8ff" points="765.53,-251.04 754.97,-250.17 762.68,-257.44 765.53,-251.04"/>
</a>
</g>
</g>
</g>
</svg>

<g id="navigator" transform="translate(0 0)" fill="#404254">
  <rect fill="#f2f5e9" fill-opacity="0.5" stroke="#606060" stroke-width=".5" x="0" y="0" width="60" height="60"/>
  <use id="zoomplus" xlink:href="#zoomPlus" x="17" y="9" onmousedown="handleZoom(evt,'in')"/>
  <use id="zoomminus" xlink:href="#zoomMin" x="42" y="9" onmousedown="handleZoom(evt,'out')"/>
  <use id="reset" xlink:href="#resetDef" x="30" y="36" onmousedown="handleReset()"/>
   <use id="arrowup" xlink:href="#arrowUp" x="0" y="0" onmousedown="handlePan(0,-1)"/>
  <use id="arrowright" xlink:href="#arrowRight" x="0" y="0" onmousedown="handlePan(1,0)"/>
  <use id="arrowdown" xlink:href="#arrowDown" x="0" y="0" onmousedown="handlePan(0,1)"/>
  <use id="arrowleft" xlink:href="#arrowLeft" x="0" y="0" onmousedown="handlePan(-1,0)"/>
</g>
<svg viewBox="0 0 15 15" width="100%" height="30px" preserveAspectRatio="xMaxYMin meet">
 <g id="arrow_out" transform="scale(0.3 0.3)">
  <a xlink:href="uc_8h__incl_org.svg" target="_base">
   <rect id="button" ry="5" rx="5" y="6" x="6" height="38" width="38"
        fill="#f2f5e9" fill-opacity="0.5" stroke="#606060" stroke-width="1.0"/>
   <path id="arrow"
     d="M 11.500037,31.436501 C 11.940474,20.09759 22.043105,11.32322 32.158766,21.979434 L 37.068811,17.246167 C 37.068811,17.246167 37.088388,32 37.088388,32 L 22.160133,31.978069 C 22.160133,31.978069 26.997745,27.140456 26.997745,27.140456 C 18.528582,18.264221 13.291696,25.230495 11.500037,31.436501 z"
     style="fill:#404040;"/>
  </a>
 </g>
</svg>

<style type='text/css'>
<![CDATA[
[data-mouse-over-selected='false'] { opacity: 0.7; }
[data-mouse-over-selected='true']  { opacity: 1.0; }
]]>
</style>
<script type="application/ecmascript"><![CDATA[
document.addEventListener('DOMContentLoaded', (event) => {
  highlightEdges();
  highlightAdjacentNodes();
});
]]></script>
</svg>
