<?xml version="1.0" encoding="UTF-8" standalone="no"?>
<!DOCTYPE svg PUBLIC "-//W3C//DTD SVG 1.1//EN"
 "http://www.w3.org/Graphics/SVG/1.1/DTD/svg11.dtd">
<!-- Generated by graphviz version 2.43.0 (0)
 -->
<!-- Title: hal/uc/usbcdc.h Pages: 1 -->
<!--zoomable 319 -->
<svg id="main" version="1.1" xmlns="http://www.w3.org/2000/svg" xmlns:xlink="http://www.w3.org/1999/xlink" xml:space="preserve" onload="init(evt)">
<style type="text/css"><![CDATA[
.edge:hover path { stroke: red; }
.edge:hover polygon { stroke: red; fill: red; }
]]></style>
<script type="text/javascript"><![CDATA[
var edges = document.getElementsByTagName('g');
if (edges && edges.length) {
  for (var i=0;i<edges.length;i++) {
    if (edges[i].id.substr(0,4)=='edge') {
      edges[i].setAttribute('class','edge');
    }
  }
}
]]></script>
        <defs>
                <circle id="rim" cx="0" cy="0" r="7"/>
                <circle id="rim2" cx="0" cy="0" r="3.5"/>
                <g id="zoomPlus">
                        <use xlink:href="#rim" fill="#404040">
                                <set attributeName="fill" to="#808080" begin="zoomplus.mouseover" end="zoomplus.mouseout"/>
                        </use>
                        <path d="M-4,0h8M0,-4v8" fill="none" stroke="white" stroke-width="1.5" pointer-events="none"/>
                </g>
                <g id="zoomMin">
                        <use xlink:href="#rim" fill="#404040">
                                <set attributeName="fill" to="#808080" begin="zoomminus.mouseover" end="zoomminus.mouseout"/>
                        </use>
                        <path d="M-4,0h8" fill="none" stroke="white" stroke-width="1.5" pointer-events="none"/>
                </g>
                <g id="dirArrow">
                        <path fill="none" stroke="white" stroke-width="1.5" d="M0,-3.0v7 M-2.5,-0.5L0,-3.0L2.5,-0.5"/>
                </g>
               <g id="resetDef">
                       <use xlink:href="#rim2" fill="#404040">
                               <set attributeName="fill" to="#808080" begin="reset.mouseover" end="reset.mouseout"/>
                       </use>
               </g>
        </defs>

<script type="text/javascript">
var viewWidth = 689;
var viewHeight = 319;
var sectionId = 'dynsection-0';
</script>
<script xlink:href="svgpan.js"/>
<svg id="graph" class="graph">
<g id="viewport">
<title>hal/uc/usbcdc.h</title>
<!-- Node1 -->
<g id="node1" class="node">
<title>Node1</title>
<g id="a_node1"><a xlink:title="HAL for USB CDC interface.">
<polygon fill="#bfbfbf" stroke="black" points="231.09,-291.5 231.09,-310.5 323.09,-310.5 323.09,-291.5 231.09,-291.5"/>
<text text-anchor="middle" x="277.09" y="-298.5" font-family="Helvetica,sans-Serif" font-size="10.00">hal/uc/usbcdc.h</text>
</a>
</g>
</g>
<!-- Node2 -->
<g id="node2" class="node">
<title>Node2</title>
<g id="a_node2"><a xlink:title=" ">
<polygon fill="none" stroke="#bfbfbf" points="179.09,-235.5 179.09,-254.5 235.09,-254.5 235.09,-235.5 179.09,-235.5"/>
<text text-anchor="middle" x="207.09" y="-242.5" font-family="Helvetica,sans-Serif" font-size="10.00">stdarg.h</text>
</a>
</g>
</g>
<!-- Node1&#45;&gt;Node2 -->
<g id="edge1" class="edge">
<title>Node1&#45;&gt;Node2</title>
<path fill="none" stroke="midnightblue" d="M265.85,-291.32C255.3,-283.18 239.29,-270.84 226.65,-261.09"/>
<polygon fill="midnightblue" stroke="midnightblue" points="228.6,-258.17 218.54,-254.83 224.32,-263.71 228.6,-258.17"/>
</g>
<!-- Node3 -->
<g id="node3" class="node">
<title>Node3</title>
<g id="a_node3"><a xlink:href="map_8h.html" target="_top" xlink:title="HAL for uC Peripheral Map.">
<polygon fill="none" stroke="black" points="253.59,-235.5 253.59,-254.5 300.59,-254.5 300.59,-235.5 253.59,-235.5"/>
<text text-anchor="middle" x="277.09" y="-242.5" font-family="Helvetica,sans-Serif" font-size="10.00">map.h</text>
</a>
</g>
</g>
<!-- Node1&#45;&gt;Node3 -->
<g id="edge2" class="edge">
<title>Node1&#45;&gt;Node3</title>
<path fill="none" stroke="midnightblue" d="M277.09,-291.08C277.09,-284.01 277.09,-273.86 277.09,-264.99"/>
<polygon fill="midnightblue" stroke="midnightblue" points="280.59,-264.75 277.09,-254.75 273.59,-264.75 280.59,-264.75"/>
</g>
<!-- Node13 -->
<g id="node13" class="node">
<title>Node13</title>
<g id="a_node13"><a xlink:title=" ">
<polygon fill="none" stroke="#bfbfbf" points="318.59,-235.5 318.59,-254.5 433.59,-254.5 433.59,-235.5 318.59,-235.5"/>
<text text-anchor="middle" x="376.09" y="-242.5" font-family="Helvetica,sans-Serif" font-size="10.00">platform/transport.h</text>
</a>
</g>
</g>
<!-- Node1&#45;&gt;Node13 -->
<g id="edge13" class="edge">
<title>Node1&#45;&gt;Node13</title>
<path fill="none" stroke="midnightblue" d="M293,-291.32C308.73,-282.74 333.04,-269.49 351.3,-259.52"/>
<polygon fill="midnightblue" stroke="midnightblue" points="353.12,-262.52 360.23,-254.65 349.77,-256.37 353.12,-262.52"/>
</g>
<!-- Node4 -->
<g id="node4" class="node">
<title>Node4</title>
<g id="a_node4"><a xlink:title=" ">
<polygon fill="none" stroke="#bfbfbf" points="4.59,-0.5 4.59,-19.5 57.59,-19.5 57.59,-0.5 4.59,-0.5"/>
<text text-anchor="middle" x="31.09" y="-7.5" font-family="Helvetica,sans-Serif" font-size="10.00">stdint.h</text>
</a>
</g>
</g>
<!-- Node3&#45;&gt;Node4 -->
<g id="edge3" class="edge">
<title>Node3&#45;&gt;Node4</title>
<path fill="none" stroke="midnightblue" d="M253.37,-237.21C250.26,-236.41 247.11,-235.65 244.09,-235 195.25,-224.41 54.48,-237.06 22.09,-199 -19.34,-150.3 7.83,-66.21 22.93,-29.28"/>
<polygon fill="midnightblue" stroke="midnightblue" points="26.27,-30.38 26.97,-19.8 19.83,-27.63 26.27,-30.38"/>
</g>
<!-- Node5 -->
<g id="node5" class="node">
<title>Node5</title>
<g id="a_node5"><a xlink:title=" ">
<polygon fill="none" stroke="#bfbfbf" points="31.09,-174 31.09,-193 129.09,-193 129.09,-174 31.09,-174"/>
<text text-anchor="middle" x="80.09" y="-181" font-family="Helvetica,sans-Serif" font-size="10.00">platform/types.h</text>
</a>
</g>
</g>
<!-- Node3&#45;&gt;Node5 -->
<g id="edge4" class="edge">
<title>Node3&#45;&gt;Node5</title>
<path fill="none" stroke="midnightblue" d="M253.33,-236.82C219.75,-226.68 158.04,-208.04 118.06,-195.97"/>
<polygon fill="midnightblue" stroke="midnightblue" points="118.98,-192.59 108.39,-193.05 116.96,-199.29 118.98,-192.59"/>
</g>
<!-- Node6 -->
<g id="node6" class="node">
<title>Node6</title>
<g id="a_node6"><a xlink:href="types_8h_source.html" target="_top" xlink:title=" ">
<polygon fill="none" stroke="black" points="147.59,-174 147.59,-193 218.59,-193 218.59,-174 147.59,-174"/>
<text text-anchor="middle" x="183.09" y="-181" font-family="Helvetica,sans-Serif" font-size="10.00">hal/types.h</text>
</a>
</g>
</g>
<!-- Node3&#45;&gt;Node6 -->
<g id="edge5" class="edge">
<title>Node3&#45;&gt;Node6</title>
<path fill="none" stroke="midnightblue" d="M263.63,-235.48C248.41,-225.84 223.41,-210.02 205.29,-198.55"/>
<polygon fill="midnightblue" stroke="midnightblue" points="206.86,-195.4 196.54,-193.01 203.11,-201.31 206.86,-195.4"/>
</g>
<!-- Node9 -->
<g id="node9" class="node">
<title>Node9</title>
<g id="a_node9"><a xlink:title=" ">
<polygon fill="none" stroke="#bfbfbf" points="237.09,-174 237.09,-193 317.09,-193 317.09,-174 237.09,-174"/>
<text text-anchor="middle" x="277.09" y="-181" font-family="Helvetica,sans-Serif" font-size="10.00">application.h</text>
</a>
</g>
</g>
<!-- Node3&#45;&gt;Node9 -->
<g id="edge9" class="edge">
<title>Node3&#45;&gt;Node9</title>
<path fill="none" stroke="midnightblue" d="M277.09,-235.48C277.09,-227.08 277.09,-213.98 277.09,-203.16"/>
<polygon fill="midnightblue" stroke="midnightblue" points="280.59,-203.01 277.09,-193.01 273.59,-203.01 280.59,-203.01"/>
</g>
<!-- Node10 -->
<g id="node10" class="node">
<title>Node10</title>
<g id="a_node10"><a xlink:title=" ">
<polygon fill="none" stroke="#bfbfbf" points="335.59,-174 335.59,-193 436.59,-193 436.59,-174 335.59,-174"/>
<text text-anchor="middle" x="386.09" y="-181" font-family="Helvetica,sans-Serif" font-size="10.00">platform/debug.h</text>
</a>
</g>
</g>
<!-- Node3&#45;&gt;Node10 -->
<g id="edge10" class="edge">
<title>Node3&#45;&gt;Node10</title>
<path fill="none" stroke="midnightblue" d="M292.71,-235.48C310.68,-225.67 340.42,-209.43 361.5,-197.92"/>
<polygon fill="midnightblue" stroke="midnightblue" points="363.41,-200.87 370.51,-193.01 360.05,-194.73 363.41,-200.87"/>
</g>
<!-- Node11 -->
<g id="node11" class="node">
<title>Node11</title>
<g id="a_node11"><a xlink:title=" ">
<polygon fill="none" stroke="#bfbfbf" points="455.09,-174 455.09,-193 543.09,-193 543.09,-174 455.09,-174"/>
<text text-anchor="middle" x="499.09" y="-181" font-family="Helvetica,sans-Serif" font-size="10.00">platform/cpu.h</text>
</a>
</g>
</g>
<!-- Node3&#45;&gt;Node11 -->
<g id="edge11" class="edge">
<title>Node3&#45;&gt;Node11</title>
<path fill="none" stroke="midnightblue" d="M300.88,-237.49C303.98,-236.65 307.11,-235.8 310.09,-235 370.48,-218.77 385.72,-215.25 446.09,-199 449.97,-197.96 454.01,-196.86 458.05,-195.77"/>
<polygon fill="midnightblue" stroke="midnightblue" points="459.27,-199.06 468,-193.05 457.43,-192.31 459.27,-199.06"/>
</g>
<!-- Node12 -->
<g id="node12" class="node">
<title>Node12</title>
<g id="a_node12"><a xlink:title=" ">
<polygon fill="none" stroke="#bfbfbf" points="561.09,-168.5 561.09,-198.5 681.09,-198.5 681.09,-168.5 561.09,-168.5"/>
<text text-anchor="start" x="569.09" y="-186.5" font-family="Helvetica,sans-Serif" font-size="10.00">hal_platform/uc_map</text>
<text text-anchor="middle" x="621.09" y="-175.5" font-family="Helvetica,sans-Serif" font-size="10.00">_impl.h</text>
</a>
</g>
</g>
<!-- Node3&#45;&gt;Node12 -->
<g id="edge12" class="edge">
<title>Node3&#45;&gt;Node12</title>
<path fill="none" stroke="midnightblue" d="M300.8,-237.17C303.92,-236.38 307.07,-235.63 310.09,-235 413.39,-213.31 443.32,-217.89 550.96,-199.13"/>
<polygon fill="midnightblue" stroke="midnightblue" points="551.69,-202.55 560.92,-197.36 550.47,-195.66 551.69,-202.55"/>
</g>
<!-- Node7 -->
<g id="node7" class="node">
<title>Node7</title>
<g id="a_node7"><a xlink:href="types_2all_8h_source.html" target="_top" xlink:title=" ">
<polygon fill="none" stroke="black" points="90.09,-112.5 90.09,-131.5 158.09,-131.5 158.09,-112.5 90.09,-112.5"/>
<text text-anchor="middle" x="124.09" y="-119.5" font-family="Helvetica,sans-Serif" font-size="10.00">types/all.h</text>
</a>
</g>
</g>
<!-- Node6&#45;&gt;Node7 -->
<g id="edge6" class="edge">
<title>Node6&#45;&gt;Node7</title>
<path fill="none" stroke="midnightblue" d="M174.64,-173.98C165.53,-164.78 150.82,-149.96 139.62,-138.66"/>
<polygon fill="midnightblue" stroke="midnightblue" points="142.06,-136.15 132.53,-131.51 137.09,-141.07 142.06,-136.15"/>
</g>
<!-- Node8 -->
<g id="node8" class="node">
<title>Node8</title>
<g id="a_node8"><a xlink:href="types_2crypto_8h_source.html" target="_top" xlink:title=" ">
<polygon fill="none" stroke="black" points="63.09,-56.5 63.09,-75.5 119.09,-75.5 119.09,-56.5 63.09,-56.5"/>
<text text-anchor="middle" x="91.09" y="-63.5" font-family="Helvetica,sans-Serif" font-size="10.00">crypto.h</text>
</a>
</g>
</g>
<!-- Node7&#45;&gt;Node8 -->
<g id="edge7" class="edge">
<title>Node7&#45;&gt;Node8</title>
<path fill="none" stroke="midnightblue" d="M118.64,-112.08C114.08,-104.61 107.43,-93.72 101.8,-84.52"/>
<polygon fill="midnightblue" stroke="midnightblue" points="104.64,-82.46 96.44,-75.75 98.67,-86.11 104.64,-82.46"/>
</g>
<!-- Node8&#45;&gt;Node4 -->
<g id="edge8" class="edge">
<title>Node8&#45;&gt;Node4</title>
<path fill="none" stroke="midnightblue" d="M81.45,-56.32C72.58,-48.34 59.22,-36.31 48.49,-26.65"/>
<polygon fill="midnightblue" stroke="midnightblue" points="50.68,-23.92 40.91,-19.83 46,-29.13 50.68,-23.92"/>
</g>
</g>
</svg>
        <g id="navigator" transform="translate(0 0)" fill="#404254">
                <rect fill="#f2f5e9" fill-opacity="0.5" stroke="#606060" stroke-width=".5" x="0" y="0" width="60" height="60"/>
                <use id="zoomplus" xlink:href="#zoomPlus" x="17" y="9" onmousedown="handleZoom(evt,'in')"/>
                <use id="zoomminus" xlink:href="#zoomMin" x="42" y="9" onmousedown="handleZoom(evt,'out')"/>
                <use id="reset" xlink:href="#resetDef" x="30" y="36" onmousedown="handleReset()"/>
                <g id="arrowUp" xlink:href="#dirArrow" transform="translate(30 24)" onmousedown="handlePan(0,-1)">
                  <use xlink:href="#rim" fill="#404040">
                        <set attributeName="fill" to="#808080" begin="arrowUp.mouseover" end="arrowUp.mouseout"/>
                  </use>
                  <path fill="none" stroke="white" stroke-width="1.5" d="M0,-3.0v7 M-2.5,-0.5L0,-3.0L2.5,-0.5"/>
                </g>
                <g id="arrowRight" xlink:href="#dirArrow" transform="rotate(90) translate(36 -43)" onmousedown="handlePan(1,0)">
                  <use xlink:href="#rim" fill="#404040">
                        <set attributeName="fill" to="#808080" begin="arrowRight.mouseover" end="arrowRight.mouseout"/>
                  </use>
                  <path fill="none" stroke="white" stroke-width="1.5" d="M0,-3.0v7 M-2.5,-0.5L0,-3.0L2.5,-0.5"/>
                </g>
                <g id="arrowDown" xlink:href="#dirArrow" transform="rotate(180) translate(-30 -48)" onmousedown="handlePan(0,1)">
                  <use xlink:href="#rim" fill="#404040">
                        <set attributeName="fill" to="#808080" begin="arrowDown.mouseover" end="arrowDown.mouseout"/>
                  </use>
                  <path fill="none" stroke="white" stroke-width="1.5" d="M0,-3.0v7 M-2.5,-0.5L0,-3.0L2.5,-0.5"/>
                </g>
                <g id="arrowLeft" xlink:href="#dirArrow" transform="rotate(270) translate(-36 17)" onmousedown="handlePan(-1,0)">
                  <use xlink:href="#rim" fill="#404040">
                        <set attributeName="fill" to="#808080" begin="arrowLeft.mouseover" end="arrowLeft.mouseout"/>
                  </use>
                  <path fill="none" stroke="white" stroke-width="1.5" d="M0,-3.0v7 M-2.5,-0.5L0,-3.0L2.5,-0.5"/>
                </g>
        </g>
        <svg viewBox="0 0 15 15" width="100%" height="30px" preserveAspectRatio="xMaxYMin meet">
         <g id="arrow_out" transform="scale(0.3 0.3)">
          <a xlink:href="usbcdc_8h__incl_org.svg" target="_base">
           <rect id="button" ry="5" rx="5" y="6" x="6" height="38" width="38"
                fill="#f2f5e9" fill-opacity="0.5" stroke="#606060" stroke-width="1.0"/>
           <path id="arrow"
             d="M 11.500037,31.436501 C 11.940474,20.09759 22.043105,11.32322 32.158766,21.979434 L 37.068811,17.246167 C 37.068811,17.246167 37.088388,32 37.088388,32 L 22.160133,31.978069 C 22.160133,31.978069 26.997745,27.140456 26.997745,27.140456 C 18.528582,18.264221 13.291696,25.230495 11.500037,31.436501 z"
             style="fill:#404040;"/>
          </a>
         </g>
        </svg>
</svg>
